<svg width="169" height="46" viewBox="0 0 169 46" fill="none" xmlns="http://www.w3.org/2000/svg">
<path d="M69.0526 7.76451V29.7642H67.0364V26.6807C66.4039 27.7283 65.5639 28.5288 64.5163 29.0822C63.4884 29.6357 62.3222 29.9124 61.0177 29.9124C59.555 29.9124 58.2307 29.5764 57.0447 28.9043C55.8587 28.2323 54.9297 27.2934 54.2577 26.0877C53.5856 24.8819 53.2496 23.5082 53.2496 21.9664C53.2496 20.4247 53.5856 19.0509 54.2577 17.8452C54.9297 16.6395 55.8587 15.7105 57.0447 15.0582C58.2307 14.3861 59.555 14.0501 61.0177 14.0501C62.2827 14.0501 63.4193 14.317 64.4273 14.8507C65.4552 15.3646 66.2952 16.1256 66.9475 17.1336V7.76451H69.0526ZM61.1956 28.0445C62.2827 28.0445 63.2611 27.7974 64.1308 27.3033C65.0203 26.7894 65.7121 26.0679 66.2063 25.1389C66.7202 24.2099 66.9771 23.1524 66.9771 21.9664C66.9771 20.7805 66.7202 19.723 66.2063 18.794C65.7121 17.865 65.0203 17.1534 64.1308 16.6592C63.2611 16.1453 62.2827 15.8884 61.1956 15.8884C60.0887 15.8884 59.0905 16.1453 58.201 16.6592C57.3313 17.1534 56.6395 17.865 56.1256 18.794C55.6314 19.723 55.3843 20.7805 55.3843 21.9664C55.3843 23.1524 55.6314 24.2099 56.1256 25.1389C56.6395 26.0679 57.3313 26.7894 58.201 27.3033C59.0905 27.7974 60.0887 28.0445 61.1956 28.0445ZM80.5207 14.0501C82.5566 14.0501 84.1181 14.564 85.2052 15.5919C86.2924 16.5999 86.8359 18.1022 86.8359 20.0985V29.7642H84.8198V27.3329C84.3454 28.1433 83.6437 28.7759 82.7147 29.2305C81.8055 29.6851 80.7183 29.9124 79.4533 29.9124C77.7139 29.9124 76.3303 29.4973 75.3024 28.6671C74.2746 27.837 73.7607 26.7399 73.7607 25.3761C73.7607 24.0518 74.2351 22.9844 75.1838 22.174C76.1524 21.3636 77.6842 20.9584 79.7794 20.9584H84.7308V20.0096C84.7308 18.6655 84.3553 17.6476 83.6042 16.9557C82.8531 16.2442 81.7561 15.8884 80.3131 15.8884C79.3248 15.8884 78.3761 16.0564 77.4668 16.3924C76.5576 16.7087 75.7768 17.1534 75.1245 17.7266L74.1758 16.1552C74.9664 15.4832 75.9152 14.9692 77.0221 14.6135C78.129 14.2379 79.2952 14.0501 80.5207 14.0501ZM79.7794 28.2521C80.9654 28.2521 81.9834 27.9852 82.8333 27.4515C83.6832 26.8981 84.3158 26.1074 84.7308 25.0796V22.5298H79.8387C77.1703 22.5298 75.8361 23.4588 75.8361 25.3168C75.8361 26.226 76.182 26.9475 76.8738 27.4812C77.5656 27.9951 78.5342 28.2521 79.7794 28.2521ZM100.916 28.8154C100.521 29.1712 100.027 29.4479 99.4339 29.6456C98.8607 29.8235 98.2579 29.9124 97.6253 29.9124C96.1626 29.9124 95.036 29.5171 94.2453 28.7264C93.4547 27.9358 93.0594 26.819 93.0594 25.3761V15.9477H90.2724V14.1687H93.0594V10.7591H95.1645V14.1687H99.9083V15.9477H95.1645V25.2575C95.1645 26.1865 95.3918 26.8981 95.8464 27.3922C96.3208 27.8666 96.9928 28.1038 97.8625 28.1038C98.2974 28.1038 98.7125 28.0346 99.1078 27.8963C99.5229 27.7579 99.8787 27.5602 100.175 27.3033L100.916 28.8154ZM110.354 14.0501C112.39 14.0501 113.951 14.564 115.039 15.5919C116.126 16.5999 116.669 18.1022 116.669 20.0985V29.7642H114.653V27.3329C114.179 28.1433 113.477 28.7759 112.548 29.2305C111.639 29.6851 110.552 29.9124 109.287 29.9124C107.547 29.9124 106.164 29.4973 105.136 28.6671C104.108 27.837 103.594 26.7399 103.594 25.3761C103.594 24.0518 104.068 22.9844 105.017 22.174C105.986 21.3636 107.518 20.9584 109.613 20.9584H114.564V20.0096C114.564 18.6655 114.189 17.6476 113.437 16.9557C112.686 16.2442 111.589 15.8884 110.146 15.8884C109.158 15.8884 108.209 16.0564 107.3 16.3924C106.391 16.7087 105.61 17.1534 104.958 17.7266L104.009 16.1552C104.8 15.4832 105.748 14.9692 106.855 14.6135C107.962 14.2379 109.128 14.0501 110.354 14.0501ZM109.613 28.2521C110.799 28.2521 111.817 27.9852 112.667 27.4515C113.517 26.8981 114.149 26.1074 114.564 25.0796V22.5298H109.672C107.004 22.5298 105.669 23.4588 105.669 25.3168C105.669 26.226 106.015 26.9475 106.707 27.4812C107.399 27.9951 108.367 28.2521 109.613 28.2521ZM122.744 29.9124C122.31 29.9124 121.934 29.7543 121.618 29.438C121.321 29.1218 121.173 28.7363 121.173 28.2817C121.173 27.8271 121.321 27.4515 121.618 27.155C121.934 26.8388 122.31 26.6807 122.744 26.6807C123.179 26.6807 123.555 26.8388 123.871 27.155C124.187 27.4515 124.345 27.8271 124.345 28.2817C124.345 28.7363 124.187 29.1218 123.871 29.438C123.555 29.7543 123.179 29.9124 122.744 29.9124ZM130.986 17.2226C131.48 16.175 132.212 15.3843 133.18 14.8507C134.168 14.317 135.384 14.0501 136.827 14.0501V16.0959L136.323 16.0663C134.682 16.0663 133.398 16.5703 132.469 17.5784C131.54 18.5864 131.075 19.9997 131.075 21.8182V29.7642H128.97V14.1687H130.986V17.2226ZM146.215 14.0501C148.251 14.0501 149.812 14.564 150.9 15.5919C151.987 16.5999 152.53 18.1022 152.53 20.0985V29.7642H150.514V27.3329C150.04 28.1433 149.338 28.7759 148.409 29.2305C147.5 29.6851 146.413 29.9124 145.148 29.9124C143.408 29.9124 142.025 29.4973 140.997 28.6671C139.969 27.837 139.455 26.7399 139.455 25.3761C139.455 24.0518 139.929 22.9844 140.878 22.174C141.847 21.3636 143.379 20.9584 145.474 20.9584H150.425V20.0096C150.425 18.6655 150.05 17.6476 149.298 16.9557C148.547 16.2442 147.45 15.8884 146.007 15.8884C145.019 15.8884 144.07 16.0564 143.161 16.3924C142.252 16.7087 141.471 17.1534 140.819 17.7266L139.87 16.1552C140.661 15.4832 141.609 14.9692 142.716 14.6135C143.823 14.2379 144.989 14.0501 146.215 14.0501ZM145.474 28.2521C146.66 28.2521 147.678 27.9852 148.528 27.4515C149.378 26.8981 150.01 26.1074 150.425 25.0796V22.5298H145.533C142.865 22.5298 141.53 23.4588 141.53 25.3168C141.53 26.226 141.876 26.9475 142.568 27.4812C143.26 27.9951 144.228 28.2521 145.474 28.2521ZM160.414 17.2226C160.908 16.175 161.64 15.3843 162.608 14.8507C163.596 14.317 164.812 14.0501 166.255 14.0501V16.0959L165.751 16.0663C164.11 16.0663 162.826 16.5703 161.896 17.5784C160.967 18.5864 160.503 19.9997 160.503 21.8182V29.7642H158.398V14.1687H160.414V17.2226Z" fill="#FE840E"/>
<path d="M28.1667 26.0126H19.0051C18.7837 25.3909 18.4268 24.8262 17.9601 24.3595C17.4934 23.8929 16.9288 23.5359 16.307 23.3146V18.6003H21.0064C22.5761 18.6519 24.1103 18.1262 25.3184 17.1228C26.5266 16.1193 27.325 14.7077 27.5624 13.1552C27.7999 11.6027 27.4599 10.017 26.6069 8.69833C25.7539 7.37963 24.447 6.41942 22.9336 5.99946C22.1408 4.24287 20.799 2.79127 19.11 1.86314C17.421 0.934998 15.4762 0.580532 13.5684 0.85308C11.6605 1.12563 9.89284 2.01045 8.53128 3.37438C7.16973 4.73831 6.28799 6.50756 6.01877 8.41587C4.81234 8.75418 3.76908 9.51763 3.08168 10.5652C2.39428 11.6128 2.10918 12.8737 2.27903 14.1151C2.44889 15.3565 3.06223 16.4946 4.00577 17.319C4.94931 18.1434 6.15931 18.5985 7.41228 18.6003H13.3421V23.3146C12.7204 23.5359 12.1557 23.8929 11.689 24.3595C11.2223 24.8262 10.8654 25.3909 10.644 26.0126H1.48246C1.08928 26.0126 0.712216 26.1688 0.434201 26.4468C0.156187 26.7248 0 27.1019 0 27.4951C0 27.8883 0.156187 28.2653 0.434201 28.5433C0.712216 28.8213 1.08928 28.9775 1.48246 28.9775H10.644C10.9557 29.8361 11.5241 30.5779 12.272 31.1021C13.02 31.6264 13.9112 31.9076 14.8246 31.9076C15.7379 31.9076 16.6292 31.6264 17.3771 31.1021C18.1251 30.5779 18.6935 29.8361 19.0051 28.9775H28.1667C28.5598 28.9775 28.9369 28.8213 29.2149 28.5433C29.4929 28.2653 29.6491 27.8883 29.6491 27.4951C29.6491 27.1019 29.4929 26.7248 29.2149 26.4468C28.9369 26.1688 28.5598 26.0126 28.1667 26.0126ZM7.41228 15.6354C6.82252 15.6354 6.25692 15.4011 5.8399 14.9841C5.42288 14.5671 5.1886 14.0015 5.1886 13.4117C5.1886 12.822 5.42288 12.2564 5.8399 11.8394C6.25692 11.4223 6.82252 11.1881 7.41228 11.1881C7.80545 11.1881 8.18252 11.0319 8.46053 10.7539C8.73855 10.4758 8.89474 10.0988 8.89474 9.7056C8.89086 8.29806 9.38779 6.93503 10.2967 5.86026C11.2056 4.78549 12.4671 4.06907 13.8558 3.83911C15.2444 3.60916 16.6696 3.88066 17.8764 4.60508C19.0832 5.32949 19.993 6.45957 20.4431 7.79324C20.5278 8.04798 20.6801 8.27493 20.8838 8.44987C21.0874 8.6248 21.3348 8.74114 21.5994 8.78648C22.4018 8.92029 23.1304 9.33539 23.6546 9.95743C24.1789 10.5795 24.4646 11.3678 24.4605 12.1813C24.4566 13.0962 24.0915 13.9725 23.4445 14.6194C22.7976 15.2664 21.9213 15.6315 21.0064 15.6354H7.41228ZM14.8246 28.9775C14.5314 28.9775 14.2447 28.8906 14.001 28.7277C13.7572 28.5648 13.5672 28.3333 13.4549 28.0624C13.3427 27.7915 13.3134 27.4934 13.3706 27.2059C13.4278 26.9183 13.569 26.6541 13.7763 26.4468C13.9836 26.2395 14.2478 26.0983 14.5353 26.0411C14.8229 25.9839 15.121 26.0133 15.3919 26.1255C15.6628 26.2377 15.8943 26.4277 16.0572 26.6715C16.2201 26.9153 16.307 27.2019 16.307 27.4951C16.307 27.8883 16.1508 28.2653 15.8728 28.5433C15.5948 28.8213 15.2177 28.9775 14.8246 28.9775Z" fill="#FE840E"/>
</svg>
