<svg width="60" height="60" viewBox="0 0 60 60" fill="none" xmlns="http://www.w3.org/2000/svg">
<g clip-path="url(#clip0_86_6278)">
<g filter="url(#filter0_i_86_6278)">
<path fill-rule="evenodd" clip-rule="evenodd" d="M29.7345 1.06194C45.8632 1.06194 58.9381 14.1368 58.9381 30.2655C58.9381 46.3942 45.8632 59.469 29.7345 59.469C13.6058 59.469 0.531 46.3942 0.531 30.2655C0.531 14.1368 13.6058 1.06194 29.7345 1.06194Z" fill="#FFEE40"/>
<path fill-rule="evenodd" clip-rule="evenodd" d="M29.7345 1.06194C45.8632 1.06194 58.9381 14.1368 58.9381 30.2655C58.9381 46.3942 45.8632 59.469 29.7345 59.469C13.6058 59.469 0.531 46.3942 0.531 30.2655C0.531 14.1368 13.6058 1.06194 29.7345 1.06194Z" fill="url(#paint0_linear_86_6278)" style="mix-blend-mode:overlay"/>
</g>
<path fill-rule="evenodd" clip-rule="evenodd" d="M29.7346 3.7167C44.397 3.7167 56.2834 16.0784 56.2834 31.3274C56.2834 46.5763 44.397 58.938 29.7346 58.938C15.0722 58.938 3.18598 46.5763 3.18598 31.3274C3.18598 16.0784 15.0722 3.7167 29.7346 3.7167Z" fill="url(#paint1_linear_86_6278)"/>
<path fill-rule="evenodd" clip-rule="evenodd" d="M29.7346 3.7167C44.397 3.7167 56.2834 16.0784 56.2834 31.3274C56.2834 46.5763 44.397 58.938 29.7346 58.938C15.0722 58.938 3.18598 46.5763 3.18598 31.3274C3.18598 16.0784 15.0722 3.7167 29.7346 3.7167Z" fill="url(#paint2_linear_86_6278)" style="mix-blend-mode:overlay"/>
<g filter="url(#filter1_dii_86_6278)">
<path fill-rule="evenodd" clip-rule="evenodd" d="M21.5045 13.8054C23.1174 13.8054 24.4249 17.3712 24.4249 21.77C24.4249 26.1687 23.1174 29.7346 21.5045 29.7346C19.8917 29.7346 18.5842 26.1687 18.5842 21.77C18.5842 17.3712 19.8917 13.8054 21.5045 13.8054Z" fill="#A66707"/>
</g>
<g filter="url(#filter2_dii_86_6278)">
<path fill-rule="evenodd" clip-rule="evenodd" d="M37.9645 13.8054C39.5774 13.8054 40.8849 17.3712 40.8849 21.77C40.8849 26.1687 39.5774 29.7346 37.9645 29.7346C36.3516 29.7346 35.0442 26.1687 35.0442 21.77C35.0442 17.3712 36.3516 13.8054 37.9645 13.8054Z" fill="#A66707"/>
</g>
<g filter="url(#filter3_dii_86_6278)">
<path fill-rule="evenodd" clip-rule="evenodd" d="M13.1398 34.5861C16.706 35.7092 21.3385 37.1682 29.2034 37.1682H29.2195H29.7344H29.7501C37.6084 37.1682 42.2371 35.7092 45.8004 34.5861C46.4961 34.3668 47.1512 34.1603 47.7819 33.98C48.8225 33.98 48.8494 34.7108 48.8494 35.5752C48.8494 39.9972 46.644 43.7465 43.0135 47.2567C39.5921 50.5647 34.9001 52.5664 29.7501 52.5664C29.7501 52.558 29.7445 52.5514 29.7344 52.5463V52.5664C29.7344 52.5664 29.6069 52.5469 29.4768 52.5366C29.3469 52.5469 29.2195 52.5664 29.2195 52.5664V52.5461C29.2091 52.5513 29.2034 52.5579 29.2034 52.5664C24.0492 52.5664 19.3533 50.5647 15.9291 47.2567C12.2956 43.7465 10.0884 39.9972 10.0884 35.5752C10.0884 34.7108 10.1153 33.98 11.1568 33.98C11.7879 34.1603 12.4435 34.3668 13.1398 34.5861Z" fill="#A66707"/>
</g>
<g filter="url(#filter4_di_86_6278)">
<path fill-rule="evenodd" clip-rule="evenodd" d="M29.3029 38.7609C38.3709 38.7479 46.1663 36.9505 47.5223 35.5751C47.5223 37.6894 46.7871 40.0338 46.2098 40.6194C45.6325 41.2049 36.0357 43.2742 29.2037 43.2742V43.2438C29.2037 43.2541 29.2036 43.2643 29.2036 43.2744C22.2741 43.2744 13.3289 41.205 12.7434 40.6195C12.1579 40.034 11.416 37.6789 11.416 35.5752C12.7881 36.9474 20.1397 38.7394 29.3029 38.7609Z" fill="white"/>
<path fill-rule="evenodd" clip-rule="evenodd" d="M29.3029 38.7609C38.3709 38.7479 46.1663 36.9505 47.5223 35.5751C47.5223 37.6894 46.7871 40.0338 46.2098 40.6194C45.6325 41.2049 36.0357 43.2742 29.2037 43.2742V43.2438C29.2037 43.2541 29.2036 43.2643 29.2036 43.2744C22.2741 43.2744 13.3289 41.205 12.7434 40.6195C12.1579 40.034 11.416 37.6789 11.416 35.5752C12.7881 36.9474 20.1397 38.7394 29.3029 38.7609Z" fill="url(#paint3_linear_86_6278)"/>
</g>
</g>
<defs>
<filter id="filter0_i_86_6278" x="0.530762" y="-23.9381" width="58.4072" height="83.4071" filterUnits="userSpaceOnUse" color-interpolation-filters="sRGB">
<feFlood flood-opacity="0" result="BackgroundImageFix"/>
<feBlend mode="normal" in="SourceGraphic" in2="BackgroundImageFix" result="shape"/>
<feColorMatrix in="SourceAlpha" type="matrix" values="0 0 0 0 0 0 0 0 0 0 0 0 0 0 0 0 0 0 127 0" result="hardAlpha"/>
<feOffset dy="-25"/>
<feGaussianBlur stdDeviation="30"/>
<feComposite in2="hardAlpha" operator="arithmetic" k2="-1" k3="1"/>
<feColorMatrix type="matrix" values="0 0 0 0 1 0 0 0 0 0.603922 0 0 0 0 0 0 0 0 1 0"/>
<feBlend mode="normal" in2="shape" result="effect1_innerShadow_86_6278"/>
</filter>
<filter id="filter1_dii_86_6278" x="17.584" y="13.8054" width="7.84082" height="17.9292" filterUnits="userSpaceOnUse" color-interpolation-filters="sRGB">
<feFlood flood-opacity="0" result="BackgroundImageFix"/>
<feColorMatrix in="SourceAlpha" type="matrix" values="0 0 0 0 0 0 0 0 0 0 0 0 0 0 0 0 0 0 127 0" result="hardAlpha"/>
<feOffset dy="1"/>
<feGaussianBlur stdDeviation="0.5"/>
<feColorMatrix type="matrix" values="0 0 0 0 1 0 0 0 0 1 0 0 0 0 1 0 0 0 1 0"/>
<feBlend mode="normal" in2="BackgroundImageFix" result="effect1_dropShadow_86_6278"/>
<feBlend mode="normal" in="SourceGraphic" in2="effect1_dropShadow_86_6278" result="shape"/>
<feColorMatrix in="SourceAlpha" type="matrix" values="0 0 0 0 0 0 0 0 0 0 0 0 0 0 0 0 0 0 127 0" result="hardAlpha"/>
<feOffset dy="2"/>
<feGaussianBlur stdDeviation="2.3"/>
<feComposite in2="hardAlpha" operator="arithmetic" k2="-1" k3="1"/>
<feColorMatrix type="matrix" values="0 0 0 0 0 0 0 0 0 0 0 0 0 0 0 0 0 0 1 0"/>
<feBlend mode="normal" in2="shape" result="effect2_innerShadow_86_6278"/>
<feColorMatrix in="SourceAlpha" type="matrix" values="0 0 0 0 0 0 0 0 0 0 0 0 0 0 0 0 0 0 127 0" result="hardAlpha"/>
<feOffset/>
<feGaussianBlur stdDeviation="1.5"/>
<feComposite in2="hardAlpha" operator="arithmetic" k2="-1" k3="1"/>
<feColorMatrix type="matrix" values="0 0 0 0 0 0 0 0 0 0 0 0 0 0 0 0 0 0 0.75 0"/>
<feBlend mode="normal" in2="effect2_innerShadow_86_6278" result="effect3_innerShadow_86_6278"/>
</filter>
<filter id="filter2_dii_86_6278" x="34.0442" y="13.8054" width="7.84058" height="17.9292" filterUnits="userSpaceOnUse" color-interpolation-filters="sRGB">
<feFlood flood-opacity="0" result="BackgroundImageFix"/>
<feColorMatrix in="SourceAlpha" type="matrix" values="0 0 0 0 0 0 0 0 0 0 0 0 0 0 0 0 0 0 127 0" result="hardAlpha"/>
<feOffset dy="1"/>
<feGaussianBlur stdDeviation="0.5"/>
<feColorMatrix type="matrix" values="0 0 0 0 1 0 0 0 0 1 0 0 0 0 1 0 0 0 1 0"/>
<feBlend mode="normal" in2="BackgroundImageFix" result="effect1_dropShadow_86_6278"/>
<feBlend mode="normal" in="SourceGraphic" in2="effect1_dropShadow_86_6278" result="shape"/>
<feColorMatrix in="SourceAlpha" type="matrix" values="0 0 0 0 0 0 0 0 0 0 0 0 0 0 0 0 0 0 127 0" result="hardAlpha"/>
<feOffset dy="2"/>
<feGaussianBlur stdDeviation="2.3"/>
<feComposite in2="hardAlpha" operator="arithmetic" k2="-1" k3="1"/>
<feColorMatrix type="matrix" values="0 0 0 0 0 0 0 0 0 0 0 0 0 0 0 0 0 0 1 0"/>
<feBlend mode="normal" in2="shape" result="effect2_innerShadow_86_6278"/>
<feColorMatrix in="SourceAlpha" type="matrix" values="0 0 0 0 0 0 0 0 0 0 0 0 0 0 0 0 0 0 127 0" result="hardAlpha"/>
<feOffset/>
<feGaussianBlur stdDeviation="1.5"/>
<feComposite in2="hardAlpha" operator="arithmetic" k2="-1" k3="1"/>
<feColorMatrix type="matrix" values="0 0 0 0 0 0 0 0 0 0 0 0 0 0 0 0 0 0 0.75 0"/>
<feBlend mode="normal" in2="effect2_innerShadow_86_6278" result="effect3_innerShadow_86_6278"/>
</filter>
<filter id="filter3_dii_86_6278" x="9.08838" y="33.98" width="40.761" height="20.5864" filterUnits="userSpaceOnUse" color-interpolation-filters="sRGB">
<feFlood flood-opacity="0" result="BackgroundImageFix"/>
<feColorMatrix in="SourceAlpha" type="matrix" values="0 0 0 0 0 0 0 0 0 0 0 0 0 0 0 0 0 0 127 0" result="hardAlpha"/>
<feOffset dy="1"/>
<feGaussianBlur stdDeviation="0.5"/>
<feColorMatrix type="matrix" values="0 0 0 0 1 0 0 0 0 1 0 0 0 0 1 0 0 0 0.4 0"/>
<feBlend mode="normal" in2="BackgroundImageFix" result="effect1_dropShadow_86_6278"/>
<feBlend mode="normal" in="SourceGraphic" in2="effect1_dropShadow_86_6278" result="shape"/>
<feColorMatrix in="SourceAlpha" type="matrix" values="0 0 0 0 0 0 0 0 0 0 0 0 0 0 0 0 0 0 127 0" result="hardAlpha"/>
<feOffset dy="2"/>
<feGaussianBlur stdDeviation="2.3"/>
<feComposite in2="hardAlpha" operator="arithmetic" k2="-1" k3="1"/>
<feColorMatrix type="matrix" values="0 0 0 0 0 0 0 0 0 0 0 0 0 0 0 0 0 0 1 0"/>
<feBlend mode="normal" in2="shape" result="effect2_innerShadow_86_6278"/>
<feColorMatrix in="SourceAlpha" type="matrix" values="0 0 0 0 0 0 0 0 0 0 0 0 0 0 0 0 0 0 127 0" result="hardAlpha"/>
<feOffset/>
<feGaussianBlur stdDeviation="1.5"/>
<feComposite in2="hardAlpha" operator="arithmetic" k2="-1" k3="1"/>
<feColorMatrix type="matrix" values="0 0 0 0 0 0 0 0 0 0 0 0 0 0 0 0 0 0 0.75 0"/>
<feBlend mode="normal" in2="effect2_innerShadow_86_6278" result="effect3_innerShadow_86_6278"/>
</filter>
<filter id="filter4_di_86_6278" x="10.616" y="35.5751" width="37.7062" height="9.49934" filterUnits="userSpaceOnUse" color-interpolation-filters="sRGB">
<feFlood flood-opacity="0" result="BackgroundImageFix"/>
<feColorMatrix in="SourceAlpha" type="matrix" values="0 0 0 0 0 0 0 0 0 0 0 0 0 0 0 0 0 0 127 0" result="hardAlpha"/>
<feOffset dy="1"/>
<feGaussianBlur stdDeviation="0.4"/>
<feColorMatrix type="matrix" values="0 0 0 0 0 0 0 0 0 0 0 0 0 0 0 0 0 0 1 0"/>
<feBlend mode="normal" in2="BackgroundImageFix" result="effect1_dropShadow_86_6278"/>
<feBlend mode="normal" in="SourceGraphic" in2="effect1_dropShadow_86_6278" result="shape"/>
<feColorMatrix in="SourceAlpha" type="matrix" values="0 0 0 0 0 0 0 0 0 0 0 0 0 0 0 0 0 0 127 0" result="hardAlpha"/>
<feOffset/>
<feGaussianBlur stdDeviation="1.25"/>
<feComposite in2="hardAlpha" operator="arithmetic" k2="-1" k3="1"/>
<feColorMatrix type="matrix" values="0 0 0 0 1 0 0 0 0 1 0 0 0 0 1 0 0 0 0.2 0"/>
<feBlend mode="normal" in2="shape" result="effect2_innerShadow_86_6278"/>
</filter>
<linearGradient id="paint0_linear_86_6278" x1="60" y1="60" x2="60" y2="0" gradientUnits="userSpaceOnUse">
<stop stop-color="white" stop-opacity="0.01"/>
<stop offset="1" stop-color="white"/>
</linearGradient>
<linearGradient id="paint1_linear_86_6278" x1="48.6948" y1="16.8998" x2="48.6948" y2="-22.1143" gradientUnits="userSpaceOnUse">
<stop stop-color="white" stop-opacity="0.01"/>
<stop offset="1" stop-color="white"/>
</linearGradient>
<linearGradient id="paint2_linear_86_6278" x1="15.9293" y1="2.65479" x2="15.9293" y2="31.0619" gradientUnits="userSpaceOnUse">
<stop stop-color="white"/>
<stop offset="1" stop-color="white" stop-opacity="0.01"/>
</linearGradient>
<linearGradient id="paint3_linear_86_6278" x1="9.99217" y1="43.2744" x2="41.9511" y2="55.0948" gradientUnits="userSpaceOnUse">
<stop stop-color="#C7CACD"/>
<stop offset="0.430604" stop-color="white"/>
<stop offset="1" stop-color="#C7CACD"/>
</linearGradient>
<clipPath id="clip0_86_6278">
<rect width="60" height="60" fill="white"/>
</clipPath>
</defs>
</svg>
