<svg width="60" height="60" viewBox="0 0 60 60" fill="none" xmlns="http://www.w3.org/2000/svg">
<g filter="url(#filter0_i_86_6347)">
<path fill-rule="evenodd" clip-rule="evenodd" d="M29.7345 0.531C45.8632 0.531 58.9381 13.6058 58.9381 29.7345C58.9381 45.8632 45.8632 58.9381 29.7345 58.9381C13.6058 58.9381 0.531 45.8632 0.531 29.7345C0.531 13.6058 13.6058 0.531 29.7345 0.531Z" fill="#FFEE40"/>
<path fill-rule="evenodd" clip-rule="evenodd" d="M29.7345 0.531C45.8632 0.531 58.9381 13.6058 58.9381 29.7345C58.9381 45.8632 45.8632 58.9381 29.7345 58.9381C13.6058 58.9381 0.531 45.8632 0.531 29.7345C0.531 13.6058 13.6058 0.531 29.7345 0.531Z" fill="url(#paint0_linear_86_6347)" style="mix-blend-mode:overlay"/>
</g>
<path fill-rule="evenodd" clip-rule="evenodd" d="M29.7346 3.18577C44.397 3.18577 56.2834 15.5475 56.2834 30.7964C56.2834 46.0453 44.397 58.407 29.7346 58.407C15.0722 58.407 3.18598 46.0453 3.18598 30.7964C3.18598 15.5475 15.0722 3.18577 29.7346 3.18577Z" fill="url(#paint1_linear_86_6347)"/>
<path fill-rule="evenodd" clip-rule="evenodd" d="M29.7346 3.18577C44.397 3.18577 56.2834 15.5475 56.2834 30.7964C56.2834 46.0453 44.397 58.407 29.7346 58.407C15.0722 58.407 3.18598 46.0453 3.18598 30.7964C3.18598 15.5475 15.0722 3.18577 29.7346 3.18577Z" fill="url(#paint2_linear_86_6347)" style="mix-blend-mode:overlay"/>
<g filter="url(#filter1_dii_86_6347)">
<path fill-rule="evenodd" clip-rule="evenodd" d="M29.7344 46.1949C19.3705 46.1949 15.9291 39.1683 15.9291 38.0034C15.9291 36.8384 18.2241 39.3067 22.3387 41.0752C27.2377 43.1808 32.2312 43.253 37.1302 41.1976C41.2448 39.4712 43.5398 37.062 43.5398 38.1991C43.5398 39.3362 40.0984 46.1949 29.7344 46.1949Z" fill="#A66707"/>
</g>
<g filter="url(#filter2_di_86_6347)">
<path fill-rule="evenodd" clip-rule="evenodd" d="M27.6104 20.7079H29.7343H31.854C31.854 20.7079 37.318 18.584 43.5122 18.584H53.5806C53.5806 18.584 54.9499 18.6577 54.6404 19.646C54.4528 20.2453 53.5294 22.8402 52.7067 25.1519C52.1727 26.6524 51.6812 28.0336 51.4609 28.6725C51.4346 28.7487 51.4076 28.8295 51.3794 28.9142C50.8057 30.634 49.6889 33.9822 42.4523 33.9822C34.8593 33.9822 32.384 28.6725 32.384 28.6725L29.7343 23.8937L27.0794 28.6725C27.0794 28.6725 24.599 33.9822 16.9909 33.9822C9.73987 33.9822 8.62081 30.6339 8.04604 28.9141C8.01774 28.8295 7.99076 28.7487 7.96443 28.6725C7.74372 28.034 7.25172 26.6541 6.7171 25.1548C5.89255 22.8423 4.96665 20.2456 4.77851 19.646C4.46853 18.6577 5.84055 18.584 5.84055 18.584H15.929C22.1355 18.584 27.6104 20.7079 27.6104 20.7079Z" fill="#141414"/>
</g>
<g filter="url(#filter3_di_86_6347)">
<path fill-rule="evenodd" clip-rule="evenodd" d="M15.929 19.6462C24.6786 19.6462 27.0795 22.7057 27.0795 23.363C27.0795 24.9696 25.5255 27.978 23.8937 29.7347C22.2618 31.4915 21.1143 31.8587 16.9909 31.8587C12.8677 31.8587 11.1078 30.4701 10.0884 28.6728C9.06891 26.8754 7.96446 23.363 7.96446 23.363C7.96446 23.363 7.17951 19.6462 15.929 19.6462ZM43.53 19.6462C34.7881 19.6462 32.3892 22.7057 32.3892 23.363C32.3892 24.9696 33.9419 27.978 35.5723 29.7347C37.2027 31.4915 38.3492 31.8587 42.469 31.8587C46.5887 31.8587 48.3471 30.4701 49.3656 28.6728C50.3842 26.8754 51.4877 23.363 51.4877 23.363C51.4877 23.363 52.2719 19.6462 43.53 19.6462Z" fill="#353534"/>
</g>
<g filter="url(#filter4_di_86_6347)">
<path fill-rule="evenodd" clip-rule="evenodd" d="M26.0177 23.7325C26.0177 23.1037 23.8188 20.1772 15.8054 20.1772C7.79191 20.1772 8.51078 23.7325 8.51078 23.7325C8.51078 23.7325 8.75407 24.5405 9.11216 25.5668L25.883 24.6954C25.9701 24.3399 26.0177 24.0137 26.0177 23.7325ZM50.4416 23.4193L32.9773 24.3267C32.94 24.1128 32.9203 23.9133 32.9203 23.7325C32.9203 23.1037 35.1194 20.1772 43.1328 20.1772C49.6808 20.1772 50.3982 22.5511 50.4416 23.4193Z" fill="white" fill-opacity="0.01"/>
<path fill-rule="evenodd" clip-rule="evenodd" d="M26.0177 23.7325C26.0177 23.1037 23.8188 20.1772 15.8054 20.1772C7.79191 20.1772 8.51078 23.7325 8.51078 23.7325C8.51078 23.7325 8.75407 24.5405 9.11216 25.5668L25.883 24.6954C25.9701 24.3399 26.0177 24.0137 26.0177 23.7325ZM50.4416 23.4193L32.9773 24.3267C32.94 24.1128 32.9203 23.9133 32.9203 23.7325C32.9203 23.1037 35.1194 20.1772 43.1328 20.1772C49.6808 20.1772 50.3982 22.5511 50.4416 23.4193Z" fill="url(#paint3_linear_86_6347)" fill-opacity="0.65"/>
</g>
<defs>
<filter id="filter0_i_86_6347" x="0.530762" y="-24.469" width="58.4072" height="83.407" filterUnits="userSpaceOnUse" color-interpolation-filters="sRGB">
<feFlood flood-opacity="0" result="BackgroundImageFix"/>
<feBlend mode="normal" in="SourceGraphic" in2="BackgroundImageFix" result="shape"/>
<feColorMatrix in="SourceAlpha" type="matrix" values="0 0 0 0 0 0 0 0 0 0 0 0 0 0 0 0 0 0 127 0" result="hardAlpha"/>
<feOffset dy="-25"/>
<feGaussianBlur stdDeviation="30"/>
<feComposite in2="hardAlpha" operator="arithmetic" k2="-1" k3="1"/>
<feColorMatrix type="matrix" values="0 0 0 0 1 0 0 0 0 0.603922 0 0 0 0 0 0 0 0 1 0"/>
<feBlend mode="normal" in2="shape" result="effect1_innerShadow_86_6347"/>
</filter>
<filter id="filter1_dii_86_6347" x="14.9292" y="37.7021" width="29.6106" height="10.4927" filterUnits="userSpaceOnUse" color-interpolation-filters="sRGB">
<feFlood flood-opacity="0" result="BackgroundImageFix"/>
<feColorMatrix in="SourceAlpha" type="matrix" values="0 0 0 0 0 0 0 0 0 0 0 0 0 0 0 0 0 0 127 0" result="hardAlpha"/>
<feOffset dy="1"/>
<feGaussianBlur stdDeviation="0.5"/>
<feColorMatrix type="matrix" values="0 0 0 0 1 0 0 0 0 1 0 0 0 0 1 0 0 0 1 0"/>
<feBlend mode="normal" in2="BackgroundImageFix" result="effect1_dropShadow_86_6347"/>
<feBlend mode="normal" in="SourceGraphic" in2="effect1_dropShadow_86_6347" result="shape"/>
<feColorMatrix in="SourceAlpha" type="matrix" values="0 0 0 0 0 0 0 0 0 0 0 0 0 0 0 0 0 0 127 0" result="hardAlpha"/>
<feOffset dy="2"/>
<feGaussianBlur stdDeviation="2.3"/>
<feComposite in2="hardAlpha" operator="arithmetic" k2="-1" k3="1"/>
<feColorMatrix type="matrix" values="0 0 0 0 0 0 0 0 0 0 0 0 0 0 0 0 0 0 1 0"/>
<feBlend mode="normal" in2="shape" result="effect2_innerShadow_86_6347"/>
<feColorMatrix in="SourceAlpha" type="matrix" values="0 0 0 0 0 0 0 0 0 0 0 0 0 0 0 0 0 0 127 0" result="hardAlpha"/>
<feOffset/>
<feGaussianBlur stdDeviation="1.5"/>
<feComposite in2="hardAlpha" operator="arithmetic" k2="-1" k3="1"/>
<feColorMatrix type="matrix" values="0 0 0 0 0 0 0 0 0 0 0 0 0 0 0 0 0 0 0.75 0"/>
<feBlend mode="normal" in2="effect2_innerShadow_86_6347" result="effect3_innerShadow_86_6347"/>
</filter>
<filter id="filter2_di_86_6347" x="1.73291" y="18.584" width="55.9531" height="21.3982" filterUnits="userSpaceOnUse" color-interpolation-filters="sRGB">
<feFlood flood-opacity="0" result="BackgroundImageFix"/>
<feColorMatrix in="SourceAlpha" type="matrix" values="0 0 0 0 0 0 0 0 0 0 0 0 0 0 0 0 0 0 127 0" result="hardAlpha"/>
<feOffset dy="3"/>
<feGaussianBlur stdDeviation="1.5"/>
<feColorMatrix type="matrix" values="0 0 0 0 0 0 0 0 0 0 0 0 0 0 0 0 0 0 0.5 0"/>
<feBlend mode="normal" in2="BackgroundImageFix" result="effect1_dropShadow_86_6347"/>
<feBlend mode="normal" in="SourceGraphic" in2="effect1_dropShadow_86_6347" result="shape"/>
<feColorMatrix in="SourceAlpha" type="matrix" values="0 0 0 0 0 0 0 0 0 0 0 0 0 0 0 0 0 0 127 0" result="hardAlpha"/>
<feOffset dy="1"/>
<feGaussianBlur stdDeviation="0.5"/>
<feComposite in2="hardAlpha" operator="arithmetic" k2="-1" k3="1"/>
<feColorMatrix type="matrix" values="0 0 0 0 1 0 0 0 0 1 0 0 0 0 1 0 0 0 0.1 0"/>
<feBlend mode="normal" in2="shape" result="effect2_innerShadow_86_6347"/>
</filter>
<filter id="filter3_di_86_6347" x="6.94629" y="19.6462" width="45.5596" height="14.2124" filterUnits="userSpaceOnUse" color-interpolation-filters="sRGB">
<feFlood flood-opacity="0" result="BackgroundImageFix"/>
<feColorMatrix in="SourceAlpha" type="matrix" values="0 0 0 0 0 0 0 0 0 0 0 0 0 0 0 0 0 0 127 0" result="hardAlpha"/>
<feOffset dy="1"/>
<feGaussianBlur stdDeviation="0.5"/>
<feColorMatrix type="matrix" values="0 0 0 0 1 0 0 0 0 1 0 0 0 0 1 0 0 0 0.2 0"/>
<feBlend mode="normal" in2="BackgroundImageFix" result="effect1_dropShadow_86_6347"/>
<feBlend mode="normal" in="SourceGraphic" in2="effect1_dropShadow_86_6347" result="shape"/>
<feColorMatrix in="SourceAlpha" type="matrix" values="0 0 0 0 0 0 0 0 0 0 0 0 0 0 0 0 0 0 127 0" result="hardAlpha"/>
<feOffset/>
<feGaussianBlur stdDeviation="3"/>
<feComposite in2="hardAlpha" operator="arithmetic" k2="-1" k3="1"/>
<feColorMatrix type="matrix" values="0 0 0 0 0 0 0 0 0 0 0 0 0 0 0 0 0 0 1 0"/>
<feBlend mode="normal" in2="shape" result="effect2_innerShadow_86_6347"/>
</filter>
<filter id="filter4_di_86_6347" x="7.49414" y="20.1772" width="43.9475" height="8.38965" filterUnits="userSpaceOnUse" color-interpolation-filters="sRGB">
<feFlood flood-opacity="0" result="BackgroundImageFix"/>
<feColorMatrix in="SourceAlpha" type="matrix" values="0 0 0 0 0 0 0 0 0 0 0 0 0 0 0 0 0 0 127 0" result="hardAlpha"/>
<feOffset dy="2"/>
<feGaussianBlur stdDeviation="0.5"/>
<feColorMatrix type="matrix" values="0 0 0 0 0 0 0 0 0 0 0 0 0 0 0 0 0 0 0.25 0"/>
<feBlend mode="normal" in2="BackgroundImageFix" result="effect1_dropShadow_86_6347"/>
<feBlend mode="normal" in="SourceGraphic" in2="effect1_dropShadow_86_6347" result="shape"/>
<feColorMatrix in="SourceAlpha" type="matrix" values="0 0 0 0 0 0 0 0 0 0 0 0 0 0 0 0 0 0 127 0" result="hardAlpha"/>
<feOffset dy="1"/>
<feGaussianBlur stdDeviation="0.5"/>
<feComposite in2="hardAlpha" operator="arithmetic" k2="-1" k3="1"/>
<feColorMatrix type="matrix" values="0 0 0 0 1 0 0 0 0 1 0 0 0 0 1 0 0 0 0.45 0"/>
<feBlend mode="normal" in2="shape" result="effect2_innerShadow_86_6347"/>
</filter>
<linearGradient id="paint0_linear_86_6347" x1="60" y1="60" x2="60" y2="0" gradientUnits="userSpaceOnUse">
<stop stop-color="white" stop-opacity="0.01"/>
<stop offset="1" stop-color="white"/>
</linearGradient>
<linearGradient id="paint1_linear_86_6347" x1="48.6948" y1="16.8998" x2="48.6948" y2="-22.1143" gradientUnits="userSpaceOnUse">
<stop stop-color="white" stop-opacity="0.01"/>
<stop offset="1" stop-color="white"/>
</linearGradient>
<linearGradient id="paint2_linear_86_6347" x1="15.9293" y1="2.65479" x2="15.9293" y2="31.0619" gradientUnits="userSpaceOnUse">
<stop stop-color="white"/>
<stop offset="1" stop-color="white" stop-opacity="0.01"/>
</linearGradient>
<linearGradient id="paint3_linear_86_6347" x1="35.1015" y1="21.6249" x2="35.1015" y2="20.1772" gradientUnits="userSpaceOnUse">
<stop stop-color="white" stop-opacity="0.01"/>
<stop offset="1" stop-color="white" stop-opacity="0.65"/>
</linearGradient>
</defs>
</svg>
