<svg width="125" height="25" viewBox="0 0 125 25" fill="none" xmlns="http://www.w3.org/2000/svg">
<path d="M50.738 4.676V21H49.242V18.712C48.7727 19.4893 48.1493 20.0833 47.372 20.494C46.6093 20.9047 45.744 21.11 44.776 21.11C43.6907 21.11 42.708 20.8607 41.828 20.362C40.948 19.8633 40.2587 19.1667 39.76 18.272C39.2613 17.3773 39.012 16.358 39.012 15.214C39.012 14.07 39.2613 13.0507 39.76 12.156C40.2587 11.2613 40.948 10.572 41.828 10.088C42.708 9.58933 43.6907 9.34 44.776 9.34C45.7147 9.34 46.558 9.538 47.306 9.934C48.0687 10.3153 48.692 10.88 49.176 11.628V4.676H50.738ZM44.908 19.724C45.7147 19.724 46.4407 19.5407 47.086 19.174C47.746 18.7927 48.2593 18.2573 48.626 17.568C49.0073 16.8787 49.198 16.094 49.198 15.214C49.198 14.334 49.0073 13.5493 48.626 12.86C48.2593 12.1707 47.746 11.6427 47.086 11.276C46.4407 10.8947 45.7147 10.704 44.908 10.704C44.0867 10.704 43.346 10.8947 42.686 11.276C42.0407 11.6427 41.5273 12.1707 41.146 12.86C40.7793 13.5493 40.596 14.334 40.596 15.214C40.596 16.094 40.7793 16.8787 41.146 17.568C41.5273 18.2573 42.0407 18.7927 42.686 19.174C43.346 19.5407 44.0867 19.724 44.908 19.724ZM59.2862 9.34C60.7968 9.34 61.9555 9.72133 62.7622 10.484C63.5688 11.232 63.9722 12.3467 63.9722 13.828V21H62.4762V19.196C62.1242 19.7973 61.6035 20.2667 60.9142 20.604C60.2395 20.9413 59.4328 21.11 58.4942 21.11C57.2035 21.11 56.1768 20.802 55.4142 20.186C54.6515 19.57 54.2702 18.756 54.2702 17.744C54.2702 16.7613 54.6222 15.9693 55.3262 15.368C56.0448 14.7667 57.1815 14.466 58.7362 14.466H62.4102V13.762C62.4102 12.7647 62.1315 12.0093 61.5742 11.496C61.0168 10.968 60.2028 10.704 59.1322 10.704C58.3988 10.704 57.6948 10.8287 57.0202 11.078C56.3455 11.3127 55.7662 11.6427 55.2822 12.068L54.5782 10.902C55.1648 10.4033 55.8688 10.022 56.6902 9.758C57.5115 9.47933 58.3768 9.34 59.2862 9.34ZM58.7362 19.878C59.6162 19.878 60.3715 19.68 61.0022 19.284C61.6328 18.8733 62.1022 18.2867 62.4102 17.524V15.632H58.7802C56.8002 15.632 55.8102 16.3213 55.8102 17.7C55.8102 18.3747 56.0668 18.91 56.5802 19.306C57.0935 19.6873 57.8122 19.878 58.7362 19.878ZM74.4587 20.296C74.1654 20.56 73.7987 20.7653 73.3587 20.912C72.9334 21.044 72.4861 21.11 72.0167 21.11C70.9314 21.11 70.0954 20.8167 69.5087 20.23C68.9221 19.6433 68.6287 18.8147 68.6287 17.744V10.748H66.5607V9.428H68.6287V6.898H70.1907V9.428H73.7107V10.748H70.1907V17.656C70.1907 18.3453 70.3594 18.8733 70.6967 19.24C71.0487 19.592 71.5474 19.768 72.1927 19.768C72.5154 19.768 72.8234 19.7167 73.1167 19.614C73.4247 19.5113 73.6887 19.3647 73.9087 19.174L74.4587 20.296ZM81.5002 9.34C83.0109 9.34 84.1696 9.72133 84.9762 10.484C85.7829 11.232 86.1862 12.3467 86.1862 13.828V21H84.6902V19.196C84.3382 19.7973 83.8176 20.2667 83.1282 20.604C82.4536 20.9413 81.6469 21.11 80.7082 21.11C79.4176 21.11 78.3909 20.802 77.6282 20.186C76.8656 19.57 76.4842 18.756 76.4842 17.744C76.4842 16.7613 76.8362 15.9693 77.5402 15.368C78.2589 14.7667 79.3956 14.466 80.9502 14.466H84.6242V13.762C84.6242 12.7647 84.3456 12.0093 83.7882 11.496C83.2309 10.968 82.4169 10.704 81.3462 10.704C80.6129 10.704 79.9089 10.8287 79.2342 11.078C78.5596 11.3127 77.9802 11.6427 77.4962 12.068L76.7922 10.902C77.3789 10.4033 78.0829 10.022 78.9042 9.758C79.7256 9.47933 80.5909 9.34 81.5002 9.34ZM80.9502 19.878C81.8302 19.878 82.5856 19.68 83.2162 19.284C83.8469 18.8733 84.3162 18.2867 84.6242 17.524V15.632H80.9942C79.0142 15.632 78.0242 16.3213 78.0242 17.7C78.0242 18.3747 78.2809 18.91 78.7942 19.306C79.3076 19.6873 80.0262 19.878 80.9502 19.878ZM90.7328 21.11C90.4101 21.11 90.1314 20.9927 89.8968 20.758C89.6768 20.5233 89.5668 20.2373 89.5668 19.9C89.5668 19.5627 89.6768 19.284 89.8968 19.064C90.1314 18.8293 90.4101 18.712 90.7328 18.712C91.0554 18.712 91.3341 18.8293 91.5688 19.064C91.8034 19.284 91.9208 19.5627 91.9208 19.9C91.9208 20.2373 91.8034 20.5233 91.5688 20.758C91.3341 20.9927 91.0554 21.11 90.7328 21.11ZM96.8869 11.694C97.2536 10.9167 97.7962 10.33 98.5149 9.934C99.2482 9.538 100.15 9.34 101.221 9.34V10.858L100.847 10.836C99.6296 10.836 98.6762 11.21 97.9869 11.958C97.2976 12.706 96.9529 13.7547 96.9529 15.104V21H95.3909V9.428H96.8869V11.694ZM108.226 9.34C109.736 9.34 110.895 9.72133 111.702 10.484C112.508 11.232 112.912 12.3467 112.912 13.828V21H111.416V19.196C111.064 19.7973 110.543 20.2667 109.854 20.604C109.179 20.9413 108.372 21.11 107.434 21.11C106.143 21.11 105.116 20.802 104.354 20.186C103.591 19.57 103.21 18.756 103.21 17.744C103.21 16.7613 103.562 15.9693 104.266 15.368C104.984 14.7667 106.121 14.466 107.676 14.466H111.35V13.762C111.35 12.7647 111.071 12.0093 110.514 11.496C109.956 10.968 109.142 10.704 108.072 10.704C107.338 10.704 106.634 10.8287 105.96 11.078C105.285 11.3127 104.706 11.6427 104.222 12.068L103.518 10.902C104.104 10.4033 104.808 10.022 105.63 9.758C106.451 9.47933 107.316 9.34 108.226 9.34ZM107.676 19.878C108.556 19.878 109.311 19.68 109.942 19.284C110.572 18.8733 111.042 18.2867 111.35 17.524V15.632H107.72C105.74 15.632 104.75 16.3213 104.75 17.7C104.75 18.3747 105.006 18.91 105.52 19.306C106.033 19.6873 106.752 19.878 107.676 19.878ZM118.8 11.694C119.167 10.9167 119.71 10.33 120.428 9.934C121.162 9.538 122.064 9.34 123.134 9.34V10.858L122.76 10.836C121.543 10.836 120.59 11.21 119.9 11.958C119.211 12.706 118.866 13.7547 118.866 15.104V21H117.304V9.428H118.8V11.694Z" fill="#C81F56"/>
<path d="M20.9 20.6465H14.102C13.9377 20.1874 13.6729 19.7704 13.3266 19.4257C12.9803 19.0811 12.5613 18.8175 12.1 18.654V15.1725H15.587C16.7517 15.2106 17.8901 14.8224 18.7866 14.0813C19.6831 13.3402 20.2755 12.2978 20.4517 11.1512C20.6278 10.0047 20.3756 8.83368 19.7426 7.8598C19.1097 6.88593 18.1399 6.17681 17.017 5.86667C16.4287 4.56941 15.4331 3.4974 14.1798 2.81196C12.9266 2.12653 11.4835 1.86475 10.0679 2.06603C8.65226 2.26731 7.3406 2.92075 6.33031 3.92802C5.32002 4.9353 4.66577 6.2419 4.466 7.6512C3.57081 7.90105 2.7967 8.46486 2.28664 9.23851C1.77658 10.0122 1.56503 10.9434 1.69107 11.8602C1.81711 12.7769 2.27221 13.6174 2.97233 14.2262C3.67245 14.8351 4.57028 15.1712 5.5 15.1725H9.9V18.654C9.43866 18.8175 9.01966 19.0811 8.67339 19.4257C8.32712 19.7704 8.06225 20.1874 7.898 20.6465H1.1C0.808262 20.6465 0.528473 20.7619 0.322182 20.9672C0.115892 21.1725 0 21.451 0 21.7413C0 22.0317 0.115892 22.3102 0.322182 22.5155C0.528473 22.7208 0.808262 22.8361 1.1 22.8361H7.898C8.12923 23.4702 8.55099 24.018 9.10598 24.4052C9.66097 24.7923 10.3223 25 11 25C11.6777 25 12.339 24.7923 12.894 24.4052C13.449 24.018 13.8708 23.4702 14.102 22.8361H20.9C21.1917 22.8361 21.4715 22.7208 21.6778 22.5155C21.8841 22.3102 22 22.0317 22 21.7413C22 21.451 21.8841 21.1725 21.6778 20.9672C21.4715 20.7619 21.1917 20.6465 20.9 20.6465ZM5.5 12.9829C5.06239 12.9829 4.64271 12.8099 4.33327 12.5019C4.02384 12.1939 3.85 11.7762 3.85 11.3407C3.85 10.9052 4.02384 10.4875 4.33327 10.1795C4.64271 9.8715 5.06239 9.69849 5.5 9.69849C5.79174 9.69849 6.07153 9.58314 6.27782 9.37783C6.48411 9.17251 6.6 8.89404 6.6 8.60368C6.59712 7.5642 6.96585 6.55759 7.64026 5.76386C8.31466 4.97014 9.25076 4.44106 10.2811 4.27123C11.3115 4.10141 12.369 4.30192 13.2645 4.83691C14.16 5.37189 14.8351 6.20647 15.169 7.19138C15.2319 7.37952 15.3449 7.54712 15.496 7.67631C15.6471 7.8055 15.8307 7.89142 16.027 7.9249C16.6224 8.02372 17.163 8.33028 17.552 8.78966C17.941 9.24904 18.153 9.83124 18.15 10.432C18.1471 11.1077 17.8761 11.7548 17.3961 12.2326C16.9161 12.7103 16.2659 12.98 15.587 12.9829H5.5ZM11 22.8361C10.7824 22.8361 10.5698 22.7719 10.3889 22.6516C10.208 22.5313 10.067 22.3604 9.98373 22.1603C9.90048 21.9603 9.87869 21.7401 9.92114 21.5278C9.96358 21.3154 10.0683 21.1203 10.2222 20.9672C10.376 20.8141 10.572 20.7098 10.7854 20.6676C10.9988 20.6253 11.22 20.647 11.421 20.7299C11.622 20.8127 11.7937 20.9531 11.9146 21.1331C12.0355 21.3131 12.1 21.5248 12.1 21.7413C12.1 22.0317 11.9841 22.3102 11.7778 22.5155C11.5715 22.7208 11.2917 22.8361 11 22.8361Z" fill="#C81F56"/>
</svg>
