<svg width="12" height="10" viewBox="0 0 12 10" fill="none" xmlns="http://www.w3.org/2000/svg">
<path id="Vector" d="M10.5757 0.638672H1.4243C0.638946 0.638672 0 1.25556 0 2.0138V8.42663C0 9.18487 0.638946 9.80176 1.4243 9.80176H10.5757C11.3611 9.80176 12 9.18487 12 8.42663V2.0138C12 1.25556 11.3611 0.638672 10.5757 0.638672ZM10.5757 8.58775H1.4243C1.30886 8.58775 1.20761 8.51248 1.20761 8.42663V2.86179L5.34656 6.37482C5.43141 6.44687 5.53932 6.48653 5.65043 6.48653L6.34945 6.48656C6.46049 6.48656 6.56846 6.44687 6.65334 6.37482L10.7925 2.86167V8.4267C10.7924 8.51248 10.6911 8.58775 10.5757 8.58775ZM6.00002 5.2811L1.97437 1.85268H10.0257L6.00002 5.2811Z" fill="white"/>
</svg>
