<svg width="13" height="13" viewBox="0 0 13 13" fill="none" xmlns="http://www.w3.org/2000/svg">
<g id="Group">
<g id="Group_2">
<g id="Group_3">
<path id="Vector" d="M11.7576 10.3016L9.90018 8.41039C9.53021 8.03526 8.91755 8.04665 8.5347 8.43656L7.59892 9.38903C7.5398 9.35586 7.47861 9.32121 7.41427 9.28445C6.82334 8.9511 6.01455 8.49422 5.16346 7.62713C4.30985 6.75821 3.86066 5.93354 3.53223 5.33155C3.49757 5.26777 3.46437 5.20628 3.43158 5.14788L4.05962 4.50945L4.36839 4.19471C4.75183 3.80424 4.7624 3.18069 4.3933 2.80446L2.53588 0.913071C2.16679 0.537375 1.55384 0.548772 1.1704 0.939243L0.64692 1.47524L0.661225 1.4897C0.485694 1.71772 0.339015 1.98071 0.229861 2.26431C0.129242 2.53426 0.0665964 2.79187 0.0379516 3.05C-0.207308 5.11999 0.721832 7.0118 3.2434 9.57895C6.72897 13.1272 9.53788 12.8592 9.65906 12.8461C9.92298 12.814 10.1759 12.7498 10.433 12.6482C10.7091 12.5383 10.9673 12.3892 11.1911 12.2109L11.2025 12.2212L11.7329 11.6926C12.1155 11.3022 12.1265 10.6784 11.7576 10.3016Z" fill="white"/>
</g>
</g>
</g>
</svg>
