<svg width="453" height="348" viewBox="0 0 453 348" fill="none" xmlns="http://www.w3.org/2000/svg">
<g clip-path="url(#clip0_86_3243)">
<g filter="url(#filter0_d_86_3243)">
<mask id="mask0_86_3243" style="mask-type:alpha" maskUnits="userSpaceOnUse" x="0" y="0" width="453" height="348">
<rect width="453" height="348" rx="20" fill="#FE840E"/>
</mask>
<g mask="url(#mask0_86_3243)">
<rect width="453" height="348" fill="white"/>
<circle cx="95.5" cy="2.5" r="1.5" fill="#E3E3E3"/>
<circle cx="113.5" cy="2.5" r="1.5" fill="#E3E3E3"/>
<circle cx="131.5" cy="2.5" r="1.5" fill="#E3E3E3"/>
<circle cx="149.5" cy="2.5" r="1.5" fill="#E3E3E3"/>
<circle cx="167.5" cy="2.5" r="1.5" fill="#E3E3E3"/>
<circle cx="185.5" cy="2.5" r="1.5" fill="#E3E3E3"/>
<circle cx="203.5" cy="2.5" r="1.5" fill="#E3E3E3"/>
<circle cx="221.5" cy="2.5" r="1.5" fill="#E3E3E3"/>
<circle cx="239.5" cy="2.5" r="1.5" fill="#E3E3E3"/>
<circle cx="257.5" cy="2.5" r="1.5" fill="#E3E3E3"/>
<circle cx="275.5" cy="2.5" r="1.5" fill="#E3E3E3"/>
<circle cx="293.5" cy="2.5" r="1.5" fill="#E3E3E3"/>
<circle cx="311.5" cy="2.5" r="1.5" fill="#E3E3E3"/>
<circle cx="329.5" cy="2.5" r="1.5" fill="#E3E3E3"/>
<circle cx="347.5" cy="2.5" r="1.5" fill="#E3E3E3"/>
<circle cx="365.5" cy="2.5" r="1.5" fill="#E3E3E3"/>
<circle cx="383.5" cy="2.5" r="1.5" fill="#E3E3E3"/>
<circle cx="401.5" cy="2.5" r="1.5" fill="#E3E3E3"/>
<circle cx="419.5" cy="2.5" r="1.5" fill="#E3E3E3"/>
<circle cx="437.5" cy="2.5" r="1.5" fill="#E3E3E3"/>
<circle cx="95.5" cy="20.5" r="1.5" fill="#E3E3E3"/>
<circle cx="113.5" cy="20.5" r="1.5" fill="#E3E3E3"/>
<circle cx="131.5" cy="20.5" r="1.5" fill="#E3E3E3"/>
<circle cx="149.5" cy="20.5" r="1.5" fill="#E3E3E3"/>
<circle cx="167.5" cy="20.5" r="1.5" fill="#E3E3E3"/>
<circle cx="185.5" cy="20.5" r="1.5" fill="#E3E3E3"/>
<circle cx="203.5" cy="20.5" r="1.5" fill="#E3E3E3"/>
<circle cx="221.5" cy="20.5" r="1.5" fill="#E3E3E3"/>
<circle cx="239.5" cy="20.5" r="1.5" fill="#E3E3E3"/>
<circle cx="257.5" cy="20.5" r="1.5" fill="#E3E3E3"/>
<circle cx="275.5" cy="20.5" r="1.5" fill="#E3E3E3"/>
<circle cx="293.5" cy="20.5" r="1.5" fill="#E3E3E3"/>
<circle cx="311.5" cy="20.5" r="1.5" fill="#E3E3E3"/>
<circle cx="329.5" cy="20.5" r="1.5" fill="#E3E3E3"/>
<circle cx="347.5" cy="20.5" r="1.5" fill="#E3E3E3"/>
<circle cx="365.5" cy="20.5" r="1.5" fill="#E3E3E3"/>
<circle cx="383.5" cy="20.5" r="1.5" fill="#E3E3E3"/>
<circle cx="401.5" cy="20.5" r="1.5" fill="#E3E3E3"/>
<circle cx="419.5" cy="20.5" r="1.5" fill="#E3E3E3"/>
<circle cx="437.5" cy="20.5" r="1.5" fill="#E3E3E3"/>
<circle cx="95.5" cy="38.5" r="1.5" fill="#E3E3E3"/>
<circle cx="113.5" cy="38.5" r="1.5" fill="#E3E3E3"/>
<circle cx="131.5" cy="38.5" r="1.5" fill="#E3E3E3"/>
<circle cx="149.5" cy="38.5" r="1.5" fill="#E3E3E3"/>
<circle cx="167.5" cy="38.5" r="1.5" fill="#E3E3E3"/>
<circle cx="185.5" cy="38.5" r="1.5" fill="#E3E3E3"/>
<circle cx="203.5" cy="38.5" r="1.5" fill="#E3E3E3"/>
<circle cx="221.5" cy="38.5" r="1.5" fill="#E3E3E3"/>
<circle cx="239.5" cy="38.5" r="1.5" fill="#E3E3E3"/>
<circle cx="257.5" cy="38.5" r="1.5" fill="#E3E3E3"/>
<circle cx="275.5" cy="38.5" r="1.5" fill="#E3E3E3"/>
<circle cx="293.5" cy="38.5" r="1.5" fill="#E3E3E3"/>
<circle cx="311.5" cy="38.5" r="1.5" fill="#E3E3E3"/>
<circle cx="329.5" cy="38.5" r="1.5" fill="#E3E3E3"/>
<circle cx="347.5" cy="38.5" r="1.5" fill="#E3E3E3"/>
<circle cx="365.5" cy="38.5" r="1.5" fill="#E3E3E3"/>
<circle cx="383.5" cy="38.5" r="1.5" fill="#E3E3E3"/>
<circle cx="401.5" cy="38.5" r="1.5" fill="#E3E3E3"/>
<circle cx="419.5" cy="38.5" r="1.5" fill="#E3E3E3"/>
<circle cx="437.5" cy="38.5" r="1.5" fill="#E3E3E3"/>
<circle cx="95.5" cy="56.5" r="1.5" fill="#E3E3E3"/>
<circle cx="113.5" cy="56.5" r="1.5" fill="#E3E3E3"/>
<circle cx="131.5" cy="56.5" r="1.5" fill="#E3E3E3"/>
<circle cx="149.5" cy="56.5" r="1.5" fill="#E3E3E3"/>
<circle cx="167.5" cy="56.5" r="1.5" fill="#E3E3E3"/>
<circle cx="185.5" cy="56.5" r="1.5" fill="#E3E3E3"/>
<circle cx="203.5" cy="56.5" r="1.5" fill="#E3E3E3"/>
<circle cx="221.5" cy="56.5" r="1.5" fill="#E3E3E3"/>
<circle cx="239.5" cy="56.5" r="1.5" fill="#E3E3E3"/>
<circle cx="257.5" cy="56.5" r="1.5" fill="#E3E3E3"/>
<circle cx="275.5" cy="56.5" r="1.5" fill="#E3E3E3"/>
<circle cx="293.5" cy="56.5" r="1.5" fill="#E3E3E3"/>
<circle cx="311.5" cy="56.5" r="1.5" fill="#E3E3E3"/>
<circle cx="329.5" cy="56.5" r="1.5" fill="#E3E3E3"/>
<circle cx="347.5" cy="56.5" r="1.5" fill="#E3E3E3"/>
<circle cx="365.5" cy="56.5" r="1.5" fill="#E3E3E3"/>
<circle cx="383.5" cy="56.5" r="1.5" fill="#E3E3E3"/>
<circle cx="401.5" cy="56.5" r="1.5" fill="#E3E3E3"/>
<circle cx="419.5" cy="56.5" r="1.5" fill="#E3E3E3"/>
<circle cx="437.5" cy="56.5" r="1.5" fill="#E3E3E3"/>
<circle cx="95.5" cy="74.5" r="1.5" fill="#E3E3E3"/>
<circle cx="113.5" cy="74.5" r="1.5" fill="#E3E3E3"/>
<circle cx="131.5" cy="74.5" r="1.5" fill="#E3E3E3"/>
<circle cx="149.5" cy="74.5" r="1.5" fill="#E3E3E3"/>
<circle cx="167.5" cy="74.5" r="1.5" fill="#E3E3E3"/>
<circle cx="185.5" cy="74.5" r="1.5" fill="#E3E3E3"/>
<circle cx="203.5" cy="74.5" r="1.5" fill="#E3E3E3"/>
<circle cx="221.5" cy="74.5" r="1.5" fill="#E3E3E3"/>
<circle cx="239.5" cy="74.5" r="1.5" fill="#E3E3E3"/>
<circle cx="257.5" cy="74.5" r="1.5" fill="#E3E3E3"/>
<circle cx="275.5" cy="74.5" r="1.5" fill="#E3E3E3"/>
<circle cx="293.5" cy="74.5" r="1.5" fill="#E3E3E3"/>
<circle cx="311.5" cy="74.5" r="1.5" fill="#E3E3E3"/>
<circle cx="329.5" cy="74.5" r="1.5" fill="#E3E3E3"/>
<circle cx="347.5" cy="74.5" r="1.5" fill="#E3E3E3"/>
<circle cx="365.5" cy="74.5" r="1.5" fill="#E3E3E3"/>
<circle cx="383.5" cy="74.5" r="1.5" fill="#E3E3E3"/>
<circle cx="401.5" cy="74.5" r="1.5" fill="#E3E3E3"/>
<circle cx="419.5" cy="74.5" r="1.5" fill="#E3E3E3"/>
<circle cx="437.5" cy="74.5" r="1.5" fill="#E3E3E3"/>
<circle cx="95.5" cy="92.5" r="1.5" fill="#E3E3E3"/>
<circle cx="113.5" cy="92.5" r="1.5" fill="#E3E3E3"/>
<circle cx="131.5" cy="92.5" r="1.5" fill="#E3E3E3"/>
<circle cx="149.5" cy="92.5" r="1.5" fill="#E3E3E3"/>
<circle cx="167.5" cy="92.5" r="1.5" fill="#E3E3E3"/>
<circle cx="185.5" cy="92.5" r="1.5" fill="#E3E3E3"/>
<circle cx="203.5" cy="92.5" r="1.5" fill="#E3E3E3"/>
<circle cx="221.5" cy="92.5" r="1.5" fill="#E3E3E3"/>
<circle cx="239.5" cy="92.5" r="1.5" fill="#E3E3E3"/>
<circle cx="257.5" cy="92.5" r="1.5" fill="#E3E3E3"/>
<circle cx="275.5" cy="92.5" r="1.5" fill="#E3E3E3"/>
<circle cx="293.5" cy="92.5" r="1.5" fill="#E3E3E3"/>
<circle cx="311.5" cy="92.5" r="1.5" fill="#E3E3E3"/>
<circle cx="329.5" cy="92.5" r="1.5" fill="#E3E3E3"/>
<circle cx="347.5" cy="92.5" r="1.5" fill="#E3E3E3"/>
<circle cx="365.5" cy="92.5" r="1.5" fill="#E3E3E3"/>
<circle cx="383.5" cy="92.5" r="1.5" fill="#E3E3E3"/>
<circle cx="401.5" cy="92.5" r="1.5" fill="#E3E3E3"/>
<circle cx="419.5" cy="92.5" r="1.5" fill="#E3E3E3"/>
<circle cx="437.5" cy="92.5" r="1.5" fill="#E3E3E3"/>
<circle cx="95.5" cy="110.5" r="1.5" fill="#E3E3E3"/>
<circle cx="113.5" cy="110.5" r="1.5" fill="#E3E3E3"/>
<circle cx="131.5" cy="110.5" r="1.5" fill="#E3E3E3"/>
<circle cx="149.5" cy="110.5" r="1.5" fill="#E3E3E3"/>
<circle cx="167.5" cy="110.5" r="1.5" fill="#E3E3E3"/>
<circle cx="185.5" cy="110.5" r="1.5" fill="#E3E3E3"/>
<circle cx="203.5" cy="110.5" r="1.5" fill="#E3E3E3"/>
<circle cx="221.5" cy="110.5" r="1.5" fill="#E3E3E3"/>
<circle cx="239.5" cy="110.5" r="1.5" fill="#E3E3E3"/>
<circle cx="257.5" cy="110.5" r="1.5" fill="#E3E3E3"/>
<circle cx="275.5" cy="110.5" r="1.5" fill="#E3E3E3"/>
<circle cx="293.5" cy="110.5" r="1.5" fill="#E3E3E3"/>
<circle cx="311.5" cy="110.5" r="1.5" fill="#E3E3E3"/>
<circle cx="329.5" cy="110.5" r="1.5" fill="#E3E3E3"/>
<circle cx="347.5" cy="110.5" r="1.5" fill="#E3E3E3"/>
<circle cx="365.5" cy="110.5" r="1.5" fill="#E3E3E3"/>
<circle cx="383.5" cy="110.5" r="1.5" fill="#E3E3E3"/>
<circle cx="401.5" cy="110.5" r="1.5" fill="#E3E3E3"/>
<circle cx="419.5" cy="110.5" r="1.5" fill="#E3E3E3"/>
<circle cx="437.5" cy="110.5" r="1.5" fill="#E3E3E3"/>
<circle cx="95.5" cy="128.5" r="1.5" fill="#E3E3E3"/>
<circle cx="113.5" cy="128.5" r="1.5" fill="#E3E3E3"/>
<circle cx="131.5" cy="128.5" r="1.5" fill="#E3E3E3"/>
<circle cx="149.5" cy="128.5" r="1.5" fill="#E3E3E3"/>
<circle cx="167.5" cy="128.5" r="1.5" fill="#E3E3E3"/>
<circle cx="185.5" cy="128.5" r="1.5" fill="#E3E3E3"/>
<circle cx="203.5" cy="128.5" r="1.5" fill="#E3E3E3"/>
<circle cx="221.5" cy="128.5" r="1.5" fill="#E3E3E3"/>
<circle cx="239.5" cy="128.5" r="1.5" fill="#E3E3E3"/>
<circle cx="257.5" cy="128.5" r="1.5" fill="#E3E3E3"/>
<circle cx="275.5" cy="128.5" r="1.5" fill="#E3E3E3"/>
<circle cx="293.5" cy="128.5" r="1.5" fill="#E3E3E3"/>
<circle cx="311.5" cy="128.5" r="1.5" fill="#E3E3E3"/>
<circle cx="329.5" cy="128.5" r="1.5" fill="#E3E3E3"/>
<circle cx="347.5" cy="128.5" r="1.5" fill="#E3E3E3"/>
<circle cx="365.5" cy="128.5" r="1.5" fill="#E3E3E3"/>
<circle cx="383.5" cy="128.5" r="1.5" fill="#E3E3E3"/>
<circle cx="401.5" cy="128.5" r="1.5" fill="#E3E3E3"/>
<circle cx="419.5" cy="128.5" r="1.5" fill="#E3E3E3"/>
<circle cx="437.5" cy="128.5" r="1.5" fill="#E3E3E3"/>
<circle cx="95.5" cy="146.5" r="1.5" fill="#E3E3E3"/>
<circle cx="113.5" cy="146.5" r="1.5" fill="#E3E3E3"/>
<circle cx="131.5" cy="146.5" r="1.5" fill="#E3E3E3"/>
<circle cx="149.5" cy="146.5" r="1.5" fill="#E3E3E3"/>
<circle cx="167.5" cy="146.5" r="1.5" fill="#E3E3E3"/>
<circle cx="185.5" cy="146.5" r="1.5" fill="#E3E3E3"/>
<circle cx="203.5" cy="146.5" r="1.5" fill="#E3E3E3"/>
<circle cx="221.5" cy="146.5" r="1.5" fill="#E3E3E3"/>
<circle cx="239.5" cy="146.5" r="1.5" fill="#E3E3E3"/>
<circle cx="257.5" cy="146.5" r="1.5" fill="#E3E3E3"/>
<circle cx="275.5" cy="146.5" r="1.5" fill="#E3E3E3"/>
<circle cx="293.5" cy="146.5" r="1.5" fill="#E3E3E3"/>
<circle cx="311.5" cy="146.5" r="1.5" fill="#E3E3E3"/>
<circle cx="329.5" cy="146.5" r="1.5" fill="#E3E3E3"/>
<circle cx="347.5" cy="146.5" r="1.5" fill="#E3E3E3"/>
<circle cx="365.5" cy="146.5" r="1.5" fill="#E3E3E3"/>
<circle cx="383.5" cy="146.5" r="1.5" fill="#E3E3E3"/>
<circle cx="401.5" cy="146.5" r="1.5" fill="#E3E3E3"/>
<circle cx="419.5" cy="146.5" r="1.5" fill="#E3E3E3"/>
<circle cx="437.5" cy="146.5" r="1.5" fill="#E3E3E3"/>
<circle cx="95.5" cy="164.5" r="1.5" fill="#E3E3E3"/>
<circle cx="113.5" cy="164.5" r="1.5" fill="#E3E3E3"/>
<circle cx="131.5" cy="164.5" r="1.5" fill="#E3E3E3"/>
<circle cx="149.5" cy="164.5" r="1.5" fill="#E3E3E3"/>
<circle cx="167.5" cy="164.5" r="1.5" fill="#E3E3E3"/>
<circle cx="185.5" cy="164.5" r="1.5" fill="#E3E3E3"/>
<circle cx="203.5" cy="164.5" r="1.5" fill="#E3E3E3"/>
<circle cx="221.5" cy="164.5" r="1.5" fill="#E3E3E3"/>
<circle cx="239.5" cy="164.5" r="1.5" fill="#E3E3E3"/>
<circle cx="257.5" cy="164.5" r="1.5" fill="#E3E3E3"/>
<circle cx="275.5" cy="164.5" r="1.5" fill="#E3E3E3"/>
<circle cx="293.5" cy="164.5" r="1.5" fill="#E3E3E3"/>
<circle cx="311.5" cy="164.5" r="1.5" fill="#E3E3E3"/>
<circle cx="329.5" cy="164.5" r="1.5" fill="#E3E3E3"/>
<circle cx="347.5" cy="164.5" r="1.5" fill="#E3E3E3"/>
<circle cx="365.5" cy="164.5" r="1.5" fill="#E3E3E3"/>
<circle cx="383.5" cy="164.5" r="1.5" fill="#E3E3E3"/>
<circle cx="401.5" cy="164.5" r="1.5" fill="#E3E3E3"/>
<circle cx="419.5" cy="164.5" r="1.5" fill="#E3E3E3"/>
<circle cx="437.5" cy="164.5" r="1.5" fill="#E3E3E3"/>
<circle cx="95.5" cy="182.5" r="1.5" fill="#E3E3E3"/>
<circle cx="113.5" cy="182.5" r="1.5" fill="#E3E3E3"/>
<circle cx="131.5" cy="182.5" r="1.5" fill="#E3E3E3"/>
<circle cx="149.5" cy="182.5" r="1.5" fill="#E3E3E3"/>
<circle cx="167.5" cy="182.5" r="1.5" fill="#E3E3E3"/>
<circle cx="185.5" cy="182.5" r="1.5" fill="#E3E3E3"/>
<circle cx="203.5" cy="182.5" r="1.5" fill="#E3E3E3"/>
<circle cx="221.5" cy="182.5" r="1.5" fill="#E3E3E3"/>
<circle cx="239.5" cy="182.5" r="1.5" fill="#E3E3E3"/>
<circle cx="257.5" cy="182.5" r="1.5" fill="#E3E3E3"/>
<circle cx="275.5" cy="182.5" r="1.5" fill="#E3E3E3"/>
<circle cx="293.5" cy="182.5" r="1.5" fill="#E3E3E3"/>
<circle cx="311.5" cy="182.5" r="1.5" fill="#E3E3E3"/>
<circle cx="329.5" cy="182.5" r="1.5" fill="#E3E3E3"/>
<circle cx="347.5" cy="182.5" r="1.5" fill="#E3E3E3"/>
<circle cx="365.5" cy="182.5" r="1.5" fill="#E3E3E3"/>
<circle cx="383.5" cy="182.5" r="1.5" fill="#E3E3E3"/>
<circle cx="401.5" cy="182.5" r="1.5" fill="#E3E3E3"/>
<circle cx="419.5" cy="182.5" r="1.5" fill="#E3E3E3"/>
<circle cx="437.5" cy="182.5" r="1.5" fill="#E3E3E3"/>
<circle cx="95.5" cy="200.5" r="1.5" fill="#E3E3E3"/>
<circle cx="113.5" cy="200.5" r="1.5" fill="#E3E3E3"/>
<circle cx="131.5" cy="200.5" r="1.5" fill="#E3E3E3"/>
<circle cx="149.5" cy="200.5" r="1.5" fill="#E3E3E3"/>
<circle cx="167.5" cy="200.5" r="1.5" fill="#E3E3E3"/>
<circle cx="185.5" cy="200.5" r="1.5" fill="#E3E3E3"/>
<circle cx="203.5" cy="200.5" r="1.5" fill="#E3E3E3"/>
<circle cx="221.5" cy="200.5" r="1.5" fill="#E3E3E3"/>
<circle cx="239.5" cy="200.5" r="1.5" fill="#E3E3E3"/>
<circle cx="257.5" cy="200.5" r="1.5" fill="#E3E3E3"/>
<circle cx="275.5" cy="200.5" r="1.5" fill="#E3E3E3"/>
<circle cx="293.5" cy="200.5" r="1.5" fill="#E3E3E3"/>
<circle cx="311.5" cy="200.5" r="1.5" fill="#E3E3E3"/>
<circle cx="329.5" cy="200.5" r="1.5" fill="#E3E3E3"/>
<circle cx="347.5" cy="200.5" r="1.5" fill="#E3E3E3"/>
<circle cx="365.5" cy="200.5" r="1.5" fill="#E3E3E3"/>
<circle cx="383.5" cy="200.5" r="1.5" fill="#E3E3E3"/>
<circle cx="401.5" cy="200.5" r="1.5" fill="#E3E3E3"/>
<circle cx="419.5" cy="200.5" r="1.5" fill="#E3E3E3"/>
<circle cx="437.5" cy="200.5" r="1.5" fill="#E3E3E3"/>
<circle cx="95.5" cy="218.5" r="1.5" fill="#E3E3E3"/>
<circle cx="113.5" cy="218.5" r="1.5" fill="#E3E3E3"/>
<circle cx="131.5" cy="218.5" r="1.5" fill="#E3E3E3"/>
<circle cx="149.5" cy="218.5" r="1.5" fill="#E3E3E3"/>
<circle cx="167.5" cy="218.5" r="1.5" fill="#E3E3E3"/>
<circle cx="185.5" cy="218.5" r="1.5" fill="#E3E3E3"/>
<circle cx="203.5" cy="218.5" r="1.5" fill="#E3E3E3"/>
<circle cx="221.5" cy="218.5" r="1.5" fill="#E3E3E3"/>
<circle cx="239.5" cy="218.5" r="1.5" fill="#E3E3E3"/>
<circle cx="257.5" cy="218.5" r="1.5" fill="#E3E3E3"/>
<circle cx="275.5" cy="218.5" r="1.5" fill="#E3E3E3"/>
<circle cx="293.5" cy="218.5" r="1.5" fill="#E3E3E3"/>
<circle cx="311.5" cy="218.5" r="1.5" fill="#E3E3E3"/>
<circle cx="329.5" cy="218.5" r="1.5" fill="#E3E3E3"/>
<circle cx="347.5" cy="218.5" r="1.5" fill="#E3E3E3"/>
<circle cx="365.5" cy="218.5" r="1.5" fill="#E3E3E3"/>
<circle cx="383.5" cy="218.5" r="1.5" fill="#E3E3E3"/>
<circle cx="401.5" cy="218.5" r="1.5" fill="#E3E3E3"/>
<circle cx="419.5" cy="218.5" r="1.5" fill="#E3E3E3"/>
<circle cx="437.5" cy="218.5" r="1.5" fill="#E3E3E3"/>
<circle cx="95.5" cy="236.5" r="1.5" fill="#E3E3E3"/>
<circle cx="113.5" cy="236.5" r="1.5" fill="#E3E3E3"/>
<circle cx="131.5" cy="236.5" r="1.5" fill="#E3E3E3"/>
<circle cx="149.5" cy="236.5" r="1.5" fill="#E3E3E3"/>
<circle cx="167.5" cy="236.5" r="1.5" fill="#E3E3E3"/>
<circle cx="185.5" cy="236.5" r="1.5" fill="#E3E3E3"/>
<circle cx="203.5" cy="236.5" r="1.5" fill="#E3E3E3"/>
<circle cx="221.5" cy="236.5" r="1.5" fill="#E3E3E3"/>
<circle cx="239.5" cy="236.5" r="1.5" fill="#E3E3E3"/>
<circle cx="257.5" cy="236.5" r="1.5" fill="#E3E3E3"/>
<circle cx="275.5" cy="236.5" r="1.5" fill="#E3E3E3"/>
<circle cx="293.5" cy="236.5" r="1.5" fill="#E3E3E3"/>
<circle cx="311.5" cy="236.5" r="1.5" fill="#E3E3E3"/>
<circle cx="329.5" cy="236.5" r="1.5" fill="#E3E3E3"/>
<circle cx="347.5" cy="236.5" r="1.5" fill="#E3E3E3"/>
<circle cx="365.5" cy="236.5" r="1.5" fill="#E3E3E3"/>
<circle cx="383.5" cy="236.5" r="1.5" fill="#E3E3E3"/>
<circle cx="401.5" cy="236.5" r="1.5" fill="#E3E3E3"/>
<circle cx="419.5" cy="236.5" r="1.5" fill="#E3E3E3"/>
<circle cx="437.5" cy="236.5" r="1.5" fill="#E3E3E3"/>
<circle cx="95.5" cy="254.5" r="1.5" fill="#E3E3E3"/>
<circle cx="113.5" cy="254.5" r="1.5" fill="#E3E3E3"/>
<circle cx="131.5" cy="254.5" r="1.5" fill="#E3E3E3"/>
<circle cx="149.5" cy="254.5" r="1.5" fill="#E3E3E3"/>
<circle cx="167.5" cy="254.5" r="1.5" fill="#E3E3E3"/>
<circle cx="185.5" cy="254.5" r="1.5" fill="#E3E3E3"/>
<circle cx="203.5" cy="254.5" r="1.5" fill="#E3E3E3"/>
<circle cx="221.5" cy="254.5" r="1.5" fill="#E3E3E3"/>
<circle cx="239.5" cy="254.5" r="1.5" fill="#E3E3E3"/>
<circle cx="257.5" cy="254.5" r="1.5" fill="#E3E3E3"/>
<circle cx="275.5" cy="254.5" r="1.5" fill="#E3E3E3"/>
<circle cx="293.5" cy="254.5" r="1.5" fill="#E3E3E3"/>
<circle cx="311.5" cy="254.5" r="1.5" fill="#E3E3E3"/>
<circle cx="329.5" cy="254.5" r="1.5" fill="#E3E3E3"/>
<circle cx="347.5" cy="254.5" r="1.5" fill="#E3E3E3"/>
<circle cx="365.5" cy="254.5" r="1.5" fill="#E3E3E3"/>
<circle cx="383.5" cy="254.5" r="1.5" fill="#E3E3E3"/>
<circle cx="401.5" cy="254.5" r="1.5" fill="#E3E3E3"/>
<circle cx="419.5" cy="254.5" r="1.5" fill="#E3E3E3"/>
<circle cx="437.5" cy="254.5" r="1.5" fill="#E3E3E3"/>
<circle cx="95.5" cy="272.5" r="1.5" fill="#E3E3E3"/>
<circle cx="113.5" cy="272.5" r="1.5" fill="#E3E3E3"/>
<circle cx="131.5" cy="272.5" r="1.5" fill="#E3E3E3"/>
<circle cx="149.5" cy="272.5" r="1.5" fill="#E3E3E3"/>
<circle cx="167.5" cy="272.5" r="1.5" fill="#E3E3E3"/>
<circle cx="185.5" cy="272.5" r="1.5" fill="#E3E3E3"/>
<circle cx="203.5" cy="272.5" r="1.5" fill="#E3E3E3"/>
<circle cx="221.5" cy="272.5" r="1.5" fill="#E3E3E3"/>
<circle cx="239.5" cy="272.5" r="1.5" fill="#E3E3E3"/>
<circle cx="257.5" cy="272.5" r="1.5" fill="#E3E3E3"/>
<circle cx="275.5" cy="272.5" r="1.5" fill="#E3E3E3"/>
<circle cx="293.5" cy="272.5" r="1.5" fill="#E3E3E3"/>
<circle cx="311.5" cy="272.5" r="1.5" fill="#E3E3E3"/>
<circle cx="329.5" cy="272.5" r="1.5" fill="#E3E3E3"/>
<circle cx="347.5" cy="272.5" r="1.5" fill="#E3E3E3"/>
<circle cx="365.5" cy="272.5" r="1.5" fill="#E3E3E3"/>
<circle cx="383.5" cy="272.5" r="1.5" fill="#E3E3E3"/>
<circle cx="401.5" cy="272.5" r="1.5" fill="#E3E3E3"/>
<circle cx="419.5" cy="272.5" r="1.5" fill="#E3E3E3"/>
<circle cx="437.5" cy="272.5" r="1.5" fill="#E3E3E3"/>
<circle cx="95.5" cy="290.5" r="1.5" fill="#E3E3E3"/>
<circle cx="113.5" cy="290.5" r="1.5" fill="#E3E3E3"/>
<circle cx="131.5" cy="290.5" r="1.5" fill="#E3E3E3"/>
<circle cx="149.5" cy="290.5" r="1.5" fill="#E3E3E3"/>
<circle cx="167.5" cy="290.5" r="1.5" fill="#E3E3E3"/>
<circle cx="185.5" cy="290.5" r="1.5" fill="#E3E3E3"/>
<circle cx="203.5" cy="290.5" r="1.5" fill="#E3E3E3"/>
<circle cx="221.5" cy="290.5" r="1.5" fill="#E3E3E3"/>
<circle cx="239.5" cy="290.5" r="1.5" fill="#E3E3E3"/>
<circle cx="257.5" cy="290.5" r="1.5" fill="#E3E3E3"/>
<circle cx="275.5" cy="290.5" r="1.5" fill="#E3E3E3"/>
<circle cx="293.5" cy="290.5" r="1.5" fill="#E3E3E3"/>
<circle cx="311.5" cy="290.5" r="1.5" fill="#E3E3E3"/>
<circle cx="329.5" cy="290.5" r="1.5" fill="#E3E3E3"/>
<circle cx="347.5" cy="290.5" r="1.5" fill="#E3E3E3"/>
<circle cx="365.5" cy="290.5" r="1.5" fill="#E3E3E3"/>
<circle cx="383.5" cy="290.5" r="1.5" fill="#E3E3E3"/>
<circle cx="401.5" cy="290.5" r="1.5" fill="#E3E3E3"/>
<circle cx="419.5" cy="290.5" r="1.5" fill="#E3E3E3"/>
<circle cx="437.5" cy="290.5" r="1.5" fill="#E3E3E3"/>
<circle cx="95.5" cy="308.5" r="1.5" fill="#E3E3E3"/>
<circle cx="113.5" cy="308.5" r="1.5" fill="#E3E3E3"/>
<circle cx="131.5" cy="308.5" r="1.5" fill="#E3E3E3"/>
<circle cx="149.5" cy="308.5" r="1.5" fill="#E3E3E3"/>
<circle cx="167.5" cy="308.5" r="1.5" fill="#E3E3E3"/>
<circle cx="185.5" cy="308.5" r="1.5" fill="#E3E3E3"/>
<circle cx="203.5" cy="308.5" r="1.5" fill="#E3E3E3"/>
<circle cx="221.5" cy="308.5" r="1.5" fill="#E3E3E3"/>
<circle cx="239.5" cy="308.5" r="1.5" fill="#E3E3E3"/>
<circle cx="257.5" cy="308.5" r="1.5" fill="#E3E3E3"/>
<circle cx="275.5" cy="308.5" r="1.5" fill="#E3E3E3"/>
<circle cx="293.5" cy="308.5" r="1.5" fill="#E3E3E3"/>
<circle cx="311.5" cy="308.5" r="1.5" fill="#E3E3E3"/>
<circle cx="329.5" cy="308.5" r="1.5" fill="#E3E3E3"/>
<circle cx="347.5" cy="308.5" r="1.5" fill="#E3E3E3"/>
<circle cx="365.5" cy="308.5" r="1.5" fill="#E3E3E3"/>
<circle cx="383.5" cy="308.5" r="1.5" fill="#E3E3E3"/>
<circle cx="401.5" cy="308.5" r="1.5" fill="#E3E3E3"/>
<circle cx="419.5" cy="308.5" r="1.5" fill="#E3E3E3"/>
<circle cx="437.5" cy="308.5" r="1.5" fill="#E3E3E3"/>
<circle cx="95.5" cy="326.5" r="1.5" fill="#E3E3E3"/>
<circle cx="113.5" cy="326.5" r="1.5" fill="#E3E3E3"/>
<circle cx="131.5" cy="326.5" r="1.5" fill="#E3E3E3"/>
<circle cx="149.5" cy="326.5" r="1.5" fill="#E3E3E3"/>
<circle cx="167.5" cy="326.5" r="1.5" fill="#E3E3E3"/>
<circle cx="185.5" cy="326.5" r="1.5" fill="#E3E3E3"/>
<circle cx="203.5" cy="326.5" r="1.5" fill="#E3E3E3"/>
<circle cx="221.5" cy="326.5" r="1.5" fill="#E3E3E3"/>
<circle cx="239.5" cy="326.5" r="1.5" fill="#E3E3E3"/>
<circle cx="257.5" cy="326.5" r="1.5" fill="#E3E3E3"/>
<circle cx="275.5" cy="326.5" r="1.5" fill="#E3E3E3"/>
<circle cx="293.5" cy="326.5" r="1.5" fill="#E3E3E3"/>
<circle cx="311.5" cy="326.5" r="1.5" fill="#E3E3E3"/>
<circle cx="329.5" cy="326.5" r="1.5" fill="#E3E3E3"/>
<circle cx="347.5" cy="326.5" r="1.5" fill="#E3E3E3"/>
<circle cx="365.5" cy="326.5" r="1.5" fill="#E3E3E3"/>
<circle cx="383.5" cy="326.5" r="1.5" fill="#E3E3E3"/>
<circle cx="401.5" cy="326.5" r="1.5" fill="#E3E3E3"/>
<circle cx="419.5" cy="326.5" r="1.5" fill="#E3E3E3"/>
<circle cx="437.5" cy="326.5" r="1.5" fill="#E3E3E3"/>
<circle cx="95.5" cy="344.5" r="1.5" fill="#E3E3E3"/>
<circle cx="113.5" cy="344.5" r="1.5" fill="#E3E3E3"/>
<circle cx="131.5" cy="344.5" r="1.5" fill="#E3E3E3"/>
<circle cx="149.5" cy="344.5" r="1.5" fill="#E3E3E3"/>
<circle cx="167.5" cy="344.5" r="1.5" fill="#E3E3E3"/>
<circle cx="185.5" cy="344.5" r="1.5" fill="#E3E3E3"/>
<circle cx="203.5" cy="344.5" r="1.5" fill="#E3E3E3"/>
<circle cx="221.5" cy="344.5" r="1.5" fill="#E3E3E3"/>
<circle cx="239.5" cy="344.5" r="1.5" fill="#E3E3E3"/>
<circle cx="257.5" cy="344.5" r="1.5" fill="#E3E3E3"/>
<circle cx="275.5" cy="344.5" r="1.5" fill="#E3E3E3"/>
<circle cx="293.5" cy="344.5" r="1.5" fill="#E3E3E3"/>
<circle cx="311.5" cy="344.5" r="1.5" fill="#E3E3E3"/>
<circle cx="329.5" cy="344.5" r="1.5" fill="#E3E3E3"/>
<circle cx="347.5" cy="344.5" r="1.5" fill="#E3E3E3"/>
<circle cx="365.5" cy="344.5" r="1.5" fill="#E3E3E3"/>
<circle cx="383.5" cy="344.5" r="1.5" fill="#E3E3E3"/>
<circle cx="401.5" cy="344.5" r="1.5" fill="#E3E3E3"/>
<circle cx="419.5" cy="344.5" r="1.5" fill="#E3E3E3"/>
<circle cx="437.5" cy="344.5" r="1.5" fill="#E3E3E3"/>
<rect width="453" height="348" fill="url(#paint0_radial_86_3243)"/>
<path d="M-11.5696 291.918C-26.6742 289.206 -39.6847 275.948 -50.2744 261.139C-60.8466 246.353 -68.9739 229.998 -67.1171 214.677C-65.2603 199.355 -53.4063 184.983 -39.1707 176.29C-24.9175 167.621 -8.29361 164.566 7.69483 166.815C23.7009 169.088 39.0298 176.658 49.9116 189.185C60.7934 201.712 67.2039 219.214 64.4633 234.999C61.7161 250.825 49.7761 264.928 35.2484 275.903C20.679 286.871 3.52846 294.671 -11.5696 291.918Z" fill="#FEB447"/>
<path d="M26.52 117.92C19.08 117.92 12.48 116.2 6.72 112.76C1.04 109.32 -3.44 104.32 -6.72 97.76C-9.92 91.2 -11.52 83.28 -11.52 74C-11.52 64.72 -9.92 56.8 -6.72 50.24C-3.44 43.68 1.04 38.68 6.72 35.24C12.48 31.8 19.08 30.08 26.52 30.08C33.96 30.08 40.52 31.8 46.2 35.24C51.96 38.68 56.44 43.68 59.64 50.24C62.92 56.8 64.56 64.72 64.56 74C64.56 83.28 62.92 91.2 59.64 97.76C56.44 104.32 51.96 109.32 46.2 112.76C40.52 116.2 33.96 117.92 26.52 117.92ZM26.52 95.24C28.36 95.24 30 94.6 31.44 93.32C32.88 92.04 34 89.84 34.8 86.72C35.68 83.6 36.12 79.36 36.12 74C36.12 68.56 35.68 64.32 34.8 61.28C34 58.16 32.88 55.96 31.44 54.68C30 53.4 28.36 52.76 26.52 52.76C24.68 52.76 23.04 53.4 21.6 54.68C20.16 55.96 19 58.16 18.12 61.28C17.32 64.32 16.92 68.56 16.92 74C16.92 79.36 17.32 83.6 18.12 86.72C19 89.84 20.16 92.04 21.6 93.32C23.04 94.6 24.68 95.24 26.52 95.24ZM79.5141 116L79.5141 41.84L91.6341 53.36H65.1141L65.1141 32L107.834 32L107.834 116H79.5141Z" fill="#E3E3E3"/>
</g>
<path d="M44.958 254V230.2H66.65V254H61.176V233.43L62.434 234.688H49.174L50.432 233.43V254H44.958ZM80.7438 254.272C78.6585 254.272 76.8225 253.864 75.2358 253.048C73.6718 252.232 72.4591 251.121 71.5978 249.716C70.7365 248.288 70.3058 246.667 70.3058 244.854C70.3058 243.018 70.7251 241.397 71.5638 239.992C72.4251 238.564 73.5925 237.453 75.0658 236.66C76.5391 235.844 78.2051 235.436 80.0638 235.436C81.8545 235.436 83.4638 235.821 84.8918 236.592C86.3425 237.34 87.4871 238.428 88.3258 239.856C89.1645 241.261 89.5838 242.95 89.5838 244.922C89.5838 245.126 89.5725 245.364 89.5498 245.636C89.5271 245.885 89.5045 246.123 89.4818 246.35H74.6238V243.256H86.6938L84.6538 244.174C84.6538 243.222 84.4611 242.395 84.0758 241.692C83.6905 240.989 83.1578 240.445 82.4778 240.06C81.7978 239.652 81.0045 239.448 80.0978 239.448C79.1911 239.448 78.3865 239.652 77.6838 240.06C77.0038 240.445 76.4711 241.001 76.0858 241.726C75.7005 242.429 75.5078 243.267 75.5078 244.242V245.058C75.5078 246.055 75.7231 246.939 76.1538 247.71C76.6071 248.458 77.2305 249.036 78.0238 249.444C78.8398 249.829 79.7918 250.022 80.8798 250.022C81.8545 250.022 82.7045 249.875 83.4298 249.58C84.1778 249.285 84.8578 248.843 85.4698 248.254L88.2918 251.314C87.4531 252.266 86.3991 253.003 85.1298 253.524C83.8605 254.023 82.3985 254.272 80.7438 254.272ZM104.087 254.272C102.546 254.272 101.197 253.932 100.041 253.252C98.8855 252.572 97.9788 251.541 97.3215 250.158C96.6868 248.753 96.3695 246.985 96.3695 244.854C96.3695 242.701 96.6755 240.933 97.2875 239.55C97.8995 238.167 98.7835 237.136 99.9395 236.456C101.095 235.776 102.478 235.436 104.087 235.436C105.81 235.436 107.351 235.833 108.711 236.626C110.094 237.397 111.182 238.485 111.975 239.89C112.791 241.295 113.199 242.95 113.199 244.854C113.199 246.781 112.791 248.447 111.975 249.852C111.182 251.257 110.094 252.345 108.711 253.116C107.351 253.887 105.81 254.272 104.087 254.272ZM93.2755 260.596V235.708H98.3415V239.448L98.2395 244.888L98.5795 250.294V260.596H93.2755ZM103.169 249.92C104.053 249.92 104.835 249.716 105.515 249.308C106.218 248.9 106.773 248.322 107.181 247.574C107.612 246.803 107.827 245.897 107.827 244.854C107.827 243.789 107.612 242.882 107.181 242.134C106.773 241.386 106.218 240.808 105.515 240.4C104.835 239.992 104.053 239.788 103.169 239.788C102.285 239.788 101.492 239.992 100.789 240.4C100.087 240.808 99.5315 241.386 99.1235 242.134C98.7155 242.882 98.5115 243.789 98.5115 244.854C98.5115 245.897 98.7155 246.803 99.1235 247.574C99.5315 248.322 100.087 248.9 100.789 249.308C101.492 249.716 102.285 249.92 103.169 249.92ZM116.577 254V235.708H125.927C128.216 235.708 130.007 236.127 131.299 236.966C132.591 237.782 133.237 238.938 133.237 240.434C133.237 241.93 132.625 243.109 131.401 243.97C130.2 244.809 128.602 245.228 126.607 245.228L127.151 244.004C129.372 244.004 131.027 244.412 132.115 245.228C133.226 246.044 133.781 247.234 133.781 248.798C133.781 250.407 133.169 251.677 131.945 252.606C130.721 253.535 128.851 254 126.335 254H116.577ZM121.439 250.396H125.893C126.868 250.396 127.593 250.237 128.069 249.92C128.568 249.58 128.817 249.07 128.817 248.39C128.817 247.687 128.59 247.177 128.137 246.86C127.684 246.52 126.97 246.35 125.995 246.35H121.439V250.396ZM121.439 243.222H125.451C126.38 243.222 127.072 243.052 127.525 242.712C128.001 242.372 128.239 241.885 128.239 241.25C128.239 240.593 128.001 240.105 127.525 239.788C127.072 239.471 126.38 239.312 125.451 239.312H121.439V243.222ZM137.387 254V235.708H142.657V246.588L151.565 235.708H156.427V254H151.157V243.12L142.283 254H137.387ZM172.712 246.996C171.964 247.404 171.137 247.733 170.23 247.982C169.323 248.231 168.326 248.356 167.238 248.356C164.835 248.356 162.988 247.812 161.696 246.724C160.404 245.613 159.758 243.857 159.758 241.454V235.708H165.062V241.114C165.062 242.247 165.357 243.063 165.946 243.562C166.535 244.038 167.363 244.276 168.428 244.276C169.199 244.276 169.935 244.185 170.638 244.004C171.363 243.823 172.055 243.562 172.712 243.222V246.996ZM172.338 254V235.708H177.642V254H172.338ZM182.395 254V235.708H187.665V242.848H195.621V235.708H200.925V254H195.621V247.166H187.665V254H182.395ZM224.498 254V235.708H229.768V254H224.498ZM215.284 241.556C217.687 241.579 219.489 242.123 220.69 243.188C221.914 244.231 222.526 245.715 222.526 247.642C222.526 249.659 221.835 251.235 220.452 252.368C219.07 253.479 217.109 254.034 214.57 254.034L205.662 254V235.708H210.932V241.556H215.284ZM214.094 250.26C215.114 250.283 215.896 250.067 216.44 249.614C216.984 249.161 217.256 248.481 217.256 247.574C217.256 246.667 216.984 246.021 216.44 245.636C215.896 245.228 215.114 245.013 214.094 244.99L210.932 244.956V250.26H214.094ZM234.541 254V235.708H239.811V246.588L248.719 235.708H253.581V254H248.311V243.12L239.437 254H234.541ZM243.721 233.736C241.726 233.736 240.23 233.305 239.233 232.444C238.236 231.56 237.726 230.234 237.703 228.466H241.171C241.194 229.237 241.409 229.849 241.817 230.302C242.225 230.755 242.848 230.982 243.687 230.982C244.503 230.982 245.126 230.755 245.557 230.302C246.01 229.849 246.237 229.237 246.237 228.466H249.773C249.773 230.234 249.263 231.56 248.243 232.444C247.223 233.305 245.716 233.736 243.721 233.736ZM278.577 254V250.43L278.237 249.648V243.256C278.237 242.123 277.885 241.239 277.183 240.604C276.503 239.969 275.449 239.652 274.021 239.652C273.046 239.652 272.083 239.811 271.131 240.128C270.201 240.423 269.408 240.831 268.751 241.352L266.847 237.646C267.844 236.943 269.045 236.399 270.451 236.014C271.856 235.629 273.284 235.436 274.735 235.436C277.523 235.436 279.687 236.093 281.229 237.408C282.77 238.723 283.541 240.774 283.541 243.562V254H278.577ZM273.001 254.272C271.573 254.272 270.349 254.034 269.329 253.558C268.309 253.059 267.527 252.391 266.983 251.552C266.439 250.713 266.167 249.773 266.167 248.73C266.167 247.642 266.427 246.69 266.949 245.874C267.493 245.058 268.343 244.423 269.499 243.97C270.655 243.494 272.162 243.256 274.021 243.256H278.883V246.35H274.599C273.352 246.35 272.491 246.554 272.015 246.962C271.561 247.37 271.335 247.88 271.335 248.492C271.335 249.172 271.595 249.716 272.117 250.124C272.661 250.509 273.397 250.702 274.327 250.702C275.211 250.702 276.004 250.498 276.707 250.09C277.409 249.659 277.919 249.036 278.237 248.22L279.053 250.668C278.667 251.847 277.965 252.742 276.945 253.354C275.925 253.966 274.61 254.272 273.001 254.272ZM287.808 254V235.708H293.078V242.848H301.034V235.708H306.338V254H301.034V247.166H293.078V254H287.808ZM322.023 254V250.43L321.683 249.648V243.256C321.683 242.123 321.332 241.239 320.629 240.604C319.949 239.969 318.895 239.652 317.467 239.652C316.493 239.652 315.529 239.811 314.577 240.128C313.648 240.423 312.855 240.831 312.197 241.352L310.293 237.646C311.291 236.943 312.492 236.399 313.897 236.014C315.303 235.629 316.731 235.436 318.181 235.436C320.969 235.436 323.134 236.093 324.675 237.408C326.217 238.723 326.987 240.774 326.987 243.562V254H322.023ZM316.447 254.272C315.019 254.272 313.795 254.034 312.775 253.558C311.755 253.059 310.973 252.391 310.429 251.552C309.885 250.713 309.613 249.773 309.613 248.73C309.613 247.642 309.874 246.69 310.395 245.874C310.939 245.058 311.789 244.423 312.945 243.97C314.101 243.494 315.609 243.256 317.467 243.256H322.329V246.35H318.045C316.799 246.35 315.937 246.554 315.461 246.962C315.008 247.37 314.781 247.88 314.781 248.492C314.781 249.172 315.042 249.716 315.563 250.124C316.107 250.509 316.844 250.702 317.773 250.702C318.657 250.702 319.451 250.498 320.153 250.09C320.856 249.659 321.366 249.036 321.683 248.22L322.499 250.668C322.114 251.847 321.411 252.742 320.391 253.354C319.371 253.966 318.057 254.272 316.447 254.272ZM328.943 253.966L329.215 249.614C329.351 249.637 329.487 249.659 329.623 249.682C329.759 249.682 329.884 249.682 329.997 249.682C330.632 249.682 331.13 249.501 331.493 249.138C331.856 248.775 332.128 248.288 332.309 247.676C332.49 247.041 332.615 246.327 332.683 245.534C332.774 244.741 332.842 243.913 332.887 243.052L333.159 235.708H348.799V254H343.495V238.768L344.685 240.06H336.661L337.783 238.7L337.545 243.29C337.477 244.922 337.341 246.418 337.137 247.778C336.956 249.138 336.65 250.317 336.219 251.314C335.788 252.289 335.21 253.048 334.485 253.592C333.76 254.113 332.83 254.374 331.697 254.374C331.289 254.374 330.858 254.34 330.405 254.272C329.952 254.204 329.464 254.102 328.943 253.966ZM353.56 254V235.708H358.83V246.588L367.738 235.708H372.6V254H367.33V243.12L358.456 254H353.56ZM383.38 254.34C381.975 254.34 380.57 254.193 379.164 253.898C377.782 253.603 376.501 253.161 375.322 252.572L376.75 248.866C377.68 249.319 378.688 249.671 379.776 249.92C380.887 250.147 382.009 250.26 383.142 250.26C383.958 250.26 384.661 250.181 385.25 250.022C385.862 249.841 386.327 249.591 386.644 249.274C386.962 248.957 387.12 248.571 387.12 248.118C387.12 247.529 386.871 247.087 386.372 246.792C385.874 246.475 385.148 246.316 384.196 246.316H380.456V243.018H383.754C384.366 243.018 384.888 242.95 385.318 242.814C385.749 242.678 386.066 242.485 386.27 242.236C386.497 241.964 386.61 241.647 386.61 241.284C386.61 240.899 386.474 240.57 386.202 240.298C385.93 240.026 385.534 239.822 385.012 239.686C384.491 239.527 383.834 239.448 383.04 239.448C382.134 239.448 381.193 239.561 380.218 239.788C379.244 239.992 378.246 240.298 377.226 240.706L375.934 237.034C377.136 236.535 378.326 236.139 379.504 235.844C380.683 235.549 381.85 235.391 383.006 235.368C384.706 235.323 386.236 235.504 387.596 235.912C388.956 236.32 390.022 236.909 390.792 237.68C391.586 238.451 391.982 239.391 391.982 240.502C391.982 241.386 391.71 242.179 391.166 242.882C390.645 243.585 389.92 244.14 388.99 244.548C388.061 244.933 387.018 245.126 385.862 245.126L385.998 244.072C388.016 244.072 389.602 244.48 390.758 245.296C391.914 246.089 392.492 247.177 392.492 248.56C392.492 249.739 392.084 250.77 391.268 251.654C390.475 252.515 389.387 253.184 388.004 253.66C386.644 254.113 385.103 254.34 383.38 254.34ZM57.13 300.62V289.06H51.146L51.044 291.406C50.9987 292.381 50.942 293.31 50.874 294.194C50.806 295.078 50.67 295.883 50.466 296.608C50.2847 297.311 50.0127 297.911 49.65 298.41C49.2873 298.886 48.8 299.215 48.188 299.396L42.952 298.648C43.6093 298.648 44.142 298.455 44.55 298.07C44.958 297.662 45.2753 297.107 45.502 296.404C45.7287 295.679 45.8987 294.863 46.012 293.956C46.1253 293.027 46.2047 292.052 46.25 291.032L46.488 284.708H62.434V300.62H57.13ZM42.34 306.944V298.648H65.052V306.944H60.122V303H47.27V306.944H42.34ZM78.9978 303V299.43L78.6578 298.648V292.256C78.6578 291.123 78.3065 290.239 77.6038 289.604C76.9238 288.969 75.8698 288.652 74.4418 288.652C73.4672 288.652 72.5038 288.811 71.5518 289.128C70.6225 289.423 69.8292 289.831 69.1718 290.352L67.2678 286.646C68.2652 285.943 69.4665 285.399 70.8718 285.014C72.2772 284.629 73.7052 284.436 75.1558 284.436C77.9438 284.436 80.1085 285.093 81.6498 286.408C83.1912 287.723 83.9618 289.774 83.9618 292.562V303H78.9978ZM73.4218 303.272C71.9938 303.272 70.7698 303.034 69.7498 302.558C68.7298 302.059 67.9478 301.391 67.4038 300.552C66.8598 299.713 66.5878 298.773 66.5878 297.73C66.5878 296.642 66.8485 295.69 67.3698 294.874C67.9138 294.058 68.7638 293.423 69.9198 292.97C71.0758 292.494 72.5832 292.256 74.4418 292.256H79.3038V295.35H75.0198C73.7732 295.35 72.9118 295.554 72.4358 295.962C71.9825 296.37 71.7558 296.88 71.7558 297.492C71.7558 298.172 72.0165 298.716 72.5378 299.124C73.0818 299.509 73.8185 299.702 74.7478 299.702C75.6318 299.702 76.4252 299.498 77.1278 299.09C77.8305 298.659 78.3405 298.036 78.6578 297.22L79.4738 299.668C79.0885 300.847 78.3858 301.742 77.3658 302.354C76.3458 302.966 75.0312 303.272 73.4218 303.272ZM88.2294 303V284.708H93.4994V291.848H101.455V284.708H106.759V303H101.455V296.166H93.4994V303H88.2294ZM111.497 303V284.708H116.767V291.848H124.723V284.708H130.027V303H124.723V296.166H116.767V303H111.497ZM153.6 303V284.708H158.87V303H153.6ZM144.386 290.556C146.789 290.579 148.591 291.123 149.792 292.188C151.016 293.231 151.628 294.715 151.628 296.642C151.628 298.659 150.937 300.235 149.554 301.368C148.172 302.479 146.211 303.034 143.672 303.034L134.764 303V284.708H140.034V290.556H144.386ZM143.196 299.26C144.216 299.283 144.998 299.067 145.542 298.614C146.086 298.161 146.358 297.481 146.358 296.574C146.358 295.667 146.086 295.021 145.542 294.636C144.998 294.228 144.216 294.013 143.196 293.99L140.034 293.956V299.26H143.196ZM161.195 303L169.389 292.256L169.287 295.18L161.433 284.708H167.383L172.347 291.542L170.103 291.61L175.237 284.708H180.881L172.993 295.078V292.222L181.153 303H175.135L169.933 295.724L172.143 296.03L166.975 303H161.195Z" fill="black"/>
</g>
<path opacity="0.2" d="M204.554 44.0594V139.94C204.554 143.011 202.065 145.5 198.994 145.5C195.924 145.5 193.435 143.011 193.435 139.94V44.0594C193.435 40.989 195.924 38.5 198.994 38.5C202.065 38.5 204.554 40.989 204.554 44.0594Z" stroke="#9EA7B3" stroke-width="3"/>
<path opacity="0.2" d="M226.522 44.0594V139.94C226.522 143.011 224.033 145.5 220.962 145.5C217.892 145.5 215.403 143.011 215.403 139.94V44.0594C215.403 40.989 217.892 38.5 220.962 38.5C224.033 38.5 226.522 40.989 226.522 44.0594Z" stroke="#9EA7B3" stroke-width="3"/>
<path opacity="0.2" d="M248.486 44.0594V139.94C248.486 143.011 245.996 145.5 242.926 145.5C239.856 145.5 237.367 143.011 237.367 139.94V44.0594C237.367 40.989 239.856 38.5 242.926 38.5C245.996 38.5 248.486 40.989 248.486 44.0594Z" stroke="#9EA7B3" stroke-width="3"/>
<path opacity="0.2" d="M270.457 44.0594V139.94C270.457 143.011 267.968 145.5 264.897 145.5C261.827 145.5 259.338 143.011 259.338 139.94V44.0594C259.338 40.989 261.827 38.5 264.897 38.5C267.968 38.5 270.457 40.989 270.457 44.0594Z" stroke="#9EA7B3" stroke-width="3"/>
<path opacity="0.2" d="M292.421 44.0594V139.94C292.421 143.011 289.932 145.5 286.862 145.5C283.791 145.5 281.302 143.011 281.302 139.94V44.0594C281.302 40.989 283.791 38.5 286.862 38.5C289.932 38.5 292.421 40.989 292.421 44.0594Z" stroke="#9EA7B3" stroke-width="3"/>
<path opacity="0.2" d="M314.385 44.0594V139.94C314.385 143.011 311.896 145.5 308.826 145.5C305.756 145.5 303.267 143.011 303.267 139.94V44.0594C303.267 40.989 305.756 38.5 308.826 38.5C311.896 38.5 314.385 40.989 314.385 44.0594Z" stroke="#9EA7B3" stroke-width="3"/>
<path opacity="0.2" d="M336.35 44.0594V139.94C336.35 143.011 333.861 145.5 330.79 145.5C327.72 145.5 325.231 143.011 325.231 139.94V44.0594C325.231 40.989 327.72 38.5 330.79 38.5C333.861 38.5 336.35 40.989 336.35 44.0594Z" stroke="#9EA7B3" stroke-width="3"/>
<path opacity="0.2" d="M358.324 44.0594V139.94C358.324 143.011 355.835 145.5 352.764 145.5C349.694 145.5 347.205 143.011 347.205 139.94V44.0594C347.205 40.989 349.694 38.5 352.764 38.5C355.835 38.5 358.324 40.989 358.324 44.0594Z" stroke="#9EA7B3" stroke-width="3"/>
<path opacity="0.2" d="M380.288 44.0594V139.94C380.288 143.011 377.799 145.5 374.729 145.5C371.658 145.5 369.169 143.011 369.169 139.94V44.0594C369.169 40.989 371.658 38.5 374.729 38.5C377.799 38.5 380.288 40.989 380.288 44.0594Z" stroke="#9EA7B3" stroke-width="3"/>
<path opacity="0.2" d="M402.253 44.0594V139.94C402.253 143.011 399.764 145.5 396.693 145.5C393.623 145.5 391.134 143.011 391.134 139.94V44.0594C391.134 40.989 393.623 38.5 396.693 38.5C399.764 38.5 402.253 40.989 402.253 44.0594Z" stroke="#9EA7B3" stroke-width="3"/>
<path d="M204.554 120.659V139.923C204.554 142.993 202.065 145.482 198.994 145.482C195.924 145.482 193.435 142.993 193.435 139.923V120.659C193.435 117.588 195.924 115.099 198.994 115.099C202.065 115.099 204.554 117.588 204.554 120.659Z" stroke="#C81F56" stroke-width="3"/>
<path d="M226.522 92.8602V139.928C226.522 142.998 224.033 145.487 220.962 145.487C217.892 145.487 215.403 142.998 215.403 139.928V92.8602C215.403 89.7898 217.892 87.3008 220.962 87.3008C224.033 87.3008 226.522 89.7898 226.522 92.8602Z" stroke="#FE840E" stroke-width="3"/>
<path d="M248.486 56.2728V139.939C248.486 143.009 245.996 145.498 242.926 145.498C239.856 145.498 237.367 143.009 237.367 139.939V56.2728C237.367 53.2024 239.856 50.7134 242.926 50.7134C245.996 50.7134 248.486 53.2024 248.486 56.2728Z" stroke="#FEB447" stroke-width="3"/>
<path d="M270.457 120.659V139.923C270.457 142.993 267.968 145.482 264.897 145.482C261.827 145.482 259.338 142.993 259.338 139.923V120.659C259.338 117.588 261.827 115.099 264.897 115.099C267.968 115.099 270.457 117.588 270.457 120.659Z" stroke="#FE840E" stroke-width="3"/>
<path d="M292.421 100.957V139.939C292.421 143.009 289.932 145.498 286.862 145.498C283.791 145.498 281.302 143.009 281.302 139.939V100.957C281.302 97.8867 283.791 95.3977 286.862 95.3977C289.932 95.3977 292.421 97.8867 292.421 100.957Z" stroke="#C81F56" stroke-width="3"/>
<path d="M314.385 56.2728V139.939C314.385 143.009 311.896 145.498 308.826 145.498C305.756 145.498 303.267 143.009 303.267 139.939V56.2728C303.267 53.2024 305.756 50.7134 308.826 50.7134C311.896 50.7134 314.385 53.2024 314.385 56.2728Z" stroke="#FE840E" stroke-width="3"/>
<path d="M336.35 123.706V139.928C336.35 142.999 333.861 145.488 330.79 145.488C327.72 145.488 325.231 142.999 325.231 139.928V123.706C325.231 120.636 327.72 118.147 330.79 118.147C333.861 118.147 336.35 120.636 336.35 123.706Z" stroke="#FEB447" stroke-width="3"/>
<path d="M358.324 74.3514V139.923C358.324 142.993 355.835 145.482 352.764 145.482C349.694 145.482 347.205 142.993 347.205 139.923V74.3514C347.205 71.281 349.694 68.792 352.764 68.792C355.835 68.792 358.324 71.281 358.324 74.3514Z" stroke="#FE840E" stroke-width="3"/>
<path d="M380.288 100.957V139.939C380.288 143.009 377.799 145.498 374.729 145.498C371.658 145.498 369.169 143.009 369.169 139.939V100.957C369.169 97.8867 371.658 95.3977 374.729 95.3977C377.799 95.3977 380.288 97.8867 380.288 100.957Z" stroke="#C81F56" stroke-width="3"/>
<path d="M402.253 120.659V139.923C402.253 142.993 399.764 145.482 396.693 145.482C393.623 145.482 391.134 142.993 391.134 139.923V120.659C391.134 117.588 393.623 115.099 396.693 115.099C399.764 115.099 402.253 117.588 402.253 120.659Z" stroke="#FE840E" stroke-width="3"/>
</g>
<defs>
<filter id="filter0_d_86_3243" x="-15" y="-7" width="483" height="378" filterUnits="userSpaceOnUse" color-interpolation-filters="sRGB">
<feFlood flood-opacity="0" result="BackgroundImageFix"/>
<feColorMatrix in="SourceAlpha" type="matrix" values="0 0 0 0 0 0 0 0 0 0 0 0 0 0 0 0 0 0 127 0" result="hardAlpha"/>
<feOffset dy="8"/>
<feGaussianBlur stdDeviation="7.5"/>
<feColorMatrix type="matrix" values="0 0 0 0 0 0 0 0 0 0 0 0 0 0 0 0 0 0 0.1 0"/>
<feBlend mode="normal" in2="BackgroundImageFix" result="effect1_dropShadow_86_3243"/>
<feBlend mode="normal" in="SourceGraphic" in2="effect1_dropShadow_86_3243" result="shape"/>
</filter>
<radialGradient id="paint0_radial_86_3243" cx="0" cy="0" r="1" gradientUnits="userSpaceOnUse" gradientTransform="translate(317.5 162) rotate(180) scale(218 283.776)">
<stop stop-color="white" stop-opacity="0"/>
<stop offset="1" stop-color="white"/>
</radialGradient>
<clipPath id="clip0_86_3243">
<rect width="453" height="348" fill="white"/>
</clipPath>
</defs>
</svg>
