<svg width="453" height="348" viewBox="0 0 453 348" fill="none" xmlns="http://www.w3.org/2000/svg">
<g clip-path="url(#clip0_86_3225)">
<g filter="url(#filter0_d_86_3225)">
<mask id="mask0_86_3225" style="mask-type:alpha" maskUnits="userSpaceOnUse" x="0" y="0" width="453" height="348">
<rect width="453" height="348" rx="20" fill="#FE840E"/>
</mask>
<g mask="url(#mask0_86_3225)">
<rect width="453" height="348" fill="white"/>
<circle cx="95.5" cy="2.5" r="1.5" fill="#E3E3E3"/>
<circle cx="113.5" cy="2.5" r="1.5" fill="#E3E3E3"/>
<circle cx="131.5" cy="2.5" r="1.5" fill="#E3E3E3"/>
<circle cx="149.5" cy="2.5" r="1.5" fill="#E3E3E3"/>
<circle cx="167.5" cy="2.5" r="1.5" fill="#E3E3E3"/>
<circle cx="185.5" cy="2.5" r="1.5" fill="#E3E3E3"/>
<circle cx="203.5" cy="2.5" r="1.5" fill="#E3E3E3"/>
<circle cx="221.5" cy="2.5" r="1.5" fill="#E3E3E3"/>
<circle cx="239.5" cy="2.5" r="1.5" fill="#E3E3E3"/>
<circle cx="257.5" cy="2.5" r="1.5" fill="#E3E3E3"/>
<circle cx="275.5" cy="2.5" r="1.5" fill="#E3E3E3"/>
<circle cx="293.5" cy="2.5" r="1.5" fill="#E3E3E3"/>
<circle cx="311.5" cy="2.5" r="1.5" fill="#E3E3E3"/>
<circle cx="329.5" cy="2.5" r="1.5" fill="#E3E3E3"/>
<circle cx="347.5" cy="2.5" r="1.5" fill="#E3E3E3"/>
<circle cx="365.5" cy="2.5" r="1.5" fill="#E3E3E3"/>
<circle cx="383.5" cy="2.5" r="1.5" fill="#E3E3E3"/>
<circle cx="401.5" cy="2.5" r="1.5" fill="#E3E3E3"/>
<circle cx="419.5" cy="2.5" r="1.5" fill="#E3E3E3"/>
<circle cx="437.5" cy="2.5" r="1.5" fill="#E3E3E3"/>
<circle cx="95.5" cy="20.5" r="1.5" fill="#E3E3E3"/>
<circle cx="113.5" cy="20.5" r="1.5" fill="#E3E3E3"/>
<circle cx="131.5" cy="20.5" r="1.5" fill="#E3E3E3"/>
<circle cx="149.5" cy="20.5" r="1.5" fill="#E3E3E3"/>
<circle cx="167.5" cy="20.5" r="1.5" fill="#E3E3E3"/>
<circle cx="185.5" cy="20.5" r="1.5" fill="#E3E3E3"/>
<circle cx="203.5" cy="20.5" r="1.5" fill="#E3E3E3"/>
<circle cx="221.5" cy="20.5" r="1.5" fill="#E3E3E3"/>
<circle cx="239.5" cy="20.5" r="1.5" fill="#E3E3E3"/>
<circle cx="257.5" cy="20.5" r="1.5" fill="#E3E3E3"/>
<circle cx="275.5" cy="20.5" r="1.5" fill="#E3E3E3"/>
<circle cx="293.5" cy="20.5" r="1.5" fill="#E3E3E3"/>
<circle cx="311.5" cy="20.5" r="1.5" fill="#E3E3E3"/>
<circle cx="329.5" cy="20.5" r="1.5" fill="#E3E3E3"/>
<circle cx="347.5" cy="20.5" r="1.5" fill="#E3E3E3"/>
<circle cx="365.5" cy="20.5" r="1.5" fill="#E3E3E3"/>
<circle cx="383.5" cy="20.5" r="1.5" fill="#E3E3E3"/>
<circle cx="401.5" cy="20.5" r="1.5" fill="#E3E3E3"/>
<circle cx="419.5" cy="20.5" r="1.5" fill="#E3E3E3"/>
<circle cx="437.5" cy="20.5" r="1.5" fill="#E3E3E3"/>
<circle cx="95.5" cy="38.5" r="1.5" fill="#E3E3E3"/>
<circle cx="113.5" cy="38.5" r="1.5" fill="#E3E3E3"/>
<circle cx="131.5" cy="38.5" r="1.5" fill="#E3E3E3"/>
<circle cx="149.5" cy="38.5" r="1.5" fill="#E3E3E3"/>
<circle cx="167.5" cy="38.5" r="1.5" fill="#E3E3E3"/>
<circle cx="185.5" cy="38.5" r="1.5" fill="#E3E3E3"/>
<circle cx="203.5" cy="38.5" r="1.5" fill="#E3E3E3"/>
<circle cx="221.5" cy="38.5" r="1.5" fill="#E3E3E3"/>
<circle cx="239.5" cy="38.5" r="1.5" fill="#E3E3E3"/>
<circle cx="257.5" cy="38.5" r="1.5" fill="#E3E3E3"/>
<circle cx="275.5" cy="38.5" r="1.5" fill="#E3E3E3"/>
<circle cx="293.5" cy="38.5" r="1.5" fill="#E3E3E3"/>
<circle cx="311.5" cy="38.5" r="1.5" fill="#E3E3E3"/>
<circle cx="329.5" cy="38.5" r="1.5" fill="#E3E3E3"/>
<circle cx="347.5" cy="38.5" r="1.5" fill="#E3E3E3"/>
<circle cx="365.5" cy="38.5" r="1.5" fill="#E3E3E3"/>
<circle cx="383.5" cy="38.5" r="1.5" fill="#E3E3E3"/>
<circle cx="401.5" cy="38.5" r="1.5" fill="#E3E3E3"/>
<circle cx="419.5" cy="38.5" r="1.5" fill="#E3E3E3"/>
<circle cx="437.5" cy="38.5" r="1.5" fill="#E3E3E3"/>
<circle cx="95.5" cy="56.5" r="1.5" fill="#E3E3E3"/>
<circle cx="113.5" cy="56.5" r="1.5" fill="#E3E3E3"/>
<circle cx="131.5" cy="56.5" r="1.5" fill="#E3E3E3"/>
<circle cx="149.5" cy="56.5" r="1.5" fill="#E3E3E3"/>
<circle cx="167.5" cy="56.5" r="1.5" fill="#E3E3E3"/>
<circle cx="185.5" cy="56.5" r="1.5" fill="#E3E3E3"/>
<circle cx="203.5" cy="56.5" r="1.5" fill="#E3E3E3"/>
<circle cx="221.5" cy="56.5" r="1.5" fill="#E3E3E3"/>
<circle cx="239.5" cy="56.5" r="1.5" fill="#E3E3E3"/>
<circle cx="257.5" cy="56.5" r="1.5" fill="#E3E3E3"/>
<circle cx="275.5" cy="56.5" r="1.5" fill="#E3E3E3"/>
<circle cx="293.5" cy="56.5" r="1.5" fill="#E3E3E3"/>
<circle cx="311.5" cy="56.5" r="1.5" fill="#E3E3E3"/>
<circle cx="329.5" cy="56.5" r="1.5" fill="#E3E3E3"/>
<circle cx="347.5" cy="56.5" r="1.5" fill="#E3E3E3"/>
<circle cx="365.5" cy="56.5" r="1.5" fill="#E3E3E3"/>
<circle cx="383.5" cy="56.5" r="1.5" fill="#E3E3E3"/>
<circle cx="401.5" cy="56.5" r="1.5" fill="#E3E3E3"/>
<circle cx="419.5" cy="56.5" r="1.5" fill="#E3E3E3"/>
<circle cx="437.5" cy="56.5" r="1.5" fill="#E3E3E3"/>
<circle cx="95.5" cy="74.5" r="1.5" fill="#E3E3E3"/>
<circle cx="113.5" cy="74.5" r="1.5" fill="#E3E3E3"/>
<circle cx="131.5" cy="74.5" r="1.5" fill="#E3E3E3"/>
<circle cx="149.5" cy="74.5" r="1.5" fill="#E3E3E3"/>
<circle cx="167.5" cy="74.5" r="1.5" fill="#E3E3E3"/>
<circle cx="185.5" cy="74.5" r="1.5" fill="#E3E3E3"/>
<circle cx="203.5" cy="74.5" r="1.5" fill="#E3E3E3"/>
<circle cx="221.5" cy="74.5" r="1.5" fill="#E3E3E3"/>
<circle cx="239.5" cy="74.5" r="1.5" fill="#E3E3E3"/>
<circle cx="257.5" cy="74.5" r="1.5" fill="#E3E3E3"/>
<circle cx="275.5" cy="74.5" r="1.5" fill="#E3E3E3"/>
<circle cx="293.5" cy="74.5" r="1.5" fill="#E3E3E3"/>
<circle cx="311.5" cy="74.5" r="1.5" fill="#E3E3E3"/>
<circle cx="329.5" cy="74.5" r="1.5" fill="#E3E3E3"/>
<circle cx="347.5" cy="74.5" r="1.5" fill="#E3E3E3"/>
<circle cx="365.5" cy="74.5" r="1.5" fill="#E3E3E3"/>
<circle cx="383.5" cy="74.5" r="1.5" fill="#E3E3E3"/>
<circle cx="401.5" cy="74.5" r="1.5" fill="#E3E3E3"/>
<circle cx="419.5" cy="74.5" r="1.5" fill="#E3E3E3"/>
<circle cx="437.5" cy="74.5" r="1.5" fill="#E3E3E3"/>
<circle cx="95.5" cy="92.5" r="1.5" fill="#E3E3E3"/>
<circle cx="113.5" cy="92.5" r="1.5" fill="#E3E3E3"/>
<circle cx="131.5" cy="92.5" r="1.5" fill="#E3E3E3"/>
<circle cx="149.5" cy="92.5" r="1.5" fill="#E3E3E3"/>
<circle cx="167.5" cy="92.5" r="1.5" fill="#E3E3E3"/>
<circle cx="185.5" cy="92.5" r="1.5" fill="#E3E3E3"/>
<circle cx="203.5" cy="92.5" r="1.5" fill="#E3E3E3"/>
<circle cx="221.5" cy="92.5" r="1.5" fill="#E3E3E3"/>
<circle cx="239.5" cy="92.5" r="1.5" fill="#E3E3E3"/>
<circle cx="257.5" cy="92.5" r="1.5" fill="#E3E3E3"/>
<circle cx="275.5" cy="92.5" r="1.5" fill="#E3E3E3"/>
<circle cx="293.5" cy="92.5" r="1.5" fill="#E3E3E3"/>
<circle cx="311.5" cy="92.5" r="1.5" fill="#E3E3E3"/>
<circle cx="329.5" cy="92.5" r="1.5" fill="#E3E3E3"/>
<circle cx="347.5" cy="92.5" r="1.5" fill="#E3E3E3"/>
<circle cx="365.5" cy="92.5" r="1.5" fill="#E3E3E3"/>
<circle cx="383.5" cy="92.5" r="1.5" fill="#E3E3E3"/>
<circle cx="401.5" cy="92.5" r="1.5" fill="#E3E3E3"/>
<circle cx="419.5" cy="92.5" r="1.5" fill="#E3E3E3"/>
<circle cx="437.5" cy="92.5" r="1.5" fill="#E3E3E3"/>
<circle cx="95.5" cy="110.5" r="1.5" fill="#E3E3E3"/>
<circle cx="113.5" cy="110.5" r="1.5" fill="#E3E3E3"/>
<circle cx="131.5" cy="110.5" r="1.5" fill="#E3E3E3"/>
<circle cx="149.5" cy="110.5" r="1.5" fill="#E3E3E3"/>
<circle cx="167.5" cy="110.5" r="1.5" fill="#E3E3E3"/>
<circle cx="185.5" cy="110.5" r="1.5" fill="#E3E3E3"/>
<circle cx="203.5" cy="110.5" r="1.5" fill="#E3E3E3"/>
<circle cx="221.5" cy="110.5" r="1.5" fill="#E3E3E3"/>
<circle cx="239.5" cy="110.5" r="1.5" fill="#E3E3E3"/>
<circle cx="257.5" cy="110.5" r="1.5" fill="#E3E3E3"/>
<circle cx="275.5" cy="110.5" r="1.5" fill="#E3E3E3"/>
<circle cx="293.5" cy="110.5" r="1.5" fill="#E3E3E3"/>
<circle cx="311.5" cy="110.5" r="1.5" fill="#E3E3E3"/>
<circle cx="329.5" cy="110.5" r="1.5" fill="#E3E3E3"/>
<circle cx="347.5" cy="110.5" r="1.5" fill="#E3E3E3"/>
<circle cx="365.5" cy="110.5" r="1.5" fill="#E3E3E3"/>
<circle cx="383.5" cy="110.5" r="1.5" fill="#E3E3E3"/>
<circle cx="401.5" cy="110.5" r="1.5" fill="#E3E3E3"/>
<circle cx="419.5" cy="110.5" r="1.5" fill="#E3E3E3"/>
<circle cx="437.5" cy="110.5" r="1.5" fill="#E3E3E3"/>
<circle cx="95.5" cy="128.5" r="1.5" fill="#E3E3E3"/>
<circle cx="113.5" cy="128.5" r="1.5" fill="#E3E3E3"/>
<circle cx="131.5" cy="128.5" r="1.5" fill="#E3E3E3"/>
<circle cx="149.5" cy="128.5" r="1.5" fill="#E3E3E3"/>
<circle cx="167.5" cy="128.5" r="1.5" fill="#E3E3E3"/>
<circle cx="185.5" cy="128.5" r="1.5" fill="#E3E3E3"/>
<circle cx="203.5" cy="128.5" r="1.5" fill="#E3E3E3"/>
<circle cx="221.5" cy="128.5" r="1.5" fill="#E3E3E3"/>
<circle cx="239.5" cy="128.5" r="1.5" fill="#E3E3E3"/>
<circle cx="257.5" cy="128.5" r="1.5" fill="#E3E3E3"/>
<circle cx="275.5" cy="128.5" r="1.5" fill="#E3E3E3"/>
<circle cx="293.5" cy="128.5" r="1.5" fill="#E3E3E3"/>
<circle cx="311.5" cy="128.5" r="1.5" fill="#E3E3E3"/>
<circle cx="329.5" cy="128.5" r="1.5" fill="#E3E3E3"/>
<circle cx="347.5" cy="128.5" r="1.5" fill="#E3E3E3"/>
<circle cx="365.5" cy="128.5" r="1.5" fill="#E3E3E3"/>
<circle cx="383.5" cy="128.5" r="1.5" fill="#E3E3E3"/>
<circle cx="401.5" cy="128.5" r="1.5" fill="#E3E3E3"/>
<circle cx="419.5" cy="128.5" r="1.5" fill="#E3E3E3"/>
<circle cx="437.5" cy="128.5" r="1.5" fill="#E3E3E3"/>
<circle cx="95.5" cy="146.5" r="1.5" fill="#E3E3E3"/>
<circle cx="113.5" cy="146.5" r="1.5" fill="#E3E3E3"/>
<circle cx="131.5" cy="146.5" r="1.5" fill="#E3E3E3"/>
<circle cx="149.5" cy="146.5" r="1.5" fill="#E3E3E3"/>
<circle cx="167.5" cy="146.5" r="1.5" fill="#E3E3E3"/>
<circle cx="185.5" cy="146.5" r="1.5" fill="#E3E3E3"/>
<circle cx="203.5" cy="146.5" r="1.5" fill="#E3E3E3"/>
<circle cx="221.5" cy="146.5" r="1.5" fill="#E3E3E3"/>
<circle cx="239.5" cy="146.5" r="1.5" fill="#E3E3E3"/>
<circle cx="257.5" cy="146.5" r="1.5" fill="#E3E3E3"/>
<circle cx="275.5" cy="146.5" r="1.5" fill="#E3E3E3"/>
<circle cx="293.5" cy="146.5" r="1.5" fill="#E3E3E3"/>
<circle cx="311.5" cy="146.5" r="1.5" fill="#E3E3E3"/>
<circle cx="329.5" cy="146.5" r="1.5" fill="#E3E3E3"/>
<circle cx="347.5" cy="146.5" r="1.5" fill="#E3E3E3"/>
<circle cx="365.5" cy="146.5" r="1.5" fill="#E3E3E3"/>
<circle cx="383.5" cy="146.5" r="1.5" fill="#E3E3E3"/>
<circle cx="401.5" cy="146.5" r="1.5" fill="#E3E3E3"/>
<circle cx="419.5" cy="146.5" r="1.5" fill="#E3E3E3"/>
<circle cx="437.5" cy="146.5" r="1.5" fill="#E3E3E3"/>
<circle cx="95.5" cy="164.5" r="1.5" fill="#E3E3E3"/>
<circle cx="113.5" cy="164.5" r="1.5" fill="#E3E3E3"/>
<circle cx="131.5" cy="164.5" r="1.5" fill="#E3E3E3"/>
<circle cx="149.5" cy="164.5" r="1.5" fill="#E3E3E3"/>
<circle cx="167.5" cy="164.5" r="1.5" fill="#E3E3E3"/>
<circle cx="185.5" cy="164.5" r="1.5" fill="#E3E3E3"/>
<circle cx="203.5" cy="164.5" r="1.5" fill="#E3E3E3"/>
<circle cx="221.5" cy="164.5" r="1.5" fill="#E3E3E3"/>
<circle cx="239.5" cy="164.5" r="1.5" fill="#E3E3E3"/>
<circle cx="257.5" cy="164.5" r="1.5" fill="#E3E3E3"/>
<circle cx="275.5" cy="164.5" r="1.5" fill="#E3E3E3"/>
<circle cx="293.5" cy="164.5" r="1.5" fill="#E3E3E3"/>
<circle cx="311.5" cy="164.5" r="1.5" fill="#E3E3E3"/>
<circle cx="329.5" cy="164.5" r="1.5" fill="#E3E3E3"/>
<circle cx="347.5" cy="164.5" r="1.5" fill="#E3E3E3"/>
<circle cx="365.5" cy="164.5" r="1.5" fill="#E3E3E3"/>
<circle cx="383.5" cy="164.5" r="1.5" fill="#E3E3E3"/>
<circle cx="401.5" cy="164.5" r="1.5" fill="#E3E3E3"/>
<circle cx="419.5" cy="164.5" r="1.5" fill="#E3E3E3"/>
<circle cx="437.5" cy="164.5" r="1.5" fill="#E3E3E3"/>
<circle cx="95.5" cy="182.5" r="1.5" fill="#E3E3E3"/>
<circle cx="113.5" cy="182.5" r="1.5" fill="#E3E3E3"/>
<circle cx="131.5" cy="182.5" r="1.5" fill="#E3E3E3"/>
<circle cx="149.5" cy="182.5" r="1.5" fill="#E3E3E3"/>
<circle cx="167.5" cy="182.5" r="1.5" fill="#E3E3E3"/>
<circle cx="185.5" cy="182.5" r="1.5" fill="#E3E3E3"/>
<circle cx="203.5" cy="182.5" r="1.5" fill="#E3E3E3"/>
<circle cx="221.5" cy="182.5" r="1.5" fill="#E3E3E3"/>
<circle cx="239.5" cy="182.5" r="1.5" fill="#E3E3E3"/>
<circle cx="257.5" cy="182.5" r="1.5" fill="#E3E3E3"/>
<circle cx="275.5" cy="182.5" r="1.5" fill="#E3E3E3"/>
<circle cx="293.5" cy="182.5" r="1.5" fill="#E3E3E3"/>
<circle cx="311.5" cy="182.5" r="1.5" fill="#E3E3E3"/>
<circle cx="329.5" cy="182.5" r="1.5" fill="#E3E3E3"/>
<circle cx="347.5" cy="182.5" r="1.5" fill="#E3E3E3"/>
<circle cx="365.5" cy="182.5" r="1.5" fill="#E3E3E3"/>
<circle cx="383.5" cy="182.5" r="1.5" fill="#E3E3E3"/>
<circle cx="401.5" cy="182.5" r="1.5" fill="#E3E3E3"/>
<circle cx="419.5" cy="182.5" r="1.5" fill="#E3E3E3"/>
<circle cx="437.5" cy="182.5" r="1.5" fill="#E3E3E3"/>
<circle cx="95.5" cy="200.5" r="1.5" fill="#E3E3E3"/>
<circle cx="113.5" cy="200.5" r="1.5" fill="#E3E3E3"/>
<circle cx="131.5" cy="200.5" r="1.5" fill="#E3E3E3"/>
<circle cx="149.5" cy="200.5" r="1.5" fill="#E3E3E3"/>
<circle cx="167.5" cy="200.5" r="1.5" fill="#E3E3E3"/>
<circle cx="185.5" cy="200.5" r="1.5" fill="#E3E3E3"/>
<circle cx="203.5" cy="200.5" r="1.5" fill="#E3E3E3"/>
<circle cx="221.5" cy="200.5" r="1.5" fill="#E3E3E3"/>
<circle cx="239.5" cy="200.5" r="1.5" fill="#E3E3E3"/>
<circle cx="257.5" cy="200.5" r="1.5" fill="#E3E3E3"/>
<circle cx="275.5" cy="200.5" r="1.5" fill="#E3E3E3"/>
<circle cx="293.5" cy="200.5" r="1.5" fill="#E3E3E3"/>
<circle cx="311.5" cy="200.5" r="1.5" fill="#E3E3E3"/>
<circle cx="329.5" cy="200.5" r="1.5" fill="#E3E3E3"/>
<circle cx="347.5" cy="200.5" r="1.5" fill="#E3E3E3"/>
<circle cx="365.5" cy="200.5" r="1.5" fill="#E3E3E3"/>
<circle cx="383.5" cy="200.5" r="1.5" fill="#E3E3E3"/>
<circle cx="401.5" cy="200.5" r="1.5" fill="#E3E3E3"/>
<circle cx="419.5" cy="200.5" r="1.5" fill="#E3E3E3"/>
<circle cx="437.5" cy="200.5" r="1.5" fill="#E3E3E3"/>
<circle cx="95.5" cy="218.5" r="1.5" fill="#E3E3E3"/>
<circle cx="113.5" cy="218.5" r="1.5" fill="#E3E3E3"/>
<circle cx="131.5" cy="218.5" r="1.5" fill="#E3E3E3"/>
<circle cx="149.5" cy="218.5" r="1.5" fill="#E3E3E3"/>
<circle cx="167.5" cy="218.5" r="1.5" fill="#E3E3E3"/>
<circle cx="185.5" cy="218.5" r="1.5" fill="#E3E3E3"/>
<circle cx="203.5" cy="218.5" r="1.5" fill="#E3E3E3"/>
<circle cx="221.5" cy="218.5" r="1.5" fill="#E3E3E3"/>
<circle cx="239.5" cy="218.5" r="1.5" fill="#E3E3E3"/>
<circle cx="257.5" cy="218.5" r="1.5" fill="#E3E3E3"/>
<circle cx="275.5" cy="218.5" r="1.5" fill="#E3E3E3"/>
<circle cx="293.5" cy="218.5" r="1.5" fill="#E3E3E3"/>
<circle cx="311.5" cy="218.5" r="1.5" fill="#E3E3E3"/>
<circle cx="329.5" cy="218.5" r="1.5" fill="#E3E3E3"/>
<circle cx="347.5" cy="218.5" r="1.5" fill="#E3E3E3"/>
<circle cx="365.5" cy="218.5" r="1.5" fill="#E3E3E3"/>
<circle cx="383.5" cy="218.5" r="1.5" fill="#E3E3E3"/>
<circle cx="401.5" cy="218.5" r="1.5" fill="#E3E3E3"/>
<circle cx="419.5" cy="218.5" r="1.5" fill="#E3E3E3"/>
<circle cx="437.5" cy="218.5" r="1.5" fill="#E3E3E3"/>
<circle cx="95.5" cy="236.5" r="1.5" fill="#E3E3E3"/>
<circle cx="113.5" cy="236.5" r="1.5" fill="#E3E3E3"/>
<circle cx="131.5" cy="236.5" r="1.5" fill="#E3E3E3"/>
<circle cx="149.5" cy="236.5" r="1.5" fill="#E3E3E3"/>
<circle cx="167.5" cy="236.5" r="1.5" fill="#E3E3E3"/>
<circle cx="185.5" cy="236.5" r="1.5" fill="#E3E3E3"/>
<circle cx="203.5" cy="236.5" r="1.5" fill="#E3E3E3"/>
<circle cx="221.5" cy="236.5" r="1.5" fill="#E3E3E3"/>
<circle cx="239.5" cy="236.5" r="1.5" fill="#E3E3E3"/>
<circle cx="257.5" cy="236.5" r="1.5" fill="#E3E3E3"/>
<circle cx="275.5" cy="236.5" r="1.5" fill="#E3E3E3"/>
<circle cx="293.5" cy="236.5" r="1.5" fill="#E3E3E3"/>
<circle cx="311.5" cy="236.5" r="1.5" fill="#E3E3E3"/>
<circle cx="329.5" cy="236.5" r="1.5" fill="#E3E3E3"/>
<circle cx="347.5" cy="236.5" r="1.5" fill="#E3E3E3"/>
<circle cx="365.5" cy="236.5" r="1.5" fill="#E3E3E3"/>
<circle cx="383.5" cy="236.5" r="1.5" fill="#E3E3E3"/>
<circle cx="401.5" cy="236.5" r="1.5" fill="#E3E3E3"/>
<circle cx="419.5" cy="236.5" r="1.5" fill="#E3E3E3"/>
<circle cx="437.5" cy="236.5" r="1.5" fill="#E3E3E3"/>
<circle cx="95.5" cy="254.5" r="1.5" fill="#E3E3E3"/>
<circle cx="113.5" cy="254.5" r="1.5" fill="#E3E3E3"/>
<circle cx="131.5" cy="254.5" r="1.5" fill="#E3E3E3"/>
<circle cx="149.5" cy="254.5" r="1.5" fill="#E3E3E3"/>
<circle cx="167.5" cy="254.5" r="1.5" fill="#E3E3E3"/>
<circle cx="185.5" cy="254.5" r="1.5" fill="#E3E3E3"/>
<circle cx="203.5" cy="254.5" r="1.5" fill="#E3E3E3"/>
<circle cx="221.5" cy="254.5" r="1.5" fill="#E3E3E3"/>
<circle cx="239.5" cy="254.5" r="1.5" fill="#E3E3E3"/>
<circle cx="257.5" cy="254.5" r="1.5" fill="#E3E3E3"/>
<circle cx="275.5" cy="254.5" r="1.5" fill="#E3E3E3"/>
<circle cx="293.5" cy="254.5" r="1.5" fill="#E3E3E3"/>
<circle cx="311.5" cy="254.5" r="1.5" fill="#E3E3E3"/>
<circle cx="329.5" cy="254.5" r="1.5" fill="#E3E3E3"/>
<circle cx="347.5" cy="254.5" r="1.5" fill="#E3E3E3"/>
<circle cx="365.5" cy="254.5" r="1.5" fill="#E3E3E3"/>
<circle cx="383.5" cy="254.5" r="1.5" fill="#E3E3E3"/>
<circle cx="401.5" cy="254.5" r="1.5" fill="#E3E3E3"/>
<circle cx="419.5" cy="254.5" r="1.5" fill="#E3E3E3"/>
<circle cx="437.5" cy="254.5" r="1.5" fill="#E3E3E3"/>
<circle cx="95.5" cy="272.5" r="1.5" fill="#E3E3E3"/>
<circle cx="113.5" cy="272.5" r="1.5" fill="#E3E3E3"/>
<circle cx="131.5" cy="272.5" r="1.5" fill="#E3E3E3"/>
<circle cx="149.5" cy="272.5" r="1.5" fill="#E3E3E3"/>
<circle cx="167.5" cy="272.5" r="1.5" fill="#E3E3E3"/>
<circle cx="185.5" cy="272.5" r="1.5" fill="#E3E3E3"/>
<circle cx="203.5" cy="272.5" r="1.5" fill="#E3E3E3"/>
<circle cx="221.5" cy="272.5" r="1.5" fill="#E3E3E3"/>
<circle cx="239.5" cy="272.5" r="1.5" fill="#E3E3E3"/>
<circle cx="257.5" cy="272.5" r="1.5" fill="#E3E3E3"/>
<circle cx="275.5" cy="272.5" r="1.5" fill="#E3E3E3"/>
<circle cx="293.5" cy="272.5" r="1.5" fill="#E3E3E3"/>
<circle cx="311.5" cy="272.5" r="1.5" fill="#E3E3E3"/>
<circle cx="329.5" cy="272.5" r="1.5" fill="#E3E3E3"/>
<circle cx="347.5" cy="272.5" r="1.5" fill="#E3E3E3"/>
<circle cx="365.5" cy="272.5" r="1.5" fill="#E3E3E3"/>
<circle cx="383.5" cy="272.5" r="1.5" fill="#E3E3E3"/>
<circle cx="401.5" cy="272.5" r="1.5" fill="#E3E3E3"/>
<circle cx="419.5" cy="272.5" r="1.5" fill="#E3E3E3"/>
<circle cx="437.5" cy="272.5" r="1.5" fill="#E3E3E3"/>
<circle cx="95.5" cy="290.5" r="1.5" fill="#E3E3E3"/>
<circle cx="113.5" cy="290.5" r="1.5" fill="#E3E3E3"/>
<circle cx="131.5" cy="290.5" r="1.5" fill="#E3E3E3"/>
<circle cx="149.5" cy="290.5" r="1.5" fill="#E3E3E3"/>
<circle cx="167.5" cy="290.5" r="1.5" fill="#E3E3E3"/>
<circle cx="185.5" cy="290.5" r="1.5" fill="#E3E3E3"/>
<circle cx="203.5" cy="290.5" r="1.5" fill="#E3E3E3"/>
<circle cx="221.5" cy="290.5" r="1.5" fill="#E3E3E3"/>
<circle cx="239.5" cy="290.5" r="1.5" fill="#E3E3E3"/>
<circle cx="257.5" cy="290.5" r="1.5" fill="#E3E3E3"/>
<circle cx="275.5" cy="290.5" r="1.5" fill="#E3E3E3"/>
<circle cx="293.5" cy="290.5" r="1.5" fill="#E3E3E3"/>
<circle cx="311.5" cy="290.5" r="1.5" fill="#E3E3E3"/>
<circle cx="329.5" cy="290.5" r="1.5" fill="#E3E3E3"/>
<circle cx="347.5" cy="290.5" r="1.5" fill="#E3E3E3"/>
<circle cx="365.5" cy="290.5" r="1.5" fill="#E3E3E3"/>
<circle cx="383.5" cy="290.5" r="1.5" fill="#E3E3E3"/>
<circle cx="401.5" cy="290.5" r="1.5" fill="#E3E3E3"/>
<circle cx="419.5" cy="290.5" r="1.5" fill="#E3E3E3"/>
<circle cx="437.5" cy="290.5" r="1.5" fill="#E3E3E3"/>
<circle cx="95.5" cy="308.5" r="1.5" fill="#E3E3E3"/>
<circle cx="113.5" cy="308.5" r="1.5" fill="#E3E3E3"/>
<circle cx="131.5" cy="308.5" r="1.5" fill="#E3E3E3"/>
<circle cx="149.5" cy="308.5" r="1.5" fill="#E3E3E3"/>
<circle cx="167.5" cy="308.5" r="1.5" fill="#E3E3E3"/>
<circle cx="185.5" cy="308.5" r="1.5" fill="#E3E3E3"/>
<circle cx="203.5" cy="308.5" r="1.5" fill="#E3E3E3"/>
<circle cx="221.5" cy="308.5" r="1.5" fill="#E3E3E3"/>
<circle cx="239.5" cy="308.5" r="1.5" fill="#E3E3E3"/>
<circle cx="257.5" cy="308.5" r="1.5" fill="#E3E3E3"/>
<circle cx="275.5" cy="308.5" r="1.5" fill="#E3E3E3"/>
<circle cx="293.5" cy="308.5" r="1.5" fill="#E3E3E3"/>
<circle cx="311.5" cy="308.5" r="1.5" fill="#E3E3E3"/>
<circle cx="329.5" cy="308.5" r="1.5" fill="#E3E3E3"/>
<circle cx="347.5" cy="308.5" r="1.5" fill="#E3E3E3"/>
<circle cx="365.5" cy="308.5" r="1.5" fill="#E3E3E3"/>
<circle cx="383.5" cy="308.5" r="1.5" fill="#E3E3E3"/>
<circle cx="401.5" cy="308.5" r="1.5" fill="#E3E3E3"/>
<circle cx="419.5" cy="308.5" r="1.5" fill="#E3E3E3"/>
<circle cx="437.5" cy="308.5" r="1.5" fill="#E3E3E3"/>
<circle cx="95.5" cy="326.5" r="1.5" fill="#E3E3E3"/>
<circle cx="113.5" cy="326.5" r="1.5" fill="#E3E3E3"/>
<circle cx="131.5" cy="326.5" r="1.5" fill="#E3E3E3"/>
<circle cx="149.5" cy="326.5" r="1.5" fill="#E3E3E3"/>
<circle cx="167.5" cy="326.5" r="1.5" fill="#E3E3E3"/>
<circle cx="185.5" cy="326.5" r="1.5" fill="#E3E3E3"/>
<circle cx="203.5" cy="326.5" r="1.5" fill="#E3E3E3"/>
<circle cx="221.5" cy="326.5" r="1.5" fill="#E3E3E3"/>
<circle cx="239.5" cy="326.5" r="1.5" fill="#E3E3E3"/>
<circle cx="257.5" cy="326.5" r="1.5" fill="#E3E3E3"/>
<circle cx="275.5" cy="326.5" r="1.5" fill="#E3E3E3"/>
<circle cx="293.5" cy="326.5" r="1.5" fill="#E3E3E3"/>
<circle cx="311.5" cy="326.5" r="1.5" fill="#E3E3E3"/>
<circle cx="329.5" cy="326.5" r="1.5" fill="#E3E3E3"/>
<circle cx="347.5" cy="326.5" r="1.5" fill="#E3E3E3"/>
<circle cx="365.5" cy="326.5" r="1.5" fill="#E3E3E3"/>
<circle cx="383.5" cy="326.5" r="1.5" fill="#E3E3E3"/>
<circle cx="401.5" cy="326.5" r="1.5" fill="#E3E3E3"/>
<circle cx="419.5" cy="326.5" r="1.5" fill="#E3E3E3"/>
<circle cx="437.5" cy="326.5" r="1.5" fill="#E3E3E3"/>
<circle cx="95.5" cy="344.5" r="1.5" fill="#E3E3E3"/>
<circle cx="113.5" cy="344.5" r="1.5" fill="#E3E3E3"/>
<circle cx="131.5" cy="344.5" r="1.5" fill="#E3E3E3"/>
<circle cx="149.5" cy="344.5" r="1.5" fill="#E3E3E3"/>
<circle cx="167.5" cy="344.5" r="1.5" fill="#E3E3E3"/>
<circle cx="185.5" cy="344.5" r="1.5" fill="#E3E3E3"/>
<circle cx="203.5" cy="344.5" r="1.5" fill="#E3E3E3"/>
<circle cx="221.5" cy="344.5" r="1.5" fill="#E3E3E3"/>
<circle cx="239.5" cy="344.5" r="1.5" fill="#E3E3E3"/>
<circle cx="257.5" cy="344.5" r="1.5" fill="#E3E3E3"/>
<circle cx="275.5" cy="344.5" r="1.5" fill="#E3E3E3"/>
<circle cx="293.5" cy="344.5" r="1.5" fill="#E3E3E3"/>
<circle cx="311.5" cy="344.5" r="1.5" fill="#E3E3E3"/>
<circle cx="329.5" cy="344.5" r="1.5" fill="#E3E3E3"/>
<circle cx="347.5" cy="344.5" r="1.5" fill="#E3E3E3"/>
<circle cx="365.5" cy="344.5" r="1.5" fill="#E3E3E3"/>
<circle cx="383.5" cy="344.5" r="1.5" fill="#E3E3E3"/>
<circle cx="401.5" cy="344.5" r="1.5" fill="#E3E3E3"/>
<circle cx="419.5" cy="344.5" r="1.5" fill="#E3E3E3"/>
<circle cx="437.5" cy="344.5" r="1.5" fill="#E3E3E3"/>
<rect width="453" height="348" fill="url(#paint0_radial_86_3225)"/>
<path d="M-11.5696 291.918C-26.6742 289.206 -39.6847 275.948 -50.2744 261.139C-60.8466 246.353 -68.9739 229.998 -67.1171 214.677C-65.2603 199.355 -53.4063 184.983 -39.1707 176.29C-24.9175 167.621 -8.29361 164.566 7.69483 166.815C23.7009 169.088 39.0298 176.658 49.9116 189.185C60.7934 201.712 67.2039 219.214 64.4633 234.999C61.7161 250.825 49.7761 264.928 35.2484 275.903C20.679 286.871 3.52846 294.671 -11.5696 291.918Z" fill="#FE840E"/>
<path d="M26.52 117.92C19.08 117.92 12.48 116.2 6.72 112.76C1.04 109.32 -3.44 104.32 -6.72 97.76C-9.92 91.2 -11.52 83.28 -11.52 74C-11.52 64.72 -9.92 56.8 -6.72 50.24C-3.44 43.68 1.04 38.68 6.72 35.24C12.48 31.8 19.08 30.08 26.52 30.08C33.96 30.08 40.52 31.8 46.2 35.24C51.96 38.68 56.44 43.68 59.64 50.24C62.92 56.8 64.56 64.72 64.56 74C64.56 83.28 62.92 91.2 59.64 97.76C56.44 104.32 51.96 109.32 46.2 112.76C40.52 116.2 33.96 117.92 26.52 117.92ZM26.52 95.24C28.36 95.24 30 94.6 31.44 93.32C32.88 92.04 34 89.84 34.8 86.72C35.68 83.6 36.12 79.36 36.12 74C36.12 68.56 35.68 64.32 34.8 61.28C34 58.16 32.88 55.96 31.44 54.68C30 53.4 28.36 52.76 26.52 52.76C24.68 52.76 23.04 53.4 21.6 54.68C20.16 55.96 19 58.16 18.12 61.28C17.32 64.32 16.92 68.56 16.92 74C16.92 79.36 17.32 83.6 18.12 86.72C19 89.84 20.16 92.04 21.6 93.32C23.04 94.6 24.68 95.24 26.52 95.24ZM67.8741 116V98.6L98.2341 70.52C100.154 68.68 101.554 67.08 102.434 65.72C103.394 64.36 104.034 63.16 104.354 62.12C104.674 61 104.834 59.96 104.834 59C104.834 56.92 104.154 55.32 102.794 54.2C101.434 53 99.3941 52.4 96.6741 52.4C94.1941 52.4 91.8341 53.08 89.5941 54.44C87.3541 55.72 85.5941 57.64 84.3141 60.2L62.9541 49.52C65.9941 43.76 70.5541 39.08 76.6341 35.48C82.7141 31.88 90.2741 30.08 99.3141 30.08C105.954 30.08 111.834 31.16 116.954 33.32C122.074 35.48 126.074 38.52 128.954 42.44C131.834 46.36 133.274 51 133.274 56.36C133.274 59.08 132.914 61.8 132.194 64.52C131.554 67.24 130.194 70.12 128.114 73.16C126.034 76.12 122.954 79.44 118.874 83.12L96.0741 103.88L91.6341 94.04L135.194 94.04V116L67.8741 116Z" fill="#E3E3E3"/>
</g>
<path d="M44.958 254V230.2H66.65V254H61.176V233.43L62.434 234.688H49.174L50.432 233.43V254H44.958ZM82.5798 254.272C81.0385 254.272 79.6898 253.932 78.5338 253.252C77.3778 252.572 76.4711 251.541 75.8138 250.158C75.1791 248.753 74.8618 246.985 74.8618 244.854C74.8618 242.701 75.1678 240.933 75.7798 239.55C76.3918 238.167 77.2758 237.136 78.4318 236.456C79.5878 235.776 80.9705 235.436 82.5798 235.436C84.3025 235.436 85.8438 235.833 87.2038 236.626C88.5865 237.397 89.6745 238.485 90.4678 239.89C91.2838 241.295 91.6918 242.95 91.6918 244.854C91.6918 246.781 91.2838 248.447 90.4678 249.852C89.6745 251.257 88.5865 252.345 87.2038 253.116C85.8438 253.887 84.3025 254.272 82.5798 254.272ZM71.7678 260.596V235.708H76.8338V239.448L76.7318 244.888L77.0718 250.294V260.596H71.7678ZM81.6618 249.92C82.5458 249.92 83.3278 249.716 84.0078 249.308C84.7105 248.9 85.2658 248.322 85.6738 247.574C86.1045 246.803 86.3198 245.897 86.3198 244.854C86.3198 243.789 86.1045 242.882 85.6738 242.134C85.2658 241.386 84.7105 240.808 84.0078 240.4C83.3278 239.992 82.5458 239.788 81.6618 239.788C80.7778 239.788 79.9845 239.992 79.2818 240.4C78.5791 240.808 78.0238 241.386 77.6158 242.134C77.2078 242.882 77.0038 243.789 77.0038 244.854C77.0038 245.897 77.2078 246.803 77.6158 247.574C78.0238 248.322 78.5791 248.9 79.2818 249.308C79.9845 249.716 80.7778 249.92 81.6618 249.92ZM103.637 254.272C101.688 254.272 99.9539 253.864 98.4352 253.048C96.9392 252.232 95.7492 251.121 94.8652 249.716C94.0039 248.288 93.5732 246.667 93.5732 244.854C93.5732 243.018 94.0039 241.397 94.8652 239.992C95.7492 238.564 96.9392 237.453 98.4352 236.66C99.9539 235.844 101.688 235.436 103.637 235.436C105.564 235.436 107.287 235.844 108.805 236.66C110.324 237.453 111.514 238.553 112.375 239.958C113.237 241.363 113.667 242.995 113.667 244.854C113.667 246.667 113.237 248.288 112.375 249.716C111.514 251.121 110.324 252.232 108.805 253.048C107.287 253.864 105.564 254.272 103.637 254.272ZM103.637 249.92C104.521 249.92 105.315 249.716 106.017 249.308C106.72 248.9 107.275 248.322 107.683 247.574C108.091 246.803 108.295 245.897 108.295 244.854C108.295 243.789 108.091 242.882 107.683 242.134C107.275 241.386 106.72 240.808 106.017 240.4C105.315 239.992 104.521 239.788 103.637 239.788C102.753 239.788 101.96 239.992 101.257 240.4C100.555 240.808 99.9879 241.386 99.5572 242.134C99.1492 242.882 98.9452 243.789 98.9452 244.854C98.9452 245.897 99.1492 246.803 99.5572 247.574C99.9879 248.322 100.555 248.9 101.257 249.308C101.96 249.716 102.753 249.92 103.637 249.92ZM116.975 254V235.708H122.245V249.648H129.623V235.708H134.927V254H116.975ZM132.649 257.944V253.932L133.873 254H129.623V249.648H137.579V257.944H132.649ZM149.517 254.272C147.431 254.272 145.595 253.864 144.009 253.048C142.445 252.232 141.232 251.121 140.371 249.716C139.509 248.288 139.079 246.667 139.079 244.854C139.079 243.018 139.498 241.397 140.337 239.992C141.198 238.564 142.365 237.453 143.839 236.66C145.312 235.844 146.978 235.436 148.837 235.436C150.627 235.436 152.237 235.821 153.665 236.592C155.115 237.34 156.26 238.428 157.099 239.856C157.937 241.261 158.357 242.95 158.357 244.922C158.357 245.126 158.345 245.364 158.323 245.636C158.3 245.885 158.277 246.123 158.255 246.35H143.397V243.256H155.467L153.427 244.174C153.427 243.222 153.234 242.395 152.849 241.692C152.463 240.989 151.931 240.445 151.251 240.06C150.571 239.652 149.777 239.448 148.871 239.448C147.964 239.448 147.159 239.652 146.457 240.06C145.777 240.445 145.244 241.001 144.859 241.726C144.473 242.429 144.281 243.267 144.281 244.242V245.058C144.281 246.055 144.496 246.939 144.927 247.71C145.38 248.458 146.003 249.036 146.797 249.444C147.613 249.829 148.565 250.022 149.653 250.022C150.627 250.022 151.477 249.875 152.203 249.58C152.951 249.285 153.631 248.843 154.243 248.254L157.065 251.314C156.226 252.266 155.172 253.003 153.903 253.524C152.633 254.023 151.171 254.272 149.517 254.272ZM170.786 254.272C168.814 254.272 167.058 253.875 165.516 253.082C163.975 252.266 162.762 251.144 161.878 249.716C161.017 248.288 160.586 246.667 160.586 244.854C160.586 243.018 161.017 241.397 161.878 239.992C162.762 238.564 163.975 237.453 165.516 236.66C167.058 235.844 168.814 235.436 170.786 235.436C172.713 235.436 174.39 235.844 175.818 236.66C177.246 237.453 178.3 238.598 178.98 240.094L174.866 242.304C174.39 241.443 173.79 240.808 173.064 240.4C172.362 239.992 171.591 239.788 170.752 239.788C169.846 239.788 169.03 239.992 168.304 240.4C167.579 240.808 167.001 241.386 166.57 242.134C166.162 242.882 165.958 243.789 165.958 244.854C165.958 245.919 166.162 246.826 166.57 247.574C167.001 248.322 167.579 248.9 168.304 249.308C169.03 249.716 169.846 249.92 170.752 249.92C171.591 249.92 172.362 249.727 173.064 249.342C173.79 248.934 174.39 248.288 174.866 247.404L178.98 249.648C178.3 251.121 177.246 252.266 175.818 253.082C174.39 253.875 172.713 254.272 170.786 254.272ZM190.335 254.272C188.363 254.272 186.606 253.875 185.065 253.082C183.524 252.266 182.311 251.144 181.427 249.716C180.566 248.288 180.135 246.667 180.135 244.854C180.135 243.018 180.566 241.397 181.427 239.992C182.311 238.564 183.524 237.453 185.065 236.66C186.606 235.844 188.363 235.436 190.335 235.436C192.262 235.436 193.939 235.844 195.367 236.66C196.795 237.453 197.849 238.598 198.529 240.094L194.415 242.304C193.939 241.443 193.338 240.808 192.613 240.4C191.91 239.992 191.14 239.788 190.301 239.788C189.394 239.788 188.578 239.992 187.853 240.4C187.128 240.808 186.55 241.386 186.119 242.134C185.711 242.882 185.507 243.789 185.507 244.854C185.507 245.919 185.711 246.826 186.119 247.574C186.55 248.322 187.128 248.9 187.853 249.308C188.578 249.716 189.394 249.92 190.301 249.92C191.14 249.92 191.91 249.727 192.613 249.342C193.338 248.934 193.939 248.288 194.415 247.404L198.529 249.648C197.849 251.121 196.795 252.266 195.367 253.082C193.939 253.875 192.262 254.272 190.335 254.272ZM210.701 254V235.708H216.243L223.145 248.22H220.935L228.313 235.708H233.277L233.345 254H228.551V241.148L229.367 241.692L223.077 252.232H220.833L214.509 241.318L215.495 241.08V254H210.701ZM249.034 254V250.43L248.694 249.648V243.256C248.694 242.123 248.342 241.239 247.64 240.604C246.96 239.969 245.906 239.652 244.478 239.652C243.503 239.652 242.54 239.811 241.588 240.128C240.658 240.423 239.865 240.831 239.208 241.352L237.304 237.646C238.301 236.943 239.502 236.399 240.908 236.014C242.313 235.629 243.741 235.436 245.192 235.436C247.98 235.436 250.144 236.093 251.686 237.408C253.227 238.723 253.998 240.774 253.998 243.562V254H249.034ZM243.458 254.272C242.03 254.272 240.806 254.034 239.786 253.558C238.766 253.059 237.984 252.391 237.44 251.552C236.896 250.713 236.624 249.773 236.624 248.73C236.624 247.642 236.884 246.69 237.406 245.874C237.95 245.058 238.8 244.423 239.956 243.97C241.112 243.494 242.619 243.256 244.478 243.256H249.34V246.35H245.056C243.809 246.35 242.948 246.554 242.472 246.962C242.018 247.37 241.792 247.88 241.792 248.492C241.792 249.172 242.052 249.716 242.574 250.124C243.118 250.509 243.854 250.702 244.784 250.702C245.668 250.702 246.461 250.498 247.164 250.09C247.866 249.659 248.376 249.036 248.694 248.22L249.51 250.668C249.124 251.847 248.422 252.742 247.402 253.354C246.382 253.966 245.067 254.272 243.458 254.272ZM270.743 249.648L269.587 250.872V235.708H274.891V250.872L273.667 249.648H282.099L280.909 250.872V235.708H286.179V254H258.265V235.708H263.535V250.872L262.345 249.648H270.743ZM290.929 254V235.708H296.199V246.588L305.107 235.708H309.969V254H304.699V243.12L295.825 254H290.929ZM314.728 254V235.708H319.998V242.848H327.954V235.708H333.258V254H327.954V247.166H319.998V254H314.728ZM337.995 254V235.708H343.265V242.848H351.221V235.708H356.525V254H351.221V247.166H343.265V254H337.995ZM369.831 254.272C367.881 254.272 366.147 253.864 364.629 253.048C363.133 252.232 361.943 251.121 361.059 249.716C360.197 248.288 359.767 246.667 359.767 244.854C359.767 243.018 360.197 241.397 361.059 239.992C361.943 238.564 363.133 237.453 364.629 236.66C366.147 235.844 367.881 235.436 369.831 235.436C371.757 235.436 373.48 235.844 374.999 236.66C376.517 237.453 377.707 238.553 378.569 239.958C379.43 241.363 379.861 242.995 379.861 244.854C379.861 246.667 379.43 248.288 378.569 249.716C377.707 251.121 376.517 252.232 374.999 253.048C373.48 253.864 371.757 254.272 369.831 254.272ZM369.831 249.92C370.715 249.92 371.508 249.716 372.211 249.308C372.913 248.9 373.469 248.322 373.877 247.574C374.285 246.803 374.489 245.897 374.489 244.854C374.489 243.789 374.285 242.882 373.877 242.134C373.469 241.386 372.913 240.808 372.211 240.4C371.508 239.992 370.715 239.788 369.831 239.788C368.947 239.788 368.153 239.992 367.451 240.4C366.748 240.808 366.181 241.386 365.751 242.134C365.343 242.882 365.139 243.789 365.139 244.854C365.139 245.897 365.343 246.803 365.751 247.574C366.181 248.322 366.748 248.9 367.451 249.308C368.153 249.716 368.947 249.92 369.831 249.92ZM383.169 254V235.708H397.823V240.06H387.249L388.439 238.904V254H383.169ZM408.098 254.272C406.149 254.272 404.415 253.864 402.896 253.048C401.4 252.232 400.21 251.121 399.326 249.716C398.465 248.288 398.034 246.667 398.034 244.854C398.034 243.018 398.465 241.397 399.326 239.992C400.21 238.564 401.4 237.453 402.896 236.66C404.415 235.844 406.149 235.436 408.098 235.436C410.025 235.436 411.747 235.844 413.266 236.66C414.785 237.453 415.975 238.553 416.836 239.958C417.697 241.363 418.128 242.995 418.128 244.854C418.128 246.667 417.697 248.288 416.836 249.716C415.975 251.121 414.785 252.232 413.266 253.048C411.747 253.864 410.025 254.272 408.098 254.272ZM408.098 249.92C408.982 249.92 409.775 249.716 410.478 249.308C411.181 248.9 411.736 248.322 412.144 247.574C412.552 246.803 412.756 245.897 412.756 244.854C412.756 243.789 412.552 242.882 412.144 242.134C411.736 241.386 411.181 240.808 410.478 240.4C409.775 239.992 408.982 239.788 408.098 239.788C407.214 239.788 406.421 239.992 405.718 240.4C405.015 240.808 404.449 241.386 404.018 242.134C403.61 242.882 403.406 243.789 403.406 244.854C403.406 245.897 403.61 246.803 404.018 247.574C404.449 248.322 405.015 248.9 405.718 249.308C406.421 249.716 407.214 249.92 408.098 249.92ZM53.118 303.272C51.1687 303.272 49.4347 302.864 47.916 302.048C46.42 301.232 45.23 300.121 44.346 298.716C43.4847 297.288 43.054 295.667 43.054 293.854C43.054 292.018 43.4847 290.397 44.346 288.992C45.23 287.564 46.42 286.453 47.916 285.66C49.4347 284.844 51.1687 284.436 53.118 284.436C55.0447 284.436 56.7673 284.844 58.286 285.66C59.8047 286.453 60.9947 287.553 61.856 288.958C62.7173 290.363 63.148 291.995 63.148 293.854C63.148 295.667 62.7173 297.288 61.856 298.716C60.9947 300.121 59.8047 301.232 58.286 302.048C56.7673 302.864 55.0447 303.272 53.118 303.272ZM53.118 298.92C54.002 298.92 54.7953 298.716 55.498 298.308C56.2007 297.9 56.756 297.322 57.164 296.574C57.572 295.803 57.776 294.897 57.776 293.854C57.776 292.789 57.572 291.882 57.164 291.134C56.756 290.386 56.2007 289.808 55.498 289.4C54.7953 288.992 54.002 288.788 53.118 288.788C52.234 288.788 51.4407 288.992 50.738 289.4C50.0353 289.808 49.4687 290.386 49.038 291.134C48.63 291.882 48.426 292.789 48.426 293.854C48.426 294.897 48.63 295.803 49.038 296.574C49.4687 297.322 50.0353 297.9 50.738 298.308C51.4407 298.716 52.234 298.92 53.118 298.92ZM75.5341 303.408C74.0381 303.408 72.6781 303.193 71.4541 302.762C70.2301 302.309 69.1648 301.617 68.2581 300.688C67.3741 299.736 66.6828 298.523 66.1841 297.05C65.7081 295.577 65.4701 293.82 65.4701 291.78C65.4701 290.329 65.5948 289.003 65.8441 287.802C66.0934 286.601 66.4674 285.513 66.9661 284.538C67.4648 283.541 68.0994 282.668 68.8701 281.92C69.6634 281.149 70.5814 280.515 71.6241 280.016C72.6894 279.495 73.8908 279.098 75.2281 278.826L83.9321 277.092L84.6461 281.648L76.9621 283.178C76.5088 283.269 75.9874 283.393 75.3981 283.552C74.8314 283.688 74.2534 283.903 73.6641 284.198C73.0974 284.493 72.5648 284.912 72.0661 285.456C71.5901 285.977 71.2048 286.669 70.9101 287.53C70.6154 288.369 70.4681 289.411 70.4681 290.658C70.4681 291.043 70.4794 291.338 70.5021 291.542C70.5474 291.746 70.5814 291.961 70.6041 292.188C70.6494 292.415 70.6721 292.766 70.6721 293.242L68.9721 291.576C69.4708 290.511 70.1054 289.604 70.8761 288.856C71.6694 288.108 72.5761 287.541 73.5961 287.156C74.6388 286.748 75.7948 286.544 77.0641 286.544C78.7868 286.544 80.2941 286.895 81.5861 287.598C82.9008 288.278 83.9208 289.241 84.6461 290.488C85.3714 291.735 85.7341 293.151 85.7341 294.738C85.7341 296.461 85.3034 297.979 84.4421 299.294C83.5808 300.586 82.3794 301.595 80.8381 302.32C79.3194 303.045 77.5514 303.408 75.5341 303.408ZM75.8061 299.294C76.6901 299.294 77.4721 299.101 78.1521 298.716C78.8321 298.308 79.3534 297.775 79.7161 297.118C80.1014 296.438 80.2941 295.679 80.2941 294.84C80.2941 294.024 80.1014 293.299 79.7161 292.664C79.3534 292.029 78.8321 291.531 78.1521 291.168C77.4721 290.805 76.6788 290.624 75.7721 290.624C74.8881 290.624 74.0948 290.805 73.3921 291.168C72.6894 291.508 72.1454 291.984 71.7601 292.596C71.3748 293.208 71.1821 293.922 71.1821 294.738C71.1821 295.577 71.3748 296.347 71.7601 297.05C72.1681 297.73 72.7121 298.274 73.3921 298.682C74.0948 299.09 74.8994 299.294 75.8061 299.294ZM90.977 309.868C90.025 309.868 89.0843 309.721 88.155 309.426C87.2257 309.131 86.4663 308.723 85.877 308.202L87.815 304.428C88.223 304.791 88.6877 305.074 89.209 305.278C89.753 305.482 90.2857 305.584 90.807 305.584C91.555 305.584 92.1443 305.403 92.575 305.04C93.0283 304.7 93.4363 304.122 93.799 303.306L94.751 301.062L95.159 300.484L101.721 284.708H106.821L98.559 304.122C97.9697 305.595 97.2897 306.751 96.519 307.59C95.771 308.429 94.9323 309.018 94.003 309.358C93.0963 309.698 92.0877 309.868 90.977 309.868ZM94.105 303.714L85.945 284.708H91.419L97.743 300.008L94.105 303.714ZM120.566 295.996C119.818 296.404 118.99 296.733 118.084 296.982C117.177 297.231 116.18 297.356 115.092 297.356C112.689 297.356 110.842 296.812 109.55 295.724C108.258 294.613 107.612 292.857 107.612 290.454V284.708H112.916V290.114C112.916 291.247 113.21 292.063 113.8 292.562C114.389 293.038 115.216 293.276 116.282 293.276C117.052 293.276 117.789 293.185 118.492 293.004C119.217 292.823 119.908 292.562 120.566 292.222V295.996ZM120.192 303V284.708H125.496V303H120.192ZM139.191 303.272C137.105 303.272 135.269 302.864 133.683 302.048C132.119 301.232 130.906 300.121 130.045 298.716C129.183 297.288 128.753 295.667 128.753 293.854C128.753 292.018 129.172 290.397 130.011 288.992C130.872 287.564 132.039 286.453 133.513 285.66C134.986 284.844 136.652 284.436 138.511 284.436C140.301 284.436 141.911 284.821 143.339 285.592C144.789 286.34 145.934 287.428 146.773 288.856C147.611 290.261 148.031 291.95 148.031 293.922C148.031 294.126 148.019 294.364 147.997 294.636C147.974 294.885 147.951 295.123 147.929 295.35H133.071V292.256H145.141L143.101 293.174C143.101 292.222 142.908 291.395 142.523 290.692C142.137 289.989 141.605 289.445 140.925 289.06C140.245 288.652 139.451 288.448 138.545 288.448C137.638 288.448 136.833 288.652 136.131 289.06C135.451 289.445 134.918 290.001 134.533 290.726C134.147 291.429 133.955 292.267 133.955 293.242V294.058C133.955 295.055 134.17 295.939 134.601 296.71C135.054 297.458 135.677 298.036 136.471 298.444C137.287 298.829 138.239 299.022 139.327 299.022C140.301 299.022 141.151 298.875 141.877 298.58C142.625 298.285 143.305 297.843 143.917 297.254L146.739 300.314C145.9 301.266 144.846 302.003 143.577 302.524C142.307 303.023 140.845 303.272 139.191 303.272ZM151.756 303V284.708H157.026V291.848H164.982V284.708H170.286V303H164.982V296.166H157.026V303H151.756ZM175.024 303V284.708H180.294V295.588L189.202 284.708H194.064V303H188.794V292.12L179.92 303H175.024ZM210.348 303V296.914L211.096 297.764H206.03C203.401 297.764 201.338 297.22 199.842 296.132C198.346 295.044 197.598 293.48 197.598 291.44C197.598 289.264 198.38 287.598 199.944 286.442C201.531 285.286 203.662 284.708 206.336 284.708H215.074V303H210.348ZM197.326 303L202.188 296.03H207.594L202.97 303H197.326ZM210.348 295.282V287.666L211.096 289.026H206.438C205.35 289.026 204.5 289.23 203.888 289.638C203.299 290.046 203.004 290.703 203.004 291.61C203.004 293.355 204.126 294.228 206.37 294.228H211.096L210.348 295.282Z" fill="black"/>
</g>
<path d="M330.001 114.933C337.972 114.933 344.433 108.472 344.433 100.501C344.433 92.5307 337.972 86.0693 330.001 86.0693C322.031 86.0693 315.569 92.5307 315.569 100.501C315.569 108.472 322.031 114.933 330.001 114.933Z" stroke="#C81F56" stroke-width="3" stroke-miterlimit="10" stroke-linecap="round" stroke-linejoin="round"/>
<path d="M329.999 129.363C345.94 129.363 358.863 116.44 358.863 100.499C358.863 84.5579 345.94 71.6353 329.999 71.6353C314.058 71.6353 301.135 84.5579 301.135 100.499C301.135 116.44 314.058 129.363 329.999 129.363Z" stroke="#F06C46" stroke-width="3" stroke-miterlimit="10" stroke-linecap="round" stroke-linejoin="round"/>
<path d="M330 143.796C353.911 143.796 373.296 124.411 373.296 100.5C373.296 76.5886 353.911 57.2046 330 57.2046C306.089 57.2046 286.705 76.5886 286.705 100.5C286.705 124.411 306.089 143.796 330 143.796Z" stroke="#FE840E" stroke-width="3" stroke-miterlimit="10" stroke-linecap="round" stroke-linejoin="round"/>
<path d="M330 158.228C361.882 158.228 387.728 132.383 387.728 100.501C387.728 68.6188 361.882 42.7734 330 42.7734C298.119 42.7734 272.273 68.6188 272.273 100.501C272.273 132.383 298.119 158.228 330 158.228Z" stroke="#FEB447" stroke-width="3" stroke-miterlimit="10" stroke-linecap="round" stroke-linejoin="round"/>
<path d="M330 48.5455V37" stroke="#FEB447" stroke-width="3" stroke-miterlimit="10" stroke-linecap="round" stroke-linejoin="round"/>
<path d="M330 164V152.455" stroke="#FEB447" stroke-width="3" stroke-miterlimit="10" stroke-linecap="round" stroke-linejoin="round"/>
<path d="M381.955 100.5H393.5" stroke="#FEB447" stroke-width="3" stroke-miterlimit="10" stroke-linecap="round" stroke-linejoin="round"/>
<path d="M266.5 100.5H278.045" stroke="#FEB447" stroke-width="3" stroke-miterlimit="10" stroke-linecap="round" stroke-linejoin="round"/>
<line x1="329.569" y1="100.538" x2="379.756" y2="50.3517" stroke="#C81F56" stroke-width="3" stroke-linecap="round" stroke-linejoin="round"/>
<path d="M368.074 46.7196L377.518 37.2751V53.2581L368.074 62.7026V46.7196Z" stroke="#C81F56" stroke-width="3" stroke-linejoin="round"/>
<path d="M377.518 53.2578L368.074 62.7023L384.057 62.7023L393.501 53.2578L377.518 53.2578Z" stroke="#C81F56" stroke-width="3" stroke-linejoin="round"/>
</g>
<defs>
<filter id="filter0_d_86_3225" x="-15" y="-7" width="483" height="378" filterUnits="userSpaceOnUse" color-interpolation-filters="sRGB">
<feFlood flood-opacity="0" result="BackgroundImageFix"/>
<feColorMatrix in="SourceAlpha" type="matrix" values="0 0 0 0 0 0 0 0 0 0 0 0 0 0 0 0 0 0 127 0" result="hardAlpha"/>
<feOffset dy="8"/>
<feGaussianBlur stdDeviation="7.5"/>
<feColorMatrix type="matrix" values="0 0 0 0 0 0 0 0 0 0 0 0 0 0 0 0 0 0 0.1 0"/>
<feBlend mode="normal" in2="BackgroundImageFix" result="effect1_dropShadow_86_3225"/>
<feBlend mode="normal" in="SourceGraphic" in2="effect1_dropShadow_86_3225" result="shape"/>
</filter>
<radialGradient id="paint0_radial_86_3225" cx="0" cy="0" r="1" gradientUnits="userSpaceOnUse" gradientTransform="translate(317.5 162) rotate(180) scale(218 283.776)">
<stop stop-color="white" stop-opacity="0"/>
<stop offset="1" stop-color="white"/>
</radialGradient>
<clipPath id="clip0_86_3225">
<rect width="453" height="348" fill="white"/>
</clipPath>
</defs>
</svg>
