<svg width="453" height="348" viewBox="0 0 453 348" fill="none" xmlns="http://www.w3.org/2000/svg">
<g clip-path="url(#clip0_86_3219)">
<g filter="url(#filter0_d_86_3219)">
<mask id="mask0_86_3219" style="mask-type:alpha" maskUnits="userSpaceOnUse" x="0" y="0" width="453" height="348">
<rect width="453" height="348" rx="20" fill="#FE840E"/>
</mask>
<g mask="url(#mask0_86_3219)">
<rect width="453" height="348" fill="white"/>
<circle cx="95.5" cy="2.5" r="1.5" fill="#E3E3E3"/>
<circle cx="113.5" cy="2.5" r="1.5" fill="#E3E3E3"/>
<circle cx="131.5" cy="2.5" r="1.5" fill="#E3E3E3"/>
<circle cx="149.5" cy="2.5" r="1.5" fill="#E3E3E3"/>
<circle cx="167.5" cy="2.5" r="1.5" fill="#E3E3E3"/>
<circle cx="185.5" cy="2.5" r="1.5" fill="#E3E3E3"/>
<circle cx="203.5" cy="2.5" r="1.5" fill="#E3E3E3"/>
<circle cx="221.5" cy="2.5" r="1.5" fill="#E3E3E3"/>
<circle cx="239.5" cy="2.5" r="1.5" fill="#E3E3E3"/>
<circle cx="257.5" cy="2.5" r="1.5" fill="#E3E3E3"/>
<circle cx="275.5" cy="2.5" r="1.5" fill="#E3E3E3"/>
<circle cx="293.5" cy="2.5" r="1.5" fill="#E3E3E3"/>
<circle cx="311.5" cy="2.5" r="1.5" fill="#E3E3E3"/>
<circle cx="329.5" cy="2.5" r="1.5" fill="#E3E3E3"/>
<circle cx="347.5" cy="2.5" r="1.5" fill="#E3E3E3"/>
<circle cx="365.5" cy="2.5" r="1.5" fill="#E3E3E3"/>
<circle cx="383.5" cy="2.5" r="1.5" fill="#E3E3E3"/>
<circle cx="401.5" cy="2.5" r="1.5" fill="#E3E3E3"/>
<circle cx="419.5" cy="2.5" r="1.5" fill="#E3E3E3"/>
<circle cx="437.5" cy="2.5" r="1.5" fill="#E3E3E3"/>
<circle cx="95.5" cy="20.5" r="1.5" fill="#E3E3E3"/>
<circle cx="113.5" cy="20.5" r="1.5" fill="#E3E3E3"/>
<circle cx="131.5" cy="20.5" r="1.5" fill="#E3E3E3"/>
<circle cx="149.5" cy="20.5" r="1.5" fill="#E3E3E3"/>
<circle cx="167.5" cy="20.5" r="1.5" fill="#E3E3E3"/>
<circle cx="185.5" cy="20.5" r="1.5" fill="#E3E3E3"/>
<circle cx="203.5" cy="20.5" r="1.5" fill="#E3E3E3"/>
<circle cx="221.5" cy="20.5" r="1.5" fill="#E3E3E3"/>
<circle cx="239.5" cy="20.5" r="1.5" fill="#E3E3E3"/>
<circle cx="257.5" cy="20.5" r="1.5" fill="#E3E3E3"/>
<circle cx="275.5" cy="20.5" r="1.5" fill="#E3E3E3"/>
<circle cx="293.5" cy="20.5" r="1.5" fill="#E3E3E3"/>
<circle cx="311.5" cy="20.5" r="1.5" fill="#E3E3E3"/>
<circle cx="329.5" cy="20.5" r="1.5" fill="#E3E3E3"/>
<circle cx="347.5" cy="20.5" r="1.5" fill="#E3E3E3"/>
<circle cx="365.5" cy="20.5" r="1.5" fill="#E3E3E3"/>
<circle cx="383.5" cy="20.5" r="1.5" fill="#E3E3E3"/>
<circle cx="401.5" cy="20.5" r="1.5" fill="#E3E3E3"/>
<circle cx="419.5" cy="20.5" r="1.5" fill="#E3E3E3"/>
<circle cx="437.5" cy="20.5" r="1.5" fill="#E3E3E3"/>
<circle cx="95.5" cy="38.5" r="1.5" fill="#E3E3E3"/>
<circle cx="113.5" cy="38.5" r="1.5" fill="#E3E3E3"/>
<circle cx="131.5" cy="38.5" r="1.5" fill="#E3E3E3"/>
<circle cx="149.5" cy="38.5" r="1.5" fill="#E3E3E3"/>
<circle cx="167.5" cy="38.5" r="1.5" fill="#E3E3E3"/>
<circle cx="185.5" cy="38.5" r="1.5" fill="#E3E3E3"/>
<circle cx="203.5" cy="38.5" r="1.5" fill="#E3E3E3"/>
<circle cx="221.5" cy="38.5" r="1.5" fill="#E3E3E3"/>
<circle cx="239.5" cy="38.5" r="1.5" fill="#E3E3E3"/>
<circle cx="257.5" cy="38.5" r="1.5" fill="#E3E3E3"/>
<circle cx="275.5" cy="38.5" r="1.5" fill="#E3E3E3"/>
<circle cx="293.5" cy="38.5" r="1.5" fill="#E3E3E3"/>
<circle cx="311.5" cy="38.5" r="1.5" fill="#E3E3E3"/>
<circle cx="329.5" cy="38.5" r="1.5" fill="#E3E3E3"/>
<circle cx="347.5" cy="38.5" r="1.5" fill="#E3E3E3"/>
<circle cx="365.5" cy="38.5" r="1.5" fill="#E3E3E3"/>
<circle cx="383.5" cy="38.5" r="1.5" fill="#E3E3E3"/>
<circle cx="401.5" cy="38.5" r="1.5" fill="#E3E3E3"/>
<circle cx="419.5" cy="38.5" r="1.5" fill="#E3E3E3"/>
<circle cx="437.5" cy="38.5" r="1.5" fill="#E3E3E3"/>
<circle cx="95.5" cy="56.5" r="1.5" fill="#E3E3E3"/>
<circle cx="113.5" cy="56.5" r="1.5" fill="#E3E3E3"/>
<circle cx="131.5" cy="56.5" r="1.5" fill="#E3E3E3"/>
<circle cx="149.5" cy="56.5" r="1.5" fill="#E3E3E3"/>
<circle cx="167.5" cy="56.5" r="1.5" fill="#E3E3E3"/>
<circle cx="185.5" cy="56.5" r="1.5" fill="#E3E3E3"/>
<circle cx="203.5" cy="56.5" r="1.5" fill="#E3E3E3"/>
<circle cx="221.5" cy="56.5" r="1.5" fill="#E3E3E3"/>
<circle cx="239.5" cy="56.5" r="1.5" fill="#E3E3E3"/>
<circle cx="257.5" cy="56.5" r="1.5" fill="#E3E3E3"/>
<circle cx="275.5" cy="56.5" r="1.5" fill="#E3E3E3"/>
<circle cx="293.5" cy="56.5" r="1.5" fill="#E3E3E3"/>
<circle cx="311.5" cy="56.5" r="1.5" fill="#E3E3E3"/>
<circle cx="329.5" cy="56.5" r="1.5" fill="#E3E3E3"/>
<circle cx="347.5" cy="56.5" r="1.5" fill="#E3E3E3"/>
<circle cx="365.5" cy="56.5" r="1.5" fill="#E3E3E3"/>
<circle cx="383.5" cy="56.5" r="1.5" fill="#E3E3E3"/>
<circle cx="401.5" cy="56.5" r="1.5" fill="#E3E3E3"/>
<circle cx="419.5" cy="56.5" r="1.5" fill="#E3E3E3"/>
<circle cx="437.5" cy="56.5" r="1.5" fill="#E3E3E3"/>
<circle cx="95.5" cy="74.5" r="1.5" fill="#E3E3E3"/>
<circle cx="113.5" cy="74.5" r="1.5" fill="#E3E3E3"/>
<circle cx="131.5" cy="74.5" r="1.5" fill="#E3E3E3"/>
<circle cx="149.5" cy="74.5" r="1.5" fill="#E3E3E3"/>
<circle cx="167.5" cy="74.5" r="1.5" fill="#E3E3E3"/>
<circle cx="185.5" cy="74.5" r="1.5" fill="#E3E3E3"/>
<circle cx="203.5" cy="74.5" r="1.5" fill="#E3E3E3"/>
<circle cx="221.5" cy="74.5" r="1.5" fill="#E3E3E3"/>
<circle cx="239.5" cy="74.5" r="1.5" fill="#E3E3E3"/>
<circle cx="257.5" cy="74.5" r="1.5" fill="#E3E3E3"/>
<circle cx="275.5" cy="74.5" r="1.5" fill="#E3E3E3"/>
<circle cx="293.5" cy="74.5" r="1.5" fill="#E3E3E3"/>
<circle cx="311.5" cy="74.5" r="1.5" fill="#E3E3E3"/>
<circle cx="329.5" cy="74.5" r="1.5" fill="#E3E3E3"/>
<circle cx="347.5" cy="74.5" r="1.5" fill="#E3E3E3"/>
<circle cx="365.5" cy="74.5" r="1.5" fill="#E3E3E3"/>
<circle cx="383.5" cy="74.5" r="1.5" fill="#E3E3E3"/>
<circle cx="401.5" cy="74.5" r="1.5" fill="#E3E3E3"/>
<circle cx="419.5" cy="74.5" r="1.5" fill="#E3E3E3"/>
<circle cx="437.5" cy="74.5" r="1.5" fill="#E3E3E3"/>
<circle cx="95.5" cy="92.5" r="1.5" fill="#E3E3E3"/>
<circle cx="113.5" cy="92.5" r="1.5" fill="#E3E3E3"/>
<circle cx="131.5" cy="92.5" r="1.5" fill="#E3E3E3"/>
<circle cx="149.5" cy="92.5" r="1.5" fill="#E3E3E3"/>
<circle cx="167.5" cy="92.5" r="1.5" fill="#E3E3E3"/>
<circle cx="185.5" cy="92.5" r="1.5" fill="#E3E3E3"/>
<circle cx="203.5" cy="92.5" r="1.5" fill="#E3E3E3"/>
<circle cx="221.5" cy="92.5" r="1.5" fill="#E3E3E3"/>
<circle cx="239.5" cy="92.5" r="1.5" fill="#E3E3E3"/>
<circle cx="257.5" cy="92.5" r="1.5" fill="#E3E3E3"/>
<circle cx="275.5" cy="92.5" r="1.5" fill="#E3E3E3"/>
<circle cx="293.5" cy="92.5" r="1.5" fill="#E3E3E3"/>
<circle cx="311.5" cy="92.5" r="1.5" fill="#E3E3E3"/>
<circle cx="329.5" cy="92.5" r="1.5" fill="#E3E3E3"/>
<circle cx="347.5" cy="92.5" r="1.5" fill="#E3E3E3"/>
<circle cx="365.5" cy="92.5" r="1.5" fill="#E3E3E3"/>
<circle cx="383.5" cy="92.5" r="1.5" fill="#E3E3E3"/>
<circle cx="401.5" cy="92.5" r="1.5" fill="#E3E3E3"/>
<circle cx="419.5" cy="92.5" r="1.5" fill="#E3E3E3"/>
<circle cx="437.5" cy="92.5" r="1.5" fill="#E3E3E3"/>
<circle cx="95.5" cy="110.5" r="1.5" fill="#E3E3E3"/>
<circle cx="113.5" cy="110.5" r="1.5" fill="#E3E3E3"/>
<circle cx="131.5" cy="110.5" r="1.5" fill="#E3E3E3"/>
<circle cx="149.5" cy="110.5" r="1.5" fill="#E3E3E3"/>
<circle cx="167.5" cy="110.5" r="1.5" fill="#E3E3E3"/>
<circle cx="185.5" cy="110.5" r="1.5" fill="#E3E3E3"/>
<circle cx="203.5" cy="110.5" r="1.5" fill="#E3E3E3"/>
<circle cx="221.5" cy="110.5" r="1.5" fill="#E3E3E3"/>
<circle cx="239.5" cy="110.5" r="1.5" fill="#E3E3E3"/>
<circle cx="257.5" cy="110.5" r="1.5" fill="#E3E3E3"/>
<circle cx="275.5" cy="110.5" r="1.5" fill="#E3E3E3"/>
<circle cx="293.5" cy="110.5" r="1.5" fill="#E3E3E3"/>
<circle cx="311.5" cy="110.5" r="1.5" fill="#E3E3E3"/>
<circle cx="329.5" cy="110.5" r="1.5" fill="#E3E3E3"/>
<circle cx="347.5" cy="110.5" r="1.5" fill="#E3E3E3"/>
<circle cx="365.5" cy="110.5" r="1.5" fill="#E3E3E3"/>
<circle cx="383.5" cy="110.5" r="1.5" fill="#E3E3E3"/>
<circle cx="401.5" cy="110.5" r="1.5" fill="#E3E3E3"/>
<circle cx="419.5" cy="110.5" r="1.5" fill="#E3E3E3"/>
<circle cx="437.5" cy="110.5" r="1.5" fill="#E3E3E3"/>
<circle cx="95.5" cy="128.5" r="1.5" fill="#E3E3E3"/>
<circle cx="113.5" cy="128.5" r="1.5" fill="#E3E3E3"/>
<circle cx="131.5" cy="128.5" r="1.5" fill="#E3E3E3"/>
<circle cx="149.5" cy="128.5" r="1.5" fill="#E3E3E3"/>
<circle cx="167.5" cy="128.5" r="1.5" fill="#E3E3E3"/>
<circle cx="185.5" cy="128.5" r="1.5" fill="#E3E3E3"/>
<circle cx="203.5" cy="128.5" r="1.5" fill="#E3E3E3"/>
<circle cx="221.5" cy="128.5" r="1.5" fill="#E3E3E3"/>
<circle cx="239.5" cy="128.5" r="1.5" fill="#E3E3E3"/>
<circle cx="257.5" cy="128.5" r="1.5" fill="#E3E3E3"/>
<circle cx="275.5" cy="128.5" r="1.5" fill="#E3E3E3"/>
<circle cx="293.5" cy="128.5" r="1.5" fill="#E3E3E3"/>
<circle cx="311.5" cy="128.5" r="1.5" fill="#E3E3E3"/>
<circle cx="329.5" cy="128.5" r="1.5" fill="#E3E3E3"/>
<circle cx="347.5" cy="128.5" r="1.5" fill="#E3E3E3"/>
<circle cx="365.5" cy="128.5" r="1.5" fill="#E3E3E3"/>
<circle cx="383.5" cy="128.5" r="1.5" fill="#E3E3E3"/>
<circle cx="401.5" cy="128.5" r="1.5" fill="#E3E3E3"/>
<circle cx="419.5" cy="128.5" r="1.5" fill="#E3E3E3"/>
<circle cx="437.5" cy="128.5" r="1.5" fill="#E3E3E3"/>
<circle cx="95.5" cy="146.5" r="1.5" fill="#E3E3E3"/>
<circle cx="113.5" cy="146.5" r="1.5" fill="#E3E3E3"/>
<circle cx="131.5" cy="146.5" r="1.5" fill="#E3E3E3"/>
<circle cx="149.5" cy="146.5" r="1.5" fill="#E3E3E3"/>
<circle cx="167.5" cy="146.5" r="1.5" fill="#E3E3E3"/>
<circle cx="185.5" cy="146.5" r="1.5" fill="#E3E3E3"/>
<circle cx="203.5" cy="146.5" r="1.5" fill="#E3E3E3"/>
<circle cx="221.5" cy="146.5" r="1.5" fill="#E3E3E3"/>
<circle cx="239.5" cy="146.5" r="1.5" fill="#E3E3E3"/>
<circle cx="257.5" cy="146.5" r="1.5" fill="#E3E3E3"/>
<circle cx="275.5" cy="146.5" r="1.5" fill="#E3E3E3"/>
<circle cx="293.5" cy="146.5" r="1.5" fill="#E3E3E3"/>
<circle cx="311.5" cy="146.5" r="1.5" fill="#E3E3E3"/>
<circle cx="329.5" cy="146.5" r="1.5" fill="#E3E3E3"/>
<circle cx="347.5" cy="146.5" r="1.5" fill="#E3E3E3"/>
<circle cx="365.5" cy="146.5" r="1.5" fill="#E3E3E3"/>
<circle cx="383.5" cy="146.5" r="1.5" fill="#E3E3E3"/>
<circle cx="401.5" cy="146.5" r="1.5" fill="#E3E3E3"/>
<circle cx="419.5" cy="146.5" r="1.5" fill="#E3E3E3"/>
<circle cx="437.5" cy="146.5" r="1.5" fill="#E3E3E3"/>
<circle cx="95.5" cy="164.5" r="1.5" fill="#E3E3E3"/>
<circle cx="113.5" cy="164.5" r="1.5" fill="#E3E3E3"/>
<circle cx="131.5" cy="164.5" r="1.5" fill="#E3E3E3"/>
<circle cx="149.5" cy="164.5" r="1.5" fill="#E3E3E3"/>
<circle cx="167.5" cy="164.5" r="1.5" fill="#E3E3E3"/>
<circle cx="185.5" cy="164.5" r="1.5" fill="#E3E3E3"/>
<circle cx="203.5" cy="164.5" r="1.5" fill="#E3E3E3"/>
<circle cx="221.5" cy="164.5" r="1.5" fill="#E3E3E3"/>
<circle cx="239.5" cy="164.5" r="1.5" fill="#E3E3E3"/>
<circle cx="257.5" cy="164.5" r="1.5" fill="#E3E3E3"/>
<circle cx="275.5" cy="164.5" r="1.5" fill="#E3E3E3"/>
<circle cx="293.5" cy="164.5" r="1.5" fill="#E3E3E3"/>
<circle cx="311.5" cy="164.5" r="1.5" fill="#E3E3E3"/>
<circle cx="329.5" cy="164.5" r="1.5" fill="#E3E3E3"/>
<circle cx="347.5" cy="164.5" r="1.5" fill="#E3E3E3"/>
<circle cx="365.5" cy="164.5" r="1.5" fill="#E3E3E3"/>
<circle cx="383.5" cy="164.5" r="1.5" fill="#E3E3E3"/>
<circle cx="401.5" cy="164.5" r="1.5" fill="#E3E3E3"/>
<circle cx="419.5" cy="164.5" r="1.5" fill="#E3E3E3"/>
<circle cx="437.5" cy="164.5" r="1.5" fill="#E3E3E3"/>
<circle cx="95.5" cy="182.5" r="1.5" fill="#E3E3E3"/>
<circle cx="113.5" cy="182.5" r="1.5" fill="#E3E3E3"/>
<circle cx="131.5" cy="182.5" r="1.5" fill="#E3E3E3"/>
<circle cx="149.5" cy="182.5" r="1.5" fill="#E3E3E3"/>
<circle cx="167.5" cy="182.5" r="1.5" fill="#E3E3E3"/>
<circle cx="185.5" cy="182.5" r="1.5" fill="#E3E3E3"/>
<circle cx="203.5" cy="182.5" r="1.5" fill="#E3E3E3"/>
<circle cx="221.5" cy="182.5" r="1.5" fill="#E3E3E3"/>
<circle cx="239.5" cy="182.5" r="1.5" fill="#E3E3E3"/>
<circle cx="257.5" cy="182.5" r="1.5" fill="#E3E3E3"/>
<circle cx="275.5" cy="182.5" r="1.5" fill="#E3E3E3"/>
<circle cx="293.5" cy="182.5" r="1.5" fill="#E3E3E3"/>
<circle cx="311.5" cy="182.5" r="1.5" fill="#E3E3E3"/>
<circle cx="329.5" cy="182.5" r="1.5" fill="#E3E3E3"/>
<circle cx="347.5" cy="182.5" r="1.5" fill="#E3E3E3"/>
<circle cx="365.5" cy="182.5" r="1.5" fill="#E3E3E3"/>
<circle cx="383.5" cy="182.5" r="1.5" fill="#E3E3E3"/>
<circle cx="401.5" cy="182.5" r="1.5" fill="#E3E3E3"/>
<circle cx="419.5" cy="182.5" r="1.5" fill="#E3E3E3"/>
<circle cx="437.5" cy="182.5" r="1.5" fill="#E3E3E3"/>
<circle cx="95.5" cy="200.5" r="1.5" fill="#E3E3E3"/>
<circle cx="113.5" cy="200.5" r="1.5" fill="#E3E3E3"/>
<circle cx="131.5" cy="200.5" r="1.5" fill="#E3E3E3"/>
<circle cx="149.5" cy="200.5" r="1.5" fill="#E3E3E3"/>
<circle cx="167.5" cy="200.5" r="1.5" fill="#E3E3E3"/>
<circle cx="185.5" cy="200.5" r="1.5" fill="#E3E3E3"/>
<circle cx="203.5" cy="200.5" r="1.5" fill="#E3E3E3"/>
<circle cx="221.5" cy="200.5" r="1.5" fill="#E3E3E3"/>
<circle cx="239.5" cy="200.5" r="1.5" fill="#E3E3E3"/>
<circle cx="257.5" cy="200.5" r="1.5" fill="#E3E3E3"/>
<circle cx="275.5" cy="200.5" r="1.5" fill="#E3E3E3"/>
<circle cx="293.5" cy="200.5" r="1.5" fill="#E3E3E3"/>
<circle cx="311.5" cy="200.5" r="1.5" fill="#E3E3E3"/>
<circle cx="329.5" cy="200.5" r="1.5" fill="#E3E3E3"/>
<circle cx="347.5" cy="200.5" r="1.5" fill="#E3E3E3"/>
<circle cx="365.5" cy="200.5" r="1.5" fill="#E3E3E3"/>
<circle cx="383.5" cy="200.5" r="1.5" fill="#E3E3E3"/>
<circle cx="401.5" cy="200.5" r="1.5" fill="#E3E3E3"/>
<circle cx="419.5" cy="200.5" r="1.5" fill="#E3E3E3"/>
<circle cx="437.5" cy="200.5" r="1.5" fill="#E3E3E3"/>
<circle cx="95.5" cy="218.5" r="1.5" fill="#E3E3E3"/>
<circle cx="113.5" cy="218.5" r="1.5" fill="#E3E3E3"/>
<circle cx="131.5" cy="218.5" r="1.5" fill="#E3E3E3"/>
<circle cx="149.5" cy="218.5" r="1.5" fill="#E3E3E3"/>
<circle cx="167.5" cy="218.5" r="1.5" fill="#E3E3E3"/>
<circle cx="185.5" cy="218.5" r="1.5" fill="#E3E3E3"/>
<circle cx="203.5" cy="218.5" r="1.5" fill="#E3E3E3"/>
<circle cx="221.5" cy="218.5" r="1.5" fill="#E3E3E3"/>
<circle cx="239.5" cy="218.5" r="1.5" fill="#E3E3E3"/>
<circle cx="257.5" cy="218.5" r="1.5" fill="#E3E3E3"/>
<circle cx="275.5" cy="218.5" r="1.5" fill="#E3E3E3"/>
<circle cx="293.5" cy="218.5" r="1.5" fill="#E3E3E3"/>
<circle cx="311.5" cy="218.5" r="1.5" fill="#E3E3E3"/>
<circle cx="329.5" cy="218.5" r="1.5" fill="#E3E3E3"/>
<circle cx="347.5" cy="218.5" r="1.5" fill="#E3E3E3"/>
<circle cx="365.5" cy="218.5" r="1.5" fill="#E3E3E3"/>
<circle cx="383.5" cy="218.5" r="1.5" fill="#E3E3E3"/>
<circle cx="401.5" cy="218.5" r="1.5" fill="#E3E3E3"/>
<circle cx="419.5" cy="218.5" r="1.5" fill="#E3E3E3"/>
<circle cx="437.5" cy="218.5" r="1.5" fill="#E3E3E3"/>
<circle cx="95.5" cy="236.5" r="1.5" fill="#E3E3E3"/>
<circle cx="113.5" cy="236.5" r="1.5" fill="#E3E3E3"/>
<circle cx="131.5" cy="236.5" r="1.5" fill="#E3E3E3"/>
<circle cx="149.5" cy="236.5" r="1.5" fill="#E3E3E3"/>
<circle cx="167.5" cy="236.5" r="1.5" fill="#E3E3E3"/>
<circle cx="185.5" cy="236.5" r="1.5" fill="#E3E3E3"/>
<circle cx="203.5" cy="236.5" r="1.5" fill="#E3E3E3"/>
<circle cx="221.5" cy="236.5" r="1.5" fill="#E3E3E3"/>
<circle cx="239.5" cy="236.5" r="1.5" fill="#E3E3E3"/>
<circle cx="257.5" cy="236.5" r="1.5" fill="#E3E3E3"/>
<circle cx="275.5" cy="236.5" r="1.5" fill="#E3E3E3"/>
<circle cx="293.5" cy="236.5" r="1.5" fill="#E3E3E3"/>
<circle cx="311.5" cy="236.5" r="1.5" fill="#E3E3E3"/>
<circle cx="329.5" cy="236.5" r="1.5" fill="#E3E3E3"/>
<circle cx="347.5" cy="236.5" r="1.5" fill="#E3E3E3"/>
<circle cx="365.5" cy="236.5" r="1.5" fill="#E3E3E3"/>
<circle cx="383.5" cy="236.5" r="1.5" fill="#E3E3E3"/>
<circle cx="401.5" cy="236.5" r="1.5" fill="#E3E3E3"/>
<circle cx="419.5" cy="236.5" r="1.5" fill="#E3E3E3"/>
<circle cx="437.5" cy="236.5" r="1.5" fill="#E3E3E3"/>
<circle cx="95.5" cy="254.5" r="1.5" fill="#E3E3E3"/>
<circle cx="113.5" cy="254.5" r="1.5" fill="#E3E3E3"/>
<circle cx="131.5" cy="254.5" r="1.5" fill="#E3E3E3"/>
<circle cx="149.5" cy="254.5" r="1.5" fill="#E3E3E3"/>
<circle cx="167.5" cy="254.5" r="1.5" fill="#E3E3E3"/>
<circle cx="185.5" cy="254.5" r="1.5" fill="#E3E3E3"/>
<circle cx="203.5" cy="254.5" r="1.5" fill="#E3E3E3"/>
<circle cx="221.5" cy="254.5" r="1.5" fill="#E3E3E3"/>
<circle cx="239.5" cy="254.5" r="1.5" fill="#E3E3E3"/>
<circle cx="257.5" cy="254.5" r="1.5" fill="#E3E3E3"/>
<circle cx="275.5" cy="254.5" r="1.5" fill="#E3E3E3"/>
<circle cx="293.5" cy="254.5" r="1.5" fill="#E3E3E3"/>
<circle cx="311.5" cy="254.5" r="1.5" fill="#E3E3E3"/>
<circle cx="329.5" cy="254.5" r="1.5" fill="#E3E3E3"/>
<circle cx="347.5" cy="254.5" r="1.5" fill="#E3E3E3"/>
<circle cx="365.5" cy="254.5" r="1.5" fill="#E3E3E3"/>
<circle cx="383.5" cy="254.5" r="1.5" fill="#E3E3E3"/>
<circle cx="401.5" cy="254.5" r="1.5" fill="#E3E3E3"/>
<circle cx="419.5" cy="254.5" r="1.5" fill="#E3E3E3"/>
<circle cx="437.5" cy="254.5" r="1.5" fill="#E3E3E3"/>
<circle cx="95.5" cy="272.5" r="1.5" fill="#E3E3E3"/>
<circle cx="113.5" cy="272.5" r="1.5" fill="#E3E3E3"/>
<circle cx="131.5" cy="272.5" r="1.5" fill="#E3E3E3"/>
<circle cx="149.5" cy="272.5" r="1.5" fill="#E3E3E3"/>
<circle cx="167.5" cy="272.5" r="1.5" fill="#E3E3E3"/>
<circle cx="185.5" cy="272.5" r="1.5" fill="#E3E3E3"/>
<circle cx="203.5" cy="272.5" r="1.5" fill="#E3E3E3"/>
<circle cx="221.5" cy="272.5" r="1.5" fill="#E3E3E3"/>
<circle cx="239.5" cy="272.5" r="1.5" fill="#E3E3E3"/>
<circle cx="257.5" cy="272.5" r="1.5" fill="#E3E3E3"/>
<circle cx="275.5" cy="272.5" r="1.5" fill="#E3E3E3"/>
<circle cx="293.5" cy="272.5" r="1.5" fill="#E3E3E3"/>
<circle cx="311.5" cy="272.5" r="1.5" fill="#E3E3E3"/>
<circle cx="329.5" cy="272.5" r="1.5" fill="#E3E3E3"/>
<circle cx="347.5" cy="272.5" r="1.5" fill="#E3E3E3"/>
<circle cx="365.5" cy="272.5" r="1.5" fill="#E3E3E3"/>
<circle cx="383.5" cy="272.5" r="1.5" fill="#E3E3E3"/>
<circle cx="401.5" cy="272.5" r="1.5" fill="#E3E3E3"/>
<circle cx="419.5" cy="272.5" r="1.5" fill="#E3E3E3"/>
<circle cx="437.5" cy="272.5" r="1.5" fill="#E3E3E3"/>
<circle cx="95.5" cy="290.5" r="1.5" fill="#E3E3E3"/>
<circle cx="113.5" cy="290.5" r="1.5" fill="#E3E3E3"/>
<circle cx="131.5" cy="290.5" r="1.5" fill="#E3E3E3"/>
<circle cx="149.5" cy="290.5" r="1.5" fill="#E3E3E3"/>
<circle cx="167.5" cy="290.5" r="1.5" fill="#E3E3E3"/>
<circle cx="185.5" cy="290.5" r="1.5" fill="#E3E3E3"/>
<circle cx="203.5" cy="290.5" r="1.5" fill="#E3E3E3"/>
<circle cx="221.5" cy="290.5" r="1.5" fill="#E3E3E3"/>
<circle cx="239.5" cy="290.5" r="1.5" fill="#E3E3E3"/>
<circle cx="257.5" cy="290.5" r="1.5" fill="#E3E3E3"/>
<circle cx="275.5" cy="290.5" r="1.5" fill="#E3E3E3"/>
<circle cx="293.5" cy="290.5" r="1.5" fill="#E3E3E3"/>
<circle cx="311.5" cy="290.5" r="1.5" fill="#E3E3E3"/>
<circle cx="329.5" cy="290.5" r="1.5" fill="#E3E3E3"/>
<circle cx="347.5" cy="290.5" r="1.5" fill="#E3E3E3"/>
<circle cx="365.5" cy="290.5" r="1.5" fill="#E3E3E3"/>
<circle cx="383.5" cy="290.5" r="1.5" fill="#E3E3E3"/>
<circle cx="401.5" cy="290.5" r="1.5" fill="#E3E3E3"/>
<circle cx="419.5" cy="290.5" r="1.5" fill="#E3E3E3"/>
<circle cx="437.5" cy="290.5" r="1.5" fill="#E3E3E3"/>
<circle cx="95.5" cy="308.5" r="1.5" fill="#E3E3E3"/>
<circle cx="113.5" cy="308.5" r="1.5" fill="#E3E3E3"/>
<circle cx="131.5" cy="308.5" r="1.5" fill="#E3E3E3"/>
<circle cx="149.5" cy="308.5" r="1.5" fill="#E3E3E3"/>
<circle cx="167.5" cy="308.5" r="1.5" fill="#E3E3E3"/>
<circle cx="185.5" cy="308.5" r="1.5" fill="#E3E3E3"/>
<circle cx="203.5" cy="308.5" r="1.5" fill="#E3E3E3"/>
<circle cx="221.5" cy="308.5" r="1.5" fill="#E3E3E3"/>
<circle cx="239.5" cy="308.5" r="1.5" fill="#E3E3E3"/>
<circle cx="257.5" cy="308.5" r="1.5" fill="#E3E3E3"/>
<circle cx="275.5" cy="308.5" r="1.5" fill="#E3E3E3"/>
<circle cx="293.5" cy="308.5" r="1.5" fill="#E3E3E3"/>
<circle cx="311.5" cy="308.5" r="1.5" fill="#E3E3E3"/>
<circle cx="329.5" cy="308.5" r="1.5" fill="#E3E3E3"/>
<circle cx="347.5" cy="308.5" r="1.5" fill="#E3E3E3"/>
<circle cx="365.5" cy="308.5" r="1.5" fill="#E3E3E3"/>
<circle cx="383.5" cy="308.5" r="1.5" fill="#E3E3E3"/>
<circle cx="401.5" cy="308.5" r="1.5" fill="#E3E3E3"/>
<circle cx="419.5" cy="308.5" r="1.5" fill="#E3E3E3"/>
<circle cx="437.5" cy="308.5" r="1.5" fill="#E3E3E3"/>
<circle cx="95.5" cy="326.5" r="1.5" fill="#E3E3E3"/>
<circle cx="113.5" cy="326.5" r="1.5" fill="#E3E3E3"/>
<circle cx="131.5" cy="326.5" r="1.5" fill="#E3E3E3"/>
<circle cx="149.5" cy="326.5" r="1.5" fill="#E3E3E3"/>
<circle cx="167.5" cy="326.5" r="1.5" fill="#E3E3E3"/>
<circle cx="185.5" cy="326.5" r="1.5" fill="#E3E3E3"/>
<circle cx="203.5" cy="326.5" r="1.5" fill="#E3E3E3"/>
<circle cx="221.5" cy="326.5" r="1.5" fill="#E3E3E3"/>
<circle cx="239.5" cy="326.5" r="1.5" fill="#E3E3E3"/>
<circle cx="257.5" cy="326.5" r="1.5" fill="#E3E3E3"/>
<circle cx="275.5" cy="326.5" r="1.5" fill="#E3E3E3"/>
<circle cx="293.5" cy="326.5" r="1.5" fill="#E3E3E3"/>
<circle cx="311.5" cy="326.5" r="1.5" fill="#E3E3E3"/>
<circle cx="329.5" cy="326.5" r="1.5" fill="#E3E3E3"/>
<circle cx="347.5" cy="326.5" r="1.5" fill="#E3E3E3"/>
<circle cx="365.5" cy="326.5" r="1.5" fill="#E3E3E3"/>
<circle cx="383.5" cy="326.5" r="1.5" fill="#E3E3E3"/>
<circle cx="401.5" cy="326.5" r="1.5" fill="#E3E3E3"/>
<circle cx="419.5" cy="326.5" r="1.5" fill="#E3E3E3"/>
<circle cx="437.5" cy="326.5" r="1.5" fill="#E3E3E3"/>
<circle cx="95.5" cy="344.5" r="1.5" fill="#E3E3E3"/>
<circle cx="113.5" cy="344.5" r="1.5" fill="#E3E3E3"/>
<circle cx="131.5" cy="344.5" r="1.5" fill="#E3E3E3"/>
<circle cx="149.5" cy="344.5" r="1.5" fill="#E3E3E3"/>
<circle cx="167.5" cy="344.5" r="1.5" fill="#E3E3E3"/>
<circle cx="185.5" cy="344.5" r="1.5" fill="#E3E3E3"/>
<circle cx="203.5" cy="344.5" r="1.5" fill="#E3E3E3"/>
<circle cx="221.5" cy="344.5" r="1.5" fill="#E3E3E3"/>
<circle cx="239.5" cy="344.5" r="1.5" fill="#E3E3E3"/>
<circle cx="257.5" cy="344.5" r="1.5" fill="#E3E3E3"/>
<circle cx="275.5" cy="344.5" r="1.5" fill="#E3E3E3"/>
<circle cx="293.5" cy="344.5" r="1.5" fill="#E3E3E3"/>
<circle cx="311.5" cy="344.5" r="1.5" fill="#E3E3E3"/>
<circle cx="329.5" cy="344.5" r="1.5" fill="#E3E3E3"/>
<circle cx="347.5" cy="344.5" r="1.5" fill="#E3E3E3"/>
<circle cx="365.5" cy="344.5" r="1.5" fill="#E3E3E3"/>
<circle cx="383.5" cy="344.5" r="1.5" fill="#E3E3E3"/>
<circle cx="401.5" cy="344.5" r="1.5" fill="#E3E3E3"/>
<circle cx="419.5" cy="344.5" r="1.5" fill="#E3E3E3"/>
<circle cx="437.5" cy="344.5" r="1.5" fill="#E3E3E3"/>
<rect width="453" height="348" fill="url(#paint0_radial_86_3219)"/>
<path d="M-11.5696 291.918C-26.6742 289.206 -39.6847 275.948 -50.2744 261.139C-60.8466 246.353 -68.9739 229.998 -67.1171 214.677C-65.2603 199.355 -53.4063 184.983 -39.1707 176.29C-24.9175 167.621 -8.29361 164.566 7.69483 166.815C23.7009 169.088 39.0298 176.658 49.9116 189.185C60.7934 201.712 67.2039 219.214 64.4633 234.999C61.7161 250.825 49.7761 264.928 35.2484 275.903C20.679 286.871 3.52846 294.671 -11.5696 291.918Z" fill="#C81F56"/>
<path d="M26.52 117.92C19.08 117.92 12.48 116.2 6.72 112.76C1.04 109.32 -3.44 104.32 -6.72 97.76C-9.92 91.2 -11.52 83.28 -11.52 74C-11.52 64.72 -9.92 56.8 -6.72 50.24C-3.44 43.68 1.04 38.68 6.72 35.24C12.48 31.8 19.08 30.08 26.52 30.08C33.96 30.08 40.52 31.8 46.2 35.24C51.96 38.68 56.44 43.68 59.64 50.24C62.92 56.8 64.56 64.72 64.56 74C64.56 83.28 62.92 91.2 59.64 97.76C56.44 104.32 51.96 109.32 46.2 112.76C40.52 116.2 33.96 117.92 26.52 117.92ZM26.52 95.24C28.36 95.24 30 94.6 31.44 93.32C32.88 92.04 34 89.84 34.8 86.72C35.68 83.6 36.12 79.36 36.12 74C36.12 68.56 35.68 64.32 34.8 61.28C34 58.16 32.88 55.96 31.44 54.68C30 53.4 28.36 52.76 26.52 52.76C24.68 52.76 23.04 53.4 21.6 54.68C20.16 55.96 19 58.16 18.12 61.28C17.32 64.32 16.92 68.56 16.92 74C16.92 79.36 17.32 83.6 18.12 86.72C19 89.84 20.16 92.04 21.6 93.32C23.04 94.6 24.68 95.24 26.52 95.24ZM96.9141 117.92C91.1541 117.92 85.3141 117.28 79.3941 116C73.4741 114.72 68.2741 112.84 63.7941 110.36L73.3941 89.48C76.9941 91.56 80.7541 93.12 84.6741 94.16C88.6741 95.12 92.4341 95.6 95.9541 95.6C99.1541 95.6 101.754 95.08 103.754 94.04C105.834 92.92 106.874 91.28 106.874 89.12C106.874 87.28 106.114 85.88 104.594 84.92C103.074 83.88 100.514 83.36 96.9141 83.36H85.7541V65.96L107.474 43.88L109.994 53.36L68.1141 53.36L68.1141 32L130.754 32V49.4L109.034 71.48L95.4741 63.8H102.914C113.474 63.8 121.514 66.16 127.034 70.88C132.554 75.6 135.314 81.68 135.314 89.12C135.314 93.92 133.954 98.52 131.234 102.92C128.594 107.32 124.434 110.92 118.754 113.72C113.154 116.52 105.874 117.92 96.9141 117.92Z" fill="#E3E3E3"/>
</g>
<path d="M60.36 303L52.948 291.542L57.402 288.856L66.616 303H60.36ZM44.89 303V279.2H50.364V303H44.89ZM48.766 293.412V288.822H57.062V293.412H48.766ZM57.912 291.712L52.846 291.1L60.564 279.2H66.378L57.912 291.712ZM66.7007 302.966L66.9727 298.614C67.1087 298.637 67.2447 298.659 67.3807 298.682C67.5167 298.682 67.6414 298.682 67.7547 298.682C68.3894 298.682 68.8881 298.501 69.2507 298.138C69.6134 297.775 69.8854 297.288 70.0667 296.676C70.2481 296.041 70.3727 295.327 70.4407 294.534C70.5314 293.741 70.5994 292.913 70.6447 292.052L70.9167 284.708H86.5567V303H81.2527V287.768L82.4427 289.06H74.4187L75.5407 287.7L75.3027 292.29C75.2347 293.922 75.0987 295.418 74.8947 296.778C74.7134 298.138 74.4074 299.317 73.9767 300.314C73.5461 301.289 72.9681 302.048 72.2427 302.592C71.5174 303.113 70.5881 303.374 69.4547 303.374C69.0467 303.374 68.6161 303.34 68.1627 303.272C67.7094 303.204 67.2221 303.102 66.7007 302.966ZM102.265 303V299.43L101.925 298.648V292.256C101.925 291.123 101.574 290.239 100.871 289.604C100.191 288.969 99.1373 288.652 97.7093 288.652C96.7346 288.652 95.7713 288.811 94.8193 289.128C93.8899 289.423 93.0966 289.831 92.4393 290.352L90.5353 286.646C91.5326 285.943 92.7339 285.399 94.1393 285.014C95.5446 284.629 96.9726 284.436 98.4233 284.436C101.211 284.436 103.376 285.093 104.917 286.408C106.459 287.723 107.229 289.774 107.229 292.562V303H102.265ZM96.6893 303.272C95.2613 303.272 94.0373 303.034 93.0173 302.558C91.9973 302.059 91.2153 301.391 90.6713 300.552C90.1273 299.713 89.8553 298.773 89.8553 297.73C89.8553 296.642 90.1159 295.69 90.6373 294.874C91.1813 294.058 92.0313 293.423 93.1873 292.97C94.3433 292.494 95.8506 292.256 97.7093 292.256H102.571V295.35H98.2873C97.0406 295.35 96.1793 295.554 95.7033 295.962C95.2499 296.37 95.0233 296.88 95.0233 297.492C95.0233 298.172 95.2839 298.716 95.8053 299.124C96.3493 299.509 97.0859 299.702 98.0153 299.702C98.8993 299.702 99.6926 299.498 100.395 299.09C101.098 298.659 101.608 298.036 101.925 297.22L102.741 299.668C102.356 300.847 101.653 301.742 100.633 302.354C99.6133 302.966 98.2986 303.272 96.6893 303.272ZM120.201 303.272C118.229 303.272 116.472 302.875 114.931 302.082C113.389 301.266 112.177 300.144 111.293 298.716C110.431 297.288 110.001 295.667 110.001 293.854C110.001 292.018 110.431 290.397 111.293 288.992C112.177 287.564 113.389 286.453 114.931 285.66C116.472 284.844 118.229 284.436 120.201 284.436C122.127 284.436 123.805 284.844 125.233 285.66C126.661 286.453 127.715 287.598 128.395 289.094L124.281 291.304C123.805 290.443 123.204 289.808 122.479 289.4C121.776 288.992 121.005 288.788 120.167 288.788C119.26 288.788 118.444 288.992 117.719 289.4C116.993 289.808 116.415 290.386 115.985 291.134C115.577 291.882 115.373 292.789 115.373 293.854C115.373 294.919 115.577 295.826 115.985 296.574C116.415 297.322 116.993 297.9 117.719 298.308C118.444 298.716 119.26 298.92 120.167 298.92C121.005 298.92 121.776 298.727 122.479 298.342C123.204 297.934 123.805 297.288 124.281 296.404L128.395 298.648C127.715 300.121 126.661 301.266 125.233 302.082C123.805 302.875 122.127 303.272 120.201 303.272ZM139.749 303.272C137.777 303.272 136.021 302.875 134.479 302.082C132.938 301.266 131.725 300.144 130.841 298.716C129.98 297.288 129.549 295.667 129.549 293.854C129.549 292.018 129.98 290.397 130.841 288.992C131.725 287.564 132.938 286.453 134.479 285.66C136.021 284.844 137.777 284.436 139.749 284.436C141.676 284.436 143.353 284.844 144.781 285.66C146.209 286.453 147.263 287.598 147.943 289.094L143.829 291.304C143.353 290.443 142.753 289.808 142.027 289.4C141.325 288.992 140.554 288.788 139.715 288.788C138.809 288.788 137.993 288.992 137.267 289.4C136.542 289.808 135.964 290.386 135.533 291.134C135.125 291.882 134.921 292.789 134.921 293.854C134.921 294.919 135.125 295.826 135.533 296.574C135.964 297.322 136.542 297.9 137.267 298.308C137.993 298.716 138.809 298.92 139.715 298.92C140.554 298.92 141.325 298.727 142.027 298.342C142.753 297.934 143.353 297.288 143.829 296.404L147.943 298.648C147.263 300.121 146.209 301.266 144.781 302.082C143.353 302.875 141.676 303.272 139.749 303.272ZM150.827 303V284.708H156.097V295.588L165.005 284.708H169.867V303H164.597V292.12L155.723 303H150.827ZM186.933 303.408C186.888 303.408 186.763 303.408 186.559 303.408C186.355 303.408 186.163 303.408 185.981 303.408C185.8 303.408 185.675 303.408 185.607 303.408C181.641 303.34 178.569 302.49 176.393 300.858C174.217 299.226 173.129 296.869 173.129 293.786C173.129 290.749 174.206 288.437 176.359 286.85C178.535 285.241 181.652 284.425 185.709 284.402C185.755 284.402 185.868 284.402 186.049 284.402C186.253 284.402 186.446 284.402 186.627 284.402C186.809 284.402 186.922 284.402 186.967 284.402C191.07 284.402 194.243 285.195 196.487 286.782C198.754 288.369 199.887 290.703 199.887 293.786C199.887 296.914 198.754 299.305 196.487 300.96C194.243 302.592 191.059 303.408 186.933 303.408ZM186.763 299.328C188.645 299.328 190.175 299.135 191.353 298.75C192.532 298.342 193.393 297.73 193.937 296.914C194.504 296.075 194.787 295.033 194.787 293.786C194.787 292.585 194.515 291.599 193.971 290.828C193.427 290.035 192.555 289.445 191.353 289.06C190.175 288.675 188.645 288.482 186.763 288.482C186.695 288.482 186.559 288.482 186.355 288.482C186.151 288.482 186.015 288.482 185.947 288.482C184.134 288.482 182.661 288.686 181.527 289.094C180.394 289.502 179.567 290.091 179.045 290.862C178.524 291.633 178.263 292.607 178.263 293.786C178.263 295.01 178.524 296.03 179.045 296.846C179.567 297.662 180.394 298.274 181.527 298.682C182.661 299.09 184.134 299.305 185.947 299.328C186.015 299.328 186.151 299.328 186.355 299.328C186.559 299.328 186.695 299.328 186.763 299.328ZM184.077 309.596V277.772H188.939V309.596H184.077ZM203.139 303V284.708H208.409V295.588L217.317 284.708H222.179V303H216.909V292.12L208.035 303H203.139ZM239.891 303L233.771 294.33L238.089 291.78L246.147 303H239.891ZM226.937 303V284.708H232.241V303H226.937ZM230.677 296.064V291.814H237.069V296.064H230.677ZM238.599 294.466L233.635 293.922L240.061 284.708H245.705L238.599 294.466ZM259.028 303V299.43L258.688 298.648V292.256C258.688 291.123 258.337 290.239 257.634 289.604C256.954 288.969 255.9 288.652 254.472 288.652C253.497 288.652 252.534 288.811 251.582 289.128C250.653 289.423 249.859 289.831 249.202 290.352L247.298 286.646C248.295 285.943 249.497 285.399 250.902 285.014C252.307 284.629 253.735 284.436 255.186 284.436C257.974 284.436 260.139 285.093 261.68 286.408C263.221 287.723 263.992 289.774 263.992 292.562V303H259.028ZM253.452 303.272C252.024 303.272 250.8 303.034 249.78 302.558C248.76 302.059 247.978 301.391 247.434 300.552C246.89 299.713 246.618 298.773 246.618 297.73C246.618 296.642 246.879 295.69 247.4 294.874C247.944 294.058 248.794 293.423 249.95 292.97C251.106 292.494 252.613 292.256 254.472 292.256H259.334V295.35H255.05C253.803 295.35 252.942 295.554 252.466 295.962C252.013 296.37 251.786 296.88 251.786 297.492C251.786 298.172 252.047 298.716 252.568 299.124C253.112 299.509 253.849 299.702 254.778 299.702C255.662 299.702 256.455 299.498 257.158 299.09C257.861 298.659 258.371 298.036 258.688 297.22L259.504 299.668C259.119 300.847 258.416 301.742 257.396 302.354C256.376 302.966 255.061 303.272 253.452 303.272ZM268.259 303V284.708H273.529V298.648H280.907V284.708H286.211V303H268.259ZM283.933 306.944V302.932L285.157 303H280.907V298.648H288.863V306.944H283.933ZM291.859 303V284.708H297.129V295.588L306.037 284.708H310.899V303H305.629V292.12L296.755 303H291.859ZM327.184 303V296.914L327.932 297.764H322.866C320.236 297.764 318.174 297.22 316.678 296.132C315.182 295.044 314.434 293.48 314.434 291.44C314.434 289.264 315.216 287.598 316.78 286.442C318.366 285.286 320.497 284.708 323.172 284.708H331.91V303H327.184ZM314.162 303L319.024 296.03H324.43L319.806 303H314.162ZM327.184 295.282V287.666L327.932 289.026H323.274C322.186 289.026 321.336 289.23 320.724 289.638C320.134 290.046 319.84 290.703 319.84 291.61C319.84 293.355 320.962 294.228 323.206 294.228H327.932L327.184 295.282Z" fill="black"/>
</g>
<circle cx="324.659" cy="95.659" r="57.159" stroke="url(#paint1_linear_86_3219)" stroke-width="3"/>
<path d="M320.715 182H330.558L328.53 126.314L327.256 91.349L326.25 63.7219L325.636 46.8867L325.243 57.6785L324.347 82.2839L323.357 109.479L322.413 135.38L320.715 182Z" fill="white"/>
<path d="M299.687 182H351.138M284.029 96.995L296.108 109.075M322.413 135.38L320.715 182H330.558L328.53 126.314M322.413 135.38L323.357 109.479M322.413 135.38L301.03 113.996M366.797 88.0471L355.165 99.6794M328.53 126.314L327.256 91.349M328.53 126.314L339.506 115.338M306.398 92.5211L315.346 101.469M323.357 109.479L324.347 82.2839M323.357 109.479L315.346 101.469M341.295 77.3096L335.394 83.2108M327.256 91.349L326.25 63.7219M327.256 91.349L335.394 83.2108M349.796 68.8091L345.546 73.0594M304.161 62.0982L313.557 71.4935M324.347 82.2839L325.243 57.6785M324.347 82.2839L313.557 71.4935M336.821 53.1503L326.25 63.7219M326.25 63.7219L325.636 46.8867L325.243 57.6785M318.926 51.3607L325.243 57.6785M299.687 71.4935H313.557M315.346 88.0471V101.469M343.532 91.349L335.394 83.2108M355.165 88.0471V99.6794M355.165 99.6794L339.506 115.338M366.797 105.943H349.796M347.559 123.391L339.506 115.338M296.108 96.995V109.075M296.108 109.075L301.03 113.996M279.555 113.996H285.818M292.082 113.996H301.03" stroke="url(#paint2_linear_86_3219)" stroke-width="3" stroke-linecap="round" stroke-linejoin="round"/>
</g>
<defs>
<filter id="filter0_d_86_3219" x="-15" y="-7" width="483" height="378" filterUnits="userSpaceOnUse" color-interpolation-filters="sRGB">
<feFlood flood-opacity="0" result="BackgroundImageFix"/>
<feColorMatrix in="SourceAlpha" type="matrix" values="0 0 0 0 0 0 0 0 0 0 0 0 0 0 0 0 0 0 127 0" result="hardAlpha"/>
<feOffset dy="8"/>
<feGaussianBlur stdDeviation="7.5"/>
<feColorMatrix type="matrix" values="0 0 0 0 0 0 0 0 0 0 0 0 0 0 0 0 0 0 0.1 0"/>
<feBlend mode="normal" in2="BackgroundImageFix" result="effect1_dropShadow_86_3219"/>
<feBlend mode="normal" in="SourceGraphic" in2="effect1_dropShadow_86_3219" result="shape"/>
</filter>
<radialGradient id="paint0_radial_86_3219" cx="0" cy="0" r="1" gradientUnits="userSpaceOnUse" gradientTransform="translate(317.5 162) rotate(180) scale(218 283.776)">
<stop stop-color="white" stop-opacity="0"/>
<stop offset="1" stop-color="white"/>
</radialGradient>
<linearGradient id="paint1_linear_86_3219" x1="324.659" y1="37" x2="324.659" y2="154.318" gradientUnits="userSpaceOnUse">
<stop stop-color="#C81F56"/>
<stop offset="1" stop-color="#FE840E"/>
</linearGradient>
<linearGradient id="paint2_linear_86_3219" x1="323.176" y1="46.8867" x2="323.176" y2="182" gradientUnits="userSpaceOnUse">
<stop stop-color="#C81F56"/>
<stop offset="1" stop-color="#FE840E"/>
</linearGradient>
<clipPath id="clip0_86_3219">
<rect width="453" height="348" fill="white"/>
</clipPath>
</defs>
</svg>
