<svg width="453" height="348" viewBox="0 0 453 348" fill="none" xmlns="http://www.w3.org/2000/svg">
<g clip-path="url(#clip0_86_3203)">
<g filter="url(#filter0_d_86_3203)">
<mask id="mask0_86_3203" style="mask-type:alpha" maskUnits="userSpaceOnUse" x="0" y="0" width="453" height="348">
<rect width="453" height="348" rx="20" fill="#FE840E"/>
</mask>
<g mask="url(#mask0_86_3203)">
<rect width="453" height="348" fill="white"/>
<circle cx="95.5" cy="2.5" r="1.5" fill="#E3E3E3"/>
<circle cx="113.5" cy="2.5" r="1.5" fill="#E3E3E3"/>
<circle cx="131.5" cy="2.5" r="1.5" fill="#E3E3E3"/>
<circle cx="149.5" cy="2.5" r="1.5" fill="#E3E3E3"/>
<circle cx="167.5" cy="2.5" r="1.5" fill="#E3E3E3"/>
<circle cx="185.5" cy="2.5" r="1.5" fill="#E3E3E3"/>
<circle cx="203.5" cy="2.5" r="1.5" fill="#E3E3E3"/>
<circle cx="221.5" cy="2.5" r="1.5" fill="#E3E3E3"/>
<circle cx="239.5" cy="2.5" r="1.5" fill="#E3E3E3"/>
<circle cx="257.5" cy="2.5" r="1.5" fill="#E3E3E3"/>
<circle cx="275.5" cy="2.5" r="1.5" fill="#E3E3E3"/>
<circle cx="293.5" cy="2.5" r="1.5" fill="#E3E3E3"/>
<circle cx="311.5" cy="2.5" r="1.5" fill="#E3E3E3"/>
<circle cx="329.5" cy="2.5" r="1.5" fill="#E3E3E3"/>
<circle cx="347.5" cy="2.5" r="1.5" fill="#E3E3E3"/>
<circle cx="365.5" cy="2.5" r="1.5" fill="#E3E3E3"/>
<circle cx="383.5" cy="2.5" r="1.5" fill="#E3E3E3"/>
<circle cx="401.5" cy="2.5" r="1.5" fill="#E3E3E3"/>
<circle cx="419.5" cy="2.5" r="1.5" fill="#E3E3E3"/>
<circle cx="437.5" cy="2.5" r="1.5" fill="#E3E3E3"/>
<circle cx="95.5" cy="20.5" r="1.5" fill="#E3E3E3"/>
<circle cx="113.5" cy="20.5" r="1.5" fill="#E3E3E3"/>
<circle cx="131.5" cy="20.5" r="1.5" fill="#E3E3E3"/>
<circle cx="149.5" cy="20.5" r="1.5" fill="#E3E3E3"/>
<circle cx="167.5" cy="20.5" r="1.5" fill="#E3E3E3"/>
<circle cx="185.5" cy="20.5" r="1.5" fill="#E3E3E3"/>
<circle cx="203.5" cy="20.5" r="1.5" fill="#E3E3E3"/>
<circle cx="221.5" cy="20.5" r="1.5" fill="#E3E3E3"/>
<circle cx="239.5" cy="20.5" r="1.5" fill="#E3E3E3"/>
<circle cx="257.5" cy="20.5" r="1.5" fill="#E3E3E3"/>
<circle cx="275.5" cy="20.5" r="1.5" fill="#E3E3E3"/>
<circle cx="293.5" cy="20.5" r="1.5" fill="#E3E3E3"/>
<circle cx="311.5" cy="20.5" r="1.5" fill="#E3E3E3"/>
<circle cx="329.5" cy="20.5" r="1.5" fill="#E3E3E3"/>
<circle cx="347.5" cy="20.5" r="1.5" fill="#E3E3E3"/>
<circle cx="365.5" cy="20.5" r="1.5" fill="#E3E3E3"/>
<circle cx="383.5" cy="20.5" r="1.5" fill="#E3E3E3"/>
<circle cx="401.5" cy="20.5" r="1.5" fill="#E3E3E3"/>
<circle cx="419.5" cy="20.5" r="1.5" fill="#E3E3E3"/>
<circle cx="437.5" cy="20.5" r="1.5" fill="#E3E3E3"/>
<circle cx="95.5" cy="38.5" r="1.5" fill="#E3E3E3"/>
<circle cx="113.5" cy="38.5" r="1.5" fill="#E3E3E3"/>
<circle cx="131.5" cy="38.5" r="1.5" fill="#E3E3E3"/>
<circle cx="149.5" cy="38.5" r="1.5" fill="#E3E3E3"/>
<circle cx="167.5" cy="38.5" r="1.5" fill="#E3E3E3"/>
<circle cx="185.5" cy="38.5" r="1.5" fill="#E3E3E3"/>
<circle cx="203.5" cy="38.5" r="1.5" fill="#E3E3E3"/>
<circle cx="221.5" cy="38.5" r="1.5" fill="#E3E3E3"/>
<circle cx="239.5" cy="38.5" r="1.5" fill="#E3E3E3"/>
<circle cx="257.5" cy="38.5" r="1.5" fill="#E3E3E3"/>
<circle cx="275.5" cy="38.5" r="1.5" fill="#E3E3E3"/>
<circle cx="293.5" cy="38.5" r="1.5" fill="#E3E3E3"/>
<circle cx="311.5" cy="38.5" r="1.5" fill="#E3E3E3"/>
<circle cx="329.5" cy="38.5" r="1.5" fill="#E3E3E3"/>
<circle cx="347.5" cy="38.5" r="1.5" fill="#E3E3E3"/>
<circle cx="365.5" cy="38.5" r="1.5" fill="#E3E3E3"/>
<circle cx="383.5" cy="38.5" r="1.5" fill="#E3E3E3"/>
<circle cx="401.5" cy="38.5" r="1.5" fill="#E3E3E3"/>
<circle cx="419.5" cy="38.5" r="1.5" fill="#E3E3E3"/>
<circle cx="437.5" cy="38.5" r="1.5" fill="#E3E3E3"/>
<circle cx="95.5" cy="56.5" r="1.5" fill="#E3E3E3"/>
<circle cx="113.5" cy="56.5" r="1.5" fill="#E3E3E3"/>
<circle cx="131.5" cy="56.5" r="1.5" fill="#E3E3E3"/>
<circle cx="149.5" cy="56.5" r="1.5" fill="#E3E3E3"/>
<circle cx="167.5" cy="56.5" r="1.5" fill="#E3E3E3"/>
<circle cx="185.5" cy="56.5" r="1.5" fill="#E3E3E3"/>
<circle cx="203.5" cy="56.5" r="1.5" fill="#E3E3E3"/>
<circle cx="221.5" cy="56.5" r="1.5" fill="#E3E3E3"/>
<circle cx="239.5" cy="56.5" r="1.5" fill="#E3E3E3"/>
<circle cx="257.5" cy="56.5" r="1.5" fill="#E3E3E3"/>
<circle cx="275.5" cy="56.5" r="1.5" fill="#E3E3E3"/>
<circle cx="293.5" cy="56.5" r="1.5" fill="#E3E3E3"/>
<circle cx="311.5" cy="56.5" r="1.5" fill="#E3E3E3"/>
<circle cx="329.5" cy="56.5" r="1.5" fill="#E3E3E3"/>
<circle cx="347.5" cy="56.5" r="1.5" fill="#E3E3E3"/>
<circle cx="365.5" cy="56.5" r="1.5" fill="#E3E3E3"/>
<circle cx="383.5" cy="56.5" r="1.5" fill="#E3E3E3"/>
<circle cx="401.5" cy="56.5" r="1.5" fill="#E3E3E3"/>
<circle cx="419.5" cy="56.5" r="1.5" fill="#E3E3E3"/>
<circle cx="437.5" cy="56.5" r="1.5" fill="#E3E3E3"/>
<circle cx="95.5" cy="74.5" r="1.5" fill="#E3E3E3"/>
<circle cx="113.5" cy="74.5" r="1.5" fill="#E3E3E3"/>
<circle cx="131.5" cy="74.5" r="1.5" fill="#E3E3E3"/>
<circle cx="149.5" cy="74.5" r="1.5" fill="#E3E3E3"/>
<circle cx="167.5" cy="74.5" r="1.5" fill="#E3E3E3"/>
<circle cx="185.5" cy="74.5" r="1.5" fill="#E3E3E3"/>
<circle cx="203.5" cy="74.5" r="1.5" fill="#E3E3E3"/>
<circle cx="221.5" cy="74.5" r="1.5" fill="#E3E3E3"/>
<circle cx="239.5" cy="74.5" r="1.5" fill="#E3E3E3"/>
<circle cx="257.5" cy="74.5" r="1.5" fill="#E3E3E3"/>
<circle cx="275.5" cy="74.5" r="1.5" fill="#E3E3E3"/>
<circle cx="293.5" cy="74.5" r="1.5" fill="#E3E3E3"/>
<circle cx="311.5" cy="74.5" r="1.5" fill="#E3E3E3"/>
<circle cx="329.5" cy="74.5" r="1.5" fill="#E3E3E3"/>
<circle cx="347.5" cy="74.5" r="1.5" fill="#E3E3E3"/>
<circle cx="365.5" cy="74.5" r="1.5" fill="#E3E3E3"/>
<circle cx="383.5" cy="74.5" r="1.5" fill="#E3E3E3"/>
<circle cx="401.5" cy="74.5" r="1.5" fill="#E3E3E3"/>
<circle cx="419.5" cy="74.5" r="1.5" fill="#E3E3E3"/>
<circle cx="437.5" cy="74.5" r="1.5" fill="#E3E3E3"/>
<circle cx="95.5" cy="92.5" r="1.5" fill="#E3E3E3"/>
<circle cx="113.5" cy="92.5" r="1.5" fill="#E3E3E3"/>
<circle cx="131.5" cy="92.5" r="1.5" fill="#E3E3E3"/>
<circle cx="149.5" cy="92.5" r="1.5" fill="#E3E3E3"/>
<circle cx="167.5" cy="92.5" r="1.5" fill="#E3E3E3"/>
<circle cx="185.5" cy="92.5" r="1.5" fill="#E3E3E3"/>
<circle cx="203.5" cy="92.5" r="1.5" fill="#E3E3E3"/>
<circle cx="221.5" cy="92.5" r="1.5" fill="#E3E3E3"/>
<circle cx="239.5" cy="92.5" r="1.5" fill="#E3E3E3"/>
<circle cx="257.5" cy="92.5" r="1.5" fill="#E3E3E3"/>
<circle cx="275.5" cy="92.5" r="1.5" fill="#E3E3E3"/>
<circle cx="293.5" cy="92.5" r="1.5" fill="#E3E3E3"/>
<circle cx="311.5" cy="92.5" r="1.5" fill="#E3E3E3"/>
<circle cx="329.5" cy="92.5" r="1.5" fill="#E3E3E3"/>
<circle cx="347.5" cy="92.5" r="1.5" fill="#E3E3E3"/>
<circle cx="365.5" cy="92.5" r="1.5" fill="#E3E3E3"/>
<circle cx="383.5" cy="92.5" r="1.5" fill="#E3E3E3"/>
<circle cx="401.5" cy="92.5" r="1.5" fill="#E3E3E3"/>
<circle cx="419.5" cy="92.5" r="1.5" fill="#E3E3E3"/>
<circle cx="437.5" cy="92.5" r="1.5" fill="#E3E3E3"/>
<circle cx="95.5" cy="110.5" r="1.5" fill="#E3E3E3"/>
<circle cx="113.5" cy="110.5" r="1.5" fill="#E3E3E3"/>
<circle cx="131.5" cy="110.5" r="1.5" fill="#E3E3E3"/>
<circle cx="149.5" cy="110.5" r="1.5" fill="#E3E3E3"/>
<circle cx="167.5" cy="110.5" r="1.5" fill="#E3E3E3"/>
<circle cx="185.5" cy="110.5" r="1.5" fill="#E3E3E3"/>
<circle cx="203.5" cy="110.5" r="1.5" fill="#E3E3E3"/>
<circle cx="221.5" cy="110.5" r="1.5" fill="#E3E3E3"/>
<circle cx="239.5" cy="110.5" r="1.5" fill="#E3E3E3"/>
<circle cx="257.5" cy="110.5" r="1.5" fill="#E3E3E3"/>
<circle cx="275.5" cy="110.5" r="1.5" fill="#E3E3E3"/>
<circle cx="293.5" cy="110.5" r="1.5" fill="#E3E3E3"/>
<circle cx="311.5" cy="110.5" r="1.5" fill="#E3E3E3"/>
<circle cx="329.5" cy="110.5" r="1.5" fill="#E3E3E3"/>
<circle cx="347.5" cy="110.5" r="1.5" fill="#E3E3E3"/>
<circle cx="365.5" cy="110.5" r="1.5" fill="#E3E3E3"/>
<circle cx="383.5" cy="110.5" r="1.5" fill="#E3E3E3"/>
<circle cx="401.5" cy="110.5" r="1.5" fill="#E3E3E3"/>
<circle cx="419.5" cy="110.5" r="1.5" fill="#E3E3E3"/>
<circle cx="437.5" cy="110.5" r="1.5" fill="#E3E3E3"/>
<circle cx="95.5" cy="128.5" r="1.5" fill="#E3E3E3"/>
<circle cx="113.5" cy="128.5" r="1.5" fill="#E3E3E3"/>
<circle cx="131.5" cy="128.5" r="1.5" fill="#E3E3E3"/>
<circle cx="149.5" cy="128.5" r="1.5" fill="#E3E3E3"/>
<circle cx="167.5" cy="128.5" r="1.5" fill="#E3E3E3"/>
<circle cx="185.5" cy="128.5" r="1.5" fill="#E3E3E3"/>
<circle cx="203.5" cy="128.5" r="1.5" fill="#E3E3E3"/>
<circle cx="221.5" cy="128.5" r="1.5" fill="#E3E3E3"/>
<circle cx="239.5" cy="128.5" r="1.5" fill="#E3E3E3"/>
<circle cx="257.5" cy="128.5" r="1.5" fill="#E3E3E3"/>
<circle cx="275.5" cy="128.5" r="1.5" fill="#E3E3E3"/>
<circle cx="293.5" cy="128.5" r="1.5" fill="#E3E3E3"/>
<circle cx="311.5" cy="128.5" r="1.5" fill="#E3E3E3"/>
<circle cx="329.5" cy="128.5" r="1.5" fill="#E3E3E3"/>
<circle cx="347.5" cy="128.5" r="1.5" fill="#E3E3E3"/>
<circle cx="365.5" cy="128.5" r="1.5" fill="#E3E3E3"/>
<circle cx="383.5" cy="128.5" r="1.5" fill="#E3E3E3"/>
<circle cx="401.5" cy="128.5" r="1.5" fill="#E3E3E3"/>
<circle cx="419.5" cy="128.5" r="1.5" fill="#E3E3E3"/>
<circle cx="437.5" cy="128.5" r="1.5" fill="#E3E3E3"/>
<circle cx="95.5" cy="146.5" r="1.5" fill="#E3E3E3"/>
<circle cx="113.5" cy="146.5" r="1.5" fill="#E3E3E3"/>
<circle cx="131.5" cy="146.5" r="1.5" fill="#E3E3E3"/>
<circle cx="149.5" cy="146.5" r="1.5" fill="#E3E3E3"/>
<circle cx="167.5" cy="146.5" r="1.5" fill="#E3E3E3"/>
<circle cx="185.5" cy="146.5" r="1.5" fill="#E3E3E3"/>
<circle cx="203.5" cy="146.5" r="1.5" fill="#E3E3E3"/>
<circle cx="221.5" cy="146.5" r="1.5" fill="#E3E3E3"/>
<circle cx="239.5" cy="146.5" r="1.5" fill="#E3E3E3"/>
<circle cx="257.5" cy="146.5" r="1.5" fill="#E3E3E3"/>
<circle cx="275.5" cy="146.5" r="1.5" fill="#E3E3E3"/>
<circle cx="293.5" cy="146.5" r="1.5" fill="#E3E3E3"/>
<circle cx="311.5" cy="146.5" r="1.5" fill="#E3E3E3"/>
<circle cx="329.5" cy="146.5" r="1.5" fill="#E3E3E3"/>
<circle cx="347.5" cy="146.5" r="1.5" fill="#E3E3E3"/>
<circle cx="365.5" cy="146.5" r="1.5" fill="#E3E3E3"/>
<circle cx="383.5" cy="146.5" r="1.5" fill="#E3E3E3"/>
<circle cx="401.5" cy="146.5" r="1.5" fill="#E3E3E3"/>
<circle cx="419.5" cy="146.5" r="1.5" fill="#E3E3E3"/>
<circle cx="437.5" cy="146.5" r="1.5" fill="#E3E3E3"/>
<circle cx="95.5" cy="164.5" r="1.5" fill="#E3E3E3"/>
<circle cx="113.5" cy="164.5" r="1.5" fill="#E3E3E3"/>
<circle cx="131.5" cy="164.5" r="1.5" fill="#E3E3E3"/>
<circle cx="149.5" cy="164.5" r="1.5" fill="#E3E3E3"/>
<circle cx="167.5" cy="164.5" r="1.5" fill="#E3E3E3"/>
<circle cx="185.5" cy="164.5" r="1.5" fill="#E3E3E3"/>
<circle cx="203.5" cy="164.5" r="1.5" fill="#E3E3E3"/>
<circle cx="221.5" cy="164.5" r="1.5" fill="#E3E3E3"/>
<circle cx="239.5" cy="164.5" r="1.5" fill="#E3E3E3"/>
<circle cx="257.5" cy="164.5" r="1.5" fill="#E3E3E3"/>
<circle cx="275.5" cy="164.5" r="1.5" fill="#E3E3E3"/>
<circle cx="293.5" cy="164.5" r="1.5" fill="#E3E3E3"/>
<circle cx="311.5" cy="164.5" r="1.5" fill="#E3E3E3"/>
<circle cx="329.5" cy="164.5" r="1.5" fill="#E3E3E3"/>
<circle cx="347.5" cy="164.5" r="1.5" fill="#E3E3E3"/>
<circle cx="365.5" cy="164.5" r="1.5" fill="#E3E3E3"/>
<circle cx="383.5" cy="164.5" r="1.5" fill="#E3E3E3"/>
<circle cx="401.5" cy="164.5" r="1.5" fill="#E3E3E3"/>
<circle cx="419.5" cy="164.5" r="1.5" fill="#E3E3E3"/>
<circle cx="437.5" cy="164.5" r="1.5" fill="#E3E3E3"/>
<circle cx="95.5" cy="182.5" r="1.5" fill="#E3E3E3"/>
<circle cx="113.5" cy="182.5" r="1.5" fill="#E3E3E3"/>
<circle cx="131.5" cy="182.5" r="1.5" fill="#E3E3E3"/>
<circle cx="149.5" cy="182.5" r="1.5" fill="#E3E3E3"/>
<circle cx="167.5" cy="182.5" r="1.5" fill="#E3E3E3"/>
<circle cx="185.5" cy="182.5" r="1.5" fill="#E3E3E3"/>
<circle cx="203.5" cy="182.5" r="1.5" fill="#E3E3E3"/>
<circle cx="221.5" cy="182.5" r="1.5" fill="#E3E3E3"/>
<circle cx="239.5" cy="182.5" r="1.5" fill="#E3E3E3"/>
<circle cx="257.5" cy="182.5" r="1.5" fill="#E3E3E3"/>
<circle cx="275.5" cy="182.5" r="1.5" fill="#E3E3E3"/>
<circle cx="293.5" cy="182.5" r="1.5" fill="#E3E3E3"/>
<circle cx="311.5" cy="182.5" r="1.5" fill="#E3E3E3"/>
<circle cx="329.5" cy="182.5" r="1.5" fill="#E3E3E3"/>
<circle cx="347.5" cy="182.5" r="1.5" fill="#E3E3E3"/>
<circle cx="365.5" cy="182.5" r="1.5" fill="#E3E3E3"/>
<circle cx="383.5" cy="182.5" r="1.5" fill="#E3E3E3"/>
<circle cx="401.5" cy="182.5" r="1.5" fill="#E3E3E3"/>
<circle cx="419.5" cy="182.5" r="1.5" fill="#E3E3E3"/>
<circle cx="437.5" cy="182.5" r="1.5" fill="#E3E3E3"/>
<circle cx="95.5" cy="200.5" r="1.5" fill="#E3E3E3"/>
<circle cx="113.5" cy="200.5" r="1.5" fill="#E3E3E3"/>
<circle cx="131.5" cy="200.5" r="1.5" fill="#E3E3E3"/>
<circle cx="149.5" cy="200.5" r="1.5" fill="#E3E3E3"/>
<circle cx="167.5" cy="200.5" r="1.5" fill="#E3E3E3"/>
<circle cx="185.5" cy="200.5" r="1.5" fill="#E3E3E3"/>
<circle cx="203.5" cy="200.5" r="1.5" fill="#E3E3E3"/>
<circle cx="221.5" cy="200.5" r="1.5" fill="#E3E3E3"/>
<circle cx="239.5" cy="200.5" r="1.5" fill="#E3E3E3"/>
<circle cx="257.5" cy="200.5" r="1.5" fill="#E3E3E3"/>
<circle cx="275.5" cy="200.5" r="1.5" fill="#E3E3E3"/>
<circle cx="293.5" cy="200.5" r="1.5" fill="#E3E3E3"/>
<circle cx="311.5" cy="200.5" r="1.5" fill="#E3E3E3"/>
<circle cx="329.5" cy="200.5" r="1.5" fill="#E3E3E3"/>
<circle cx="347.5" cy="200.5" r="1.5" fill="#E3E3E3"/>
<circle cx="365.5" cy="200.5" r="1.5" fill="#E3E3E3"/>
<circle cx="383.5" cy="200.5" r="1.5" fill="#E3E3E3"/>
<circle cx="401.5" cy="200.5" r="1.5" fill="#E3E3E3"/>
<circle cx="419.5" cy="200.5" r="1.5" fill="#E3E3E3"/>
<circle cx="437.5" cy="200.5" r="1.5" fill="#E3E3E3"/>
<circle cx="95.5" cy="218.5" r="1.5" fill="#E3E3E3"/>
<circle cx="113.5" cy="218.5" r="1.5" fill="#E3E3E3"/>
<circle cx="131.5" cy="218.5" r="1.5" fill="#E3E3E3"/>
<circle cx="149.5" cy="218.5" r="1.5" fill="#E3E3E3"/>
<circle cx="167.5" cy="218.5" r="1.5" fill="#E3E3E3"/>
<circle cx="185.5" cy="218.5" r="1.5" fill="#E3E3E3"/>
<circle cx="203.5" cy="218.5" r="1.5" fill="#E3E3E3"/>
<circle cx="221.5" cy="218.5" r="1.5" fill="#E3E3E3"/>
<circle cx="239.5" cy="218.5" r="1.5" fill="#E3E3E3"/>
<circle cx="257.5" cy="218.5" r="1.5" fill="#E3E3E3"/>
<circle cx="275.5" cy="218.5" r="1.5" fill="#E3E3E3"/>
<circle cx="293.5" cy="218.5" r="1.5" fill="#E3E3E3"/>
<circle cx="311.5" cy="218.5" r="1.5" fill="#E3E3E3"/>
<circle cx="329.5" cy="218.5" r="1.5" fill="#E3E3E3"/>
<circle cx="347.5" cy="218.5" r="1.5" fill="#E3E3E3"/>
<circle cx="365.5" cy="218.5" r="1.5" fill="#E3E3E3"/>
<circle cx="383.5" cy="218.5" r="1.5" fill="#E3E3E3"/>
<circle cx="401.5" cy="218.5" r="1.5" fill="#E3E3E3"/>
<circle cx="419.5" cy="218.5" r="1.5" fill="#E3E3E3"/>
<circle cx="437.5" cy="218.5" r="1.5" fill="#E3E3E3"/>
<circle cx="95.5" cy="236.5" r="1.5" fill="#E3E3E3"/>
<circle cx="113.5" cy="236.5" r="1.5" fill="#E3E3E3"/>
<circle cx="131.5" cy="236.5" r="1.5" fill="#E3E3E3"/>
<circle cx="149.5" cy="236.5" r="1.5" fill="#E3E3E3"/>
<circle cx="167.5" cy="236.5" r="1.5" fill="#E3E3E3"/>
<circle cx="185.5" cy="236.5" r="1.5" fill="#E3E3E3"/>
<circle cx="203.5" cy="236.5" r="1.5" fill="#E3E3E3"/>
<circle cx="221.5" cy="236.5" r="1.5" fill="#E3E3E3"/>
<circle cx="239.5" cy="236.5" r="1.5" fill="#E3E3E3"/>
<circle cx="257.5" cy="236.5" r="1.5" fill="#E3E3E3"/>
<circle cx="275.5" cy="236.5" r="1.5" fill="#E3E3E3"/>
<circle cx="293.5" cy="236.5" r="1.5" fill="#E3E3E3"/>
<circle cx="311.5" cy="236.5" r="1.5" fill="#E3E3E3"/>
<circle cx="329.5" cy="236.5" r="1.5" fill="#E3E3E3"/>
<circle cx="347.5" cy="236.5" r="1.5" fill="#E3E3E3"/>
<circle cx="365.5" cy="236.5" r="1.5" fill="#E3E3E3"/>
<circle cx="383.5" cy="236.5" r="1.5" fill="#E3E3E3"/>
<circle cx="401.5" cy="236.5" r="1.5" fill="#E3E3E3"/>
<circle cx="419.5" cy="236.5" r="1.5" fill="#E3E3E3"/>
<circle cx="437.5" cy="236.5" r="1.5" fill="#E3E3E3"/>
<circle cx="95.5" cy="254.5" r="1.5" fill="#E3E3E3"/>
<circle cx="113.5" cy="254.5" r="1.5" fill="#E3E3E3"/>
<circle cx="131.5" cy="254.5" r="1.5" fill="#E3E3E3"/>
<circle cx="149.5" cy="254.5" r="1.5" fill="#E3E3E3"/>
<circle cx="167.5" cy="254.5" r="1.5" fill="#E3E3E3"/>
<circle cx="185.5" cy="254.5" r="1.5" fill="#E3E3E3"/>
<circle cx="203.5" cy="254.5" r="1.5" fill="#E3E3E3"/>
<circle cx="221.5" cy="254.5" r="1.5" fill="#E3E3E3"/>
<circle cx="239.5" cy="254.5" r="1.5" fill="#E3E3E3"/>
<circle cx="257.5" cy="254.5" r="1.5" fill="#E3E3E3"/>
<circle cx="275.5" cy="254.5" r="1.5" fill="#E3E3E3"/>
<circle cx="293.5" cy="254.5" r="1.5" fill="#E3E3E3"/>
<circle cx="311.5" cy="254.5" r="1.5" fill="#E3E3E3"/>
<circle cx="329.5" cy="254.5" r="1.5" fill="#E3E3E3"/>
<circle cx="347.5" cy="254.5" r="1.5" fill="#E3E3E3"/>
<circle cx="365.5" cy="254.5" r="1.5" fill="#E3E3E3"/>
<circle cx="383.5" cy="254.5" r="1.5" fill="#E3E3E3"/>
<circle cx="401.5" cy="254.5" r="1.5" fill="#E3E3E3"/>
<circle cx="419.5" cy="254.5" r="1.5" fill="#E3E3E3"/>
<circle cx="437.5" cy="254.5" r="1.5" fill="#E3E3E3"/>
<circle cx="95.5" cy="272.5" r="1.5" fill="#E3E3E3"/>
<circle cx="113.5" cy="272.5" r="1.5" fill="#E3E3E3"/>
<circle cx="131.5" cy="272.5" r="1.5" fill="#E3E3E3"/>
<circle cx="149.5" cy="272.5" r="1.5" fill="#E3E3E3"/>
<circle cx="167.5" cy="272.5" r="1.5" fill="#E3E3E3"/>
<circle cx="185.5" cy="272.5" r="1.5" fill="#E3E3E3"/>
<circle cx="203.5" cy="272.5" r="1.5" fill="#E3E3E3"/>
<circle cx="221.5" cy="272.5" r="1.5" fill="#E3E3E3"/>
<circle cx="239.5" cy="272.5" r="1.5" fill="#E3E3E3"/>
<circle cx="257.5" cy="272.5" r="1.5" fill="#E3E3E3"/>
<circle cx="275.5" cy="272.5" r="1.5" fill="#E3E3E3"/>
<circle cx="293.5" cy="272.5" r="1.5" fill="#E3E3E3"/>
<circle cx="311.5" cy="272.5" r="1.5" fill="#E3E3E3"/>
<circle cx="329.5" cy="272.5" r="1.5" fill="#E3E3E3"/>
<circle cx="347.5" cy="272.5" r="1.5" fill="#E3E3E3"/>
<circle cx="365.5" cy="272.5" r="1.5" fill="#E3E3E3"/>
<circle cx="383.5" cy="272.5" r="1.5" fill="#E3E3E3"/>
<circle cx="401.5" cy="272.5" r="1.5" fill="#E3E3E3"/>
<circle cx="419.5" cy="272.5" r="1.5" fill="#E3E3E3"/>
<circle cx="437.5" cy="272.5" r="1.5" fill="#E3E3E3"/>
<circle cx="95.5" cy="290.5" r="1.5" fill="#E3E3E3"/>
<circle cx="113.5" cy="290.5" r="1.5" fill="#E3E3E3"/>
<circle cx="131.5" cy="290.5" r="1.5" fill="#E3E3E3"/>
<circle cx="149.5" cy="290.5" r="1.5" fill="#E3E3E3"/>
<circle cx="167.5" cy="290.5" r="1.5" fill="#E3E3E3"/>
<circle cx="185.5" cy="290.5" r="1.5" fill="#E3E3E3"/>
<circle cx="203.5" cy="290.5" r="1.5" fill="#E3E3E3"/>
<circle cx="221.5" cy="290.5" r="1.5" fill="#E3E3E3"/>
<circle cx="239.5" cy="290.5" r="1.5" fill="#E3E3E3"/>
<circle cx="257.5" cy="290.5" r="1.5" fill="#E3E3E3"/>
<circle cx="275.5" cy="290.5" r="1.5" fill="#E3E3E3"/>
<circle cx="293.5" cy="290.5" r="1.5" fill="#E3E3E3"/>
<circle cx="311.5" cy="290.5" r="1.5" fill="#E3E3E3"/>
<circle cx="329.5" cy="290.5" r="1.5" fill="#E3E3E3"/>
<circle cx="347.5" cy="290.5" r="1.5" fill="#E3E3E3"/>
<circle cx="365.5" cy="290.5" r="1.5" fill="#E3E3E3"/>
<circle cx="383.5" cy="290.5" r="1.5" fill="#E3E3E3"/>
<circle cx="401.5" cy="290.5" r="1.5" fill="#E3E3E3"/>
<circle cx="419.5" cy="290.5" r="1.5" fill="#E3E3E3"/>
<circle cx="437.5" cy="290.5" r="1.5" fill="#E3E3E3"/>
<circle cx="95.5" cy="308.5" r="1.5" fill="#E3E3E3"/>
<circle cx="113.5" cy="308.5" r="1.5" fill="#E3E3E3"/>
<circle cx="131.5" cy="308.5" r="1.5" fill="#E3E3E3"/>
<circle cx="149.5" cy="308.5" r="1.5" fill="#E3E3E3"/>
<circle cx="167.5" cy="308.5" r="1.5" fill="#E3E3E3"/>
<circle cx="185.5" cy="308.5" r="1.5" fill="#E3E3E3"/>
<circle cx="203.5" cy="308.5" r="1.5" fill="#E3E3E3"/>
<circle cx="221.5" cy="308.5" r="1.5" fill="#E3E3E3"/>
<circle cx="239.5" cy="308.5" r="1.5" fill="#E3E3E3"/>
<circle cx="257.5" cy="308.5" r="1.5" fill="#E3E3E3"/>
<circle cx="275.5" cy="308.5" r="1.5" fill="#E3E3E3"/>
<circle cx="293.5" cy="308.5" r="1.5" fill="#E3E3E3"/>
<circle cx="311.5" cy="308.5" r="1.5" fill="#E3E3E3"/>
<circle cx="329.5" cy="308.5" r="1.5" fill="#E3E3E3"/>
<circle cx="347.5" cy="308.5" r="1.5" fill="#E3E3E3"/>
<circle cx="365.5" cy="308.5" r="1.5" fill="#E3E3E3"/>
<circle cx="383.5" cy="308.5" r="1.5" fill="#E3E3E3"/>
<circle cx="401.5" cy="308.5" r="1.5" fill="#E3E3E3"/>
<circle cx="419.5" cy="308.5" r="1.5" fill="#E3E3E3"/>
<circle cx="437.5" cy="308.5" r="1.5" fill="#E3E3E3"/>
<circle cx="95.5" cy="326.5" r="1.5" fill="#E3E3E3"/>
<circle cx="113.5" cy="326.5" r="1.5" fill="#E3E3E3"/>
<circle cx="131.5" cy="326.5" r="1.5" fill="#E3E3E3"/>
<circle cx="149.5" cy="326.5" r="1.5" fill="#E3E3E3"/>
<circle cx="167.5" cy="326.5" r="1.5" fill="#E3E3E3"/>
<circle cx="185.5" cy="326.5" r="1.5" fill="#E3E3E3"/>
<circle cx="203.5" cy="326.5" r="1.5" fill="#E3E3E3"/>
<circle cx="221.5" cy="326.5" r="1.5" fill="#E3E3E3"/>
<circle cx="239.5" cy="326.5" r="1.5" fill="#E3E3E3"/>
<circle cx="257.5" cy="326.5" r="1.5" fill="#E3E3E3"/>
<circle cx="275.5" cy="326.5" r="1.5" fill="#E3E3E3"/>
<circle cx="293.5" cy="326.5" r="1.5" fill="#E3E3E3"/>
<circle cx="311.5" cy="326.5" r="1.5" fill="#E3E3E3"/>
<circle cx="329.5" cy="326.5" r="1.5" fill="#E3E3E3"/>
<circle cx="347.5" cy="326.5" r="1.5" fill="#E3E3E3"/>
<circle cx="365.5" cy="326.5" r="1.5" fill="#E3E3E3"/>
<circle cx="383.5" cy="326.5" r="1.5" fill="#E3E3E3"/>
<circle cx="401.5" cy="326.5" r="1.5" fill="#E3E3E3"/>
<circle cx="419.5" cy="326.5" r="1.5" fill="#E3E3E3"/>
<circle cx="437.5" cy="326.5" r="1.5" fill="#E3E3E3"/>
<circle cx="95.5" cy="344.5" r="1.5" fill="#E3E3E3"/>
<circle cx="113.5" cy="344.5" r="1.5" fill="#E3E3E3"/>
<circle cx="131.5" cy="344.5" r="1.5" fill="#E3E3E3"/>
<circle cx="149.5" cy="344.5" r="1.5" fill="#E3E3E3"/>
<circle cx="167.5" cy="344.5" r="1.5" fill="#E3E3E3"/>
<circle cx="185.5" cy="344.5" r="1.5" fill="#E3E3E3"/>
<circle cx="203.5" cy="344.5" r="1.5" fill="#E3E3E3"/>
<circle cx="221.5" cy="344.5" r="1.5" fill="#E3E3E3"/>
<circle cx="239.5" cy="344.5" r="1.5" fill="#E3E3E3"/>
<circle cx="257.5" cy="344.5" r="1.5" fill="#E3E3E3"/>
<circle cx="275.5" cy="344.5" r="1.5" fill="#E3E3E3"/>
<circle cx="293.5" cy="344.5" r="1.5" fill="#E3E3E3"/>
<circle cx="311.5" cy="344.5" r="1.5" fill="#E3E3E3"/>
<circle cx="329.5" cy="344.5" r="1.5" fill="#E3E3E3"/>
<circle cx="347.5" cy="344.5" r="1.5" fill="#E3E3E3"/>
<circle cx="365.5" cy="344.5" r="1.5" fill="#E3E3E3"/>
<circle cx="383.5" cy="344.5" r="1.5" fill="#E3E3E3"/>
<circle cx="401.5" cy="344.5" r="1.5" fill="#E3E3E3"/>
<circle cx="419.5" cy="344.5" r="1.5" fill="#E3E3E3"/>
<circle cx="437.5" cy="344.5" r="1.5" fill="#E3E3E3"/>
<rect width="453" height="348" fill="url(#paint0_radial_86_3203)"/>
<path d="M-11.5696 291.918C-26.6742 289.206 -39.6847 275.948 -50.2744 261.139C-60.8466 246.353 -68.9739 229.998 -67.1171 214.677C-65.2603 199.355 -53.4063 184.983 -39.1707 176.29C-24.9175 167.621 -8.29361 164.566 7.69483 166.815C23.7009 169.088 39.0298 176.658 49.9116 189.185C60.7934 201.712 67.2039 219.214 64.4633 234.999C61.7161 250.825 49.7761 264.928 35.2484 275.903C20.679 286.871 3.52846 294.671 -11.5696 291.918Z" fill="#FE840E"/>
<path d="M26.52 117.92C19.08 117.92 12.48 116.2 6.72 112.76C1.04 109.32 -3.44 104.32 -6.72 97.76C-9.92 91.2 -11.52 83.28 -11.52 74C-11.52 64.72 -9.92 56.8 -6.72 50.24C-3.44 43.68 1.04 38.68 6.72 35.24C12.48 31.8 19.08 30.08 26.52 30.08C33.96 30.08 40.52 31.8 46.2 35.24C51.96 38.68 56.44 43.68 59.64 50.24C62.92 56.8 64.56 64.72 64.56 74C64.56 83.28 62.92 91.2 59.64 97.76C56.44 104.32 51.96 109.32 46.2 112.76C40.52 116.2 33.96 117.92 26.52 117.92ZM26.52 95.24C28.36 95.24 30 94.6 31.44 93.32C32.88 92.04 34 89.84 34.8 86.72C35.68 83.6 36.12 79.36 36.12 74C36.12 68.56 35.68 64.32 34.8 61.28C34 58.16 32.88 55.96 31.44 54.68C30 53.4 28.36 52.76 26.52 52.76C24.68 52.76 23.04 53.4 21.6 54.68C20.16 55.96 19 58.16 18.12 61.28C17.32 64.32 16.92 68.56 16.92 74C16.92 79.36 17.32 83.6 18.12 86.72C19 89.84 20.16 92.04 21.6 93.32C23.04 94.6 24.68 95.24 26.52 95.24ZM99.4059 117.92C93.6459 117.92 87.8059 117.28 81.8859 116C75.9659 114.72 70.7659 112.84 66.2859 110.36L75.8859 89.48C79.4859 91.56 83.2459 93.12 87.1659 94.16C91.0859 95.12 94.8059 95.6 98.3259 95.6C101.526 95.6 104.166 95.04 106.246 93.92C108.326 92.8 109.366 91.16 109.366 89C109.366 87.8 109.006 86.76 108.286 85.88C107.566 84.92 106.286 84.2 104.446 83.72C102.686 83.24 100.086 83 96.6459 83H72.2859L76.4859 32L132.286 32V53.36L86.4459 53.36L100.726 41.24L98.2059 73.76L83.9259 61.64L103.486 61.64C111.806 61.64 118.446 62.84 123.406 65.24C128.446 67.64 132.086 70.88 134.326 74.96C136.646 78.96 137.806 83.44 137.806 88.4C137.806 93.36 136.446 98.12 133.726 102.68C131.086 107.16 126.926 110.84 121.246 113.72C115.646 116.52 108.366 117.92 99.4059 117.92Z" fill="#E3E3E3"/>
</g>
<path d="M44.958 303V279.2H55.26C57.3907 279.2 59.2267 279.551 60.768 280.254C62.3093 280.934 63.4993 281.92 64.338 283.212C65.1767 284.504 65.596 286.045 65.596 287.836C65.596 289.604 65.1767 291.134 64.338 292.426C63.4993 293.718 62.3093 294.715 60.768 295.418C59.2267 296.098 57.3907 296.438 55.26 296.438H48.018L50.466 293.956V303H44.958ZM50.466 294.568L48.018 291.95H54.954C56.654 291.95 57.9233 291.587 58.762 290.862C59.6007 290.137 60.02 289.128 60.02 287.836C60.02 286.521 59.6007 285.501 58.762 284.776C57.9233 284.051 56.654 283.688 54.954 283.688H48.018L50.466 281.07V294.568ZM77.3903 303.272C75.3049 303.272 73.4689 302.864 71.8823 302.048C70.3183 301.232 69.1056 300.121 68.2443 298.716C67.3829 297.288 66.9523 295.667 66.9523 293.854C66.9523 292.018 67.3716 290.397 68.2103 288.992C69.0716 287.564 70.2389 286.453 71.7123 285.66C73.1856 284.844 74.8516 284.436 76.7103 284.436C78.5009 284.436 80.1103 284.821 81.5383 285.592C82.9889 286.34 84.1336 287.428 84.9723 288.856C85.8109 290.261 86.2303 291.95 86.2303 293.922C86.2303 294.126 86.2189 294.364 86.1963 294.636C86.1736 294.885 86.1509 295.123 86.1283 295.35H71.2703V292.256H83.3403L81.3003 293.174C81.3003 292.222 81.1076 291.395 80.7223 290.692C80.3369 289.989 79.8043 289.445 79.1243 289.06C78.4443 288.652 77.6509 288.448 76.7443 288.448C75.8376 288.448 75.0329 288.652 74.3303 289.06C73.6503 289.445 73.1176 290.001 72.7323 290.726C72.3469 291.429 72.1543 292.267 72.1543 293.242V294.058C72.1543 295.055 72.3696 295.939 72.8003 296.71C73.2536 297.458 73.8769 298.036 74.6703 298.444C75.4863 298.829 76.4383 299.022 77.5263 299.022C78.5009 299.022 79.3509 298.875 80.0763 298.58C80.8243 298.285 81.5043 297.843 82.1163 297.254L84.9383 300.314C84.0996 301.266 83.0456 302.003 81.7763 302.524C80.5069 303.023 79.0449 303.272 77.3903 303.272ZM89.9559 303V284.708H104.61V289.06H94.0359L95.2259 287.904V303H89.9559ZM117.859 303.272C116.317 303.272 114.969 302.932 113.813 302.252C112.657 301.572 111.75 300.541 111.093 299.158C110.458 297.753 110.141 295.985 110.141 293.854C110.141 291.701 110.447 289.933 111.059 288.55C111.671 287.167 112.555 286.136 113.711 285.456C114.867 284.776 116.249 284.436 117.859 284.436C119.581 284.436 121.123 284.833 122.483 285.626C123.865 286.397 124.953 287.485 125.747 288.89C126.563 290.295 126.971 291.95 126.971 293.854C126.971 295.781 126.563 297.447 125.747 298.852C124.953 300.257 123.865 301.345 122.483 302.116C121.123 302.887 119.581 303.272 117.859 303.272ZM107.047 309.596V284.708H112.113V288.448L112.011 293.888L112.351 299.294V309.596H107.047ZM116.941 298.92C117.825 298.92 118.607 298.716 119.287 298.308C119.989 297.9 120.545 297.322 120.953 296.574C121.383 295.803 121.599 294.897 121.599 293.854C121.599 292.789 121.383 291.882 120.953 291.134C120.545 290.386 119.989 289.808 119.287 289.4C118.607 288.992 117.825 288.788 116.941 288.788C116.057 288.788 115.263 288.992 114.561 289.4C113.858 289.808 113.303 290.386 112.895 291.134C112.487 291.882 112.283 292.789 112.283 293.854C112.283 294.897 112.487 295.803 112.895 296.574C113.303 297.322 113.858 297.9 114.561 298.308C115.263 298.716 116.057 298.92 116.941 298.92ZM139.29 303.272C137.205 303.272 135.369 302.864 133.782 302.048C132.218 301.232 131.006 300.121 130.144 298.716C129.283 297.288 128.852 295.667 128.852 293.854C128.852 292.018 129.272 290.397 130.11 288.992C130.972 287.564 132.139 286.453 133.612 285.66C135.086 284.844 136.752 284.436 138.61 284.436C140.401 284.436 142.01 284.821 143.438 285.592C144.889 286.34 146.034 287.428 146.872 288.856C147.711 290.261 148.13 291.95 148.13 293.922C148.13 294.126 148.119 294.364 148.096 294.636C148.074 294.885 148.051 295.123 148.028 295.35H133.17V292.256H145.24L143.2 293.174C143.2 292.222 143.008 291.395 142.622 290.692C142.237 289.989 141.704 289.445 141.024 289.06C140.344 288.652 139.551 288.448 138.644 288.448C137.738 288.448 136.933 288.652 136.23 289.06C135.55 289.445 135.018 290.001 134.632 290.726C134.247 291.429 134.054 292.267 134.054 293.242V294.058C134.054 295.055 134.27 295.939 134.7 296.71C135.154 297.458 135.777 298.036 136.57 298.444C137.386 298.829 138.338 299.022 139.426 299.022C140.401 299.022 141.251 298.875 141.976 298.58C142.724 298.285 143.404 297.843 144.016 297.254L146.838 300.314C146 301.266 144.946 302.003 143.676 302.524C142.407 303.023 140.945 303.272 139.29 303.272ZM160.56 303.272C158.588 303.272 156.831 302.875 155.29 302.082C153.749 301.266 152.536 300.144 151.652 298.716C150.791 297.288 150.36 295.667 150.36 293.854C150.36 292.018 150.791 290.397 151.652 288.992C152.536 287.564 153.749 286.453 155.29 285.66C156.831 284.844 158.588 284.436 160.56 284.436C162.487 284.436 164.164 284.844 165.592 285.66C167.02 286.453 168.074 287.598 168.754 289.094L164.64 291.304C164.164 290.443 163.563 289.808 162.838 289.4C162.135 288.992 161.365 288.788 160.526 288.788C159.619 288.788 158.803 288.992 158.078 289.4C157.353 289.808 156.775 290.386 156.344 291.134C155.936 291.882 155.732 292.789 155.732 293.854C155.732 294.919 155.936 295.826 156.344 296.574C156.775 297.322 157.353 297.9 158.078 298.308C158.803 298.716 159.619 298.92 160.526 298.92C161.365 298.92 162.135 298.727 162.838 298.342C163.563 297.934 164.164 297.288 164.64 296.404L168.754 298.648C168.074 300.121 167.02 301.266 165.592 302.082C164.164 302.875 162.487 303.272 160.56 303.272ZM180.109 303.272C178.137 303.272 176.38 302.875 174.839 302.082C173.297 301.266 172.085 300.144 171.201 298.716C170.339 297.288 169.909 295.667 169.909 293.854C169.909 292.018 170.339 290.397 171.201 288.992C172.085 287.564 173.297 286.453 174.839 285.66C176.38 284.844 178.137 284.436 180.109 284.436C182.035 284.436 183.713 284.844 185.141 285.66C186.569 286.453 187.623 287.598 188.303 289.094L184.189 291.304C183.713 290.443 183.112 289.808 182.387 289.4C181.684 288.992 180.913 288.788 180.075 288.788C179.168 288.788 178.352 288.992 177.627 289.4C176.901 289.808 176.323 290.386 175.893 291.134C175.485 291.882 175.281 292.789 175.281 293.854C175.281 294.919 175.485 295.826 175.893 296.574C176.323 297.322 176.901 297.9 177.627 298.308C178.352 298.716 179.168 298.92 180.075 298.92C180.913 298.92 181.684 298.727 182.387 298.342C183.112 297.934 183.713 297.288 184.189 296.404L188.303 298.648C187.623 300.121 186.569 301.266 185.141 302.082C183.713 302.875 182.035 303.272 180.109 303.272ZM191.186 303V284.708H196.456V295.588L205.364 284.708H210.226V303H204.956V292.12L196.082 303H191.186ZM226.51 303V296.914L227.258 297.764H222.192C219.563 297.764 217.5 297.22 216.004 296.132C214.508 295.044 213.76 293.48 213.76 291.44C213.76 289.264 214.542 287.598 216.106 286.442C217.693 285.286 219.824 284.708 222.498 284.708H231.236V303H226.51ZM213.488 303L218.35 296.03H223.756L219.132 303H213.488ZM226.51 295.282V287.666L227.258 289.026H222.6C221.512 289.026 220.662 289.23 220.05 289.638C219.461 290.046 219.166 290.703 219.166 291.61C219.166 293.355 220.288 294.228 222.532 294.228H227.258L226.51 295.282Z" fill="black"/>
</g>
<rect x="387.162" y="38" width="2.64828" height="128" rx="1.32414" fill="#E3E3E3"/>
<rect x="323.603" y="38" width="2.64828" height="128" rx="1.32414" fill="#E3E3E3"/>
<rect x="260.044" y="38" width="2.64828" height="128" rx="1.32414" fill="#E3E3E3"/>
<rect x="196.486" y="38" width="2.64828" height="128" rx="1.32414" fill="#E3E3E3"/>
<path d="M174.417 109.295C180.211 109.295 184.421 101.385 188.49 93.7312C193.041 85.1739 197.721 76.3597 205.616 77.2955C215.699 78.5376 219.56 94.8555 223.648 112.131C226.818 125.53 230.413 140.715 236.524 141.319C242.098 141.818 246.548 129.523 250.414 118.626C254.945 105.854 259.225 93.789 267.156 93.2922C274.527 92.8318 278.781 101.246 282.908 109.381C287.037 117.521 291.267 125.973 298.051 125.309C304.867 124.675 308.744 108.327 312.162 93.9047C316.14 77.1221 319.899 61.2732 329.192 61.2732C339.212 61.2732 342.273 79.9659 345.818 101.61C348.866 120.217 352.32 141.308 360.147 141.308C365.622 141.308 370.757 128.016 374.884 117.334C379.868 104.432 384.173 93.2879 391.104 93.2879C395.989 93.2879 398.681 98.2775 401.058 102.68C402.812 105.933 404.628 109.295 406.583 109.295" stroke="url(#paint1_linear_86_3203)" stroke-width="3" stroke-linecap="round" stroke-linejoin="round"/>
</g>
<defs>
<filter id="filter0_d_86_3203" x="-15" y="-7" width="483" height="378" filterUnits="userSpaceOnUse" color-interpolation-filters="sRGB">
<feFlood flood-opacity="0" result="BackgroundImageFix"/>
<feColorMatrix in="SourceAlpha" type="matrix" values="0 0 0 0 0 0 0 0 0 0 0 0 0 0 0 0 0 0 127 0" result="hardAlpha"/>
<feOffset dy="8"/>
<feGaussianBlur stdDeviation="7.5"/>
<feColorMatrix type="matrix" values="0 0 0 0 0 0 0 0 0 0 0 0 0 0 0 0 0 0 0.1 0"/>
<feBlend mode="normal" in2="BackgroundImageFix" result="effect1_dropShadow_86_3203"/>
<feBlend mode="normal" in="SourceGraphic" in2="effect1_dropShadow_86_3203" result="shape"/>
</filter>
<radialGradient id="paint0_radial_86_3203" cx="0" cy="0" r="1" gradientUnits="userSpaceOnUse" gradientTransform="translate(317.5 162) rotate(180) scale(218 283.776)">
<stop stop-color="white" stop-opacity="0"/>
<stop offset="1" stop-color="white"/>
</radialGradient>
<linearGradient id="paint1_linear_86_3203" x1="309.336" y1="61.2732" x2="309.336" y2="141.333" gradientUnits="userSpaceOnUse">
<stop stop-color="#FE840E"/>
<stop offset="1" stop-color="#C81F56"/>
</linearGradient>
<clipPath id="clip0_86_3203">
<rect width="453" height="348" fill="white"/>
</clipPath>
</defs>
</svg>
