<svg width="453" height="348" viewBox="0 0 453 348" fill="none" xmlns="http://www.w3.org/2000/svg">
<g clip-path="url(#clip0_86_3164)">
<g filter="url(#filter0_d_86_3164)">
<mask id="mask0_86_3164" style="mask-type:alpha" maskUnits="userSpaceOnUse" x="0" y="0" width="453" height="348">
<rect width="453" height="348" rx="20" fill="#FE840E"/>
</mask>
<g mask="url(#mask0_86_3164)">
<rect width="453" height="348" fill="white"/>
<circle cx="95.5" cy="2.5" r="1.5" fill="#E3E3E3"/>
<circle cx="113.5" cy="2.5" r="1.5" fill="#E3E3E3"/>
<circle cx="131.5" cy="2.5" r="1.5" fill="#E3E3E3"/>
<circle cx="149.5" cy="2.5" r="1.5" fill="#E3E3E3"/>
<circle cx="167.5" cy="2.5" r="1.5" fill="#E3E3E3"/>
<circle cx="185.5" cy="2.5" r="1.5" fill="#E3E3E3"/>
<circle cx="203.5" cy="2.5" r="1.5" fill="#E3E3E3"/>
<circle cx="221.5" cy="2.5" r="1.5" fill="#E3E3E3"/>
<circle cx="239.5" cy="2.5" r="1.5" fill="#E3E3E3"/>
<circle cx="257.5" cy="2.5" r="1.5" fill="#E3E3E3"/>
<circle cx="275.5" cy="2.5" r="1.5" fill="#E3E3E3"/>
<circle cx="293.5" cy="2.5" r="1.5" fill="#E3E3E3"/>
<circle cx="311.5" cy="2.5" r="1.5" fill="#E3E3E3"/>
<circle cx="329.5" cy="2.5" r="1.5" fill="#E3E3E3"/>
<circle cx="347.5" cy="2.5" r="1.5" fill="#E3E3E3"/>
<circle cx="365.5" cy="2.5" r="1.5" fill="#E3E3E3"/>
<circle cx="383.5" cy="2.5" r="1.5" fill="#E3E3E3"/>
<circle cx="401.5" cy="2.5" r="1.5" fill="#E3E3E3"/>
<circle cx="419.5" cy="2.5" r="1.5" fill="#E3E3E3"/>
<circle cx="437.5" cy="2.5" r="1.5" fill="#E3E3E3"/>
<circle cx="95.5" cy="20.5" r="1.5" fill="#E3E3E3"/>
<circle cx="113.5" cy="20.5" r="1.5" fill="#E3E3E3"/>
<circle cx="131.5" cy="20.5" r="1.5" fill="#E3E3E3"/>
<circle cx="149.5" cy="20.5" r="1.5" fill="#E3E3E3"/>
<circle cx="167.5" cy="20.5" r="1.5" fill="#E3E3E3"/>
<circle cx="185.5" cy="20.5" r="1.5" fill="#E3E3E3"/>
<circle cx="203.5" cy="20.5" r="1.5" fill="#E3E3E3"/>
<circle cx="221.5" cy="20.5" r="1.5" fill="#E3E3E3"/>
<circle cx="239.5" cy="20.5" r="1.5" fill="#E3E3E3"/>
<circle cx="257.5" cy="20.5" r="1.5" fill="#E3E3E3"/>
<circle cx="275.5" cy="20.5" r="1.5" fill="#E3E3E3"/>
<circle cx="293.5" cy="20.5" r="1.5" fill="#E3E3E3"/>
<circle cx="311.5" cy="20.5" r="1.5" fill="#E3E3E3"/>
<circle cx="329.5" cy="20.5" r="1.5" fill="#E3E3E3"/>
<circle cx="347.5" cy="20.5" r="1.5" fill="#E3E3E3"/>
<circle cx="365.5" cy="20.5" r="1.5" fill="#E3E3E3"/>
<circle cx="383.5" cy="20.5" r="1.5" fill="#E3E3E3"/>
<circle cx="401.5" cy="20.5" r="1.5" fill="#E3E3E3"/>
<circle cx="419.5" cy="20.5" r="1.5" fill="#E3E3E3"/>
<circle cx="437.5" cy="20.5" r="1.5" fill="#E3E3E3"/>
<circle cx="95.5" cy="38.5" r="1.5" fill="#E3E3E3"/>
<circle cx="113.5" cy="38.5" r="1.5" fill="#E3E3E3"/>
<circle cx="131.5" cy="38.5" r="1.5" fill="#E3E3E3"/>
<circle cx="149.5" cy="38.5" r="1.5" fill="#E3E3E3"/>
<circle cx="167.5" cy="38.5" r="1.5" fill="#E3E3E3"/>
<circle cx="185.5" cy="38.5" r="1.5" fill="#E3E3E3"/>
<circle cx="203.5" cy="38.5" r="1.5" fill="#E3E3E3"/>
<circle cx="221.5" cy="38.5" r="1.5" fill="#E3E3E3"/>
<circle cx="239.5" cy="38.5" r="1.5" fill="#E3E3E3"/>
<circle cx="257.5" cy="38.5" r="1.5" fill="#E3E3E3"/>
<circle cx="275.5" cy="38.5" r="1.5" fill="#E3E3E3"/>
<circle cx="293.5" cy="38.5" r="1.5" fill="#E3E3E3"/>
<circle cx="311.5" cy="38.5" r="1.5" fill="#E3E3E3"/>
<circle cx="329.5" cy="38.5" r="1.5" fill="#E3E3E3"/>
<circle cx="347.5" cy="38.5" r="1.5" fill="#E3E3E3"/>
<circle cx="365.5" cy="38.5" r="1.5" fill="#E3E3E3"/>
<circle cx="383.5" cy="38.5" r="1.5" fill="#E3E3E3"/>
<circle cx="401.5" cy="38.5" r="1.5" fill="#E3E3E3"/>
<circle cx="419.5" cy="38.5" r="1.5" fill="#E3E3E3"/>
<circle cx="437.5" cy="38.5" r="1.5" fill="#E3E3E3"/>
<circle cx="95.5" cy="56.5" r="1.5" fill="#E3E3E3"/>
<circle cx="113.5" cy="56.5" r="1.5" fill="#E3E3E3"/>
<circle cx="131.5" cy="56.5" r="1.5" fill="#E3E3E3"/>
<circle cx="149.5" cy="56.5" r="1.5" fill="#E3E3E3"/>
<circle cx="167.5" cy="56.5" r="1.5" fill="#E3E3E3"/>
<circle cx="185.5" cy="56.5" r="1.5" fill="#E3E3E3"/>
<circle cx="203.5" cy="56.5" r="1.5" fill="#E3E3E3"/>
<circle cx="221.5" cy="56.5" r="1.5" fill="#E3E3E3"/>
<circle cx="239.5" cy="56.5" r="1.5" fill="#E3E3E3"/>
<circle cx="257.5" cy="56.5" r="1.5" fill="#E3E3E3"/>
<circle cx="275.5" cy="56.5" r="1.5" fill="#E3E3E3"/>
<circle cx="293.5" cy="56.5" r="1.5" fill="#E3E3E3"/>
<circle cx="311.5" cy="56.5" r="1.5" fill="#E3E3E3"/>
<circle cx="329.5" cy="56.5" r="1.5" fill="#E3E3E3"/>
<circle cx="347.5" cy="56.5" r="1.5" fill="#E3E3E3"/>
<circle cx="365.5" cy="56.5" r="1.5" fill="#E3E3E3"/>
<circle cx="383.5" cy="56.5" r="1.5" fill="#E3E3E3"/>
<circle cx="401.5" cy="56.5" r="1.5" fill="#E3E3E3"/>
<circle cx="419.5" cy="56.5" r="1.5" fill="#E3E3E3"/>
<circle cx="437.5" cy="56.5" r="1.5" fill="#E3E3E3"/>
<circle cx="95.5" cy="74.5" r="1.5" fill="#E3E3E3"/>
<circle cx="113.5" cy="74.5" r="1.5" fill="#E3E3E3"/>
<circle cx="131.5" cy="74.5" r="1.5" fill="#E3E3E3"/>
<circle cx="149.5" cy="74.5" r="1.5" fill="#E3E3E3"/>
<circle cx="167.5" cy="74.5" r="1.5" fill="#E3E3E3"/>
<circle cx="185.5" cy="74.5" r="1.5" fill="#E3E3E3"/>
<circle cx="203.5" cy="74.5" r="1.5" fill="#E3E3E3"/>
<circle cx="221.5" cy="74.5" r="1.5" fill="#E3E3E3"/>
<circle cx="239.5" cy="74.5" r="1.5" fill="#E3E3E3"/>
<circle cx="257.5" cy="74.5" r="1.5" fill="#E3E3E3"/>
<circle cx="275.5" cy="74.5" r="1.5" fill="#E3E3E3"/>
<circle cx="293.5" cy="74.5" r="1.5" fill="#E3E3E3"/>
<circle cx="311.5" cy="74.5" r="1.5" fill="#E3E3E3"/>
<circle cx="329.5" cy="74.5" r="1.5" fill="#E3E3E3"/>
<circle cx="347.5" cy="74.5" r="1.5" fill="#E3E3E3"/>
<circle cx="365.5" cy="74.5" r="1.5" fill="#E3E3E3"/>
<circle cx="383.5" cy="74.5" r="1.5" fill="#E3E3E3"/>
<circle cx="401.5" cy="74.5" r="1.5" fill="#E3E3E3"/>
<circle cx="419.5" cy="74.5" r="1.5" fill="#E3E3E3"/>
<circle cx="437.5" cy="74.5" r="1.5" fill="#E3E3E3"/>
<circle cx="95.5" cy="92.5" r="1.5" fill="#E3E3E3"/>
<circle cx="113.5" cy="92.5" r="1.5" fill="#E3E3E3"/>
<circle cx="131.5" cy="92.5" r="1.5" fill="#E3E3E3"/>
<circle cx="149.5" cy="92.5" r="1.5" fill="#E3E3E3"/>
<circle cx="167.5" cy="92.5" r="1.5" fill="#E3E3E3"/>
<circle cx="185.5" cy="92.5" r="1.5" fill="#E3E3E3"/>
<circle cx="203.5" cy="92.5" r="1.5" fill="#E3E3E3"/>
<circle cx="221.5" cy="92.5" r="1.5" fill="#E3E3E3"/>
<circle cx="239.5" cy="92.5" r="1.5" fill="#E3E3E3"/>
<circle cx="257.5" cy="92.5" r="1.5" fill="#E3E3E3"/>
<circle cx="275.5" cy="92.5" r="1.5" fill="#E3E3E3"/>
<circle cx="293.5" cy="92.5" r="1.5" fill="#E3E3E3"/>
<circle cx="311.5" cy="92.5" r="1.5" fill="#E3E3E3"/>
<circle cx="329.5" cy="92.5" r="1.5" fill="#E3E3E3"/>
<circle cx="347.5" cy="92.5" r="1.5" fill="#E3E3E3"/>
<circle cx="365.5" cy="92.5" r="1.5" fill="#E3E3E3"/>
<circle cx="383.5" cy="92.5" r="1.5" fill="#E3E3E3"/>
<circle cx="401.5" cy="92.5" r="1.5" fill="#E3E3E3"/>
<circle cx="419.5" cy="92.5" r="1.5" fill="#E3E3E3"/>
<circle cx="437.5" cy="92.5" r="1.5" fill="#E3E3E3"/>
<circle cx="95.5" cy="110.5" r="1.5" fill="#E3E3E3"/>
<circle cx="113.5" cy="110.5" r="1.5" fill="#E3E3E3"/>
<circle cx="131.5" cy="110.5" r="1.5" fill="#E3E3E3"/>
<circle cx="149.5" cy="110.5" r="1.5" fill="#E3E3E3"/>
<circle cx="167.5" cy="110.5" r="1.5" fill="#E3E3E3"/>
<circle cx="185.5" cy="110.5" r="1.5" fill="#E3E3E3"/>
<circle cx="203.5" cy="110.5" r="1.5" fill="#E3E3E3"/>
<circle cx="221.5" cy="110.5" r="1.5" fill="#E3E3E3"/>
<circle cx="239.5" cy="110.5" r="1.5" fill="#E3E3E3"/>
<circle cx="257.5" cy="110.5" r="1.5" fill="#E3E3E3"/>
<circle cx="275.5" cy="110.5" r="1.5" fill="#E3E3E3"/>
<circle cx="293.5" cy="110.5" r="1.5" fill="#E3E3E3"/>
<circle cx="311.5" cy="110.5" r="1.5" fill="#E3E3E3"/>
<circle cx="329.5" cy="110.5" r="1.5" fill="#E3E3E3"/>
<circle cx="347.5" cy="110.5" r="1.5" fill="#E3E3E3"/>
<circle cx="365.5" cy="110.5" r="1.5" fill="#E3E3E3"/>
<circle cx="383.5" cy="110.5" r="1.5" fill="#E3E3E3"/>
<circle cx="401.5" cy="110.5" r="1.5" fill="#E3E3E3"/>
<circle cx="419.5" cy="110.5" r="1.5" fill="#E3E3E3"/>
<circle cx="437.5" cy="110.5" r="1.5" fill="#E3E3E3"/>
<circle cx="95.5" cy="128.5" r="1.5" fill="#E3E3E3"/>
<circle cx="113.5" cy="128.5" r="1.5" fill="#E3E3E3"/>
<circle cx="131.5" cy="128.5" r="1.5" fill="#E3E3E3"/>
<circle cx="149.5" cy="128.5" r="1.5" fill="#E3E3E3"/>
<circle cx="167.5" cy="128.5" r="1.5" fill="#E3E3E3"/>
<circle cx="185.5" cy="128.5" r="1.5" fill="#E3E3E3"/>
<circle cx="203.5" cy="128.5" r="1.5" fill="#E3E3E3"/>
<circle cx="221.5" cy="128.5" r="1.5" fill="#E3E3E3"/>
<circle cx="239.5" cy="128.5" r="1.5" fill="#E3E3E3"/>
<circle cx="257.5" cy="128.5" r="1.5" fill="#E3E3E3"/>
<circle cx="275.5" cy="128.5" r="1.5" fill="#E3E3E3"/>
<circle cx="293.5" cy="128.5" r="1.5" fill="#E3E3E3"/>
<circle cx="311.5" cy="128.5" r="1.5" fill="#E3E3E3"/>
<circle cx="329.5" cy="128.5" r="1.5" fill="#E3E3E3"/>
<circle cx="347.5" cy="128.5" r="1.5" fill="#E3E3E3"/>
<circle cx="365.5" cy="128.5" r="1.5" fill="#E3E3E3"/>
<circle cx="383.5" cy="128.5" r="1.5" fill="#E3E3E3"/>
<circle cx="401.5" cy="128.5" r="1.5" fill="#E3E3E3"/>
<circle cx="419.5" cy="128.5" r="1.5" fill="#E3E3E3"/>
<circle cx="437.5" cy="128.5" r="1.5" fill="#E3E3E3"/>
<circle cx="95.5" cy="146.5" r="1.5" fill="#E3E3E3"/>
<circle cx="113.5" cy="146.5" r="1.5" fill="#E3E3E3"/>
<circle cx="131.5" cy="146.5" r="1.5" fill="#E3E3E3"/>
<circle cx="149.5" cy="146.5" r="1.5" fill="#E3E3E3"/>
<circle cx="167.5" cy="146.5" r="1.5" fill="#E3E3E3"/>
<circle cx="185.5" cy="146.5" r="1.5" fill="#E3E3E3"/>
<circle cx="203.5" cy="146.5" r="1.5" fill="#E3E3E3"/>
<circle cx="221.5" cy="146.5" r="1.5" fill="#E3E3E3"/>
<circle cx="239.5" cy="146.5" r="1.5" fill="#E3E3E3"/>
<circle cx="257.5" cy="146.5" r="1.5" fill="#E3E3E3"/>
<circle cx="275.5" cy="146.5" r="1.5" fill="#E3E3E3"/>
<circle cx="293.5" cy="146.5" r="1.5" fill="#E3E3E3"/>
<circle cx="311.5" cy="146.5" r="1.5" fill="#E3E3E3"/>
<circle cx="329.5" cy="146.5" r="1.5" fill="#E3E3E3"/>
<circle cx="347.5" cy="146.5" r="1.5" fill="#E3E3E3"/>
<circle cx="365.5" cy="146.5" r="1.5" fill="#E3E3E3"/>
<circle cx="383.5" cy="146.5" r="1.5" fill="#E3E3E3"/>
<circle cx="401.5" cy="146.5" r="1.5" fill="#E3E3E3"/>
<circle cx="419.5" cy="146.5" r="1.5" fill="#E3E3E3"/>
<circle cx="437.5" cy="146.5" r="1.5" fill="#E3E3E3"/>
<circle cx="95.5" cy="164.5" r="1.5" fill="#E3E3E3"/>
<circle cx="113.5" cy="164.5" r="1.5" fill="#E3E3E3"/>
<circle cx="131.5" cy="164.5" r="1.5" fill="#E3E3E3"/>
<circle cx="149.5" cy="164.5" r="1.5" fill="#E3E3E3"/>
<circle cx="167.5" cy="164.5" r="1.5" fill="#E3E3E3"/>
<circle cx="185.5" cy="164.5" r="1.5" fill="#E3E3E3"/>
<circle cx="203.5" cy="164.5" r="1.5" fill="#E3E3E3"/>
<circle cx="221.5" cy="164.5" r="1.5" fill="#E3E3E3"/>
<circle cx="239.5" cy="164.5" r="1.5" fill="#E3E3E3"/>
<circle cx="257.5" cy="164.5" r="1.5" fill="#E3E3E3"/>
<circle cx="275.5" cy="164.5" r="1.5" fill="#E3E3E3"/>
<circle cx="293.5" cy="164.5" r="1.5" fill="#E3E3E3"/>
<circle cx="311.5" cy="164.5" r="1.5" fill="#E3E3E3"/>
<circle cx="329.5" cy="164.5" r="1.5" fill="#E3E3E3"/>
<circle cx="347.5" cy="164.5" r="1.5" fill="#E3E3E3"/>
<circle cx="365.5" cy="164.5" r="1.5" fill="#E3E3E3"/>
<circle cx="383.5" cy="164.5" r="1.5" fill="#E3E3E3"/>
<circle cx="401.5" cy="164.5" r="1.5" fill="#E3E3E3"/>
<circle cx="419.5" cy="164.5" r="1.5" fill="#E3E3E3"/>
<circle cx="437.5" cy="164.5" r="1.5" fill="#E3E3E3"/>
<circle cx="95.5" cy="182.5" r="1.5" fill="#E3E3E3"/>
<circle cx="113.5" cy="182.5" r="1.5" fill="#E3E3E3"/>
<circle cx="131.5" cy="182.5" r="1.5" fill="#E3E3E3"/>
<circle cx="149.5" cy="182.5" r="1.5" fill="#E3E3E3"/>
<circle cx="167.5" cy="182.5" r="1.5" fill="#E3E3E3"/>
<circle cx="185.5" cy="182.5" r="1.5" fill="#E3E3E3"/>
<circle cx="203.5" cy="182.5" r="1.5" fill="#E3E3E3"/>
<circle cx="221.5" cy="182.5" r="1.5" fill="#E3E3E3"/>
<circle cx="239.5" cy="182.5" r="1.5" fill="#E3E3E3"/>
<circle cx="257.5" cy="182.5" r="1.5" fill="#E3E3E3"/>
<circle cx="275.5" cy="182.5" r="1.5" fill="#E3E3E3"/>
<circle cx="293.5" cy="182.5" r="1.5" fill="#E3E3E3"/>
<circle cx="311.5" cy="182.5" r="1.5" fill="#E3E3E3"/>
<circle cx="329.5" cy="182.5" r="1.5" fill="#E3E3E3"/>
<circle cx="347.5" cy="182.5" r="1.5" fill="#E3E3E3"/>
<circle cx="365.5" cy="182.5" r="1.5" fill="#E3E3E3"/>
<circle cx="383.5" cy="182.5" r="1.5" fill="#E3E3E3"/>
<circle cx="401.5" cy="182.5" r="1.5" fill="#E3E3E3"/>
<circle cx="419.5" cy="182.5" r="1.5" fill="#E3E3E3"/>
<circle cx="437.5" cy="182.5" r="1.5" fill="#E3E3E3"/>
<circle cx="95.5" cy="200.5" r="1.5" fill="#E3E3E3"/>
<circle cx="113.5" cy="200.5" r="1.5" fill="#E3E3E3"/>
<circle cx="131.5" cy="200.5" r="1.5" fill="#E3E3E3"/>
<circle cx="149.5" cy="200.5" r="1.5" fill="#E3E3E3"/>
<circle cx="167.5" cy="200.5" r="1.5" fill="#E3E3E3"/>
<circle cx="185.5" cy="200.5" r="1.5" fill="#E3E3E3"/>
<circle cx="203.5" cy="200.5" r="1.5" fill="#E3E3E3"/>
<circle cx="221.5" cy="200.5" r="1.5" fill="#E3E3E3"/>
<circle cx="239.5" cy="200.5" r="1.5" fill="#E3E3E3"/>
<circle cx="257.5" cy="200.5" r="1.5" fill="#E3E3E3"/>
<circle cx="275.5" cy="200.5" r="1.5" fill="#E3E3E3"/>
<circle cx="293.5" cy="200.5" r="1.5" fill="#E3E3E3"/>
<circle cx="311.5" cy="200.5" r="1.5" fill="#E3E3E3"/>
<circle cx="329.5" cy="200.5" r="1.5" fill="#E3E3E3"/>
<circle cx="347.5" cy="200.5" r="1.5" fill="#E3E3E3"/>
<circle cx="365.5" cy="200.5" r="1.5" fill="#E3E3E3"/>
<circle cx="383.5" cy="200.5" r="1.5" fill="#E3E3E3"/>
<circle cx="401.5" cy="200.5" r="1.5" fill="#E3E3E3"/>
<circle cx="419.5" cy="200.5" r="1.5" fill="#E3E3E3"/>
<circle cx="437.5" cy="200.5" r="1.5" fill="#E3E3E3"/>
<circle cx="95.5" cy="218.5" r="1.5" fill="#E3E3E3"/>
<circle cx="113.5" cy="218.5" r="1.5" fill="#E3E3E3"/>
<circle cx="131.5" cy="218.5" r="1.5" fill="#E3E3E3"/>
<circle cx="149.5" cy="218.5" r="1.5" fill="#E3E3E3"/>
<circle cx="167.5" cy="218.5" r="1.5" fill="#E3E3E3"/>
<circle cx="185.5" cy="218.5" r="1.5" fill="#E3E3E3"/>
<circle cx="203.5" cy="218.5" r="1.5" fill="#E3E3E3"/>
<circle cx="221.5" cy="218.5" r="1.5" fill="#E3E3E3"/>
<circle cx="239.5" cy="218.5" r="1.5" fill="#E3E3E3"/>
<circle cx="257.5" cy="218.5" r="1.5" fill="#E3E3E3"/>
<circle cx="275.5" cy="218.5" r="1.5" fill="#E3E3E3"/>
<circle cx="293.5" cy="218.5" r="1.5" fill="#E3E3E3"/>
<circle cx="311.5" cy="218.5" r="1.5" fill="#E3E3E3"/>
<circle cx="329.5" cy="218.5" r="1.5" fill="#E3E3E3"/>
<circle cx="347.5" cy="218.5" r="1.5" fill="#E3E3E3"/>
<circle cx="365.5" cy="218.5" r="1.5" fill="#E3E3E3"/>
<circle cx="383.5" cy="218.5" r="1.5" fill="#E3E3E3"/>
<circle cx="401.5" cy="218.5" r="1.5" fill="#E3E3E3"/>
<circle cx="419.5" cy="218.5" r="1.5" fill="#E3E3E3"/>
<circle cx="437.5" cy="218.5" r="1.5" fill="#E3E3E3"/>
<circle cx="95.5" cy="236.5" r="1.5" fill="#E3E3E3"/>
<circle cx="113.5" cy="236.5" r="1.5" fill="#E3E3E3"/>
<circle cx="131.5" cy="236.5" r="1.5" fill="#E3E3E3"/>
<circle cx="149.5" cy="236.5" r="1.5" fill="#E3E3E3"/>
<circle cx="167.5" cy="236.5" r="1.5" fill="#E3E3E3"/>
<circle cx="185.5" cy="236.5" r="1.5" fill="#E3E3E3"/>
<circle cx="203.5" cy="236.5" r="1.5" fill="#E3E3E3"/>
<circle cx="221.5" cy="236.5" r="1.5" fill="#E3E3E3"/>
<circle cx="239.5" cy="236.5" r="1.5" fill="#E3E3E3"/>
<circle cx="257.5" cy="236.5" r="1.5" fill="#E3E3E3"/>
<circle cx="275.5" cy="236.5" r="1.5" fill="#E3E3E3"/>
<circle cx="293.5" cy="236.5" r="1.5" fill="#E3E3E3"/>
<circle cx="311.5" cy="236.5" r="1.5" fill="#E3E3E3"/>
<circle cx="329.5" cy="236.5" r="1.5" fill="#E3E3E3"/>
<circle cx="347.5" cy="236.5" r="1.5" fill="#E3E3E3"/>
<circle cx="365.5" cy="236.5" r="1.5" fill="#E3E3E3"/>
<circle cx="383.5" cy="236.5" r="1.5" fill="#E3E3E3"/>
<circle cx="401.5" cy="236.5" r="1.5" fill="#E3E3E3"/>
<circle cx="419.5" cy="236.5" r="1.5" fill="#E3E3E3"/>
<circle cx="437.5" cy="236.5" r="1.5" fill="#E3E3E3"/>
<circle cx="95.5" cy="254.5" r="1.5" fill="#E3E3E3"/>
<circle cx="113.5" cy="254.5" r="1.5" fill="#E3E3E3"/>
<circle cx="131.5" cy="254.5" r="1.5" fill="#E3E3E3"/>
<circle cx="149.5" cy="254.5" r="1.5" fill="#E3E3E3"/>
<circle cx="167.5" cy="254.5" r="1.5" fill="#E3E3E3"/>
<circle cx="185.5" cy="254.5" r="1.5" fill="#E3E3E3"/>
<circle cx="203.5" cy="254.5" r="1.5" fill="#E3E3E3"/>
<circle cx="221.5" cy="254.5" r="1.5" fill="#E3E3E3"/>
<circle cx="239.5" cy="254.5" r="1.5" fill="#E3E3E3"/>
<circle cx="257.5" cy="254.5" r="1.5" fill="#E3E3E3"/>
<circle cx="275.5" cy="254.5" r="1.5" fill="#E3E3E3"/>
<circle cx="293.5" cy="254.5" r="1.5" fill="#E3E3E3"/>
<circle cx="311.5" cy="254.5" r="1.5" fill="#E3E3E3"/>
<circle cx="329.5" cy="254.5" r="1.5" fill="#E3E3E3"/>
<circle cx="347.5" cy="254.5" r="1.5" fill="#E3E3E3"/>
<circle cx="365.5" cy="254.5" r="1.5" fill="#E3E3E3"/>
<circle cx="383.5" cy="254.5" r="1.5" fill="#E3E3E3"/>
<circle cx="401.5" cy="254.5" r="1.5" fill="#E3E3E3"/>
<circle cx="419.5" cy="254.5" r="1.5" fill="#E3E3E3"/>
<circle cx="437.5" cy="254.5" r="1.5" fill="#E3E3E3"/>
<circle cx="95.5" cy="272.5" r="1.5" fill="#E3E3E3"/>
<circle cx="113.5" cy="272.5" r="1.5" fill="#E3E3E3"/>
<circle cx="131.5" cy="272.5" r="1.5" fill="#E3E3E3"/>
<circle cx="149.5" cy="272.5" r="1.5" fill="#E3E3E3"/>
<circle cx="167.5" cy="272.5" r="1.5" fill="#E3E3E3"/>
<circle cx="185.5" cy="272.5" r="1.5" fill="#E3E3E3"/>
<circle cx="203.5" cy="272.5" r="1.5" fill="#E3E3E3"/>
<circle cx="221.5" cy="272.5" r="1.5" fill="#E3E3E3"/>
<circle cx="239.5" cy="272.5" r="1.5" fill="#E3E3E3"/>
<circle cx="257.5" cy="272.5" r="1.5" fill="#E3E3E3"/>
<circle cx="275.5" cy="272.5" r="1.5" fill="#E3E3E3"/>
<circle cx="293.5" cy="272.5" r="1.5" fill="#E3E3E3"/>
<circle cx="311.5" cy="272.5" r="1.5" fill="#E3E3E3"/>
<circle cx="329.5" cy="272.5" r="1.5" fill="#E3E3E3"/>
<circle cx="347.5" cy="272.5" r="1.5" fill="#E3E3E3"/>
<circle cx="365.5" cy="272.5" r="1.5" fill="#E3E3E3"/>
<circle cx="383.5" cy="272.5" r="1.5" fill="#E3E3E3"/>
<circle cx="401.5" cy="272.5" r="1.5" fill="#E3E3E3"/>
<circle cx="419.5" cy="272.5" r="1.5" fill="#E3E3E3"/>
<circle cx="437.5" cy="272.5" r="1.5" fill="#E3E3E3"/>
<circle cx="95.5" cy="290.5" r="1.5" fill="#E3E3E3"/>
<circle cx="113.5" cy="290.5" r="1.5" fill="#E3E3E3"/>
<circle cx="131.5" cy="290.5" r="1.5" fill="#E3E3E3"/>
<circle cx="149.5" cy="290.5" r="1.5" fill="#E3E3E3"/>
<circle cx="167.5" cy="290.5" r="1.5" fill="#E3E3E3"/>
<circle cx="185.5" cy="290.5" r="1.5" fill="#E3E3E3"/>
<circle cx="203.5" cy="290.5" r="1.5" fill="#E3E3E3"/>
<circle cx="221.5" cy="290.5" r="1.5" fill="#E3E3E3"/>
<circle cx="239.5" cy="290.5" r="1.5" fill="#E3E3E3"/>
<circle cx="257.5" cy="290.5" r="1.5" fill="#E3E3E3"/>
<circle cx="275.5" cy="290.5" r="1.5" fill="#E3E3E3"/>
<circle cx="293.5" cy="290.5" r="1.5" fill="#E3E3E3"/>
<circle cx="311.5" cy="290.5" r="1.5" fill="#E3E3E3"/>
<circle cx="329.5" cy="290.5" r="1.5" fill="#E3E3E3"/>
<circle cx="347.5" cy="290.5" r="1.5" fill="#E3E3E3"/>
<circle cx="365.5" cy="290.5" r="1.5" fill="#E3E3E3"/>
<circle cx="383.5" cy="290.5" r="1.5" fill="#E3E3E3"/>
<circle cx="401.5" cy="290.5" r="1.5" fill="#E3E3E3"/>
<circle cx="419.5" cy="290.5" r="1.5" fill="#E3E3E3"/>
<circle cx="437.5" cy="290.5" r="1.5" fill="#E3E3E3"/>
<circle cx="95.5" cy="308.5" r="1.5" fill="#E3E3E3"/>
<circle cx="113.5" cy="308.5" r="1.5" fill="#E3E3E3"/>
<circle cx="131.5" cy="308.5" r="1.5" fill="#E3E3E3"/>
<circle cx="149.5" cy="308.5" r="1.5" fill="#E3E3E3"/>
<circle cx="167.5" cy="308.5" r="1.5" fill="#E3E3E3"/>
<circle cx="185.5" cy="308.5" r="1.5" fill="#E3E3E3"/>
<circle cx="203.5" cy="308.5" r="1.5" fill="#E3E3E3"/>
<circle cx="221.5" cy="308.5" r="1.5" fill="#E3E3E3"/>
<circle cx="239.5" cy="308.5" r="1.5" fill="#E3E3E3"/>
<circle cx="257.5" cy="308.5" r="1.5" fill="#E3E3E3"/>
<circle cx="275.5" cy="308.5" r="1.5" fill="#E3E3E3"/>
<circle cx="293.5" cy="308.5" r="1.5" fill="#E3E3E3"/>
<circle cx="311.5" cy="308.5" r="1.5" fill="#E3E3E3"/>
<circle cx="329.5" cy="308.5" r="1.5" fill="#E3E3E3"/>
<circle cx="347.5" cy="308.5" r="1.5" fill="#E3E3E3"/>
<circle cx="365.5" cy="308.5" r="1.5" fill="#E3E3E3"/>
<circle cx="383.5" cy="308.5" r="1.5" fill="#E3E3E3"/>
<circle cx="401.5" cy="308.5" r="1.5" fill="#E3E3E3"/>
<circle cx="419.5" cy="308.5" r="1.5" fill="#E3E3E3"/>
<circle cx="437.5" cy="308.5" r="1.5" fill="#E3E3E3"/>
<circle cx="95.5" cy="326.5" r="1.5" fill="#E3E3E3"/>
<circle cx="113.5" cy="326.5" r="1.5" fill="#E3E3E3"/>
<circle cx="131.5" cy="326.5" r="1.5" fill="#E3E3E3"/>
<circle cx="149.5" cy="326.5" r="1.5" fill="#E3E3E3"/>
<circle cx="167.5" cy="326.5" r="1.5" fill="#E3E3E3"/>
<circle cx="185.5" cy="326.5" r="1.5" fill="#E3E3E3"/>
<circle cx="203.5" cy="326.5" r="1.5" fill="#E3E3E3"/>
<circle cx="221.5" cy="326.5" r="1.5" fill="#E3E3E3"/>
<circle cx="239.5" cy="326.5" r="1.5" fill="#E3E3E3"/>
<circle cx="257.5" cy="326.5" r="1.5" fill="#E3E3E3"/>
<circle cx="275.5" cy="326.5" r="1.5" fill="#E3E3E3"/>
<circle cx="293.5" cy="326.5" r="1.5" fill="#E3E3E3"/>
<circle cx="311.5" cy="326.5" r="1.5" fill="#E3E3E3"/>
<circle cx="329.5" cy="326.5" r="1.5" fill="#E3E3E3"/>
<circle cx="347.5" cy="326.5" r="1.5" fill="#E3E3E3"/>
<circle cx="365.5" cy="326.5" r="1.5" fill="#E3E3E3"/>
<circle cx="383.5" cy="326.5" r="1.5" fill="#E3E3E3"/>
<circle cx="401.5" cy="326.5" r="1.5" fill="#E3E3E3"/>
<circle cx="419.5" cy="326.5" r="1.5" fill="#E3E3E3"/>
<circle cx="437.5" cy="326.5" r="1.5" fill="#E3E3E3"/>
<circle cx="95.5" cy="344.5" r="1.5" fill="#E3E3E3"/>
<circle cx="113.5" cy="344.5" r="1.5" fill="#E3E3E3"/>
<circle cx="131.5" cy="344.5" r="1.5" fill="#E3E3E3"/>
<circle cx="149.5" cy="344.5" r="1.5" fill="#E3E3E3"/>
<circle cx="167.5" cy="344.5" r="1.5" fill="#E3E3E3"/>
<circle cx="185.5" cy="344.5" r="1.5" fill="#E3E3E3"/>
<circle cx="203.5" cy="344.5" r="1.5" fill="#E3E3E3"/>
<circle cx="221.5" cy="344.5" r="1.5" fill="#E3E3E3"/>
<circle cx="239.5" cy="344.5" r="1.5" fill="#E3E3E3"/>
<circle cx="257.5" cy="344.5" r="1.5" fill="#E3E3E3"/>
<circle cx="275.5" cy="344.5" r="1.5" fill="#E3E3E3"/>
<circle cx="293.5" cy="344.5" r="1.5" fill="#E3E3E3"/>
<circle cx="311.5" cy="344.5" r="1.5" fill="#E3E3E3"/>
<circle cx="329.5" cy="344.5" r="1.5" fill="#E3E3E3"/>
<circle cx="347.5" cy="344.5" r="1.5" fill="#E3E3E3"/>
<circle cx="365.5" cy="344.5" r="1.5" fill="#E3E3E3"/>
<circle cx="383.5" cy="344.5" r="1.5" fill="#E3E3E3"/>
<circle cx="401.5" cy="344.5" r="1.5" fill="#E3E3E3"/>
<circle cx="419.5" cy="344.5" r="1.5" fill="#E3E3E3"/>
<circle cx="437.5" cy="344.5" r="1.5" fill="#E3E3E3"/>
<rect width="453" height="348" fill="url(#paint0_radial_86_3164)"/>
<path d="M-11.5696 291.918C-26.6742 289.206 -39.6847 275.948 -50.2744 261.139C-60.8466 246.353 -68.9739 229.998 -67.1171 214.677C-65.2603 199.355 -53.4063 184.983 -39.1707 176.29C-24.9175 167.621 -8.29361 164.566 7.69483 166.815C23.7009 169.088 39.0298 176.658 49.9116 189.185C60.7934 201.712 67.2039 219.214 64.4633 234.999C61.7161 250.825 49.7761 264.928 35.2484 275.903C20.679 286.871 3.52846 294.671 -11.5696 291.918Z" fill="#FEB447"/>
<path d="M26.52 117.92C19.08 117.92 12.48 116.2 6.72 112.76C1.04 109.32 -3.44 104.32 -6.72 97.76C-9.92 91.2 -11.52 83.28 -11.52 74C-11.52 64.72 -9.92 56.8 -6.72 50.24C-3.44 43.68 1.04 38.68 6.72 35.24C12.48 31.8 19.08 30.08 26.52 30.08C33.96 30.08 40.52 31.8 46.2 35.24C51.96 38.68 56.44 43.68 59.64 50.24C62.92 56.8 64.56 64.72 64.56 74C64.56 83.28 62.92 91.2 59.64 97.76C56.44 104.32 51.96 109.32 46.2 112.76C40.52 116.2 33.96 117.92 26.52 117.92ZM26.52 95.24C28.36 95.24 30 94.6 31.44 93.32C32.88 92.04 34 89.84 34.8 86.72C35.68 83.6 36.12 79.36 36.12 74C36.12 68.56 35.68 64.32 34.8 61.28C34 58.16 32.88 55.96 31.44 54.68C30 53.4 28.36 52.76 26.52 52.76C24.68 52.76 23.04 53.4 21.6 54.68C20.16 55.96 19 58.16 18.12 61.28C17.32 64.32 16.92 68.56 16.92 74C16.92 79.36 17.32 83.6 18.12 86.72C19 89.84 20.16 92.04 21.6 93.32C23.04 94.6 24.68 95.24 26.52 95.24ZM109.486 117.92C101.486 117.92 94.4459 116.4 88.3659 113.36C82.3659 110.24 77.6459 105.64 74.2059 99.56C70.8459 93.4 69.1659 85.76 69.1659 76.64C69.1659 66.8 71.1259 58.44 75.0459 51.56C78.9659 44.6 84.4059 39.28 91.3659 35.6C98.4059 31.92 106.526 30.08 115.726 30.08C120.686 30.08 125.446 30.68 130.006 31.88C134.646 33 138.566 34.6 141.766 36.68L131.566 56.48C129.086 54.72 126.566 53.56 124.006 53C121.526 52.36 118.966 52.04 116.326 52.04C110.646 52.04 106.086 53.76 102.646 57.2C99.2859 60.56 97.6059 65.48 97.6059 71.96C97.6059 73.16 97.6059 74.36 97.6059 75.56C97.6059 76.68 97.6059 77.84 97.6059 79.04L91.1259 74.36C92.7259 71.64 94.6059 69.36 96.7659 67.52C98.9259 65.6 101.486 64.16 104.446 63.2C107.406 62.16 110.846 61.64 114.766 61.64C119.886 61.64 124.606 62.76 128.926 65C133.326 67.16 136.846 70.24 139.486 74.24C142.206 78.24 143.566 83 143.566 88.52C143.566 94.52 142.046 99.72 139.006 104.12C135.966 108.52 131.846 111.92 126.646 114.32C121.526 116.72 115.806 117.92 109.486 117.92ZM107.566 98.36C109.246 98.36 110.726 98.04 112.006 97.4C113.366 96.68 114.406 95.68 115.126 94.4C115.846 93.12 116.206 91.6 116.206 89.84C116.206 87.2 115.406 85.12 113.806 83.6C112.206 82 110.126 81.2 107.566 81.2C105.886 81.2 104.406 81.56 103.126 82.28C101.846 83 100.806 84 100.006 85.28C99.2859 86.56 98.9259 88.08 98.9259 89.84C98.9259 91.6 99.2859 93.12 100.006 94.4C100.806 95.68 101.846 96.68 103.126 97.4C104.406 98.04 105.886 98.36 107.566 98.36Z" fill="#E3E3E3"/>
</g>
<path d="M44.958 254V230.2H66.65V254H61.176V233.43L62.434 234.688H49.174L50.432 233.43V254H44.958ZM80.3698 254.272C78.4205 254.272 76.6865 253.864 75.1678 253.048C73.6718 252.232 72.4818 251.121 71.5978 249.716C70.7365 248.288 70.3058 246.667 70.3058 244.854C70.3058 243.018 70.7365 241.397 71.5978 239.992C72.4818 238.564 73.6718 237.453 75.1678 236.66C76.6865 235.844 78.4205 235.436 80.3698 235.436C82.2965 235.436 84.0191 235.844 85.5378 236.66C87.0565 237.453 88.2465 238.553 89.1078 239.958C89.9691 241.363 90.3998 242.995 90.3998 244.854C90.3998 246.667 89.9691 248.288 89.1078 249.716C88.2465 251.121 87.0565 252.232 85.5378 253.048C84.0191 253.864 82.2965 254.272 80.3698 254.272ZM80.3698 249.92C81.2538 249.92 82.0471 249.716 82.7498 249.308C83.4525 248.9 84.0078 248.322 84.4158 247.574C84.8238 246.803 85.0278 245.897 85.0278 244.854C85.0278 243.789 84.8238 242.882 84.4158 242.134C84.0078 241.386 83.4525 240.808 82.7498 240.4C82.0471 239.992 81.2538 239.788 80.3698 239.788C79.4858 239.788 78.6925 239.992 77.9898 240.4C77.2871 240.808 76.7205 241.386 76.2898 242.134C75.8818 242.882 75.6778 243.789 75.6778 244.854C75.6778 245.897 75.8818 246.803 76.2898 247.574C76.7205 248.322 77.2871 248.9 77.9898 249.308C78.6925 249.716 79.4858 249.92 80.3698 249.92ZM93.7079 254V235.708H98.9779V246.588L107.886 235.708H112.748V254H107.478V243.12L98.6039 254H93.7079ZM126.211 254.272C124.239 254.272 122.482 253.875 120.941 253.082C119.399 252.266 118.187 251.144 117.303 249.716C116.441 248.288 116.011 246.667 116.011 244.854C116.011 243.018 116.441 241.397 117.303 239.992C118.187 238.564 119.399 237.453 120.941 236.66C122.482 235.844 124.239 235.436 126.211 235.436C128.137 235.436 129.815 235.844 131.243 236.66C132.671 237.453 133.725 238.598 134.405 240.094L130.291 242.304C129.815 241.443 129.214 240.808 128.489 240.4C127.786 239.992 127.015 239.788 126.177 239.788C125.27 239.788 124.454 239.992 123.729 240.4C123.003 240.808 122.425 241.386 121.995 242.134C121.587 242.882 121.383 243.789 121.383 244.854C121.383 245.919 121.587 246.826 121.995 247.574C122.425 248.322 123.003 248.9 123.729 249.308C124.454 249.716 125.27 249.92 126.177 249.92C127.015 249.92 127.786 249.727 128.489 249.342C129.214 248.934 129.815 248.288 130.291 247.404L134.405 249.648C133.725 251.121 132.671 252.266 131.243 253.082C129.815 253.875 128.137 254.272 126.211 254.272ZM150.242 254L144.122 245.33L148.44 242.78L156.498 254H150.242ZM137.288 254V235.708H142.592V254H137.288ZM141.028 247.064V242.814H147.42V247.064H141.028ZM148.95 245.466L143.986 244.922L150.412 235.708H156.056L148.95 245.466ZM176.755 254.272C174.783 254.272 173.026 253.875 171.485 253.082C169.944 252.266 168.731 251.144 167.847 249.716C166.986 248.288 166.555 246.667 166.555 244.854C166.555 243.018 166.986 241.397 167.847 239.992C168.731 238.564 169.944 237.453 171.485 236.66C173.026 235.844 174.783 235.436 176.755 235.436C178.682 235.436 180.359 235.844 181.787 236.66C183.215 237.453 184.269 238.598 184.949 240.094L180.835 242.304C180.359 241.443 179.758 240.808 179.033 240.4C178.33 239.992 177.56 239.788 176.721 239.788C175.814 239.788 174.998 239.992 174.273 240.4C173.548 240.808 172.97 241.386 172.539 242.134C172.131 242.882 171.927 243.789 171.927 244.854C171.927 245.919 172.131 246.826 172.539 247.574C172.97 248.322 173.548 248.9 174.273 249.308C174.998 249.716 175.814 249.92 176.721 249.92C177.56 249.92 178.33 249.727 179.033 249.342C179.758 248.934 180.359 248.288 180.835 247.404L184.949 249.648C184.269 251.121 183.215 252.266 181.787 253.082C180.359 253.875 178.682 254.272 176.755 254.272ZM191.709 254V238.836L192.899 240.06H185.521V235.708H203.167V240.06H195.789L196.979 238.836V254H191.709ZM216.432 254.272C214.891 254.272 213.542 253.932 212.386 253.252C211.23 252.572 210.324 251.541 209.666 250.158C209.032 248.753 208.714 246.985 208.714 244.854C208.714 242.701 209.02 240.933 209.632 239.55C210.244 238.167 211.128 237.136 212.284 236.456C213.44 235.776 214.823 235.436 216.432 235.436C218.155 235.436 219.696 235.833 221.056 236.626C222.439 237.397 223.527 238.485 224.32 239.89C225.136 241.295 225.544 242.95 225.544 244.854C225.544 246.781 225.136 248.447 224.32 249.852C223.527 251.257 222.439 252.345 221.056 253.116C219.696 253.887 218.155 254.272 216.432 254.272ZM205.62 260.596V235.708H210.686V239.448L210.584 244.888L210.924 250.294V260.596H205.62ZM215.514 249.92C216.398 249.92 217.18 249.716 217.86 249.308C218.563 248.9 219.118 248.322 219.526 247.574C219.957 246.803 220.172 245.897 220.172 244.854C220.172 243.789 219.957 242.882 219.526 242.134C219.118 241.386 218.563 240.808 217.86 240.4C217.18 239.992 216.398 239.788 215.514 239.788C214.63 239.788 213.837 239.992 213.134 240.4C212.432 240.808 211.876 241.386 211.468 242.134C211.06 242.882 210.856 243.789 210.856 244.854C210.856 245.897 211.06 246.803 211.468 247.574C211.876 248.322 212.432 248.9 213.134 249.308C213.837 249.716 214.63 249.92 215.514 249.92ZM230.906 260.868C229.954 260.868 229.013 260.721 228.084 260.426C227.154 260.131 226.395 259.723 225.806 259.202L227.744 255.428C228.152 255.791 228.616 256.074 229.138 256.278C229.682 256.482 230.214 256.584 230.736 256.584C231.484 256.584 232.073 256.403 232.504 256.04C232.957 255.7 233.365 255.122 233.728 254.306L234.68 252.062L235.088 251.484L241.65 235.708H246.75L238.488 255.122C237.898 256.595 237.218 257.751 236.448 258.59C235.7 259.429 234.861 260.018 233.932 260.358C233.025 260.698 232.016 260.868 230.906 260.868ZM234.034 254.714L225.874 235.708H231.348L237.672 251.008L234.034 254.714ZM261.922 254L255.802 245.33L260.12 242.78L268.178 254H261.922ZM248.968 254V235.708H254.272V254H248.968ZM252.708 247.064V242.814H259.1V247.064H252.708ZM260.63 245.466L255.666 244.922L262.092 235.708H267.736L260.63 245.466ZM274.187 254V238.836L275.377 240.06H267.999V235.708H285.645V240.06H278.267L279.457 238.836V254H274.187ZM290.714 260.868C289.762 260.868 288.821 260.721 287.892 260.426C286.962 260.131 286.203 259.723 285.614 259.202L287.552 255.428C287.96 255.791 288.424 256.074 288.946 256.278C289.49 256.482 290.022 256.584 290.544 256.584C291.292 256.584 291.881 256.403 292.312 256.04C292.765 255.7 293.173 255.122 293.536 254.306L294.488 252.062L294.896 251.484L301.458 235.708H306.558L298.296 255.122C297.706 256.595 297.026 257.751 296.256 258.59C295.508 259.429 294.669 260.018 293.74 260.358C292.833 260.698 291.824 260.868 290.714 260.868ZM293.842 254.714L285.682 235.708H291.156L297.48 251.008L293.842 254.714ZM319.554 254.272C318.013 254.272 316.664 253.932 315.508 253.252C314.352 252.572 313.446 251.541 312.788 250.158C312.154 248.753 311.836 246.985 311.836 244.854C311.836 242.701 312.142 240.933 312.754 239.55C313.366 238.167 314.25 237.136 315.406 236.456C316.562 235.776 317.945 235.436 319.554 235.436C321.277 235.436 322.818 235.833 324.178 236.626C325.561 237.397 326.649 238.485 327.442 239.89C328.258 241.295 328.666 242.95 328.666 244.854C328.666 246.781 328.258 248.447 327.442 249.852C326.649 251.257 325.561 252.345 324.178 253.116C322.818 253.887 321.277 254.272 319.554 254.272ZM308.742 260.596V235.708H313.808V239.448L313.706 244.888L314.046 250.294V260.596H308.742ZM318.636 249.92C319.52 249.92 320.302 249.716 320.982 249.308C321.685 248.9 322.24 248.322 322.648 247.574C323.079 246.803 323.294 245.897 323.294 244.854C323.294 243.789 323.079 242.882 322.648 242.134C322.24 241.386 321.685 240.808 320.982 240.4C320.302 239.992 319.52 239.788 318.636 239.788C317.752 239.788 316.959 239.992 316.256 240.4C315.554 240.808 314.998 241.386 314.59 242.134C314.182 242.882 313.978 243.789 313.978 244.854C313.978 245.897 314.182 246.803 314.59 247.574C314.998 248.322 315.554 248.9 316.256 249.308C316.959 249.716 317.752 249.92 318.636 249.92ZM350.88 254V235.708H356.15V254H350.88ZM341.666 241.556C344.069 241.579 345.871 242.123 347.072 243.188C348.296 244.231 348.908 245.715 348.908 247.642C348.908 249.659 348.217 251.235 346.834 252.368C345.451 253.479 343.491 254.034 340.952 254.034L332.044 254V235.708H337.314V241.556H341.666ZM340.476 250.26C341.496 250.283 342.278 250.067 342.822 249.614C343.366 249.161 343.638 248.481 343.638 247.574C343.638 246.667 343.366 246.021 342.822 245.636C342.278 245.228 341.496 245.013 340.476 244.99L337.314 244.956V250.26H340.476ZM44.55 303V284.708H53.9C56.1893 284.708 57.98 285.127 59.272 285.966C60.564 286.782 61.21 287.938 61.21 289.434C61.21 290.93 60.598 292.109 59.374 292.97C58.1727 293.809 56.5747 294.228 54.58 294.228L55.124 293.004C57.3453 293.004 59 293.412 60.088 294.228C61.1987 295.044 61.754 296.234 61.754 297.798C61.754 299.407 61.142 300.677 59.918 301.606C58.694 302.535 56.824 303 54.308 303H44.55ZM49.412 299.396H53.866C54.8407 299.396 55.566 299.237 56.042 298.92C56.5407 298.58 56.79 298.07 56.79 297.39C56.79 296.687 56.5633 296.177 56.11 295.86C55.6567 295.52 54.9427 295.35 53.968 295.35H49.412V299.396ZM49.412 292.222H53.424C54.3533 292.222 55.0447 292.052 55.498 291.712C55.974 291.372 56.212 290.885 56.212 290.25C56.212 289.593 55.974 289.105 55.498 288.788C55.0447 288.471 54.3533 288.312 53.424 288.312H49.412V292.222ZM87.2293 300.62V289.06H81.2453L81.1433 291.406C81.098 292.381 81.0413 293.31 80.9733 294.194C80.9053 295.078 80.7693 295.883 80.5653 296.608C80.384 297.311 80.112 297.911 79.7493 298.41C79.3866 298.886 78.8993 299.215 78.2873 299.396L73.0513 298.648C73.7086 298.648 74.2413 298.455 74.6493 298.07C75.0573 297.662 75.3746 297.107 75.6013 296.404C75.828 295.679 75.998 294.863 76.1113 293.956C76.2246 293.027 76.304 292.052 76.3493 291.032L76.5873 284.708H92.5333V300.62H87.2293ZM72.4393 306.944V298.648H95.1513V306.944H90.2213V303H77.3693V306.944H72.4393ZM109.097 303V299.43L108.757 298.648V292.256C108.757 291.123 108.406 290.239 107.703 289.604C107.023 288.969 105.969 288.652 104.541 288.652C103.566 288.652 102.603 288.811 101.651 289.128C100.722 289.423 99.9285 289.831 99.2711 290.352L97.3671 286.646C98.3645 285.943 99.5658 285.399 100.971 285.014C102.376 284.629 103.804 284.436 105.255 284.436C108.043 284.436 110.208 285.093 111.749 286.408C113.29 287.723 114.061 289.774 114.061 292.562V303H109.097ZM103.521 303.272C102.093 303.272 100.869 303.034 99.8491 302.558C98.8291 302.059 98.0471 301.391 97.5031 300.552C96.9591 299.713 96.6871 298.773 96.6871 297.73C96.6871 296.642 96.9478 295.69 97.4691 294.874C98.0131 294.058 98.8631 293.423 100.019 292.97C101.175 292.494 102.682 292.256 104.541 292.256H109.403V295.35H105.119C103.872 295.35 103.011 295.554 102.535 295.962C102.082 296.37 101.855 296.88 101.855 297.492C101.855 298.172 102.116 298.716 102.637 299.124C103.181 299.509 103.918 299.702 104.847 299.702C105.731 299.702 106.524 299.498 107.227 299.09C107.93 298.659 108.44 298.036 108.757 297.22L109.573 299.668C109.188 300.847 108.485 301.742 107.465 302.354C106.445 302.966 105.13 303.272 103.521 303.272ZM118.329 303V284.708H123.599V291.848H131.555V284.708H136.859V303H131.555V296.166H123.599V303H118.329ZM141.596 303V284.708H146.866V291.848H154.822V284.708H160.126V303H154.822V296.166H146.866V303H141.596ZM183.7 303V284.708H188.97V303H183.7ZM174.486 290.556C176.888 290.579 178.69 291.123 179.892 292.188C181.116 293.231 181.728 294.715 181.728 296.642C181.728 298.659 181.036 300.235 179.654 301.368C178.271 302.479 176.31 303.034 173.772 303.034L164.864 303V284.708H170.134V290.556H174.486ZM173.296 299.26C174.316 299.283 175.098 299.067 175.642 298.614C176.186 298.161 176.458 297.481 176.458 296.574C176.458 295.667 176.186 295.021 175.642 294.636C175.098 294.228 174.316 294.013 173.296 293.99L170.134 293.956V299.26H173.296ZM191.294 303L199.488 292.256L199.386 295.18L191.532 284.708H197.482L202.446 291.542L200.202 291.61L205.336 284.708H210.98L203.092 295.078V292.222L211.252 303H205.234L200.032 295.724L202.242 296.03L197.074 303H191.294Z" fill="black"/>
</g>
<path d="M215.017 38H233.06C235.454 38 237.768 38.8587 239.583 40.4201L298.042 90.7261C299.857 92.2875 302.171 93.1462 304.565 93.1462H317.722C320.116 93.1462 322.43 92.2875 324.245 90.7261L382.704 40.4201C384.519 38.8587 386.833 38 389.227 38H407.27" stroke="#E3E3E3" stroke-width="3" stroke-linecap="round" stroke-linejoin="round"/>
<path d="M407.269 166L389.226 166C386.832 166 384.518 165.141 382.703 163.58L324.243 113.274C322.429 111.712 320.115 110.854 317.721 110.854L304.564 110.854C302.17 110.854 299.856 111.712 298.041 113.274L239.582 163.58C237.767 165.141 235.453 166 233.059 166L215.016 166" stroke="#E3E3E3" stroke-width="3" stroke-linecap="round" stroke-linejoin="round"/>
<circle cx="311.143" cy="101.747" r="2.54743" stroke="#C81F56" stroke-width="3"/>
<circle cx="329.356" cy="101.747" r="2.54743" stroke="#C81F56" stroke-width="3"/>
<circle cx="347.569" cy="101.747" r="2.54743" stroke="#C81F56" stroke-width="3"/>
<circle cx="366.795" cy="101.747" r="2.54743" stroke="#C81F56" stroke-width="3"/>
<circle cx="385.008" cy="101.747" r="2.54743" stroke="#C81F56" stroke-width="3"/>
<circle cx="403.222" cy="101.747" r="2.54743" stroke="#C81F56" stroke-width="3"/>
<circle cx="292.929" cy="101.747" r="2.54743" stroke="#C81F56" stroke-width="3"/>
<circle cx="274.715" cy="101.747" r="2.54743" stroke="#C81F56" stroke-width="3"/>
<circle cx="274.715" cy="86.5689" r="2.54743" stroke="#C81F56" stroke-width="3"/>
<circle cx="274.715" cy="116.925" r="2.54743" stroke="#C81F56" stroke-width="3"/>
<circle cx="255.491" cy="101.747" r="2.54743" stroke="#F06C46" stroke-width="3"/>
<circle cx="255.491" cy="86.5692" r="2.54743" stroke="#F06C46" stroke-width="3"/>
<circle cx="255.491" cy="116.925" r="2.54743" stroke="#F06C46" stroke-width="3"/>
<circle cx="255.491" cy="71.3914" r="2.54743" stroke="#F06C46" stroke-width="3"/>
<circle cx="255.491" cy="132.103" r="2.54743" stroke="#F06C46" stroke-width="3"/>
<circle cx="219.063" cy="101.747" r="2.54743" stroke="#FEB447" stroke-width="3"/>
<circle cx="219.063" cy="86.5689" r="2.54743" stroke="#FEB447" stroke-width="3"/>
<circle cx="219.063" cy="116.925" r="2.54743" stroke="#FEB447" stroke-width="3"/>
<circle cx="219.063" cy="71.3914" r="2.54743" stroke="#FEB447" stroke-width="3"/>
<circle cx="219.063" cy="132.103" r="2.54743" stroke="#FEB447" stroke-width="3"/>
<circle cx="219.065" cy="56.2134" r="2.54743" stroke="#FEB447" stroke-width="3"/>
<circle cx="219.063" cy="147.281" r="2.54743" stroke="#FEB447" stroke-width="3"/>
<circle cx="237.277" cy="101.747" r="2.54743" stroke="#FE840E" stroke-width="3"/>
<circle cx="237.277" cy="86.5689" r="2.54743" stroke="#FE840E" stroke-width="3"/>
<circle cx="237.277" cy="116.925" r="2.54743" stroke="#FE840E" stroke-width="3"/>
<circle cx="237.277" cy="71.3914" r="2.54743" stroke="#FE840E" stroke-width="3"/>
<circle cx="237.277" cy="132.103" r="2.54743" stroke="#FE840E" stroke-width="3"/>
<circle cx="237.277" cy="56.2134" r="2.54743" stroke="#FE840E" stroke-width="3"/>
<circle cx="237.277" cy="147.281" r="2.54743" stroke="#FE840E" stroke-width="3"/>
</g>
<defs>
<filter id="filter0_d_86_3164" x="-15" y="-7" width="483" height="378" filterUnits="userSpaceOnUse" color-interpolation-filters="sRGB">
<feFlood flood-opacity="0" result="BackgroundImageFix"/>
<feColorMatrix in="SourceAlpha" type="matrix" values="0 0 0 0 0 0 0 0 0 0 0 0 0 0 0 0 0 0 127 0" result="hardAlpha"/>
<feOffset dy="8"/>
<feGaussianBlur stdDeviation="7.5"/>
<feColorMatrix type="matrix" values="0 0 0 0 0 0 0 0 0 0 0 0 0 0 0 0 0 0 0.1 0"/>
<feBlend mode="normal" in2="BackgroundImageFix" result="effect1_dropShadow_86_3164"/>
<feBlend mode="normal" in="SourceGraphic" in2="effect1_dropShadow_86_3164" result="shape"/>
</filter>
<radialGradient id="paint0_radial_86_3164" cx="0" cy="0" r="1" gradientUnits="userSpaceOnUse" gradientTransform="translate(317.5 162) rotate(180) scale(218 283.776)">
<stop stop-color="white" stop-opacity="0"/>
<stop offset="1" stop-color="white"/>
</radialGradient>
<clipPath id="clip0_86_3164">
<rect width="453" height="348" fill="white"/>
</clipPath>
</defs>
</svg>
