<svg width="453" height="348" viewBox="0 0 453 348" fill="none" xmlns="http://www.w3.org/2000/svg">
<g clip-path="url(#clip0_86_3145)">
<g filter="url(#filter0_d_86_3145)">
<mask id="mask0_86_3145" style="mask-type:alpha" maskUnits="userSpaceOnUse" x="0" y="0" width="453" height="348">
<rect width="453" height="348" rx="20" fill="#FE840E"/>
</mask>
<g mask="url(#mask0_86_3145)">
<rect width="453" height="348" fill="white"/>
<circle cx="95.5" cy="2.5" r="1.5" fill="#E3E3E3"/>
<circle cx="113.5" cy="2.5" r="1.5" fill="#E3E3E3"/>
<circle cx="131.5" cy="2.5" r="1.5" fill="#E3E3E3"/>
<circle cx="149.5" cy="2.5" r="1.5" fill="#E3E3E3"/>
<circle cx="167.5" cy="2.5" r="1.5" fill="#E3E3E3"/>
<circle cx="185.5" cy="2.5" r="1.5" fill="#E3E3E3"/>
<circle cx="203.5" cy="2.5" r="1.5" fill="#E3E3E3"/>
<circle cx="221.5" cy="2.5" r="1.5" fill="#E3E3E3"/>
<circle cx="239.5" cy="2.5" r="1.5" fill="#E3E3E3"/>
<circle cx="257.5" cy="2.5" r="1.5" fill="#E3E3E3"/>
<circle cx="275.5" cy="2.5" r="1.5" fill="#E3E3E3"/>
<circle cx="293.5" cy="2.5" r="1.5" fill="#E3E3E3"/>
<circle cx="311.5" cy="2.5" r="1.5" fill="#E3E3E3"/>
<circle cx="329.5" cy="2.5" r="1.5" fill="#E3E3E3"/>
<circle cx="347.5" cy="2.5" r="1.5" fill="#E3E3E3"/>
<circle cx="365.5" cy="2.5" r="1.5" fill="#E3E3E3"/>
<circle cx="383.5" cy="2.5" r="1.5" fill="#E3E3E3"/>
<circle cx="401.5" cy="2.5" r="1.5" fill="#E3E3E3"/>
<circle cx="419.5" cy="2.5" r="1.5" fill="#E3E3E3"/>
<circle cx="437.5" cy="2.5" r="1.5" fill="#E3E3E3"/>
<circle cx="95.5" cy="20.5" r="1.5" fill="#E3E3E3"/>
<circle cx="113.5" cy="20.5" r="1.5" fill="#E3E3E3"/>
<circle cx="131.5" cy="20.5" r="1.5" fill="#E3E3E3"/>
<circle cx="149.5" cy="20.5" r="1.5" fill="#E3E3E3"/>
<circle cx="167.5" cy="20.5" r="1.5" fill="#E3E3E3"/>
<circle cx="185.5" cy="20.5" r="1.5" fill="#E3E3E3"/>
<circle cx="203.5" cy="20.5" r="1.5" fill="#E3E3E3"/>
<circle cx="221.5" cy="20.5" r="1.5" fill="#E3E3E3"/>
<circle cx="239.5" cy="20.5" r="1.5" fill="#E3E3E3"/>
<circle cx="257.5" cy="20.5" r="1.5" fill="#E3E3E3"/>
<circle cx="275.5" cy="20.5" r="1.5" fill="#E3E3E3"/>
<circle cx="293.5" cy="20.5" r="1.5" fill="#E3E3E3"/>
<circle cx="311.5" cy="20.5" r="1.5" fill="#E3E3E3"/>
<circle cx="329.5" cy="20.5" r="1.5" fill="#E3E3E3"/>
<circle cx="347.5" cy="20.5" r="1.5" fill="#E3E3E3"/>
<circle cx="365.5" cy="20.5" r="1.5" fill="#E3E3E3"/>
<circle cx="383.5" cy="20.5" r="1.5" fill="#E3E3E3"/>
<circle cx="401.5" cy="20.5" r="1.5" fill="#E3E3E3"/>
<circle cx="419.5" cy="20.5" r="1.5" fill="#E3E3E3"/>
<circle cx="437.5" cy="20.5" r="1.5" fill="#E3E3E3"/>
<circle cx="95.5" cy="38.5" r="1.5" fill="#E3E3E3"/>
<circle cx="113.5" cy="38.5" r="1.5" fill="#E3E3E3"/>
<circle cx="131.5" cy="38.5" r="1.5" fill="#E3E3E3"/>
<circle cx="149.5" cy="38.5" r="1.5" fill="#E3E3E3"/>
<circle cx="167.5" cy="38.5" r="1.5" fill="#E3E3E3"/>
<circle cx="185.5" cy="38.5" r="1.5" fill="#E3E3E3"/>
<circle cx="203.5" cy="38.5" r="1.5" fill="#E3E3E3"/>
<circle cx="221.5" cy="38.5" r="1.5" fill="#E3E3E3"/>
<circle cx="239.5" cy="38.5" r="1.5" fill="#E3E3E3"/>
<circle cx="257.5" cy="38.5" r="1.5" fill="#E3E3E3"/>
<circle cx="275.5" cy="38.5" r="1.5" fill="#E3E3E3"/>
<circle cx="293.5" cy="38.5" r="1.5" fill="#E3E3E3"/>
<circle cx="311.5" cy="38.5" r="1.5" fill="#E3E3E3"/>
<circle cx="329.5" cy="38.5" r="1.5" fill="#E3E3E3"/>
<circle cx="347.5" cy="38.5" r="1.5" fill="#E3E3E3"/>
<circle cx="365.5" cy="38.5" r="1.5" fill="#E3E3E3"/>
<circle cx="383.5" cy="38.5" r="1.5" fill="#E3E3E3"/>
<circle cx="401.5" cy="38.5" r="1.5" fill="#E3E3E3"/>
<circle cx="419.5" cy="38.5" r="1.5" fill="#E3E3E3"/>
<circle cx="437.5" cy="38.5" r="1.5" fill="#E3E3E3"/>
<circle cx="95.5" cy="56.5" r="1.5" fill="#E3E3E3"/>
<circle cx="113.5" cy="56.5" r="1.5" fill="#E3E3E3"/>
<circle cx="131.5" cy="56.5" r="1.5" fill="#E3E3E3"/>
<circle cx="149.5" cy="56.5" r="1.5" fill="#E3E3E3"/>
<circle cx="167.5" cy="56.5" r="1.5" fill="#E3E3E3"/>
<circle cx="185.5" cy="56.5" r="1.5" fill="#E3E3E3"/>
<circle cx="203.5" cy="56.5" r="1.5" fill="#E3E3E3"/>
<circle cx="221.5" cy="56.5" r="1.5" fill="#E3E3E3"/>
<circle cx="239.5" cy="56.5" r="1.5" fill="#E3E3E3"/>
<circle cx="257.5" cy="56.5" r="1.5" fill="#E3E3E3"/>
<circle cx="275.5" cy="56.5" r="1.5" fill="#E3E3E3"/>
<circle cx="293.5" cy="56.5" r="1.5" fill="#E3E3E3"/>
<circle cx="311.5" cy="56.5" r="1.5" fill="#E3E3E3"/>
<circle cx="329.5" cy="56.5" r="1.5" fill="#E3E3E3"/>
<circle cx="347.5" cy="56.5" r="1.5" fill="#E3E3E3"/>
<circle cx="365.5" cy="56.5" r="1.5" fill="#E3E3E3"/>
<circle cx="383.5" cy="56.5" r="1.5" fill="#E3E3E3"/>
<circle cx="401.5" cy="56.5" r="1.5" fill="#E3E3E3"/>
<circle cx="419.5" cy="56.5" r="1.5" fill="#E3E3E3"/>
<circle cx="437.5" cy="56.5" r="1.5" fill="#E3E3E3"/>
<circle cx="95.5" cy="74.5" r="1.5" fill="#E3E3E3"/>
<circle cx="113.5" cy="74.5" r="1.5" fill="#E3E3E3"/>
<circle cx="131.5" cy="74.5" r="1.5" fill="#E3E3E3"/>
<circle cx="149.5" cy="74.5" r="1.5" fill="#E3E3E3"/>
<circle cx="167.5" cy="74.5" r="1.5" fill="#E3E3E3"/>
<circle cx="185.5" cy="74.5" r="1.5" fill="#E3E3E3"/>
<circle cx="203.5" cy="74.5" r="1.5" fill="#E3E3E3"/>
<circle cx="221.5" cy="74.5" r="1.5" fill="#E3E3E3"/>
<circle cx="239.5" cy="74.5" r="1.5" fill="#E3E3E3"/>
<circle cx="257.5" cy="74.5" r="1.5" fill="#E3E3E3"/>
<circle cx="275.5" cy="74.5" r="1.5" fill="#E3E3E3"/>
<circle cx="293.5" cy="74.5" r="1.5" fill="#E3E3E3"/>
<circle cx="311.5" cy="74.5" r="1.5" fill="#E3E3E3"/>
<circle cx="329.5" cy="74.5" r="1.5" fill="#E3E3E3"/>
<circle cx="347.5" cy="74.5" r="1.5" fill="#E3E3E3"/>
<circle cx="365.5" cy="74.5" r="1.5" fill="#E3E3E3"/>
<circle cx="383.5" cy="74.5" r="1.5" fill="#E3E3E3"/>
<circle cx="401.5" cy="74.5" r="1.5" fill="#E3E3E3"/>
<circle cx="419.5" cy="74.5" r="1.5" fill="#E3E3E3"/>
<circle cx="437.5" cy="74.5" r="1.5" fill="#E3E3E3"/>
<circle cx="95.5" cy="92.5" r="1.5" fill="#E3E3E3"/>
<circle cx="113.5" cy="92.5" r="1.5" fill="#E3E3E3"/>
<circle cx="131.5" cy="92.5" r="1.5" fill="#E3E3E3"/>
<circle cx="149.5" cy="92.5" r="1.5" fill="#E3E3E3"/>
<circle cx="167.5" cy="92.5" r="1.5" fill="#E3E3E3"/>
<circle cx="185.5" cy="92.5" r="1.5" fill="#E3E3E3"/>
<circle cx="203.5" cy="92.5" r="1.5" fill="#E3E3E3"/>
<circle cx="221.5" cy="92.5" r="1.5" fill="#E3E3E3"/>
<circle cx="239.5" cy="92.5" r="1.5" fill="#E3E3E3"/>
<circle cx="257.5" cy="92.5" r="1.5" fill="#E3E3E3"/>
<circle cx="275.5" cy="92.5" r="1.5" fill="#E3E3E3"/>
<circle cx="293.5" cy="92.5" r="1.5" fill="#E3E3E3"/>
<circle cx="311.5" cy="92.5" r="1.5" fill="#E3E3E3"/>
<circle cx="329.5" cy="92.5" r="1.5" fill="#E3E3E3"/>
<circle cx="347.5" cy="92.5" r="1.5" fill="#E3E3E3"/>
<circle cx="365.5" cy="92.5" r="1.5" fill="#E3E3E3"/>
<circle cx="383.5" cy="92.5" r="1.5" fill="#E3E3E3"/>
<circle cx="401.5" cy="92.5" r="1.5" fill="#E3E3E3"/>
<circle cx="419.5" cy="92.5" r="1.5" fill="#E3E3E3"/>
<circle cx="437.5" cy="92.5" r="1.5" fill="#E3E3E3"/>
<circle cx="95.5" cy="110.5" r="1.5" fill="#E3E3E3"/>
<circle cx="113.5" cy="110.5" r="1.5" fill="#E3E3E3"/>
<circle cx="131.5" cy="110.5" r="1.5" fill="#E3E3E3"/>
<circle cx="149.5" cy="110.5" r="1.5" fill="#E3E3E3"/>
<circle cx="167.5" cy="110.5" r="1.5" fill="#E3E3E3"/>
<circle cx="185.5" cy="110.5" r="1.5" fill="#E3E3E3"/>
<circle cx="203.5" cy="110.5" r="1.5" fill="#E3E3E3"/>
<circle cx="221.5" cy="110.5" r="1.5" fill="#E3E3E3"/>
<circle cx="239.5" cy="110.5" r="1.5" fill="#E3E3E3"/>
<circle cx="257.5" cy="110.5" r="1.5" fill="#E3E3E3"/>
<circle cx="275.5" cy="110.5" r="1.5" fill="#E3E3E3"/>
<circle cx="293.5" cy="110.5" r="1.5" fill="#E3E3E3"/>
<circle cx="311.5" cy="110.5" r="1.5" fill="#E3E3E3"/>
<circle cx="329.5" cy="110.5" r="1.5" fill="#E3E3E3"/>
<circle cx="347.5" cy="110.5" r="1.5" fill="#E3E3E3"/>
<circle cx="365.5" cy="110.5" r="1.5" fill="#E3E3E3"/>
<circle cx="383.5" cy="110.5" r="1.5" fill="#E3E3E3"/>
<circle cx="401.5" cy="110.5" r="1.5" fill="#E3E3E3"/>
<circle cx="419.5" cy="110.5" r="1.5" fill="#E3E3E3"/>
<circle cx="437.5" cy="110.5" r="1.5" fill="#E3E3E3"/>
<circle cx="95.5" cy="128.5" r="1.5" fill="#E3E3E3"/>
<circle cx="113.5" cy="128.5" r="1.5" fill="#E3E3E3"/>
<circle cx="131.5" cy="128.5" r="1.5" fill="#E3E3E3"/>
<circle cx="149.5" cy="128.5" r="1.5" fill="#E3E3E3"/>
<circle cx="167.5" cy="128.5" r="1.5" fill="#E3E3E3"/>
<circle cx="185.5" cy="128.5" r="1.5" fill="#E3E3E3"/>
<circle cx="203.5" cy="128.5" r="1.5" fill="#E3E3E3"/>
<circle cx="221.5" cy="128.5" r="1.5" fill="#E3E3E3"/>
<circle cx="239.5" cy="128.5" r="1.5" fill="#E3E3E3"/>
<circle cx="257.5" cy="128.5" r="1.5" fill="#E3E3E3"/>
<circle cx="275.5" cy="128.5" r="1.5" fill="#E3E3E3"/>
<circle cx="293.5" cy="128.5" r="1.5" fill="#E3E3E3"/>
<circle cx="311.5" cy="128.5" r="1.5" fill="#E3E3E3"/>
<circle cx="329.5" cy="128.5" r="1.5" fill="#E3E3E3"/>
<circle cx="347.5" cy="128.5" r="1.5" fill="#E3E3E3"/>
<circle cx="365.5" cy="128.5" r="1.5" fill="#E3E3E3"/>
<circle cx="383.5" cy="128.5" r="1.5" fill="#E3E3E3"/>
<circle cx="401.5" cy="128.5" r="1.5" fill="#E3E3E3"/>
<circle cx="419.5" cy="128.5" r="1.5" fill="#E3E3E3"/>
<circle cx="437.5" cy="128.5" r="1.5" fill="#E3E3E3"/>
<circle cx="95.5" cy="146.5" r="1.5" fill="#E3E3E3"/>
<circle cx="113.5" cy="146.5" r="1.5" fill="#E3E3E3"/>
<circle cx="131.5" cy="146.5" r="1.5" fill="#E3E3E3"/>
<circle cx="149.5" cy="146.5" r="1.5" fill="#E3E3E3"/>
<circle cx="167.5" cy="146.5" r="1.5" fill="#E3E3E3"/>
<circle cx="185.5" cy="146.5" r="1.5" fill="#E3E3E3"/>
<circle cx="203.5" cy="146.5" r="1.5" fill="#E3E3E3"/>
<circle cx="221.5" cy="146.5" r="1.5" fill="#E3E3E3"/>
<circle cx="239.5" cy="146.5" r="1.5" fill="#E3E3E3"/>
<circle cx="257.5" cy="146.5" r="1.5" fill="#E3E3E3"/>
<circle cx="275.5" cy="146.5" r="1.5" fill="#E3E3E3"/>
<circle cx="293.5" cy="146.5" r="1.5" fill="#E3E3E3"/>
<circle cx="311.5" cy="146.5" r="1.5" fill="#E3E3E3"/>
<circle cx="329.5" cy="146.5" r="1.5" fill="#E3E3E3"/>
<circle cx="347.5" cy="146.5" r="1.5" fill="#E3E3E3"/>
<circle cx="365.5" cy="146.5" r="1.5" fill="#E3E3E3"/>
<circle cx="383.5" cy="146.5" r="1.5" fill="#E3E3E3"/>
<circle cx="401.5" cy="146.5" r="1.5" fill="#E3E3E3"/>
<circle cx="419.5" cy="146.5" r="1.5" fill="#E3E3E3"/>
<circle cx="437.5" cy="146.5" r="1.5" fill="#E3E3E3"/>
<circle cx="95.5" cy="164.5" r="1.5" fill="#E3E3E3"/>
<circle cx="113.5" cy="164.5" r="1.5" fill="#E3E3E3"/>
<circle cx="131.5" cy="164.5" r="1.5" fill="#E3E3E3"/>
<circle cx="149.5" cy="164.5" r="1.5" fill="#E3E3E3"/>
<circle cx="167.5" cy="164.5" r="1.5" fill="#E3E3E3"/>
<circle cx="185.5" cy="164.5" r="1.5" fill="#E3E3E3"/>
<circle cx="203.5" cy="164.5" r="1.5" fill="#E3E3E3"/>
<circle cx="221.5" cy="164.5" r="1.5" fill="#E3E3E3"/>
<circle cx="239.5" cy="164.5" r="1.5" fill="#E3E3E3"/>
<circle cx="257.5" cy="164.5" r="1.5" fill="#E3E3E3"/>
<circle cx="275.5" cy="164.5" r="1.5" fill="#E3E3E3"/>
<circle cx="293.5" cy="164.5" r="1.5" fill="#E3E3E3"/>
<circle cx="311.5" cy="164.5" r="1.5" fill="#E3E3E3"/>
<circle cx="329.5" cy="164.5" r="1.5" fill="#E3E3E3"/>
<circle cx="347.5" cy="164.5" r="1.5" fill="#E3E3E3"/>
<circle cx="365.5" cy="164.5" r="1.5" fill="#E3E3E3"/>
<circle cx="383.5" cy="164.5" r="1.5" fill="#E3E3E3"/>
<circle cx="401.5" cy="164.5" r="1.5" fill="#E3E3E3"/>
<circle cx="419.5" cy="164.5" r="1.5" fill="#E3E3E3"/>
<circle cx="437.5" cy="164.5" r="1.5" fill="#E3E3E3"/>
<circle cx="95.5" cy="182.5" r="1.5" fill="#E3E3E3"/>
<circle cx="113.5" cy="182.5" r="1.5" fill="#E3E3E3"/>
<circle cx="131.5" cy="182.5" r="1.5" fill="#E3E3E3"/>
<circle cx="149.5" cy="182.5" r="1.5" fill="#E3E3E3"/>
<circle cx="167.5" cy="182.5" r="1.5" fill="#E3E3E3"/>
<circle cx="185.5" cy="182.5" r="1.5" fill="#E3E3E3"/>
<circle cx="203.5" cy="182.5" r="1.5" fill="#E3E3E3"/>
<circle cx="221.5" cy="182.5" r="1.5" fill="#E3E3E3"/>
<circle cx="239.5" cy="182.5" r="1.5" fill="#E3E3E3"/>
<circle cx="257.5" cy="182.5" r="1.5" fill="#E3E3E3"/>
<circle cx="275.5" cy="182.5" r="1.5" fill="#E3E3E3"/>
<circle cx="293.5" cy="182.5" r="1.5" fill="#E3E3E3"/>
<circle cx="311.5" cy="182.5" r="1.5" fill="#E3E3E3"/>
<circle cx="329.5" cy="182.5" r="1.5" fill="#E3E3E3"/>
<circle cx="347.5" cy="182.5" r="1.5" fill="#E3E3E3"/>
<circle cx="365.5" cy="182.5" r="1.5" fill="#E3E3E3"/>
<circle cx="383.5" cy="182.5" r="1.5" fill="#E3E3E3"/>
<circle cx="401.5" cy="182.5" r="1.5" fill="#E3E3E3"/>
<circle cx="419.5" cy="182.5" r="1.5" fill="#E3E3E3"/>
<circle cx="437.5" cy="182.5" r="1.5" fill="#E3E3E3"/>
<circle cx="95.5" cy="200.5" r="1.5" fill="#E3E3E3"/>
<circle cx="113.5" cy="200.5" r="1.5" fill="#E3E3E3"/>
<circle cx="131.5" cy="200.5" r="1.5" fill="#E3E3E3"/>
<circle cx="149.5" cy="200.5" r="1.5" fill="#E3E3E3"/>
<circle cx="167.5" cy="200.5" r="1.5" fill="#E3E3E3"/>
<circle cx="185.5" cy="200.5" r="1.5" fill="#E3E3E3"/>
<circle cx="203.5" cy="200.5" r="1.5" fill="#E3E3E3"/>
<circle cx="221.5" cy="200.5" r="1.5" fill="#E3E3E3"/>
<circle cx="239.5" cy="200.5" r="1.5" fill="#E3E3E3"/>
<circle cx="257.5" cy="200.5" r="1.5" fill="#E3E3E3"/>
<circle cx="275.5" cy="200.5" r="1.5" fill="#E3E3E3"/>
<circle cx="293.5" cy="200.5" r="1.5" fill="#E3E3E3"/>
<circle cx="311.5" cy="200.5" r="1.5" fill="#E3E3E3"/>
<circle cx="329.5" cy="200.5" r="1.5" fill="#E3E3E3"/>
<circle cx="347.5" cy="200.5" r="1.5" fill="#E3E3E3"/>
<circle cx="365.5" cy="200.5" r="1.5" fill="#E3E3E3"/>
<circle cx="383.5" cy="200.5" r="1.5" fill="#E3E3E3"/>
<circle cx="401.5" cy="200.5" r="1.5" fill="#E3E3E3"/>
<circle cx="419.5" cy="200.5" r="1.5" fill="#E3E3E3"/>
<circle cx="437.5" cy="200.5" r="1.5" fill="#E3E3E3"/>
<circle cx="95.5" cy="218.5" r="1.5" fill="#E3E3E3"/>
<circle cx="113.5" cy="218.5" r="1.5" fill="#E3E3E3"/>
<circle cx="131.5" cy="218.5" r="1.5" fill="#E3E3E3"/>
<circle cx="149.5" cy="218.5" r="1.5" fill="#E3E3E3"/>
<circle cx="167.5" cy="218.5" r="1.5" fill="#E3E3E3"/>
<circle cx="185.5" cy="218.5" r="1.5" fill="#E3E3E3"/>
<circle cx="203.5" cy="218.5" r="1.5" fill="#E3E3E3"/>
<circle cx="221.5" cy="218.5" r="1.5" fill="#E3E3E3"/>
<circle cx="239.5" cy="218.5" r="1.5" fill="#E3E3E3"/>
<circle cx="257.5" cy="218.5" r="1.5" fill="#E3E3E3"/>
<circle cx="275.5" cy="218.5" r="1.5" fill="#E3E3E3"/>
<circle cx="293.5" cy="218.5" r="1.5" fill="#E3E3E3"/>
<circle cx="311.5" cy="218.5" r="1.5" fill="#E3E3E3"/>
<circle cx="329.5" cy="218.5" r="1.5" fill="#E3E3E3"/>
<circle cx="347.5" cy="218.5" r="1.5" fill="#E3E3E3"/>
<circle cx="365.5" cy="218.5" r="1.5" fill="#E3E3E3"/>
<circle cx="383.5" cy="218.5" r="1.5" fill="#E3E3E3"/>
<circle cx="401.5" cy="218.5" r="1.5" fill="#E3E3E3"/>
<circle cx="419.5" cy="218.5" r="1.5" fill="#E3E3E3"/>
<circle cx="437.5" cy="218.5" r="1.5" fill="#E3E3E3"/>
<circle cx="95.5" cy="236.5" r="1.5" fill="#E3E3E3"/>
<circle cx="113.5" cy="236.5" r="1.5" fill="#E3E3E3"/>
<circle cx="131.5" cy="236.5" r="1.5" fill="#E3E3E3"/>
<circle cx="149.5" cy="236.5" r="1.5" fill="#E3E3E3"/>
<circle cx="167.5" cy="236.5" r="1.5" fill="#E3E3E3"/>
<circle cx="185.5" cy="236.5" r="1.5" fill="#E3E3E3"/>
<circle cx="203.5" cy="236.5" r="1.5" fill="#E3E3E3"/>
<circle cx="221.5" cy="236.5" r="1.5" fill="#E3E3E3"/>
<circle cx="239.5" cy="236.5" r="1.5" fill="#E3E3E3"/>
<circle cx="257.5" cy="236.5" r="1.5" fill="#E3E3E3"/>
<circle cx="275.5" cy="236.5" r="1.5" fill="#E3E3E3"/>
<circle cx="293.5" cy="236.5" r="1.5" fill="#E3E3E3"/>
<circle cx="311.5" cy="236.5" r="1.5" fill="#E3E3E3"/>
<circle cx="329.5" cy="236.5" r="1.5" fill="#E3E3E3"/>
<circle cx="347.5" cy="236.5" r="1.5" fill="#E3E3E3"/>
<circle cx="365.5" cy="236.5" r="1.5" fill="#E3E3E3"/>
<circle cx="383.5" cy="236.5" r="1.5" fill="#E3E3E3"/>
<circle cx="401.5" cy="236.5" r="1.5" fill="#E3E3E3"/>
<circle cx="419.5" cy="236.5" r="1.5" fill="#E3E3E3"/>
<circle cx="437.5" cy="236.5" r="1.5" fill="#E3E3E3"/>
<circle cx="95.5" cy="254.5" r="1.5" fill="#E3E3E3"/>
<circle cx="113.5" cy="254.5" r="1.5" fill="#E3E3E3"/>
<circle cx="131.5" cy="254.5" r="1.5" fill="#E3E3E3"/>
<circle cx="149.5" cy="254.5" r="1.5" fill="#E3E3E3"/>
<circle cx="167.5" cy="254.5" r="1.5" fill="#E3E3E3"/>
<circle cx="185.5" cy="254.5" r="1.5" fill="#E3E3E3"/>
<circle cx="203.5" cy="254.5" r="1.5" fill="#E3E3E3"/>
<circle cx="221.5" cy="254.5" r="1.5" fill="#E3E3E3"/>
<circle cx="239.5" cy="254.5" r="1.5" fill="#E3E3E3"/>
<circle cx="257.5" cy="254.5" r="1.5" fill="#E3E3E3"/>
<circle cx="275.5" cy="254.5" r="1.5" fill="#E3E3E3"/>
<circle cx="293.5" cy="254.5" r="1.5" fill="#E3E3E3"/>
<circle cx="311.5" cy="254.5" r="1.5" fill="#E3E3E3"/>
<circle cx="329.5" cy="254.5" r="1.5" fill="#E3E3E3"/>
<circle cx="347.5" cy="254.5" r="1.5" fill="#E3E3E3"/>
<circle cx="365.5" cy="254.5" r="1.5" fill="#E3E3E3"/>
<circle cx="383.5" cy="254.5" r="1.5" fill="#E3E3E3"/>
<circle cx="401.5" cy="254.5" r="1.5" fill="#E3E3E3"/>
<circle cx="419.5" cy="254.5" r="1.5" fill="#E3E3E3"/>
<circle cx="437.5" cy="254.5" r="1.5" fill="#E3E3E3"/>
<circle cx="95.5" cy="272.5" r="1.5" fill="#E3E3E3"/>
<circle cx="113.5" cy="272.5" r="1.5" fill="#E3E3E3"/>
<circle cx="131.5" cy="272.5" r="1.5" fill="#E3E3E3"/>
<circle cx="149.5" cy="272.5" r="1.5" fill="#E3E3E3"/>
<circle cx="167.5" cy="272.5" r="1.5" fill="#E3E3E3"/>
<circle cx="185.5" cy="272.5" r="1.5" fill="#E3E3E3"/>
<circle cx="203.5" cy="272.5" r="1.5" fill="#E3E3E3"/>
<circle cx="221.5" cy="272.5" r="1.5" fill="#E3E3E3"/>
<circle cx="239.5" cy="272.5" r="1.5" fill="#E3E3E3"/>
<circle cx="257.5" cy="272.5" r="1.5" fill="#E3E3E3"/>
<circle cx="275.5" cy="272.5" r="1.5" fill="#E3E3E3"/>
<circle cx="293.5" cy="272.5" r="1.5" fill="#E3E3E3"/>
<circle cx="311.5" cy="272.5" r="1.5" fill="#E3E3E3"/>
<circle cx="329.5" cy="272.5" r="1.5" fill="#E3E3E3"/>
<circle cx="347.5" cy="272.5" r="1.5" fill="#E3E3E3"/>
<circle cx="365.5" cy="272.5" r="1.5" fill="#E3E3E3"/>
<circle cx="383.5" cy="272.5" r="1.5" fill="#E3E3E3"/>
<circle cx="401.5" cy="272.5" r="1.5" fill="#E3E3E3"/>
<circle cx="419.5" cy="272.5" r="1.5" fill="#E3E3E3"/>
<circle cx="437.5" cy="272.5" r="1.5" fill="#E3E3E3"/>
<circle cx="95.5" cy="290.5" r="1.5" fill="#E3E3E3"/>
<circle cx="113.5" cy="290.5" r="1.5" fill="#E3E3E3"/>
<circle cx="131.5" cy="290.5" r="1.5" fill="#E3E3E3"/>
<circle cx="149.5" cy="290.5" r="1.5" fill="#E3E3E3"/>
<circle cx="167.5" cy="290.5" r="1.5" fill="#E3E3E3"/>
<circle cx="185.5" cy="290.5" r="1.5" fill="#E3E3E3"/>
<circle cx="203.5" cy="290.5" r="1.5" fill="#E3E3E3"/>
<circle cx="221.5" cy="290.5" r="1.5" fill="#E3E3E3"/>
<circle cx="239.5" cy="290.5" r="1.5" fill="#E3E3E3"/>
<circle cx="257.5" cy="290.5" r="1.5" fill="#E3E3E3"/>
<circle cx="275.5" cy="290.5" r="1.5" fill="#E3E3E3"/>
<circle cx="293.5" cy="290.5" r="1.5" fill="#E3E3E3"/>
<circle cx="311.5" cy="290.5" r="1.5" fill="#E3E3E3"/>
<circle cx="329.5" cy="290.5" r="1.5" fill="#E3E3E3"/>
<circle cx="347.5" cy="290.5" r="1.5" fill="#E3E3E3"/>
<circle cx="365.5" cy="290.5" r="1.5" fill="#E3E3E3"/>
<circle cx="383.5" cy="290.5" r="1.5" fill="#E3E3E3"/>
<circle cx="401.5" cy="290.5" r="1.5" fill="#E3E3E3"/>
<circle cx="419.5" cy="290.5" r="1.5" fill="#E3E3E3"/>
<circle cx="437.5" cy="290.5" r="1.5" fill="#E3E3E3"/>
<circle cx="95.5" cy="308.5" r="1.5" fill="#E3E3E3"/>
<circle cx="113.5" cy="308.5" r="1.5" fill="#E3E3E3"/>
<circle cx="131.5" cy="308.5" r="1.5" fill="#E3E3E3"/>
<circle cx="149.5" cy="308.5" r="1.5" fill="#E3E3E3"/>
<circle cx="167.5" cy="308.5" r="1.5" fill="#E3E3E3"/>
<circle cx="185.5" cy="308.5" r="1.5" fill="#E3E3E3"/>
<circle cx="203.5" cy="308.5" r="1.5" fill="#E3E3E3"/>
<circle cx="221.5" cy="308.5" r="1.5" fill="#E3E3E3"/>
<circle cx="239.5" cy="308.5" r="1.5" fill="#E3E3E3"/>
<circle cx="257.5" cy="308.5" r="1.5" fill="#E3E3E3"/>
<circle cx="275.5" cy="308.5" r="1.5" fill="#E3E3E3"/>
<circle cx="293.5" cy="308.5" r="1.5" fill="#E3E3E3"/>
<circle cx="311.5" cy="308.5" r="1.5" fill="#E3E3E3"/>
<circle cx="329.5" cy="308.5" r="1.5" fill="#E3E3E3"/>
<circle cx="347.5" cy="308.5" r="1.5" fill="#E3E3E3"/>
<circle cx="365.5" cy="308.5" r="1.5" fill="#E3E3E3"/>
<circle cx="383.5" cy="308.5" r="1.5" fill="#E3E3E3"/>
<circle cx="401.5" cy="308.5" r="1.5" fill="#E3E3E3"/>
<circle cx="419.5" cy="308.5" r="1.5" fill="#E3E3E3"/>
<circle cx="437.5" cy="308.5" r="1.5" fill="#E3E3E3"/>
<circle cx="95.5" cy="326.5" r="1.5" fill="#E3E3E3"/>
<circle cx="113.5" cy="326.5" r="1.5" fill="#E3E3E3"/>
<circle cx="131.5" cy="326.5" r="1.5" fill="#E3E3E3"/>
<circle cx="149.5" cy="326.5" r="1.5" fill="#E3E3E3"/>
<circle cx="167.5" cy="326.5" r="1.5" fill="#E3E3E3"/>
<circle cx="185.5" cy="326.5" r="1.5" fill="#E3E3E3"/>
<circle cx="203.5" cy="326.5" r="1.5" fill="#E3E3E3"/>
<circle cx="221.5" cy="326.5" r="1.5" fill="#E3E3E3"/>
<circle cx="239.5" cy="326.5" r="1.5" fill="#E3E3E3"/>
<circle cx="257.5" cy="326.5" r="1.5" fill="#E3E3E3"/>
<circle cx="275.5" cy="326.5" r="1.5" fill="#E3E3E3"/>
<circle cx="293.5" cy="326.5" r="1.5" fill="#E3E3E3"/>
<circle cx="311.5" cy="326.5" r="1.5" fill="#E3E3E3"/>
<circle cx="329.5" cy="326.5" r="1.5" fill="#E3E3E3"/>
<circle cx="347.5" cy="326.5" r="1.5" fill="#E3E3E3"/>
<circle cx="365.5" cy="326.5" r="1.5" fill="#E3E3E3"/>
<circle cx="383.5" cy="326.5" r="1.5" fill="#E3E3E3"/>
<circle cx="401.5" cy="326.5" r="1.5" fill="#E3E3E3"/>
<circle cx="419.5" cy="326.5" r="1.5" fill="#E3E3E3"/>
<circle cx="437.5" cy="326.5" r="1.5" fill="#E3E3E3"/>
<circle cx="95.5" cy="344.5" r="1.5" fill="#E3E3E3"/>
<circle cx="113.5" cy="344.5" r="1.5" fill="#E3E3E3"/>
<circle cx="131.5" cy="344.5" r="1.5" fill="#E3E3E3"/>
<circle cx="149.5" cy="344.5" r="1.5" fill="#E3E3E3"/>
<circle cx="167.5" cy="344.5" r="1.5" fill="#E3E3E3"/>
<circle cx="185.5" cy="344.5" r="1.5" fill="#E3E3E3"/>
<circle cx="203.5" cy="344.5" r="1.5" fill="#E3E3E3"/>
<circle cx="221.5" cy="344.5" r="1.5" fill="#E3E3E3"/>
<circle cx="239.5" cy="344.5" r="1.5" fill="#E3E3E3"/>
<circle cx="257.5" cy="344.5" r="1.5" fill="#E3E3E3"/>
<circle cx="275.5" cy="344.5" r="1.5" fill="#E3E3E3"/>
<circle cx="293.5" cy="344.5" r="1.5" fill="#E3E3E3"/>
<circle cx="311.5" cy="344.5" r="1.5" fill="#E3E3E3"/>
<circle cx="329.5" cy="344.5" r="1.5" fill="#E3E3E3"/>
<circle cx="347.5" cy="344.5" r="1.5" fill="#E3E3E3"/>
<circle cx="365.5" cy="344.5" r="1.5" fill="#E3E3E3"/>
<circle cx="383.5" cy="344.5" r="1.5" fill="#E3E3E3"/>
<circle cx="401.5" cy="344.5" r="1.5" fill="#E3E3E3"/>
<circle cx="419.5" cy="344.5" r="1.5" fill="#E3E3E3"/>
<circle cx="437.5" cy="344.5" r="1.5" fill="#E3E3E3"/>
<rect width="453" height="348" fill="url(#paint0_radial_86_3145)"/>
<path d="M-11.5696 291.918C-26.6742 289.206 -39.6847 275.948 -50.2744 261.139C-60.8466 246.353 -68.9739 229.998 -67.1171 214.677C-65.2603 199.355 -53.4063 184.983 -39.1707 176.29C-24.9175 167.621 -8.29361 164.566 7.69483 166.815C23.7009 169.088 39.0298 176.658 49.9116 189.185C60.7934 201.712 67.2039 219.214 64.4633 234.999C61.7161 250.825 49.7761 264.928 35.2484 275.903C20.679 286.871 3.52846 294.671 -11.5696 291.918Z" fill="#F06C46"/>
<path d="M26.52 117.92C19.08 117.92 12.48 116.2 6.72 112.76C1.04 109.32 -3.44 104.32 -6.72 97.76C-9.92 91.2 -11.52 83.28 -11.52 74C-11.52 64.72 -9.92 56.8 -6.72 50.24C-3.44 43.68 1.04 38.68 6.72 35.24C12.48 31.8 19.08 30.08 26.52 30.08C33.96 30.08 40.52 31.8 46.2 35.24C51.96 38.68 56.44 43.68 59.64 50.24C62.92 56.8 64.56 64.72 64.56 74C64.56 83.28 62.92 91.2 59.64 97.76C56.44 104.32 51.96 109.32 46.2 112.76C40.52 116.2 33.96 117.92 26.52 117.92ZM26.52 95.24C28.36 95.24 30 94.6 31.44 93.32C32.88 92.04 34 89.84 34.8 86.72C35.68 83.6 36.12 79.36 36.12 74C36.12 68.56 35.68 64.32 34.8 61.28C34 58.16 32.88 55.96 31.44 54.68C30 53.4 28.36 52.76 26.52 52.76C24.68 52.76 23.04 53.4 21.6 54.68C20.16 55.96 19 58.16 18.12 61.28C17.32 64.32 16.92 68.56 16.92 74C16.92 79.36 17.32 83.6 18.12 86.72C19 89.84 20.16 92.04 21.6 93.32C23.04 94.6 24.68 95.24 26.52 95.24ZM81.1659 116L112.846 42.08L120.406 53.96L80.5659 53.96L91.6059 41.12L91.6059 66.2H68.2059L68.2059 32L140.086 32V49.4L112.126 116H81.1659Z" fill="#E3E3E3"/>
</g>
<path d="M50.024 288.788H61.482V293.072H50.024V288.788ZM50.432 298.58H63.386V303H44.958V279.2H62.944V283.62H50.432V298.58ZM79.565 298.648L78.409 299.872V284.708H83.713V299.872L82.489 298.648H90.921L89.731 299.872V284.708H95.001V303H67.087V284.708H72.357V299.872L71.167 298.648H79.565ZM92.621 306.638V301.776L93.811 303H89.595V298.648H97.551V306.638H92.621ZM108.693 303.272C106.608 303.272 104.772 302.864 103.185 302.048C101.621 301.232 100.408 300.121 99.5469 298.716C98.6855 297.288 98.2549 295.667 98.2549 293.854C98.2549 292.018 98.6742 290.397 99.5129 288.992C100.374 287.564 101.542 286.453 103.015 285.66C104.488 284.844 106.154 284.436 108.013 284.436C109.804 284.436 111.413 284.821 112.841 285.592C114.292 286.34 115.436 287.428 116.275 288.856C117.114 290.261 117.533 291.95 117.533 293.922C117.533 294.126 117.522 294.364 117.499 294.636C117.476 294.885 117.454 295.123 117.431 295.35H102.573V292.256H114.643L112.603 293.174C112.603 292.222 112.41 291.395 112.025 290.692C111.64 289.989 111.107 289.445 110.427 289.06C109.747 288.652 108.954 288.448 108.047 288.448C107.14 288.448 106.336 288.652 105.633 289.06C104.953 289.445 104.42 290.001 104.035 290.726C103.65 291.429 103.457 292.267 103.457 293.242V294.058C103.457 295.055 103.672 295.939 104.103 296.71C104.556 297.458 105.18 298.036 105.973 298.444C106.789 298.829 107.741 299.022 108.829 299.022C109.804 299.022 110.654 298.875 111.379 298.58C112.127 298.285 112.807 297.843 113.419 297.254L116.241 300.314C115.402 301.266 114.348 302.003 113.079 302.524C111.81 303.023 110.348 303.272 108.693 303.272ZM111.345 282.192C110.688 282.192 110.132 281.977 109.679 281.546C109.226 281.115 108.999 280.549 108.999 279.846C108.999 279.143 109.226 278.577 109.679 278.146C110.132 277.715 110.688 277.5 111.345 277.5C112.002 277.5 112.558 277.715 113.011 278.146C113.487 278.577 113.725 279.143 113.725 279.846C113.725 280.549 113.487 281.115 113.011 281.546C112.558 281.977 112.002 282.192 111.345 282.192ZM104.477 282.192C103.82 282.192 103.253 281.977 102.777 281.546C102.324 281.115 102.097 280.549 102.097 279.846C102.097 279.143 102.324 278.577 102.777 278.146C103.253 277.715 103.82 277.5 104.477 277.5C105.134 277.5 105.69 277.715 106.143 278.146C106.596 278.577 106.823 279.143 106.823 279.846C106.823 280.549 106.596 281.115 106.143 281.546C105.69 281.977 105.134 282.192 104.477 282.192ZM139.625 303.408C138.129 303.408 136.769 303.193 135.545 302.762C134.321 302.309 133.256 301.617 132.349 300.688C131.465 299.736 130.774 298.523 130.275 297.05C129.799 295.577 129.561 293.82 129.561 291.78C129.561 290.329 129.686 289.003 129.935 287.802C130.185 286.601 130.559 285.513 131.057 284.538C131.556 283.541 132.191 282.668 132.961 281.92C133.755 281.149 134.673 280.515 135.715 280.016C136.781 279.495 137.982 279.098 139.319 278.826L148.023 277.092L148.737 281.648L141.053 283.178C140.6 283.269 140.079 283.393 139.489 283.552C138.923 283.688 138.345 283.903 137.755 284.198C137.189 284.493 136.656 284.912 136.157 285.456C135.681 285.977 135.296 286.669 135.001 287.53C134.707 288.369 134.559 289.411 134.559 290.658C134.559 291.043 134.571 291.338 134.593 291.542C134.639 291.746 134.673 291.961 134.695 292.188C134.741 292.415 134.763 292.766 134.763 293.242L133.063 291.576C133.562 290.511 134.197 289.604 134.967 288.856C135.761 288.108 136.667 287.541 137.687 287.156C138.73 286.748 139.886 286.544 141.155 286.544C142.878 286.544 144.385 286.895 145.677 287.598C146.992 288.278 148.012 289.241 148.737 290.488C149.463 291.735 149.825 293.151 149.825 294.738C149.825 296.461 149.395 297.979 148.533 299.294C147.672 300.586 146.471 301.595 144.929 302.32C143.411 303.045 141.643 303.408 139.625 303.408ZM139.897 299.294C140.781 299.294 141.563 299.101 142.243 298.716C142.923 298.308 143.445 297.775 143.807 297.118C144.193 296.438 144.385 295.679 144.385 294.84C144.385 294.024 144.193 293.299 143.807 292.664C143.445 292.029 142.923 291.531 142.243 291.168C141.563 290.805 140.77 290.624 139.863 290.624C138.979 290.624 138.186 290.805 137.483 291.168C136.781 291.508 136.237 291.984 135.851 292.596C135.466 293.208 135.273 293.922 135.273 294.738C135.273 295.577 135.466 296.347 135.851 297.05C136.259 297.73 136.803 298.274 137.483 298.682C138.186 299.09 138.991 299.294 139.897 299.294ZM150.507 302.966L150.779 298.614C150.915 298.637 151.051 298.659 151.187 298.682C151.323 298.682 151.447 298.682 151.561 298.682C152.195 298.682 152.694 298.501 153.057 298.138C153.419 297.775 153.691 297.288 153.873 296.676C154.054 296.041 154.179 295.327 154.247 294.534C154.337 293.741 154.405 292.913 154.451 292.052L154.723 284.708H170.363V303H165.059V287.768L166.249 289.06H158.225L159.347 287.7L159.109 292.29C159.041 293.922 158.905 295.418 158.701 296.778C158.519 298.138 158.213 299.317 157.783 300.314C157.352 301.289 156.774 302.048 156.049 302.592C155.323 303.113 154.394 303.374 153.261 303.374C152.853 303.374 152.422 303.34 151.969 303.272C151.515 303.204 151.028 303.102 150.507 302.966ZM175.123 303V284.708H180.393V295.588L189.301 284.708H194.163V303H188.893V292.12L180.019 303H175.123ZM220.92 303L216.058 294.33L220.342 291.78L227.21 303H220.92ZM212.93 296.064V291.814H219.288V296.064H212.93ZM220.886 294.466L215.888 293.922L221.158 284.708H226.768L220.886 294.466ZM202.832 303H196.576L203.41 291.78L207.694 294.33L202.832 303ZM214.494 303H209.258V284.708H214.494V303ZM210.822 296.064H204.498V291.814H210.822V296.064ZM202.866 294.466L196.984 284.708H202.594L207.83 293.922L202.866 294.466ZM238.004 303.272C235.919 303.272 234.083 302.864 232.496 302.048C230.932 301.232 229.72 300.121 228.858 298.716C227.997 297.288 227.566 295.667 227.566 293.854C227.566 292.018 227.986 290.397 228.824 288.992C229.686 287.564 230.853 286.453 232.326 285.66C233.8 284.844 235.466 284.436 237.324 284.436C239.115 284.436 240.724 284.821 242.152 285.592C243.603 286.34 244.748 287.428 245.586 288.856C246.425 290.261 246.844 291.95 246.844 293.922C246.844 294.126 246.833 294.364 246.81 294.636C246.788 294.885 246.765 295.123 246.742 295.35H231.884V292.256H243.954L241.914 293.174C241.914 292.222 241.722 291.395 241.336 290.692C240.951 289.989 240.418 289.445 239.738 289.06C239.058 288.652 238.265 288.448 237.358 288.448C236.452 288.448 235.647 288.652 234.944 289.06C234.264 289.445 233.732 290.001 233.346 290.726C232.961 291.429 232.768 292.267 232.768 293.242V294.058C232.768 295.055 232.984 295.939 233.414 296.71C233.868 297.458 234.491 298.036 235.284 298.444C236.1 298.829 237.052 299.022 238.14 299.022C239.115 299.022 239.965 298.875 240.69 298.58C241.438 298.285 242.118 297.843 242.73 297.254L245.552 300.314C244.714 301.266 243.66 302.003 242.39 302.524C241.121 303.023 239.659 303.272 238.004 303.272ZM272.813 303L266.693 294.33L271.011 291.78L279.069 303H272.813ZM259.859 303V284.708H265.163V303H259.859ZM263.599 296.064V291.814H269.991V296.064H263.599ZM271.521 294.466L266.557 293.922L272.983 284.708H278.627L271.521 294.466ZM296.81 303.34C295.405 303.34 294 303.193 292.594 302.898C291.212 302.603 289.931 302.161 288.752 301.572L290.18 297.866C291.11 298.319 292.118 298.671 293.206 298.92C294.317 299.147 295.439 299.26 296.572 299.26C297.388 299.26 298.091 299.181 298.68 299.022C299.292 298.841 299.757 298.591 300.074 298.274C300.392 297.957 300.55 297.571 300.55 297.118C300.55 296.529 300.301 296.087 299.802 295.792C299.304 295.475 298.578 295.316 297.626 295.316H293.886V292.018H297.184C297.796 292.018 298.318 291.95 298.748 291.814C299.179 291.678 299.496 291.485 299.7 291.236C299.927 290.964 300.04 290.647 300.04 290.284C300.04 289.899 299.904 289.57 299.632 289.298C299.36 289.026 298.964 288.822 298.442 288.686C297.921 288.527 297.264 288.448 296.47 288.448C295.564 288.448 294.623 288.561 293.648 288.788C292.674 288.992 291.676 289.298 290.656 289.706L289.364 286.034C290.566 285.535 291.756 285.139 292.934 284.844C294.113 284.549 295.28 284.391 296.436 284.368C298.136 284.323 299.666 284.504 301.026 284.912C302.386 285.32 303.452 285.909 304.222 286.68C305.016 287.451 305.412 288.391 305.412 289.502C305.412 290.386 305.14 291.179 304.596 291.882C304.075 292.585 303.35 293.14 302.42 293.548C301.491 293.933 300.448 294.126 299.292 294.126L299.428 293.072C301.446 293.072 303.032 293.48 304.188 294.296C305.344 295.089 305.922 296.177 305.922 297.56C305.922 298.739 305.514 299.77 304.698 300.654C303.905 301.515 302.817 302.184 301.434 302.66C300.074 303.113 298.533 303.34 296.81 303.34ZM318.316 303.272C316.231 303.272 314.395 302.864 312.808 302.048C311.244 301.232 310.031 300.121 309.17 298.716C308.309 297.288 307.878 295.667 307.878 293.854C307.878 292.018 308.297 290.397 309.136 288.992C309.997 287.564 311.165 286.453 312.638 285.66C314.111 284.844 315.777 284.436 317.636 284.436C319.427 284.436 321.036 284.821 322.464 285.592C323.915 286.34 325.059 287.428 325.898 288.856C326.737 290.261 327.156 291.95 327.156 293.922C327.156 294.126 327.145 294.364 327.122 294.636C327.099 294.885 327.077 295.123 327.054 295.35H312.196V292.256H324.266L322.226 293.174C322.226 292.222 322.033 291.395 321.648 290.692C321.263 289.989 320.73 289.445 320.05 289.06C319.37 288.652 318.577 288.448 317.67 288.448C316.763 288.448 315.959 288.652 315.256 289.06C314.576 289.445 314.043 290.001 313.658 290.726C313.273 291.429 313.08 292.267 313.08 293.242V294.058C313.08 295.055 313.295 295.939 313.726 296.71C314.179 297.458 314.803 298.036 315.596 298.444C316.412 298.829 317.364 299.022 318.452 299.022C319.427 299.022 320.277 298.875 321.002 298.58C321.75 298.285 322.43 297.843 323.042 297.254L325.864 300.314C325.025 301.266 323.971 302.003 322.702 302.524C321.433 303.023 319.971 303.272 318.316 303.272ZM330.882 303V284.708H336.424L343.326 297.22H341.116L348.494 284.708H353.458L353.526 303H348.732V290.148L349.548 290.692L343.258 301.232H341.014L334.69 290.318L335.676 290.08V303H330.882ZM355.954 302.966L356.226 298.614C356.362 298.637 356.498 298.659 356.634 298.682C356.77 298.682 356.895 298.682 357.008 298.682C357.643 298.682 358.142 298.501 358.504 298.138C358.867 297.775 359.139 297.288 359.32 296.676C359.502 296.041 359.626 295.327 359.694 294.534C359.785 293.741 359.853 292.913 359.898 292.052L360.17 284.708H375.81V303H370.506V287.768L371.696 289.06H363.672L364.794 287.7L364.556 292.29C364.488 293.922 364.352 295.418 364.148 296.778C363.967 298.138 363.661 299.317 363.23 300.314C362.8 301.289 362.222 302.048 361.496 302.592C360.771 303.113 359.842 303.374 358.708 303.374C358.3 303.374 357.87 303.34 357.416 303.272C356.963 303.204 356.476 303.102 355.954 302.966ZM389.513 303.272C387.428 303.272 385.592 302.864 384.005 302.048C382.441 301.232 381.228 300.121 380.367 298.716C379.506 297.288 379.075 295.667 379.075 293.854C379.075 292.018 379.494 290.397 380.333 288.992C381.194 287.564 382.362 286.453 383.835 285.66C385.308 284.844 386.974 284.436 388.833 284.436C390.624 284.436 392.233 284.821 393.661 285.592C395.112 286.34 396.256 287.428 397.095 288.856C397.934 290.261 398.353 291.95 398.353 293.922C398.353 294.126 398.342 294.364 398.319 294.636C398.296 294.885 398.274 295.123 398.251 295.35H383.393V292.256H395.463L393.423 293.174C393.423 292.222 393.23 291.395 392.845 290.692C392.46 289.989 391.927 289.445 391.247 289.06C390.567 288.652 389.774 288.448 388.867 288.448C387.96 288.448 387.156 288.652 386.453 289.06C385.773 289.445 385.24 290.001 384.855 290.726C384.47 291.429 384.277 292.267 384.277 293.242V294.058C384.277 295.055 384.492 295.939 384.923 296.71C385.376 297.458 386 298.036 386.793 298.444C387.609 298.829 388.561 299.022 389.649 299.022C390.624 299.022 391.474 298.875 392.199 298.58C392.947 298.285 393.627 297.843 394.239 297.254L397.061 300.314C396.222 301.266 395.168 302.003 393.899 302.524C392.63 303.023 391.168 303.272 389.513 303.272Z" fill="black"/>
</g>
<g clip-path="url(#clip1_86_3145)">
<path d="M283.402 66.0794V54.2622H335.293L362.738 81.6888V167.488H340.711" stroke="#C81F56" stroke-width="3" stroke-miterlimit="10" stroke-linecap="round" stroke-linejoin="round"/>
<path d="M335.313 81.6888H362.737L335.313 54.2622V81.6888Z" stroke="#C81F56" stroke-width="3" stroke-miterlimit="10" stroke-linecap="round" stroke-linejoin="round"/>
<path d="M313.851 131.38H349.017" stroke="#C81F56" stroke-width="3" stroke-miterlimit="10" stroke-linecap="round" stroke-linejoin="round"/>
<path d="M308.406 119.341H349.017" stroke="#C81F56" stroke-width="3" stroke-miterlimit="10" stroke-linecap="round" stroke-linejoin="round"/>
<path d="M313.851 107.305H349.017" stroke="#C81F56" stroke-width="3" stroke-miterlimit="10" stroke-linecap="round" stroke-linejoin="round"/>
<path d="M330.543 178.733C330.543 178.733 330.543 150.506 316.577 142.98L293.879 131.693" stroke="#FE840E" stroke-width="3" stroke-miterlimit="10" stroke-linecap="round" stroke-linejoin="round"/>
<path d="M236.262 178.733C236.262 178.733 236.262 150.506 250.229 142.98L272.926 131.693" stroke="#FE840E" stroke-width="3" stroke-miterlimit="10" stroke-linecap="round" stroke-linejoin="round"/>
<path d="M300.86 135.453L302.612 150.506C291.258 147.5 286.891 139.22 286.891 139.22" stroke="#FE840E" stroke-width="3" stroke-miterlimit="10" stroke-linecap="round" stroke-linejoin="round"/>
<path d="M265.943 135.453L264.194 150.506C275.547 147.5 279.914 139.22 279.914 139.22" stroke="#FE840E" stroke-width="3" stroke-miterlimit="10" stroke-linecap="round" stroke-linejoin="round"/>
<path d="M286.892 139.22C286.892 139.22 291.088 145.996 286.892 150.506C286.892 150.506 290.39 172.715 290.39 178.738" stroke="#FE840E" stroke-width="3" stroke-miterlimit="10" stroke-linecap="round" stroke-linejoin="round"/>
<path d="M276.416 178.738C276.416 172.714 279.913 150.506 279.913 150.506C275.716 145.996 279.913 139.22 279.913 139.22" stroke="#FE840E" stroke-width="3" stroke-miterlimit="10" stroke-linecap="round" stroke-linejoin="round"/>
<path d="M290.39 126.046C300.161 121.535 301.386 111.935 302.435 102.529C302.963 97.4461 303.139 91.9897 300.861 87.2855C298.768 82.9541 294.926 79.9428 290.737 78.4392C288.467 77.4969 286.025 77.125 283.404 77.125C280.783 77.125 278.341 77.4969 276.068 78.4392C271.879 79.9436 268.039 82.9541 265.945 87.2855C263.668 91.9897 263.847 97.4469 264.371 102.529C265.42 111.935 266.466 121.535 276.417 126.046" stroke="#FE840E" stroke-width="3" stroke-miterlimit="10" stroke-linecap="round" stroke-linejoin="round"/>
<path d="M293.879 124.165V127.927C293.879 134.14 289.163 139.22 283.403 139.22C277.641 139.22 272.926 134.14 272.926 127.927V124.165" stroke="#FE840E" stroke-width="3" stroke-miterlimit="10" stroke-linecap="round" stroke-linejoin="round"/>
</g>
</g>
<defs>
<filter id="filter0_d_86_3145" x="-15" y="-7" width="483" height="378" filterUnits="userSpaceOnUse" color-interpolation-filters="sRGB">
<feFlood flood-opacity="0" result="BackgroundImageFix"/>
<feColorMatrix in="SourceAlpha" type="matrix" values="0 0 0 0 0 0 0 0 0 0 0 0 0 0 0 0 0 0 127 0" result="hardAlpha"/>
<feOffset dy="8"/>
<feGaussianBlur stdDeviation="7.5"/>
<feColorMatrix type="matrix" values="0 0 0 0 0 0 0 0 0 0 0 0 0 0 0 0 0 0 0.1 0"/>
<feBlend mode="normal" in2="BackgroundImageFix" result="effect1_dropShadow_86_3145"/>
<feBlend mode="normal" in="SourceGraphic" in2="effect1_dropShadow_86_3145" result="shape"/>
</filter>
<radialGradient id="paint0_radial_86_3145" cx="0" cy="0" r="1" gradientUnits="userSpaceOnUse" gradientTransform="translate(317.5 162) rotate(180) scale(218 283.776)">
<stop stop-color="white" stop-opacity="0"/>
<stop offset="1" stop-color="white"/>
</radialGradient>
<clipPath id="clip0_86_3145">
<rect width="453" height="348" fill="white"/>
</clipPath>
<clipPath id="clip1_86_3145">
<rect width="129" height="127" fill="white" transform="translate(235 53)"/>
</clipPath>
</defs>
</svg>
