<svg width="453" height="348" viewBox="0 0 453 348" fill="none" xmlns="http://www.w3.org/2000/svg">
<mask id="mask0_86_3128" style="mask-type:alpha" maskUnits="userSpaceOnUse" x="0" y="0" width="453" height="348">
<rect width="453" height="348" rx="20" fill="#FE840E"/>
</mask>
<g mask="url(#mask0_86_3128)">
<rect width="453" height="348" fill="url(#paint0_linear_86_3128)"/>
<path d="M392.647 616.573C327.037 604.795 270.524 547.207 224.525 482.879C178.603 418.655 143.3 347.614 151.365 281.061C159.431 214.508 210.921 152.08 272.756 114.321C334.668 76.6669 406.877 63.3958 476.327 73.1635C545.852 83.0356 612.437 115.919 659.704 170.334C706.971 224.748 734.817 300.771 722.912 369.334C710.979 438.079 659.115 499.337 596.011 547.009C532.726 594.654 458.229 628.533 392.647 616.573Z" fill="#C81F56"/>
<path d="M98.2202 67.8802C98.2202 73.3602 96.3402 77.7202 92.5802 80.9602C88.8602 84.1602 83.4602 85.9602 76.3802 86.3602V90.9802H65.5202V86.3602C58.4402 85.8402 53.0202 84.0002 49.2602 80.8402C45.5402 77.6802 43.6802 73.3602 43.6802 67.8802C43.6802 62.4002 45.5402 58.0802 49.2602 54.9202C52.9802 51.7202 58.4002 49.8602 65.5202 49.3402V45.0202L76.3802 45.0202V49.3402C83.4602 49.8202 88.8602 51.6602 92.5802 54.8602C96.3402 58.0202 98.2202 62.3602 98.2202 67.8802ZM76.3802 77.1202C79.9402 76.7202 82.5402 75.7602 84.1802 74.2402C85.8602 72.7202 86.7002 70.5802 86.7002 67.8202C86.7002 65.0602 85.8402 62.9402 84.1202 61.4602C82.4402 59.9802 79.8602 59.0402 76.3802 58.6402V77.1202ZM55.2002 67.8802C55.2002 70.6002 56.0602 72.7002 57.7802 74.1802C59.5002 75.6602 62.0802 76.6202 65.5202 77.0602V58.6402C61.9202 59.0402 59.3002 59.9802 57.6602 61.4602C56.0202 62.9402 55.2002 65.0802 55.2002 67.8802ZM103.131 56.4802H114.471V73.5202L128.091 56.4802H138.591V89.0002H127.191L127.191 71.9002L113.691 89.0002L103.131 89.0002V56.4802ZM145.656 56.4802H156.996V68.5402H168.696V56.4802H180.096V89.0002H168.696V77.6002H156.996V89.0002L145.656 89.0002V56.4802ZM187.185 56.4802H198.525V73.5202L212.145 56.4802H222.645V89.0002H211.245V71.9002L197.745 89.0002H187.185V56.4802ZM281.25 56.4802V89.0002H229.71V56.4802H241.05V79.8802H249.87V56.4802L261.21 56.4802V79.8802H269.97V56.4802L281.25 56.4802Z" fill="white"/>
<path d="M366.93 327.151H381.191L403.609 261.211L341.298 257.428L366.93 327.151Z" fill="url(#paint1_linear_86_3128)"/>
<path d="M441.535 138.706C441.603 144.273 441.603 253.239 386.289 270.933C330.973 288.626 305.99 196.431 307.971 130.768L441.535 138.706Z" fill="url(#paint2_linear_86_3128)"/>
<path d="M418.278 337.152H329.844V347.889H418.278V337.152Z" fill="url(#paint3_linear_86_3128)"/>
<path d="M329.844 337.153H418.278L395.894 325.146H352.224L329.844 337.153Z" fill="url(#paint4_linear_86_3128)"/>
<path d="M447.945 123.243C452.801 123.538 456.775 127.133 456.775 131.23V139.614C456.775 143.711 452.798 146.851 447.939 146.589L296.34 138.433C291.483 138.172 287.507 134.604 287.507 130.507V120.933C287.507 116.837 291.48 113.724 296.337 114.019L447.945 123.243Z" fill="url(#paint5_linear_86_3128)"/>
<path d="M347.12 279.593C350.65 279.593 353.698 277.361 354.11 274.334C354.55 271.08 351.773 268.14 347.91 267.768C347.178 267.694 296.302 262.321 291.477 234.478C290.662 229.785 290.754 223.649 295.804 221.091C299.968 218.975 306.79 219.648 311.668 222.653C314.439 224.36 317.477 227.349 316.186 231.904C315.281 235.09 317.619 238.289 321.402 239.049C325.185 239.811 328.986 237.843 329.893 234.657C332.237 226.402 328.531 218.335 319.987 213.076C310.496 207.232 297.563 206.346 288.527 210.926C283.247 213.602 274.801 220.442 277.529 236.188C280.227 251.757 293.227 264.228 315.125 272.255C330.847 278.019 345.68 279.495 346.304 279.553C346.578 279.581 346.849 279.593 347.12 279.593Z" fill="url(#paint6_linear_86_3128)"/>
<path d="M399.881 279.593C396.347 279.593 393.299 277.361 392.893 274.334C392.447 271.08 395.224 268.14 399.087 267.768C399.825 267.694 450.698 262.321 455.523 234.478C456.335 229.785 456.243 223.649 451.199 221.091C447.032 218.975 440.207 219.648 435.332 222.653C432.561 224.36 429.523 227.349 430.814 231.904C431.719 235.09 429.381 238.289 425.598 239.049C421.815 239.811 418.011 237.843 417.107 234.657C414.766 226.402 418.466 218.335 427.01 213.076C436.504 207.232 449.44 206.346 458.47 210.926C463.75 213.602 472.199 220.442 469.471 236.188C466.771 251.757 453.773 264.228 431.876 272.255C416.15 278.019 401.317 279.495 400.693 279.553C400.419 279.581 400.148 279.593 399.881 279.593Z" fill="url(#paint7_linear_86_3128)"/>
</g>
<path d="M55.728 186.24C56.752 186.544 57.536 187.04 58.08 187.728C58.624 188.416 58.896 189.264 58.896 190.272C58.896 191.76 58.328 192.92 57.192 193.752C56.072 194.584 54.464 195 52.368 195H44.088V178.2H51.912C53.864 178.2 55.384 178.576 56.472 179.328C57.56 180.08 58.104 181.152 58.104 182.544C58.104 183.376 57.896 184.112 57.48 184.752C57.064 185.376 56.48 185.872 55.728 186.24ZM47.952 185.16H51.576C52.424 185.16 53.064 184.992 53.496 184.656C53.928 184.304 54.144 183.792 54.144 183.12C54.144 182.464 53.92 181.96 53.472 181.608C53.04 181.256 52.408 181.08 51.576 181.08H47.952V185.16ZM52.224 192.12C54.048 192.12 54.96 191.4 54.96 189.96C54.96 188.568 54.048 187.872 52.224 187.872H47.952V192.12H52.224ZM68.2348 186.216C69.9148 186.232 71.1868 186.608 72.0508 187.344C72.9148 188.08 73.3468 189.136 73.3468 190.512C73.3468 191.952 72.8588 193.064 71.8828 193.848C70.9068 194.632 69.5228 195.024 67.7308 195.024L61.4428 195V182.088H65.1628V186.216H68.2348ZM74.7388 182.088H78.4588V195H74.7388V182.088ZM67.3948 192.36C68.1148 192.376 68.6668 192.224 69.0508 191.904C69.4348 191.584 69.6268 191.104 69.6268 190.464C69.6268 189.84 69.4348 189.384 69.0508 189.096C68.6828 188.808 68.1308 188.656 67.3948 188.64L65.1628 188.616V192.36H67.3948ZM94.5287 195.192C93.1527 195.192 91.9127 194.912 90.8087 194.352C89.7207 193.776 88.8647 192.984 88.2407 191.976C87.6327 190.968 87.3287 189.824 87.3287 188.544C87.3287 187.264 87.6327 186.12 88.2407 185.112C88.8647 184.104 89.7207 183.32 90.8087 182.76C91.9127 182.184 93.1527 181.896 94.5287 181.896C95.8887 181.896 97.0727 182.184 98.0807 182.76C99.1047 183.32 99.8487 184.128 100.313 185.184L97.4087 186.744C96.7367 185.56 95.7687 184.968 94.5047 184.968C93.5287 184.968 92.7207 185.288 92.0807 185.928C91.4407 186.568 91.1207 187.44 91.1207 188.544C91.1207 189.648 91.4407 190.52 92.0807 191.16C92.7207 191.8 93.5287 192.12 94.5047 192.12C95.7847 192.12 96.7527 191.528 97.4087 190.344L100.313 191.928C99.8487 192.952 99.1047 193.752 98.0807 194.328C97.0727 194.904 95.8887 195.192 94.5287 195.192ZM113.149 185.16H108.781V195H105.061V185.16H100.693V182.088H113.149V185.16ZM119.921 181.896C121.921 181.896 123.457 182.376 124.529 183.336C125.601 184.28 126.137 185.712 126.137 187.632V195H122.633V193.392C121.929 194.592 120.617 195.192 118.697 195.192C117.705 195.192 116.841 195.024 116.105 194.688C115.385 194.352 114.833 193.888 114.449 193.296C114.065 192.704 113.873 192.032 113.873 191.28C113.873 190.08 114.321 189.136 115.217 188.448C116.129 187.76 117.529 187.416 119.417 187.416H122.393C122.393 186.6 122.145 185.976 121.649 185.544C121.153 185.096 120.409 184.872 119.417 184.872C118.729 184.872 118.049 184.984 117.377 185.208C116.721 185.416 116.161 185.704 115.697 186.072L114.353 183.456C115.057 182.96 115.897 182.576 116.873 182.304C117.865 182.032 118.881 181.896 119.921 181.896ZM119.633 192.672C120.273 192.672 120.841 192.528 121.337 192.24C121.833 191.936 122.185 191.496 122.393 190.92V189.6H119.825C118.289 189.6 117.521 190.104 117.521 191.112C117.521 191.592 117.705 191.976 118.073 192.264C118.457 192.536 118.977 192.672 119.633 192.672ZM129.149 182.088H132.869V187.128H138.485V182.088H142.229V195H138.485V190.176H132.869V195H129.149V182.088ZM151.621 195.192C150.261 195.192 149.037 194.912 147.949 194.352C146.877 193.776 146.037 192.984 145.429 191.976C144.821 190.968 144.517 189.824 144.517 188.544C144.517 187.264 144.821 186.12 145.429 185.112C146.037 184.104 146.877 183.32 147.949 182.76C149.037 182.184 150.261 181.896 151.621 181.896C152.981 181.896 154.197 182.184 155.269 182.76C156.341 183.32 157.181 184.104 157.789 185.112C158.397 186.12 158.701 187.264 158.701 188.544C158.701 189.824 158.397 190.968 157.789 191.976C157.181 192.984 156.341 193.776 155.269 194.352C154.197 194.912 152.981 195.192 151.621 195.192ZM151.621 192.12C152.581 192.12 153.365 191.8 153.973 191.16C154.597 190.504 154.909 189.632 154.909 188.544C154.909 187.456 154.597 186.592 153.973 185.952C153.365 185.296 152.581 184.968 151.621 184.968C150.661 184.968 149.869 185.296 149.245 185.952C148.621 186.592 148.309 187.456 148.309 188.544C148.309 189.632 148.621 190.504 149.245 191.16C149.869 191.8 150.661 192.12 151.621 192.12ZM170.9 188.256C172.42 188.768 173.18 189.792 173.18 191.328C173.18 192.496 172.74 193.4 171.86 194.04C170.98 194.68 169.668 195 167.924 195H161.036V182.088H167.636C169.252 182.088 170.516 182.384 171.428 182.976C172.34 183.552 172.796 184.368 172.796 185.424C172.796 186.064 172.628 186.632 172.292 187.128C171.972 187.608 171.508 187.984 170.9 188.256ZM164.468 187.392H167.3C168.612 187.392 169.268 186.928 169.268 186C169.268 185.088 168.612 184.632 167.3 184.632H164.468V187.392ZM167.612 192.456C168.988 192.456 169.676 191.984 169.676 191.04C169.676 190.544 169.516 190.184 169.196 189.96C168.876 189.72 168.372 189.6 167.684 189.6H164.468V192.456H167.612ZM175.726 182.088H179.446V189.768L185.734 182.088H189.166V195H185.446V187.32L179.182 195H175.726V182.088ZM203.373 185.16H199.005V195H195.285V185.16H190.917V182.088H203.373V185.16ZM217.142 188.592C217.142 188.64 217.118 188.976 217.07 189.6H207.302C207.478 190.4 207.894 191.032 208.55 191.496C209.206 191.96 210.022 192.192 210.998 192.192C211.67 192.192 212.262 192.096 212.774 191.904C213.302 191.696 213.79 191.376 214.238 190.944L216.23 193.104C215.014 194.496 213.238 195.192 210.902 195.192C209.446 195.192 208.158 194.912 207.038 194.352C205.918 193.776 205.054 192.984 204.446 191.976C203.838 190.968 203.534 189.824 203.534 188.544C203.534 187.28 203.83 186.144 204.422 185.136C205.03 184.112 205.854 183.32 206.894 182.76C207.95 182.184 209.126 181.896 210.422 181.896C211.686 181.896 212.83 182.168 213.854 182.712C214.878 183.256 215.678 184.04 216.254 185.064C216.846 186.072 217.142 187.248 217.142 188.592ZM210.446 184.728C209.598 184.728 208.886 184.968 208.31 185.448C207.734 185.928 207.382 186.584 207.254 187.416H213.614C213.486 186.6 213.134 185.952 212.558 185.472C211.982 184.976 211.278 184.728 210.446 184.728ZM225.916 195.192C224.54 195.192 223.3 194.912 222.196 194.352C221.108 193.776 220.252 192.984 219.628 191.976C219.02 190.968 218.716 189.824 218.716 188.544C218.716 187.264 219.02 186.12 219.628 185.112C220.252 184.104 221.108 183.32 222.196 182.76C223.3 182.184 224.54 181.896 225.916 181.896C227.276 181.896 228.46 182.184 229.468 182.76C230.492 183.32 231.236 184.128 231.7 185.184L228.796 186.744C228.124 185.56 227.156 184.968 225.892 184.968C224.916 184.968 224.108 185.288 223.468 185.928C222.828 186.568 222.508 187.44 222.508 188.544C222.508 189.648 222.828 190.52 223.468 191.16C224.108 191.8 224.916 192.12 225.892 192.12C227.172 192.12 228.14 191.528 228.796 190.344L231.7 191.928C231.236 192.952 230.492 193.752 229.468 194.328C228.46 194.904 227.276 195.192 225.916 195.192ZM240.719 186.216C242.399 186.232 243.687 186.616 244.583 187.368C245.479 188.104 245.927 189.152 245.927 190.512C245.927 191.936 245.423 193.048 244.415 193.848C243.423 194.632 242.023 195.024 240.215 195.024L233.735 195V182.088H237.455V186.216H240.719ZM239.879 192.36C240.599 192.376 241.151 192.224 241.535 191.904C241.919 191.584 242.111 191.104 242.111 190.464C242.111 189.84 241.919 189.384 241.535 189.096C241.167 188.808 240.615 188.656 239.879 188.64L237.455 188.616V192.36H239.879ZM49.944 230.192C48.568 230.192 47.328 229.912 46.224 229.352C45.136 228.776 44.28 227.984 43.656 226.976C43.048 225.968 42.744 224.824 42.744 223.544C42.744 222.264 43.048 221.12 43.656 220.112C44.28 219.104 45.136 218.32 46.224 217.76C47.328 217.184 48.568 216.896 49.944 216.896C51.304 216.896 52.488 217.184 53.496 217.76C54.52 218.32 55.264 219.128 55.728 220.184L52.824 221.744C52.152 220.56 51.184 219.968 49.92 219.968C48.944 219.968 48.136 220.288 47.496 220.928C46.856 221.568 46.536 222.44 46.536 223.544C46.536 224.648 46.856 225.52 47.496 226.16C48.136 226.8 48.944 227.12 49.92 227.12C51.2 227.12 52.168 226.528 52.824 225.344L55.728 226.928C55.264 227.952 54.52 228.752 53.496 229.328C52.488 229.904 51.304 230.192 49.944 230.192ZM70.6031 217.088V230H66.8591V220.16H61.4831V230H57.7631V217.088H70.6031ZM86.5048 223.592C86.5048 223.64 86.4808 223.976 86.4328 224.6H76.6648C76.8408 225.4 77.2568 226.032 77.9128 226.496C78.5688 226.96 79.3848 227.192 80.3608 227.192C81.0328 227.192 81.6248 227.096 82.1368 226.904C82.6648 226.696 83.1528 226.376 83.6008 225.944L85.5928 228.104C84.3768 229.496 82.6008 230.192 80.2648 230.192C78.8088 230.192 77.5208 229.912 76.4008 229.352C75.2808 228.776 74.4168 227.984 73.8088 226.976C73.2008 225.968 72.8968 224.824 72.8968 223.544C72.8968 222.28 73.1928 221.144 73.7848 220.136C74.3928 219.112 75.2168 218.32 76.2568 217.76C77.3128 217.184 78.4888 216.896 79.7848 216.896C81.0488 216.896 82.1928 217.168 83.2168 217.712C84.2408 218.256 85.0408 219.04 85.6168 220.064C86.2088 221.072 86.5048 222.248 86.5048 223.592ZM79.8088 219.728C78.9608 219.728 78.2488 219.968 77.6728 220.448C77.0968 220.928 76.7448 221.584 76.6168 222.416H82.9768C82.8488 221.6 82.4968 220.952 81.9208 220.472C81.3448 219.976 80.6408 219.728 79.8088 219.728ZM103.679 226.928V232.832H100.199V230H89.1347V217.088H92.8547V226.928H98.0627V217.088H101.807V226.928H103.679ZM105.793 217.088H109.513V224.768L115.801 217.088H119.233V230H115.513V222.32L109.249 230H105.793V217.088ZM127.608 216.896C129.608 216.896 131.144 217.376 132.216 218.336C133.288 219.28 133.824 220.712 133.824 222.632V230H130.32V228.392C129.616 229.592 128.304 230.192 126.384 230.192C125.392 230.192 124.528 230.024 123.792 229.688C123.072 229.352 122.52 228.888 122.136 228.296C121.752 227.704 121.56 227.032 121.56 226.28C121.56 225.08 122.008 224.136 122.904 223.448C123.816 222.76 125.216 222.416 127.104 222.416H130.08C130.08 221.6 129.832 220.976 129.336 220.544C128.84 220.096 128.096 219.872 127.104 219.872C126.416 219.872 125.736 219.984 125.064 220.208C124.408 220.416 123.848 220.704 123.384 221.072L122.04 218.456C122.744 217.96 123.584 217.576 124.56 217.304C125.552 217.032 126.568 216.896 127.608 216.896ZM127.32 227.672C127.96 227.672 128.528 227.528 129.024 227.24C129.52 226.936 129.872 226.496 130.08 225.92V224.6H127.512C125.976 224.6 125.208 225.104 125.208 226.112C125.208 226.592 125.392 226.976 125.76 227.264C126.144 227.536 126.664 227.672 127.32 227.672ZM149.221 217.088V230H145.477V220.16H141.397L141.277 222.44C141.213 224.136 141.053 225.544 140.797 226.664C140.541 227.784 140.125 228.664 139.549 229.304C138.973 229.944 138.173 230.264 137.149 230.264C136.605 230.264 135.957 230.168 135.205 229.976L135.397 226.904C135.653 226.936 135.837 226.952 135.949 226.952C136.509 226.952 136.925 226.752 137.197 226.352C137.485 225.936 137.677 225.416 137.773 224.792C137.869 224.152 137.941 223.312 137.989 222.272L138.181 217.088H149.221ZM152.581 217.088H156.301V224.768L162.589 217.088H166.021V230H162.301V222.32L156.037 230H152.581V217.088ZM175.524 230.192C174.148 230.192 172.908 229.912 171.804 229.352C170.716 228.776 169.86 227.984 169.236 226.976C168.628 225.968 168.324 224.824 168.324 223.544C168.324 222.264 168.628 221.12 169.236 220.112C169.86 219.104 170.716 218.32 171.804 217.76C172.908 217.184 174.148 216.896 175.524 216.896C176.884 216.896 178.068 217.184 179.076 217.76C180.1 218.32 180.844 219.128 181.308 220.184L178.404 221.744C177.732 220.56 176.764 219.968 175.5 219.968C174.524 219.968 173.716 220.288 173.076 220.928C172.436 221.568 172.116 222.44 172.116 223.544C172.116 224.648 172.436 225.52 173.076 226.16C173.716 226.8 174.524 227.12 175.5 227.12C176.78 227.12 177.748 226.528 178.404 225.344L181.308 226.928C180.844 227.952 180.1 228.752 179.076 229.328C178.068 229.904 176.884 230.192 175.524 230.192ZM194.144 220.16H189.776V230H186.056V220.16H181.688V217.088H194.144V220.16ZM201.409 230.192C200.049 230.192 198.825 229.912 197.737 229.352C196.665 228.776 195.825 227.984 195.217 226.976C194.609 225.968 194.305 224.824 194.305 223.544C194.305 222.264 194.609 221.12 195.217 220.112C195.825 219.104 196.665 218.32 197.737 217.76C198.825 217.184 200.049 216.896 201.409 216.896C202.769 216.896 203.985 217.184 205.057 217.76C206.129 218.32 206.969 219.104 207.577 220.112C208.185 221.12 208.489 222.264 208.489 223.544C208.489 224.824 208.185 225.968 207.577 226.976C206.969 227.984 206.129 228.776 205.057 229.352C203.985 229.912 202.769 230.192 201.409 230.192ZM201.409 227.12C202.369 227.12 203.153 226.8 203.761 226.16C204.385 225.504 204.697 224.632 204.697 223.544C204.697 222.456 204.385 221.592 203.761 220.952C203.153 220.296 202.369 219.968 201.409 219.968C200.449 219.968 199.657 220.296 199.033 220.952C198.409 221.592 198.097 222.456 198.097 223.544C198.097 224.632 198.409 225.504 199.033 226.16C199.657 226.8 200.449 227.12 201.409 227.12ZM223.424 230V222.272L219.56 228.752H217.976L214.208 222.248V230H210.824V217.088H214.736L218.864 224.552L223.256 217.088H226.76L226.808 230H223.424ZM43.8 252.088H47.52V259.768L53.808 252.088H57.24V265H53.52V257.32L47.256 265H43.8V252.088ZM79.9959 252.088V265H76.2519V255.16H70.8759V265H67.1559V252.088H79.9959ZM89.3936 265.192C88.0336 265.192 86.8096 264.912 85.7216 264.352C84.6496 263.776 83.8096 262.984 83.2016 261.976C82.5936 260.968 82.2896 259.824 82.2896 258.544C82.2896 257.264 82.5936 256.12 83.2016 255.112C83.8096 254.104 84.6496 253.32 85.7216 252.76C86.8096 252.184 88.0336 251.896 89.3936 251.896C90.7536 251.896 91.9696 252.184 93.0416 252.76C94.1136 253.32 94.9536 254.104 95.5616 255.112C96.1696 256.12 96.4736 257.264 96.4736 258.544C96.4736 259.824 96.1696 260.968 95.5616 261.976C94.9536 262.984 94.1136 263.776 93.0416 264.352C91.9696 264.912 90.7536 265.192 89.3936 265.192ZM89.3936 262.12C90.3536 262.12 91.1376 261.8 91.7456 261.16C92.3696 260.504 92.6816 259.632 92.6816 258.544C92.6816 257.456 92.3696 256.592 91.7456 255.952C91.1376 255.296 90.3536 254.968 89.3936 254.968C88.4336 254.968 87.6416 255.296 87.0176 255.952C86.3936 256.592 86.0816 257.456 86.0816 258.544C86.0816 259.632 86.3936 260.504 87.0176 261.16C87.6416 261.8 88.4336 262.12 89.3936 262.12ZM111.005 252.088V265H107.261V255.16H103.181L103.061 257.44C102.997 259.136 102.837 260.544 102.581 261.664C102.325 262.784 101.909 263.664 101.333 264.304C100.757 264.944 99.9573 265.264 98.9333 265.264C98.3893 265.264 97.7413 265.168 96.9893 264.976L97.1813 261.904C97.4373 261.936 97.6213 261.952 97.7333 261.952C98.2933 261.952 98.7093 261.752 98.9813 261.352C99.2693 260.936 99.4613 260.416 99.5573 259.792C99.6533 259.152 99.7253 258.312 99.7733 257.272L99.9653 252.088H111.005ZM127.302 252.088L121.47 265.792C120.878 267.28 120.142 268.328 119.262 268.936C118.398 269.544 117.35 269.848 116.118 269.848C115.446 269.848 114.782 269.744 114.126 269.536C113.47 269.328 112.934 269.04 112.518 268.672L113.886 266.008C114.174 266.264 114.502 266.464 114.87 266.608C115.254 266.752 115.63 266.824 115.998 266.824C116.51 266.824 116.926 266.696 117.246 266.44C117.566 266.2 117.854 265.792 118.11 265.216L118.158 265.096L112.566 252.088H116.43L120.054 260.848L123.702 252.088H127.302ZM140.484 252.088V265H136.74V260.2C135.652 260.744 134.452 261.016 133.14 261.016C131.396 261.016 130.076 260.624 129.18 259.84C128.3 259.04 127.86 257.808 127.86 256.144V252.088H131.604V255.904C131.604 256.688 131.804 257.256 132.204 257.608C132.62 257.96 133.212 258.136 133.98 258.136C134.956 258.136 135.876 257.928 136.74 257.512V252.088H140.484ZM148.855 251.896C150.855 251.896 152.391 252.376 153.463 253.336C154.535 254.28 155.071 255.712 155.071 257.632V265H151.567V263.392C150.863 264.592 149.551 265.192 147.631 265.192C146.639 265.192 145.775 265.024 145.039 264.688C144.319 264.352 143.767 263.888 143.383 263.296C142.999 262.704 142.807 262.032 142.807 261.28C142.807 260.08 143.255 259.136 144.151 258.448C145.063 257.76 146.463 257.416 148.351 257.416H151.327C151.327 256.6 151.079 255.976 150.583 255.544C150.087 255.096 149.343 254.872 148.351 254.872C147.663 254.872 146.983 254.984 146.311 255.208C145.655 255.416 145.095 255.704 144.631 256.072L143.287 253.456C143.991 252.96 144.831 252.576 145.807 252.304C146.799 252.032 147.815 251.896 148.855 251.896ZM148.567 262.672C149.207 262.672 149.775 262.528 150.271 262.24C150.767 261.936 151.119 261.496 151.327 260.92V259.6H148.759C147.223 259.6 146.455 260.104 146.455 261.112C146.455 261.592 146.639 261.976 147.007 262.264C147.391 262.536 147.911 262.672 148.567 262.672ZM170.635 258.592C170.635 258.64 170.611 258.976 170.563 259.6H160.795C160.971 260.4 161.387 261.032 162.043 261.496C162.699 261.96 163.515 262.192 164.491 262.192C165.163 262.192 165.755 262.096 166.267 261.904C166.795 261.696 167.283 261.376 167.731 260.944L169.723 263.104C168.507 264.496 166.731 265.192 164.395 265.192C162.939 265.192 161.651 264.912 160.531 264.352C159.411 263.776 158.547 262.984 157.939 261.976C157.331 260.968 157.027 259.824 157.027 258.544C157.027 257.28 157.323 256.144 157.915 255.136C158.523 254.112 159.347 253.32 160.387 252.76C161.443 252.184 162.619 251.896 163.915 251.896C165.179 251.896 166.323 252.168 167.347 252.712C168.371 253.256 169.171 254.04 169.747 255.064C170.339 256.072 170.635 257.248 170.635 258.592ZM163.939 254.728C163.091 254.728 162.379 254.968 161.803 255.448C161.227 255.928 160.875 256.584 160.747 257.416H167.107C166.979 256.6 166.627 255.952 166.051 255.472C165.475 254.976 164.771 254.728 163.939 254.728ZM183.668 255.16H179.3V265H175.58V255.16H171.212V252.088H183.668V255.16ZM197.436 258.592C197.436 258.64 197.412 258.976 197.364 259.6H187.596C187.772 260.4 188.188 261.032 188.844 261.496C189.5 261.96 190.316 262.192 191.292 262.192C191.964 262.192 192.556 262.096 193.068 261.904C193.596 261.696 194.084 261.376 194.532 260.944L196.524 263.104C195.308 264.496 193.532 265.192 191.196 265.192C189.74 265.192 188.452 264.912 187.332 264.352C186.212 263.776 185.348 262.984 184.74 261.976C184.132 260.968 183.828 259.824 183.828 258.544C183.828 257.28 184.124 256.144 184.716 255.136C185.324 254.112 186.148 253.32 187.188 252.76C188.244 252.184 189.42 251.896 190.716 251.896C191.98 251.896 193.124 252.168 194.148 252.712C195.172 253.256 195.972 254.04 196.548 255.064C197.14 256.072 197.436 257.248 197.436 258.592ZM190.74 254.728C189.892 254.728 189.18 254.968 188.604 255.448C188.028 255.928 187.676 256.584 187.548 257.416H193.908C193.78 256.6 193.428 255.952 192.852 255.472C192.276 254.976 191.572 254.728 190.74 254.728ZM49.848 300.192C48.488 300.192 47.264 299.912 46.176 299.352C45.104 298.776 44.264 297.984 43.656 296.976C43.048 295.968 42.744 294.824 42.744 293.544C42.744 292.264 43.048 291.12 43.656 290.112C44.264 289.104 45.104 288.32 46.176 287.76C47.264 287.184 48.488 286.896 49.848 286.896C51.208 286.896 52.424 287.184 53.496 287.76C54.568 288.32 55.408 289.104 56.016 290.112C56.624 291.12 56.928 292.264 56.928 293.544C56.928 294.824 56.624 295.968 56.016 296.976C55.408 297.984 54.568 298.776 53.496 299.352C52.424 299.912 51.208 300.192 49.848 300.192ZM49.848 297.12C50.808 297.12 51.592 296.8 52.2 296.16C52.824 295.504 53.136 294.632 53.136 293.544C53.136 292.456 52.824 291.592 52.2 290.952C51.592 290.296 50.808 289.968 49.848 289.968C48.888 289.968 48.096 290.296 47.472 290.952C46.848 291.592 46.536 292.456 46.536 293.544C46.536 294.632 46.848 295.504 47.472 296.16C48.096 296.8 48.888 297.12 49.848 297.12ZM69.6424 290.16H65.2744V300H61.5544V290.16H57.1864V287.088H69.6424V290.16ZM77.955 287.088H81.675V292.128H87.291V287.088H91.035V300H87.291V295.176H81.675V300H77.955V287.088ZM99.3951 286.896C101.395 286.896 102.931 287.376 104.003 288.336C105.075 289.28 105.611 290.712 105.611 292.632V300H102.107V298.392C101.403 299.592 100.091 300.192 98.1711 300.192C97.1791 300.192 96.3151 300.024 95.5791 299.688C94.8591 299.352 94.3071 298.888 93.9231 298.296C93.5391 297.704 93.3471 297.032 93.3471 296.28C93.3471 295.08 93.7951 294.136 94.6911 293.448C95.6031 292.76 97.0031 292.416 98.8911 292.416H101.867C101.867 291.6 101.619 290.976 101.123 290.544C100.627 290.096 99.8831 289.872 98.8911 289.872C98.2031 289.872 97.5231 289.984 96.8511 290.208C96.1951 290.416 95.6351 290.704 95.1711 291.072L93.8271 288.456C94.5311 287.96 95.3711 287.576 96.3471 287.304C97.3391 287.032 98.3551 286.896 99.3951 286.896ZM99.1071 297.672C99.7471 297.672 100.315 297.528 100.811 297.24C101.307 296.936 101.659 296.496 101.867 295.92V294.6H99.2991C97.7631 294.6 96.9951 295.104 96.9951 296.112C96.9951 296.592 97.1791 296.976 97.5471 297.264C97.9311 297.536 98.4511 297.672 99.1071 297.672ZM114.767 300.192C113.391 300.192 112.151 299.912 111.047 299.352C109.959 298.776 109.103 297.984 108.479 296.976C107.871 295.968 107.567 294.824 107.567 293.544C107.567 292.264 107.871 291.12 108.479 290.112C109.103 289.104 109.959 288.32 111.047 287.76C112.151 287.184 113.391 286.896 114.767 286.896C116.127 286.896 117.311 287.184 118.319 287.76C119.343 288.32 120.087 289.128 120.551 290.184L117.647 291.744C116.975 290.56 116.007 289.968 114.743 289.968C113.767 289.968 112.959 290.288 112.319 290.928C111.679 291.568 111.359 292.44 111.359 293.544C111.359 294.648 111.679 295.52 112.319 296.16C112.959 296.8 113.767 297.12 114.743 297.12C116.023 297.12 116.991 296.528 117.647 295.344L120.551 296.928C120.087 297.952 119.343 298.752 118.319 299.328C117.311 299.904 116.127 300.192 114.767 300.192ZM135.287 300.192C133.911 300.192 132.671 299.912 131.567 299.352C130.479 298.776 129.623 297.984 128.999 296.976C128.391 295.968 128.087 294.824 128.087 293.544C128.087 292.264 128.391 291.12 128.999 290.112C129.623 289.104 130.479 288.32 131.567 287.76C132.671 287.184 133.911 286.896 135.287 286.896C136.647 286.896 137.831 287.184 138.839 287.76C139.863 288.32 140.607 289.128 141.071 290.184L138.167 291.744C137.495 290.56 136.527 289.968 135.263 289.968C134.287 289.968 133.479 290.288 132.839 290.928C132.199 291.568 131.879 292.44 131.879 293.544C131.879 294.648 132.199 295.52 132.839 296.16C133.479 296.8 134.287 297.12 135.263 297.12C136.543 297.12 137.511 296.528 138.167 295.344L141.071 296.928C140.607 297.952 139.863 298.752 138.839 299.328C137.831 299.904 136.647 300.192 135.287 300.192ZM155.495 293.592C155.495 293.64 155.471 293.976 155.423 294.6H145.655C145.831 295.4 146.247 296.032 146.903 296.496C147.559 296.96 148.375 297.192 149.351 297.192C150.023 297.192 150.615 297.096 151.127 296.904C151.655 296.696 152.143 296.376 152.591 295.944L154.583 298.104C153.367 299.496 151.591 300.192 149.255 300.192C147.799 300.192 146.511 299.912 145.391 299.352C144.271 298.776 143.407 297.984 142.799 296.976C142.191 295.968 141.887 294.824 141.887 293.544C141.887 292.28 142.183 291.144 142.775 290.136C143.383 289.112 144.207 288.32 145.247 287.76C146.303 287.184 147.479 286.896 148.775 286.896C150.039 286.896 151.183 287.168 152.207 287.712C153.231 288.256 154.031 289.04 154.607 290.064C155.199 291.072 155.495 292.248 155.495 293.592ZM148.799 289.728C147.951 289.728 147.239 289.968 146.663 290.448C146.087 290.928 145.735 291.584 145.607 292.416H151.967C151.839 291.6 151.487 290.952 150.911 290.472C150.335 289.976 149.631 289.728 148.799 289.728ZM165.732 286.896C166.932 286.896 168.02 287.176 168.996 287.736C169.988 288.28 170.764 289.056 171.324 290.064C171.884 291.056 172.164 292.216 172.164 293.544C172.164 294.872 171.884 296.04 171.324 297.048C170.764 298.04 169.988 298.816 168.996 299.376C168.02 299.92 166.932 300.192 165.732 300.192C164.084 300.192 162.788 299.672 161.844 298.632V304.656H158.1V287.088H161.676V288.576C162.604 287.456 163.956 286.896 165.732 286.896ZM165.084 297.12C166.044 297.12 166.828 296.8 167.436 296.16C168.06 295.504 168.372 294.632 168.372 293.544C168.372 292.456 168.06 291.592 167.436 290.952C166.828 290.296 166.044 289.968 165.084 289.968C164.124 289.968 163.332 290.296 162.708 290.952C162.1 291.592 161.796 292.456 161.796 293.544C161.796 294.632 162.1 295.504 162.708 296.16C163.332 296.8 164.124 297.12 165.084 297.12ZM184.928 290.16H180.56V300H176.84V290.16H172.472V287.088H184.928V290.16ZM186.683 287.088H190.403V294.768L196.691 287.088H200.123V300H196.403V292.32L190.139 300H186.683V287.088ZM221.314 293.496C221.314 295.496 220.642 297.08 219.298 298.248C217.97 299.4 216.066 300.064 213.586 300.24V304.656H210.154V300.24C207.674 300.064 205.762 299.408 204.418 298.272C203.09 297.12 202.426 295.528 202.426 293.496C202.426 291.496 203.082 289.944 204.394 288.84C205.722 287.736 207.642 287.096 210.154 286.92V282.192H213.586V286.92C216.066 287.096 217.97 287.744 219.298 288.864C220.642 289.984 221.314 291.528 221.314 293.496ZM206.05 293.496C206.05 294.648 206.378 295.536 207.034 296.16C207.69 296.784 208.73 297.176 210.154 297.336V289.824C208.73 289.968 207.69 290.344 207.034 290.952C206.378 291.544 206.05 292.392 206.05 293.496ZM213.586 297.336C215.01 297.176 216.05 296.784 216.706 296.16C217.378 295.536 217.714 294.648 217.714 293.496C217.714 292.392 217.378 291.544 216.706 290.952C216.05 290.344 215.01 289.968 213.586 289.824V297.336ZM223.61 287.088H227.33V294.768L233.618 287.088H237.05V300H233.33V292.32L227.066 300H223.61V287.088ZM246.097 295.104H244.153V300H240.409V287.088H244.153V292.104H246.169L249.673 287.088H253.657L249.145 293.28L253.969 300H249.553L246.097 295.104ZM260.349 286.896C262.349 286.896 263.885 287.376 264.957 288.336C266.029 289.28 266.565 290.712 266.565 292.632V300H263.061V298.392C262.357 299.592 261.045 300.192 259.125 300.192C258.133 300.192 257.269 300.024 256.533 299.688C255.813 299.352 255.261 298.888 254.877 298.296C254.493 297.704 254.301 297.032 254.301 296.28C254.301 295.08 254.749 294.136 255.645 293.448C256.557 292.76 257.957 292.416 259.845 292.416H262.821C262.821 291.6 262.573 290.976 262.077 290.544C261.581 290.096 260.837 289.872 259.845 289.872C259.157 289.872 258.477 289.984 257.805 290.208C257.149 290.416 256.589 290.704 256.125 291.072L254.781 288.456C255.485 287.96 256.325 287.576 257.301 287.304C258.293 287.032 259.309 286.896 260.349 286.896ZM260.061 297.672C260.701 297.672 261.269 297.528 261.765 297.24C262.261 296.936 262.613 296.496 262.821 295.92V294.6H260.253C258.717 294.6 257.949 295.104 257.949 296.112C257.949 296.592 258.133 296.976 258.501 297.264C258.885 297.536 259.405 297.672 260.061 297.672ZM280.425 290.16H276.057V300H272.337V290.16H267.969V287.088H280.425V290.16ZM281.629 283.2H286.093L285.349 294.168H282.373L281.629 283.2ZM283.861 300.192C283.205 300.192 282.653 299.984 282.205 299.568C281.773 299.136 281.557 298.616 281.557 298.008C281.557 297.4 281.773 296.896 282.205 296.496C282.637 296.08 283.189 295.872 283.861 295.872C284.533 295.872 285.085 296.08 285.517 296.496C285.949 296.896 286.165 297.4 286.165 298.008C286.165 298.616 285.941 299.136 285.493 299.568C285.061 299.984 284.517 300.192 283.861 300.192Z" fill="white"/>
<defs>
<linearGradient id="paint0_linear_86_3128" x1="453" y1="348" x2="9.50003" y2="-9.66981e-06" gradientUnits="userSpaceOnUse">
<stop stop-color="#FEB447"/>
<stop offset="1" stop-color="#FE840E"/>
</linearGradient>
<linearGradient id="paint1_linear_86_3128" x1="351.436" y1="257.358" x2="515.887" y2="468.089" gradientUnits="userSpaceOnUse">
<stop stop-color="#FEB447"/>
<stop offset="1" stop-color="#FE840E"/>
</linearGradient>
<linearGradient id="paint2_linear_86_3128" x1="318.353" y1="106.281" x2="435.246" y2="318.01" gradientUnits="userSpaceOnUse">
<stop stop-color="#FEB447"/>
<stop offset="1" stop-color="#FE840E"/>
</linearGradient>
<linearGradient id="paint3_linear_86_3128" x1="373.219" y1="328.708" x2="378.463" y2="414.595" gradientUnits="userSpaceOnUse">
<stop stop-color="#FEB447"/>
<stop offset="1" stop-color="#FE840E"/>
</linearGradient>
<linearGradient id="paint4_linear_86_3128" x1="334.805" y1="294.272" x2="392.728" y2="352.196" gradientUnits="userSpaceOnUse">
<stop stop-color="#FEB447"/>
<stop offset="1" stop-color="#FE840E"/>
</linearGradient>
<linearGradient id="paint5_linear_86_3128" x1="297.401" y1="69.3383" x2="466.123" y2="194.404" gradientUnits="userSpaceOnUse">
<stop stop-color="#FEB447"/>
<stop offset="1" stop-color="#FE840E"/>
</linearGradient>
<linearGradient id="paint6_linear_86_3128" x1="277.169" y1="199.836" x2="420.812" y2="379.575" gradientUnits="userSpaceOnUse">
<stop stop-color="#FEB447"/>
<stop offset="1" stop-color="#FE840E"/>
</linearGradient>
<linearGradient id="paint7_linear_86_3128" x1="393.015" y1="199.836" x2="536.659" y2="379.571" gradientUnits="userSpaceOnUse">
<stop stop-color="#FEB447"/>
<stop offset="1" stop-color="#FE840E"/>
</linearGradient>
</defs>
</svg>
